<svg width="20" height="20" viewBox="0 0 20 20" fill="none" xmlns="http://www.w3.org/2000/svg">
<g opacity="0.5">
<path d="M12.5002 3.33325C13.3842 3.33325 14.2321 3.68444 14.8572 4.30956C15.4823 4.93468 15.8335 5.78253 15.8335 6.66658C15.8335 7.55064 15.4823 8.39849 14.8572 9.02361C14.2321 9.64873 13.3842 9.99992 12.5002 9.99992C11.6161 9.99992 10.7683 9.64873 10.1431 9.02361C9.51802 8.39849 9.16683 7.55064 9.16683 6.66658C9.16683 5.78253 9.51802 4.93468 10.1431 4.30956C10.7683 3.68444 11.6161 3.33325 12.5002 3.33325V3.33325ZM12.5002 4.91658C12.036 4.91658 11.5909 5.10096 11.2627 5.42915C10.9345 5.75734 10.7502 6.20246 10.7502 6.66658C10.7502 7.13071 10.9345 7.57583 11.2627 7.90402C11.5909 8.23221 12.036 8.41658 12.5002 8.41658C12.9643 8.41658 13.4094 8.23221 13.7376 7.90402C14.0658 7.57583 14.2502 7.13071 14.2502 6.66658C14.2502 6.20246 14.0658 5.75734 13.7376 5.42915C13.4094 5.10096 12.9643 4.91658 12.5002 4.91658V4.91658ZM12.5002 10.8333C14.7252 10.8333 19.1668 11.9416 19.1668 14.1666V16.6666H5.8335V14.1666C5.8335 11.9416 10.2752 10.8333 12.5002 10.8333ZM12.5002 12.4166C10.0002 12.4166 7.41683 13.6332 7.41683 14.1666V15.0832H17.5835V14.1666C17.5835 13.6332 14.9752 12.4166 12.5002 12.4166V12.4166ZM4.16683 11.0666L2.0835 12.3083L2.65016 9.96658L0.833496 8.39992L3.22516 8.19158L4.16683 5.99158L5.09183 8.19158L7.50016 8.39992L5.66683 9.96658L6.2085 12.3083L4.16683 11.0666Z" fill="currentColor"/>
</g>
</svg>
