<svg width="20" height="20" viewBox="0 0 20 20" fill="none" xmlns="http://www.w3.org/2000/svg">
<g opacity="0.5">
<path d="M15.8333 15.8333H4.16667V6.66659H15.8333V15.8333ZM13.3333 0.833252V2.49992H6.66667V0.833252H5V2.49992H4.16667C3.24167 2.49992 2.5 3.24159 2.5 4.16659V15.8333C2.5 16.2753 2.67559 16.6992 2.98816 17.0118C3.30072 17.3243 3.72464 17.4999 4.16667 17.4999H15.8333C16.2754 17.4999 16.6993 17.3243 17.0118 17.0118C17.3244 16.6992 17.5 16.2753 17.5 15.8333V4.16659C17.5 3.72456 17.3244 3.30063 17.0118 2.98807C16.6993 2.67551 16.2754 2.49992 15.8333 2.49992H15V0.833252" fill="currentColor"/>
</g>
</svg>
