<svg width="20" height="20" viewBox="0 0 20 20" fill="none" xmlns="http://www.w3.org/2000/svg">
<g opacity="0.5">
<path fill-rule="evenodd" clip-rule="evenodd" d="M12.5 12.5V15.8333C12.5 16.2754 12.3244 16.6993 12.0118 17.0118C11.6993 17.3244 11.2754 17.5 10.8333 17.5H4.16667C3.72464 17.5 3.30072 17.3244 2.98816 17.0118C2.67559 16.6993 2.5 16.2754 2.5 15.8333V9.16667C2.5 8.72464 2.67559 8.30072 2.98816 7.98816C3.30072 7.67559 3.72464 7.5 4.16667 7.5H7.5V4.16667C7.5 3.72464 7.67559 3.30072 7.98816 2.98816C8.30072 2.67559 8.72464 2.5 9.16667 2.5H15.8333C16.2754 2.5 16.6993 2.67559 17.0118 2.98816C17.3244 3.30072 17.5 3.72464 17.5 4.16667V10.8333C17.5 11.2754 17.3244 11.6993 17.0118 12.0118C16.6993 12.3244 16.2754 12.5 15.8333 12.5H12.5ZM9.16667 7.5H12.5V10.8333H15.8333V4.16667H9.16667V7.5ZM4.16667 9.16667V15.8333H10.8333V12.5H7.5V9.16667H4.16667Z" fill="currentColor"/>
</g>
</svg>
