<svg width="20" height="20" viewBox="0 0 20 20" fill="none" xmlns="http://www.w3.org/2000/svg">
<g opacity="0.5">
<path d="M9.16699 15.0001H10.8337V13.3334H9.16699V15.0001ZM10.0003 1.66675C8.90598 1.66675 7.82234 1.8823 6.8113 2.30109C5.80025 2.71987 4.88159 3.3337 4.10777 4.10752C2.54497 5.67033 1.66699 7.78994 1.66699 10.0001C1.66699 12.2102 2.54497 14.3298 4.10777 15.8926C4.88159 16.6665 5.80025 17.2803 6.8113 17.6991C7.82234 18.1179 8.90598 18.3334 10.0003 18.3334C12.2105 18.3334 14.3301 17.4554 15.8929 15.8926C17.4557 14.3298 18.3337 12.2102 18.3337 10.0001C18.3337 8.90573 18.1181 7.8221 17.6993 6.81105C17.2805 5.80001 16.6667 4.88135 15.8929 4.10752C15.1191 3.3337 14.2004 2.71987 13.1894 2.30109C12.1783 1.8823 11.0947 1.66675 10.0003 1.66675V1.66675ZM10.0003 16.6667C6.32533 16.6667 3.33366 13.6751 3.33366 10.0001C3.33366 6.32508 6.32533 3.33341 10.0003 3.33341C13.6753 3.33341 16.667 6.32508 16.667 10.0001C16.667 13.6751 13.6753 16.6667 10.0003 16.6667ZM10.0003 5.00008C9.11627 5.00008 8.26842 5.35127 7.6433 5.97639C7.01818 6.60151 6.66699 7.44936 6.66699 8.33342H8.33366C8.33366 7.89139 8.50925 7.46746 8.82181 7.1549C9.13438 6.84234 9.5583 6.66675 10.0003 6.66675C10.4424 6.66675 10.8663 6.84234 11.1788 7.1549C11.4914 7.46746 11.667 7.89139 11.667 8.33342C11.667 10.0001 9.16699 9.79175 9.16699 12.5001H10.8337C10.8337 10.6251 13.3337 10.4167 13.3337 8.33342C13.3337 7.44936 12.9825 6.60151 12.3573 5.97639C11.7322 5.35127 10.8844 5.00008 10.0003 5.00008Z" fill="#69717E"/>
</g>
</svg>
