<svg width="20" height="20" viewBox="0 0 20 20" fill="none" xmlns="http://www.w3.org/2000/svg">
<g opacity="0.5">
<path d="M9.1665 7.50008H10.8332V5.83341H9.1665V7.50008ZM9.99984 16.6667C6.32484 16.6667 3.33317 13.6751 3.33317 10.0001C3.33317 6.32508 6.32484 3.33341 9.99984 3.33341C13.6748 3.33341 16.6665 6.32508 16.6665 10.0001C16.6665 13.6751 13.6748 16.6667 9.99984 16.6667ZM9.99984 1.66675C8.90549 1.66675 7.82186 1.8823 6.81081 2.30109C5.79976 2.71987 4.8811 3.3337 4.10728 4.10752C2.54448 5.67033 1.6665 7.78994 1.6665 10.0001C1.6665 12.2102 2.54448 14.3298 4.10728 15.8926C4.8811 16.6665 5.79976 17.2803 6.81081 17.6991C7.82186 18.1179 8.90549 18.3334 9.99984 18.3334C12.21 18.3334 14.3296 17.4554 15.8924 15.8926C17.4552 14.3298 18.3332 12.2102 18.3332 10.0001C18.3332 8.90573 18.1176 7.8221 17.6988 6.81105C17.28 5.80001 16.6662 4.88135 15.8924 4.10752C15.1186 3.3337 14.1999 2.71987 13.1889 2.30109C12.1778 1.8823 11.0942 1.66675 9.99984 1.66675V1.66675ZM9.1665 14.1667H10.8332V9.16675H9.1665V14.1667Z" fill="currentColor"/>
</g>
</svg>
