<svg width="20" height="20" viewBox="0 0 20 20" fill="none" xmlns="http://www.w3.org/2000/svg">
<g opacity="0.5">
<path d="M16.6665 5.00008C17.1498 5.00008 17.5415 5.16675 17.8498 5.49175C18.1665 5.83341 18.3332 6.20841 18.3332 6.66675V15.8334C18.3332 16.2917 18.1665 16.6667 17.8498 17.0084C17.5415 17.3334 17.1498 17.5001 16.6665 17.5001H3.33317C2.84984 17.5001 2.45817 17.3334 2.14984 17.0084C1.83317 16.6667 1.6665 16.2917 1.6665 15.8334V6.66675C1.6665 6.20841 1.83317 5.83341 2.14984 5.49175C2.45817 5.16675 2.84984 5.00008 3.33317 5.00008H6.6665V3.33341C6.6665 2.85008 6.83317 2.45841 7.14984 2.15008C7.45817 1.83341 7.84984 1.66675 8.33317 1.66675H11.6665C12.1498 1.66675 12.5415 1.83341 12.8498 2.15008C13.1665 2.45841 13.3332 2.85008 13.3332 3.33341V5.00008H16.6665ZM3.33317 6.66675V15.8334H16.6665V6.66675H3.33317ZM11.6665 5.00008V3.33341H8.33317V5.00008H11.6665Z" fill="#69717E"/>
</g>
</svg>
