<svg width="20" height="20" viewBox="0 0 20 20" fill="none" xmlns="http://www.w3.org/2000/svg">
<g opacity="0.5">
<path d="M12.4998 16.6667C12.4998 16.4457 12.412 16.2337 12.2558 16.0774C12.0995 15.9211 11.8875 15.8333 11.6665 15.8333H10.8332V14.1667H14.1665C14.6085 14.1667 15.0325 13.9911 15.345 13.6785C15.6576 13.366 15.8332 12.942 15.8332 12.5V4.16667C15.8332 3.72464 15.6576 3.30072 15.345 2.98816C15.0325 2.67559 14.6085 2.5 14.1665 2.5H5.83317C5.39114 2.5 4.96722 2.67559 4.65466 2.98816C4.3421 3.30072 4.1665 3.72464 4.1665 4.16667V12.5C4.1665 12.942 4.3421 13.366 4.65466 13.6785C4.96722 13.9911 5.39114 14.1667 5.83317 14.1667H9.1665V15.8333H8.33317C8.11216 15.8333 7.9002 15.9211 7.74392 16.0774C7.58764 16.2337 7.49984 16.4457 7.49984 16.6667H1.6665V18.3333H7.49984C7.49984 18.5543 7.58764 18.7663 7.74392 18.9226C7.9002 19.0789 8.11216 19.1667 8.33317 19.1667H11.6665C11.8875 19.1667 12.0995 19.0789 12.2558 18.9226C12.412 18.7663 12.4998 18.5543 12.4998 18.3333H18.3332V16.6667H12.4998ZM5.83317 12.5V4.16667H14.1665V12.5H5.83317Z" fill="currentColor"/>
</g>
</svg>
