<svg width="20" height="20" viewBox="0 0 20 20" fill="none" xmlns="http://www.w3.org/2000/svg">
<g opacity="0.5">
<path d="M14.1665 10.8333C14.1156 10.8323 14.066 10.8493 14.0263 10.8813C13.9867 10.9133 13.9596 10.9583 13.9498 11.0083L13.7915 12.1083C13.5415 12.2166 13.2998 12.3499 13.0832 12.4999L12.0498 12.0833C11.9582 12.0833 11.8498 12.0833 11.7915 12.1916L10.9582 13.6333C10.9082 13.7249 10.9248 13.8333 11.0082 13.8999L11.8915 14.5833C11.8583 14.86 11.8583 15.1398 11.8915 15.4166L11.0082 16.0999C10.9707 16.132 10.9454 16.176 10.9363 16.2245C10.9272 16.2729 10.9349 16.3231 10.9582 16.3666L11.7915 17.8083C11.8415 17.9166 11.9498 17.9166 12.0498 17.9166L13.0832 17.4999C13.2998 17.6499 13.5332 17.7916 13.7915 17.8916L13.9498 18.9916C13.9665 19.0916 14.0498 19.1666 14.1665 19.1666H15.8332C15.9248 19.1666 16.0165 19.0916 16.0332 18.9916L16.1915 17.8916C16.4415 17.7832 16.6665 17.6499 16.8915 17.4999L17.9165 17.9166C18.0248 17.9166 18.1332 17.9166 18.1915 17.8083L19.0248 16.3666C19.0481 16.3231 19.0558 16.2729 19.0467 16.2245C19.0377 16.176 19.0123 16.132 18.9748 16.0999L18.0832 15.4166C18.0998 15.2749 18.1165 15.1416 18.1165 14.9999C18.1165 14.8583 18.1082 14.7249 18.0832 14.5833L18.9665 13.8999C19.004 13.8678 19.0293 13.8239 19.0384 13.7754C19.0475 13.7269 19.0398 13.6768 19.0165 13.6333L18.1832 12.1916C18.1332 12.0833 18.0248 12.0833 17.9165 12.0833L16.8915 12.4999C16.6665 12.3499 16.4415 12.2083 16.1832 12.1083L16.0248 11.0083C16.0196 10.9608 15.9972 10.9168 15.962 10.8846C15.9267 10.8524 15.8809 10.8342 15.8332 10.8333H14.1665ZM14.9998 13.7499C15.6915 13.7499 16.2498 14.3083 16.2498 14.9999C16.2498 15.6916 15.6915 16.2499 14.9998 16.2499C14.2998 16.2499 13.7498 15.6916 13.7498 14.9999C13.7498 14.3083 14.3082 13.7499 14.9998 13.7499ZM8.33317 4.16658H9.99984V5.83325H8.33317V4.16658ZM13.3332 5.83325H11.6665V4.16658H13.3332V5.83325ZM11.6665 7.49992H13.3332V9.16658H11.6665V7.49992ZM8.33317 7.49992H9.99984V9.16658H8.33317V7.49992ZM10.9248 19.1666H1.6665V0.833252H16.6665V9.40825C16.1415 9.25825 15.5832 9.16658 14.9998 9.16658V2.49992H3.33317V17.4999H8.33317V14.5833H9.1915C9.1665 14.7249 9.1665 14.8583 9.1665 14.9999C9.1665 16.6333 9.8415 18.1083 10.9248 19.1666ZM6.6665 12.4999H4.99984V10.8333H6.6665V12.4999ZM6.6665 9.16658H4.99984V7.49992H6.6665V9.16658ZM6.6665 5.83325H4.99984V4.16658H6.6665V5.83325ZM4.99984 14.1666H6.6665V15.8333H4.99984V14.1666ZM8.33317 10.8333H9.99984V12.0083C9.90817 12.1666 9.8165 12.3333 9.73317 12.4999H8.33317V10.8333Z" fill="#69717E"/>
</g>
</svg>
