<svg width="20" height="20" viewBox="0 0 20 20" fill="none" xmlns="http://www.w3.org/2000/svg">
<g opacity="0.5">
<path d="M4.10818 3.2749C3.33315 4.0477 2.71847 4.96602 2.29945 5.9771C1.88043 6.98818 1.66533 8.0721 1.66651 9.16657C1.66651 11.4666 2.59984 13.5499 4.10818 15.0582L5.28318 13.8832C4.66198 13.2654 4.16971 12.5302 3.83496 11.7205C3.50021 10.9108 3.32965 10.0427 3.33318 9.16657C3.33318 7.3249 4.07484 5.6499 5.28318 4.4499L4.10818 3.2749ZM15.8915 3.2749L14.7165 4.4499C15.3371 5.06825 15.8289 5.80346 16.1636 6.61305C16.4983 7.42263 16.6693 8.29053 16.6665 9.16657C16.6665 11.0166 15.9248 12.6832 14.7165 13.8832L15.8915 15.0582C16.6665 14.2854 17.2812 13.3671 17.7002 12.356C18.1192 11.345 18.3344 10.261 18.3332 9.16657C18.3332 6.86657 17.3998 4.78324 15.8915 3.2749V3.2749ZM6.46651 5.63324C6.00134 6.09654 5.63231 6.64719 5.38061 7.25355C5.12891 7.85992 4.99951 8.51004 4.99984 9.16657C4.99984 10.5416 5.55818 11.7916 6.46651 12.6999L7.64151 11.5249C7.33169 11.2154 7.08607 10.8477 6.91875 10.443C6.75143 10.0383 6.66571 9.6045 6.66651 9.16657C6.66651 8.24157 7.04151 7.40824 7.64151 6.80824L6.46651 5.63324ZM13.5332 5.63324L12.3582 6.80824C12.668 7.11775 12.9136 7.48543 13.0809 7.89014C13.2483 8.29485 13.334 8.72863 13.3332 9.16657C13.3332 10.0916 12.9582 10.9249 12.3582 11.5249L13.5332 12.6999C13.9983 12.2366 14.3674 11.6859 14.6191 11.0796C14.8708 10.4732 15.0002 9.8231 14.9998 9.16657C14.9998 7.79157 14.4415 6.54157 13.5332 5.63324V5.63324ZM9.99984 7.4999C9.55781 7.4999 9.13389 7.6755 8.82133 7.98806C8.50877 8.30062 8.33318 8.72454 8.33318 9.16657C8.33318 9.6086 8.50877 10.0325 8.82133 10.3451C9.13389 10.6576 9.55781 10.8332 9.99984 10.8332C10.4419 10.8332 10.8658 10.6576 11.1784 10.3451C11.4909 10.0325 11.6665 9.6086 11.6665 9.16657C11.6665 8.72454 11.4909 8.30062 11.1784 7.98806C10.8658 7.6755 10.4419 7.4999 9.99984 7.4999ZM9.16651 12.4999V15.8332H8.33318C8.11216 15.8332 7.9002 15.921 7.74392 16.0773C7.58764 16.2336 7.49984 16.4456 7.49984 16.6666H1.66651V18.3332H7.49984C7.49984 18.5542 7.58764 18.7662 7.74392 18.9225C7.9002 19.0788 8.11216 19.1666 8.33318 19.1666H11.6665C11.8875 19.1666 12.0995 19.0788 12.2558 18.9225C12.412 18.7662 12.4998 18.5542 12.4998 18.3332H18.3332V16.6666H12.4998C12.4998 16.4456 12.412 16.2336 12.2558 16.0773C12.0995 15.921 11.8875 15.8332 11.6665 15.8332H10.8332V12.4999H9.16651Z" fill="currentColor"/>
</g>
</svg>
