<svg width="20" height="20" viewBox="0 0 20 20" fill="none" xmlns="http://www.w3.org/2000/svg">
<g opacity="0.5">
<path d="M16.4747 14.4025C16.2325 12.9337 14.9278 11.881 13.4415 11.9532C11.9552 12.0255 10.7598 13.2032 10.6641 14.6876C7.66609 14.5939 6.60164 13.8927 6.77547 12.4669C6.83992 11.9337 7.16219 11.6485 7.75398 11.5099C8.11336 11.4259 8.51179 11.4142 8.87312 11.4474C8.90633 11.4513 8.94148 11.4532 8.97469 11.4571C9.19539 11.5099 9.42 11.5548 9.64461 11.5899C10.3106 11.6993 10.9884 11.754 11.6329 11.7189C13.4454 11.6212 14.6798 10.8224 14.7423 9.12705C14.8028 7.48447 13.6739 6.32041 11.8536 5.54111C11.2696 5.29111 10.6505 5.09775 10.0313 4.95127C9.75203 4.88486 9.51765 4.83994 9.34383 4.81064C9.18953 3.32822 7.94734 2.19736 6.45711 2.18564C4.96687 2.17392 3.70515 3.28134 3.52547 4.76181C3.34578 6.24229 4.30672 7.61924 5.75594 7.96299C7.20515 8.30674 8.68367 7.50791 9.18758 6.10557C9.37117 6.13877 9.55281 6.17588 9.73445 6.21885C10.2852 6.34775 10.836 6.51963 11.3438 6.73838C12.7247 7.32822 13.4786 8.10752 13.4434 9.08018C13.4122 9.95127 12.7872 10.3536 11.5645 10.42C11.0274 10.4493 10.4395 10.4024 9.85945 10.3067C9.69734 10.2794 9.5489 10.2521 9.41805 10.2228C9.34187 10.2071 9.28914 10.1935 9.2657 10.1876L9.20515 10.1759C9.16219 10.17 9.08992 10.1603 8.99617 10.1505C8.50789 10.1056 7.97859 10.1212 7.46297 10.2403C6.38484 10.4923 5.62898 11.1622 5.48836 12.3067C5.18172 14.7716 7.02351 15.9142 10.879 15.9962C11.4473 17.3712 12.9571 18.1036 14.3868 17.6954C15.8184 17.2872 16.7169 15.8712 16.4747 14.4025V14.4025ZM6.42781 6.74229C5.52937 6.74229 4.80086 6.01377 4.80086 5.11533C4.80086 4.21689 5.52937 3.48838 6.42781 3.48838C7.32625 3.48838 8.05476 4.21689 8.05476 5.11533C8.05476 6.01377 7.32625 6.74229 6.42781 6.74229ZM13.586 16.504C12.6876 16.504 11.9591 15.7755 11.9591 14.8771C11.9591 13.9786 12.6876 13.2501 13.586 13.2501C14.4845 13.2501 15.213 13.9786 15.213 14.8771C15.213 15.7755 14.4845 16.504 13.586 16.504Z" fill="currentColor"/>
</g>
</svg>
