<svg width="20" height="20" viewBox="0 0 20 20" fill="none" xmlns="http://www.w3.org/2000/svg">
<g opacity="0.5">
<path fill-rule="evenodd" clip-rule="evenodd" d="M18.3332 12.5391C18.333 12.5703 18.3308 12.6015 18.3265 12.6324L18.3215 12.6633L18.3082 12.7233C18.3057 12.7358 18.3015 12.7466 18.2973 12.7583L18.279 12.8108L18.2623 12.8458C18.2557 12.8624 18.2473 12.8774 18.239 12.8933L18.2182 12.9266C18.1925 12.9674 18.1623 13.0051 18.1282 13.0391L18.099 13.0674C18.0858 13.0791 18.0722 13.0902 18.0582 13.1008L18.0265 13.1258C18.0223 13.1283 18.0182 13.1324 18.014 13.1341L10.3973 18.2133C10.2797 18.2919 10.1414 18.3339 9.99984 18.3339C9.85831 18.3339 9.71997 18.2919 9.60234 18.2133L1.98567 13.1349L1.974 13.1266C1.94821 13.1086 1.9237 13.0888 1.90067 13.0674C1.89067 13.0591 1.8815 13.0491 1.87234 13.0391C1.85984 13.0266 1.84734 13.0141 1.8365 13.0008C1.81622 12.9773 1.79783 12.9522 1.7815 12.9258C1.7651 12.8999 1.75008 12.8732 1.7365 12.8458L1.72067 12.8108C1.71389 12.7935 1.70777 12.776 1.70234 12.7583C1.69817 12.7466 1.694 12.7358 1.6915 12.7233C1.68567 12.7041 1.68317 12.6833 1.679 12.6633L1.67317 12.6324C1.66889 12.6015 1.66666 12.5703 1.6665 12.5391V7.46077C1.6665 7.4291 1.669 7.39827 1.67317 7.36743L1.679 7.3366C1.68234 7.3166 1.68567 7.29577 1.6915 7.2766C1.71372 7.18695 1.75492 7.10312 1.81234 7.03077C1.82013 7.02002 1.82819 7.00946 1.8365 6.9991L1.87234 6.96077L1.90067 6.93243C1.92377 6.91136 1.94827 6.89187 1.974 6.8741C1.97817 6.8716 1.9815 6.86743 1.98567 6.86577L9.60234 1.7866C9.72006 1.70813 9.85836 1.66626 9.99984 1.66626C10.1413 1.66626 10.2796 1.70813 10.3973 1.7866L18.014 6.86493C18.0182 6.86743 18.0223 6.8716 18.0265 6.87327L18.0582 6.89827C18.0725 6.90912 18.0864 6.92051 18.0998 6.93243L18.1282 6.96077C18.1625 6.99486 18.1928 7.0329 18.2182 7.0741L18.239 7.10743L18.2632 7.1541L18.279 7.1891L18.2973 7.2416C18.3015 7.25327 18.3057 7.2641 18.3082 7.2766C18.314 7.29577 18.3173 7.3166 18.3215 7.3366L18.3265 7.36743C18.3308 7.39836 18.333 7.42954 18.3332 7.46077V12.5391V12.5391ZM3.099 8.8016V11.1983L4.89067 9.99993L3.099 8.8016ZM9.284 7.0616V3.72077L3.67234 7.46243L6.179 9.13827L9.284 7.0616ZM16.3273 7.4616L10.7165 3.72077V7.0616L13.8215 9.13827L16.3273 7.4616ZM3.67234 12.5383L9.284 16.2791V12.9383L6.179 10.8616L3.67234 12.5383ZM10.7165 12.9383V16.2791L16.3273 12.5374L13.8215 10.8624L10.7165 12.9383ZM9.99984 8.30493L7.4665 9.99993L9.99984 11.6941L12.5332 9.99993L9.99984 8.30577V8.30493ZM16.9007 11.1983V8.8016L15.109 9.99993L16.9007 11.1983V11.1983Z" fill="currentColor"/>
</g>
</svg>
