<svg width="20" height="20" viewBox="0 0 20 20" fill="none" xmlns="http://www.w3.org/2000/svg">
<g opacity="0.5">
<path d="M10 4.16675C9.22645 4.16675 8.48459 4.47404 7.93761 5.02102C7.39062 5.568 7.08333 6.30987 7.08333 7.08342C7.08333 7.85696 7.39062 8.59883 7.93761 9.14581C8.48459 9.69279 9.22645 10.0001 10 10.0001C10.7735 10.0001 11.5154 9.69279 12.0624 9.14581C12.6094 8.59883 12.9167 7.85696 12.9167 7.08342C12.9167 6.30987 12.6094 5.568 12.0624 5.02102C11.5154 4.47404 10.7735 4.16675 10 4.16675V4.16675ZM10 5.83341C10.3315 5.83341 10.6495 5.96511 10.8839 6.19953C11.1183 6.43395 11.25 6.75189 11.25 7.08342C11.25 7.41494 11.1183 7.73288 10.8839 7.9673C10.6495 8.20172 10.3315 8.33342 10 8.33342C9.66848 8.33342 9.35054 8.20172 9.11612 7.9673C8.8817 7.73288 8.75 7.41494 8.75 7.08342C8.75 6.75189 8.8817 6.43395 9.11612 6.19953C9.35054 5.96511 9.66848 5.83341 10 5.83341ZM4.58333 6.66675C4.0308 6.66675 3.50089 6.88624 3.11019 7.27694C2.71949 7.66764 2.5 8.19755 2.5 8.75008C2.5 9.53342 2.94167 10.2084 3.575 10.5667C3.875 10.7334 4.21667 10.8334 4.58333 10.8334C4.95 10.8334 5.29167 10.7334 5.59167 10.5667C5.9 10.3917 6.15833 10.1417 6.35 9.84175C5.7429 9.05056 5.41473 8.08068 5.41667 7.08342V6.85008C5.16667 6.73342 4.88333 6.66675 4.58333 6.66675ZM15.4167 6.66675C15.1167 6.66675 14.8333 6.73342 14.5833 6.85008V7.08342C14.5833 8.08342 14.2583 9.05008 13.65 9.84175C13.75 10.0001 13.8583 10.1251 13.9833 10.2501C14.3676 10.6227 14.8814 10.8318 15.4167 10.8334C15.7833 10.8334 16.125 10.7334 16.425 10.5667C17.0583 10.2084 17.5 9.53342 17.5 8.75008C17.5 8.19755 17.2805 7.66764 16.8898 7.27694C16.4991 6.88624 15.9692 6.66675 15.4167 6.66675V6.66675ZM10 11.6667C8.05 11.6667 4.16667 12.6417 4.16667 14.5834V15.8334H15.8333V14.5834C15.8333 12.6417 11.95 11.6667 10 11.6667ZM3.925 12.1251C2.31667 12.3167 0 13.1334 0 14.5834V15.8334H2.5V14.2251C2.5 13.3834 3.075 12.6834 3.925 12.1251ZM16.075 12.1251C16.925 12.6834 17.5 13.3834 17.5 14.2251V15.8334H20V14.5834C20 13.1334 17.6833 12.3167 16.075 12.1251ZM10 13.3334C11.275 13.3334 12.7 13.7501 13.525 14.1667H6.475C7.3 13.7501 8.725 13.3334 10 13.3334Z" fill="currentColor"/>
</g>
</svg>
