<svg width="20" height="20" viewBox="0 0 20 20" fill="none" xmlns="http://www.w3.org/2000/svg">
<g opacity="0.5">
<path d="M9.99984 1.66675C8.23173 1.66675 6.53603 2.36913 5.28579 3.61937C4.03555 4.86961 3.33317 6.5653 3.33317 8.33341C3.33317 11.6917 5.83317 14.5167 9.1665 14.9417V15.8334H8.33317C8.11216 15.8334 7.9002 15.9212 7.74392 16.0775C7.58764 16.2338 7.49984 16.4457 7.49984 16.6667H1.6665V18.3334H7.49984C7.49984 18.5544 7.58764 18.7664 7.74392 18.9227C7.9002 19.079 8.11216 19.1667 8.33317 19.1667H11.6665C11.8875 19.1667 12.0995 19.079 12.2558 18.9227C12.412 18.7664 12.4998 18.5544 12.4998 18.3334H18.3332V16.6667H12.4998C12.4998 16.4457 12.412 16.2338 12.2558 16.0775C12.0995 15.9212 11.8875 15.8334 11.6665 15.8334H10.8332V14.9417C14.1665 14.5251 16.6665 11.6917 16.6665 8.33341C16.6665 6.5653 15.9641 4.86961 14.7139 3.61937C13.4636 2.36913 11.7679 1.66675 9.99984 1.66675V1.66675ZM9.99984 3.33341C9.99984 3.33341 10.6165 4.40008 11.0498 5.83341H8.94984C9.38317 4.40008 9.99984 3.33341 9.99984 3.33341ZM8.1415 3.69175C7.9165 4.10841 7.57484 4.86675 7.28317 5.83341H5.67484C6.24984 4.86675 7.08317 4.10841 8.1415 3.69175ZM11.8582 3.70008C12.9165 4.11675 13.7498 4.86675 14.3248 5.83341H12.7165C12.4248 4.86675 12.0832 4.10841 11.8582 3.70008V3.70008ZM5.07484 7.50008H6.93317C6.89984 7.77508 6.87484 8.05008 6.87484 8.33341C6.87484 8.61675 6.89984 8.89175 6.93317 9.16675H5.07484C4.97393 8.61577 4.97393 8.05105 5.07484 7.50008V7.50008ZM8.59984 7.50008H11.3998C11.4332 7.77508 11.4582 8.05008 11.4582 8.33341C11.4582 8.61675 11.4332 8.89175 11.3998 9.16675H8.59984C8.5665 8.89175 8.5415 8.61675 8.5415 8.33341C8.5415 8.05008 8.5665 7.77508 8.59984 7.50008ZM13.0665 7.50008H14.9248C15.0257 8.05105 15.0257 8.61577 14.9248 9.16675H13.0665C13.0998 8.89175 13.1248 8.61675 13.1248 8.33341C13.1248 8.05008 13.0998 7.77508 13.0665 7.50008ZM5.67484 10.8334H7.28317C7.57484 11.8001 7.9165 12.5584 8.1415 12.9667C7.08317 12.5501 6.24984 11.8001 5.67484 10.8334V10.8334ZM8.94984 10.8334H11.0498C10.6165 12.2667 9.99984 13.3334 9.99984 13.3334C9.99984 13.3334 9.38317 12.2667 8.94984 10.8334ZM12.7165 10.8334H14.3248C13.7498 11.8001 12.9165 12.5584 11.8582 12.9751C12.0832 12.5584 12.4248 11.8001 12.7165 10.8334Z" fill="#69717E"/>
</g>
</svg>
