<svg width="20" height="20" viewBox="0 0 20 20" fill="none" xmlns="http://www.w3.org/2000/svg">
<g opacity="0.5">
<path d="M13.3335 1.66675C11.0335 1.66675 9.16683 3.53341 9.16683 5.83341C9.16683 8.13342 11.0335 10.0001 13.3335 10.0001C15.6335 10.0001 17.5002 8.13342 17.5002 5.83341C17.5002 3.53341 15.6335 1.66675 13.3335 1.66675ZM13.3335 8.33342C11.9502 8.33342 10.8335 7.21675 10.8335 5.83341C10.8335 4.45008 11.9502 3.33341 13.3335 3.33341C14.7168 3.33341 15.8335 4.45008 15.8335 5.83341C15.8335 7.21675 14.7168 8.33342 13.3335 8.33342ZM15.8335 13.3334H14.1668C14.1668 12.3334 13.5418 11.4334 12.6085 11.0834L7.47516 9.16675H0.833496V18.3334H5.8335V17.1334L11.6668 18.7501L18.3335 16.6667V15.8334C18.3335 14.4501 17.2168 13.3334 15.8335 13.3334ZM4.16683 16.6667H2.50016V10.8334H4.16683V16.6667ZM11.6418 17.0084L5.8335 15.4167V10.8334H7.17516L12.0252 12.6417C12.3085 12.7501 12.5002 13.0251 12.5002 13.3334C12.5002 13.3334 10.8335 13.2917 10.5835 13.2084L8.60016 12.5501L8.07516 14.1334L10.0585 14.7917C10.4835 14.9334 10.9252 15.0001 11.3752 15.0001H15.8335C16.1585 15.0001 16.4502 15.2001 16.5835 15.4751L11.6418 17.0084V17.0084Z" fill="currentColor"/>
</g>
</svg>
