<svg width="20" height="20" viewBox="0 0 20 20" fill="none" xmlns="http://www.w3.org/2000/svg">
<g opacity="0.5">
<path d="M6.6665 16.6667C6.6665 17.1088 6.49091 17.5327 6.17835 17.8453C5.86579 18.1578 5.44186 18.3334 4.99984 18.3334H3.33317C2.89114 18.3334 2.46722 18.1578 2.15466 17.8453C1.8421 17.5327 1.6665 17.1088 1.6665 16.6667V15.0001C1.6665 14.5581 1.8421 14.1341 2.15466 13.8216C2.46722 13.509 2.89114 13.3334 3.33317 13.3334V6.66675C2.89114 6.66675 2.46722 6.49115 2.15466 6.17859C1.8421 5.86603 1.6665 5.44211 1.6665 5.00008V3.33341C1.6665 2.89139 1.8421 2.46746 2.15466 2.1549C2.46722 1.84234 2.89114 1.66675 3.33317 1.66675H4.99984C5.44186 1.66675 5.86579 1.84234 6.17835 2.1549C6.49091 2.46746 6.6665 2.89139 6.6665 3.33341H13.3332C13.3332 2.89139 13.5088 2.46746 13.8213 2.1549C14.1339 1.84234 14.5578 1.66675 14.9998 1.66675H16.6665C17.1085 1.66675 17.5325 1.84234 17.845 2.1549C18.1576 2.46746 18.3332 2.89139 18.3332 3.33341V5.00008C18.3332 5.44211 18.1576 5.86603 17.845 6.17859C17.5325 6.49115 17.1085 6.66675 16.6665 6.66675V13.3334C17.1085 13.3334 17.5325 13.509 17.845 13.8216C18.1576 14.1341 18.3332 14.5581 18.3332 15.0001V16.6667C18.3332 17.1088 18.1576 17.5327 17.845 17.8453C17.5325 18.1578 17.1085 18.3334 16.6665 18.3334H14.9998C14.5578 18.3334 14.1339 18.1578 13.8213 17.8453C13.5088 17.5327 13.3332 17.1088 13.3332 16.6667H6.6665ZM6.6665 5.00008C6.6665 5.44211 6.49091 5.86603 6.17835 6.17859C5.86579 6.49115 5.44186 6.66675 4.99984 6.66675V13.3334C5.44186 13.3334 5.86579 13.509 6.17835 13.8216C6.49091 14.1341 6.6665 14.5581 6.6665 15.0001H13.3332C13.3332 14.5581 13.5088 14.1341 13.8213 13.8216C14.1339 13.509 14.5578 13.3334 14.9998 13.3334V6.66675C14.5578 6.66675 14.1339 6.49115 13.8213 6.17859C13.5088 5.86603 13.3332 5.44211 13.3332 5.00008H6.6665ZM3.33317 3.33341V5.00008H4.99984V3.33341H3.33317ZM14.9998 3.33341V5.00008H16.6665V3.33341H14.9998ZM14.9998 15.0001V16.6667H16.6665V15.0001H14.9998ZM3.33317 15.0001V16.6667H4.99984V15.0001H3.33317Z" fill="currentColor"/>
</g>
</svg>
