<svg width="20" height="20" viewBox="0 0 20 20" fill="none" xmlns="http://www.w3.org/2000/svg">
<g opacity="0.5">
<path d="M3.33333 4.99992H16.6667V13.3333H3.33333V4.99992ZM16.6667 14.9999C17.1087 14.9999 17.5326 14.8243 17.8452 14.5118C18.1577 14.1992 18.3333 13.7753 18.3333 13.3333V4.99992C18.3333 4.55789 18.1577 4.13397 17.8452 3.82141C17.5326 3.50885 17.1087 3.33325 16.6667 3.33325H3.33333C2.40833 3.33325 1.66667 4.07492 1.66667 4.99992V13.3333C1.66667 13.7753 1.84226 14.1992 2.15482 14.5118C2.46738 14.8243 2.89131 14.9999 3.33333 14.9999H0V16.6666H20V14.9999H16.6667Z" fill="#69717E"/>
</g>
</svg>
