<svg width="20" height="20" viewBox="0 0 20 20" fill="none" xmlns="http://www.w3.org/2000/svg">
<g opacity="0.5">
<path d="M9.99984 1.66675C11.5469 1.66675 13.0307 2.28133 14.1246 3.37529C15.2186 4.46925 15.8332 5.95299 15.8332 7.50008C15.8332 9.48342 14.8415 11.2251 13.3332 12.2834V14.1667C13.3332 14.3878 13.2454 14.5997 13.0891 14.756C12.9328 14.9123 12.7209 15.0001 12.4998 15.0001H7.49984C7.27882 15.0001 7.06686 14.9123 6.91058 14.756C6.7543 14.5997 6.6665 14.3878 6.6665 14.1667V12.2834C5.15817 11.2251 4.1665 9.48342 4.1665 7.50008C4.1665 5.95299 4.78109 4.46925 5.87505 3.37529C6.96901 2.28133 8.45274 1.66675 9.99984 1.66675V1.66675ZM7.49984 17.5001V16.6667H12.4998V17.5001C12.4998 17.7211 12.412 17.9331 12.2558 18.0893C12.0995 18.2456 11.8875 18.3334 11.6665 18.3334H8.33317C8.11216 18.3334 7.9002 18.2456 7.74392 18.0893C7.58764 17.9331 7.49984 17.7211 7.49984 17.5001ZM9.99984 3.33341C8.89477 3.33341 7.83496 3.7724 7.05356 4.5538C6.27216 5.3352 5.83317 6.39501 5.83317 7.50008C5.83317 9.20842 6.85817 10.6751 8.33317 11.3167V13.3334H11.6665V11.3167C13.1415 10.6751 14.1665 9.20842 14.1665 7.50008C14.1665 6.39501 13.7275 5.3352 12.9461 4.5538C12.1647 3.7724 11.1049 3.33341 9.99984 3.33341V3.33341Z" fill="currentColor"/>
</g>
</svg>
