<svg width="1616" height="1139" viewBox="0 0 1616 1139" fill="none" xmlns="http://www.w3.org/2000/svg">
<g opacity="0.6" filter="url(#filter0_f_2_1239)">
<g filter="url(#filter1_f_2_1239)">
<path d="M209.129 755.129C-127.662 564.9 293.9 396.737 546.78 336.434C671.009 309.669 957.73 258.656 1110.79 268.726C1302.11 281.313 630.118 992.915 209.129 755.129Z" fill="#F2BE03"/>
</g>
<g filter="url(#filter2_f_2_1239)">
<path d="M1352.31 380.152C1754.57 547.006 1344.55 720.952 1089.26 787.069C963.188 816.855 669.736 875.463 504.501 871.603C297.957 866.778 849.477 171.585 1352.31 380.152Z" fill="#FDC3FE"/>
</g>
<g filter="url(#filter3_f_2_1239)">
<path d="M417.128 541.248C611.178 621.738 413.387 705.649 290.235 737.543C229.419 751.912 87.8585 780.184 8.15004 778.321C-91.4856 775.994 174.565 440.637 417.128 541.248Z" fill="#FDC3FE"/>
</g>
<g filter="url(#filter4_f_2_1239)">
<path d="M345.219 833.79C200.096 784.546 348.762 756.729 441.235 748.976C486.895 745.797 593.153 740.83 652.904 746.391C727.593 753.343 526.623 895.347 345.219 833.79Z" fill="#F2BE03"/>
</g>
</g>
<defs>
<filter id="filter0_f_2_1239" x="-280.32" y="-102" width="2096.32" height="1240.78" filterUnits="userSpaceOnUse" color-interpolation-filters="sRGB">
<feFlood flood-opacity="0" result="BackgroundImageFix"/>
<feBlend mode="normal" in="SourceGraphic" in2="BackgroundImageFix" result="shape"/>
<feGaussianBlur stdDeviation="133.5" result="effect1_foregroundBlur_2_1239"/>
</filter>
<filter id="filter1_f_2_1239" x="17.8943" y="201.428" width="1192.4" height="668.289" filterUnits="userSpaceOnUse" color-interpolation-filters="sRGB">
<feFlood flood-opacity="0" result="BackgroundImageFix"/>
<feBlend mode="normal" in="SourceGraphic" in2="BackgroundImageFix" result="shape"/>
<feGaussianBlur stdDeviation="33" result="effect1_foregroundBlur_2_1239"/>
</filter>
<filter id="filter2_f_2_1239" x="375.994" y="257.129" width="1229.15" height="698.655" filterUnits="userSpaceOnUse" color-interpolation-filters="sRGB">
<feFlood flood-opacity="0" result="BackgroundImageFix"/>
<feBlend mode="normal" in="SourceGraphic" in2="BackgroundImageFix" result="shape"/>
<feGaussianBlur stdDeviation="42" result="effect1_foregroundBlur_2_1239"/>
</filter>
<filter id="filter3_f_2_1239" x="-97.3198" y="438.424" width="679.893" height="423.985" filterUnits="userSpaceOnUse" color-interpolation-filters="sRGB">
<feFlood flood-opacity="0" result="BackgroundImageFix"/>
<feBlend mode="normal" in="SourceGraphic" in2="BackgroundImageFix" result="shape"/>
<feGaussianBlur stdDeviation="42" result="effect1_foregroundBlur_2_1239"/>
</filter>
<filter id="filter4_f_2_1239" x="282.481" y="741.882" width="388.428" height="109.34" filterUnits="userSpaceOnUse" color-interpolation-filters="sRGB">
<feFlood flood-opacity="0" result="BackgroundImageFix"/>
<feBlend mode="normal" in="SourceGraphic" in2="BackgroundImageFix" result="shape"/>
<feGaussianBlur stdDeviation="1" result="effect1_foregroundBlur_2_1239"/>
</filter>
</defs>
</svg>
