<svg viewBox="0 0 16 16" fill="none" xmlns="http://www.w3.org/2000/svg">
<path d="M7.34543 4.98854C6.23044 4.98854 5.32666 4.09573 5.32666 2.99427C5.32666 1.89281 6.23044 1 7.34543 1C8.46042 1 9.36419 1.89281 9.36419 2.99427C9.36419 4.09573 8.46029 4.98854 7.34543 4.98854Z" fill="url(#paint0_linear_2_585)"/>
<path d="M7.34543 14.0006C6.23044 14.0006 5.32666 13.1078 5.32666 12.0064C5.32666 10.9049 6.23044 10.0121 7.34543 10.0121C8.46042 10.0121 9.36419 10.9049 9.36419 12.0064C9.36419 13.1078 8.46029 14.0006 7.34543 14.0006Z" fill="url(#paint1_linear_2_585)"/>
<path d="M3.01877 9.51002C1.90378 9.51002 1 8.61722 1 7.51575C1 6.41429 1.90378 5.52148 3.01877 5.52148C4.13376 5.52148 5.03753 6.41429 5.03753 7.51575C5.03753 8.61722 4.13363 9.51002 3.01877 9.51002Z" fill="url(#paint2_linear_2_585)"/>
<path d="M11.9812 9.42079C10.8662 9.42079 9.9624 8.52798 9.9624 7.42652C9.9624 6.32506 10.8662 5.43225 11.9812 5.43225C13.0962 5.43225 13.9999 6.32506 13.9999 7.42652C13.9999 8.52798 13.096 9.42079 11.9812 9.42079Z" fill="url(#paint3_linear_2_585)"/>
<defs>
<linearGradient id="paint0_linear_2_585" x1="8.50616" y1="-2.84224" x2="3.38101" y2="2.12012" gradientUnits="userSpaceOnUse">
<stop stop-color="white" stop-opacity="0.01"/>
<stop offset="0.341401" stop-color="#FF92FE"/>
<stop offset="1" stop-color="#FF0072"/>
</linearGradient>
<linearGradient id="paint1_linear_2_585" x1="8.50616" y1="6.16985" x2="3.381" y2="11.1322" gradientUnits="userSpaceOnUse">
<stop stop-color="white" stop-opacity="0.01"/>
<stop offset="0.341401" stop-color="#FF92FE"/>
<stop offset="1" stop-color="#FF0072"/>
</linearGradient>
<linearGradient id="paint2_linear_2_585" x1="4.1795" y1="1.67925" x2="-0.945653" y2="6.6416" gradientUnits="userSpaceOnUse">
<stop stop-color="white" stop-opacity="0.01"/>
<stop offset="0.341401" stop-color="#FF92FE"/>
<stop offset="1" stop-color="#FF0072"/>
</linearGradient>
<linearGradient id="paint3_linear_2_585" x1="13.1419" y1="1.59001" x2="8.01675" y2="6.55237" gradientUnits="userSpaceOnUse">
<stop stop-color="white" stop-opacity="0.01"/>
<stop offset="0.341401" stop-color="#FF92FE"/>
<stop offset="1" stop-color="#FF0072"/>
</linearGradient>
</defs>
</svg>
