<svg width="710" height="595" viewBox="0 0 710 595" fill="none" xmlns="http://www.w3.org/2000/svg">
<path d="M65.6074 345.82C65.6074 208.37 177.209 96.9457 314.877 96.9457H321.801C459.47 96.9457 571.072 208.37 571.072 345.82V484.036C571.072 545.125 521.471 594.648 460.284 594.648H176.394C115.208 594.648 65.6074 545.125 65.6074 484.036V345.82Z" fill="#9900F0"/>
<path d="M228.586 460.967C263.648 460.967 288.894 438.527 288.894 403.815C288.894 377.518 271.012 363.142 245.766 354.026C215.963 343.157 209.652 336.845 209.652 329.132C209.652 320.717 218.067 315.808 226.832 315.808C237.702 315.808 247.519 320.015 255.233 331.235L281.18 307.393C270.31 289.16 249.623 278.641 225.781 278.641C193.172 278.641 170.031 300.731 170.031 328.08C170.031 355.429 187.562 370.155 212.106 379.973C230.689 387.336 248.571 394.699 248.571 406.62C248.571 418.542 238.403 423.801 228.235 423.801C211.054 423.801 199.484 411.88 193.172 394.699L158.46 413.282C165.473 436.774 189.315 460.967 228.586 460.967ZM396.994 460.967C436.264 460.967 463.964 443.787 477.288 410.477L438.368 394.699C429.252 413.282 416.629 423.801 396.994 423.801C369.645 423.801 356.321 401.01 356.321 369.804C356.321 338.599 369.645 315.808 396.994 315.808C416.629 315.808 429.252 326.327 438.368 344.91L477.288 329.132C463.964 295.822 436.264 278.641 396.994 278.641C339.491 278.641 310.74 320.015 310.74 369.804C310.74 419.593 339.491 460.967 396.994 460.967Z" fill="white"/>
<path d="M584.452 0.0866922L516.648 70.1877L546.739 99.2002L614.543 29.0992L584.452 0.0866922Z" fill="#FCE63F"/>
<path d="M693.654 70.6272L562.092 126.384L578.437 164.829L709.999 109.072L693.654 70.6272Z" fill="#FCE63F"/>
</svg>
