<svg viewBox="0 0 16 16" fill="none" xmlns="http://www.w3.org/2000/svg">
<g filter="url(#filter0_bii_141_35532)">
<rect width="16" height="16" rx="8" fill="none"/>
</g>
<g clip-path="url(#clip0_141_35532)">
<path fill-rule="evenodd" clip-rule="evenodd" d="M10.5708 2.652C10.5031 2.58354 10.4113 2.5451 10.3155 2.5451H9.40807V2.68926C9.40807 2.83445 9.35101 2.9737 9.24942 3.07635C9.14787 3.17904 9.01009 3.23671 8.86645 3.23671H7.07047C6.92682 3.23671 6.78905 3.17903 6.6875 3.07635C6.5859 2.97371 6.52884 2.83445 6.52884 2.68926V2.5451H5.62141C5.52564 2.5451 5.43379 2.58353 5.36609 2.652C5.29835 2.72044 5.26033 2.81328 5.26033 2.91007V13.1291C5.26033 13.2259 5.29835 13.3188 5.36609 13.3872C5.4338 13.4557 5.52565 13.4941 5.62141 13.4941H10.3155C10.4113 13.4941 10.5031 13.4557 10.5708 13.3872C10.6386 13.3188 10.6766 13.2259 10.6766 13.1291V2.91007C10.6766 2.81327 10.6386 2.72043 10.5708 2.652ZM5.62141 1.94965H10.3155C10.5675 1.94965 10.8092 2.05085 10.9874 2.23099C11.1656 2.41108 11.2657 2.65538 11.2657 2.91007V13.1291C11.2657 13.3838 11.1656 13.6281 10.9874 13.8082C10.8092 13.9884 10.5675 14.0896 10.3155 14.0896H5.62141C5.36944 14.0896 5.12773 13.9884 4.94956 13.8083C4.77132 13.6282 4.6712 13.3838 4.6712 13.1291V2.91007C4.6712 2.65538 4.77131 2.41108 4.9495 2.23099C5.12768 2.05087 5.36943 1.94965 5.62141 1.94965ZM5.11078 2.39395C5.24618 2.25704 5.42988 2.18014 5.62141 2.18014H10.3155C10.507 2.18014 10.6907 2.25705 10.8261 2.39395C10.9616 2.53081 11.0377 2.71648 11.0377 2.91007V13.1291C11.0377 13.3227 10.9616 13.5084 10.8261 13.6452C10.6907 13.7822 10.507 13.8591 10.3155 13.8591H5.62141C5.42989 13.8591 5.24618 13.7821 5.11078 13.6452C4.97533 13.5084 4.89924 13.3227 4.89924 13.1291V2.91007C4.89924 2.71649 4.97534 2.53081 5.11078 2.39395ZM6.88997 2.5451H9.04703V2.68926C9.04703 2.71966 9.03952 2.74928 9.02555 2.77559C9.01727 2.79116 9.00674 2.80557 8.99415 2.81829C8.9603 2.85251 8.91437 2.87174 8.86649 2.87174H7.07051C7.02263 2.87174 6.97671 2.85251 6.94285 2.81829C6.93027 2.80557 6.91973 2.79116 6.91146 2.77559C6.89766 2.74963 6.89017 2.72044 6.88997 2.69046L6.88997 2.68926L6.88997 2.5451ZM7.96485 6.97598C7.34074 6.97598 6.88942 7.47852 6.88942 8.03071C6.88942 8.20286 6.93329 8.37019 7.01259 8.51897C7.03592 8.63587 7.09286 8.74322 7.17631 8.82756C7.26014 8.91229 7.36694 8.96999 7.48321 8.99337C7.503 8.99735 7.52291 9.0003 7.54287 9.00224C7.67054 9.05551 7.81255 9.08543 7.96485 9.08543C8.58895 9.08543 9.04027 8.58289 9.04027 8.03071C9.04027 7.81455 8.97111 7.606 8.8495 7.43223V7.13638H8.53695C8.37435 7.03562 8.17985 6.97598 7.96485 6.97598ZM8.53695 7.13638H8.36205C8.20409 7.13655 8.05264 7.20003 7.94094 7.3129C7.82924 7.42577 7.76641 7.5788 7.76625 7.73842V7.79332H8.19937V7.73842C8.19945 7.69488 8.21662 7.65314 8.24712 7.62238C8.27763 7.59162 8.31896 7.57434 8.36205 7.57434H8.8495V7.43223C8.76747 7.31501 8.66158 7.21362 8.53695 7.13638ZM7.76382 8.23374V7.79332H7.60015C7.4816 7.79332 7.36571 7.82886 7.26714 7.89543C7.16857 7.962 7.09174 8.05662 7.04638 8.16732C7.00101 8.27802 6.98914 8.39984 7.01227 8.51736L7.01259 8.51897C7.12557 8.73095 7.31047 8.90527 7.54287 9.00224C7.64019 9.01168 7.73864 8.99695 7.82953 8.95889C7.93906 8.91304 8.03267 8.83539 8.09853 8.73576C8.1644 8.63613 8.19955 8.51899 8.19955 8.39917V8.23858H8.63285V7.79332H8.19955V8.23374H7.76382ZM7.76382 8.23374V8.39917C7.76382 8.43189 7.75422 8.46387 7.73624 8.49107C7.71825 8.51828 7.69269 8.53948 7.66278 8.552C7.63288 8.56452 7.59997 8.5678 7.56822 8.56142C7.53647 8.55503 7.50731 8.53928 7.48442 8.51614C7.46153 8.49301 7.44594 8.46353 7.43963 8.43144C7.43331 8.39935 7.43655 8.36609 7.44894 8.33586C7.46133 8.30563 7.48231 8.2798 7.50922 8.26162C7.53614 8.24344 7.56778 8.23374 7.60015 8.23374H7.76382ZM9.88942 8.03071C9.88942 9.10505 9.02776 9.97598 7.96485 9.97598C6.90193 9.97598 6.04027 9.10505 6.04027 8.03071C6.04027 6.95636 6.90193 6.08543 7.96485 6.08543C9.02776 6.08543 9.88942 6.95636 9.88942 8.03071Z" fill="url(#paint0_linear_141_35532)"/>
</g>
<defs>
<filter id="filter0_bii_141_35532" x="-49.0159" y="-49.0159" width="114.032" height="114.032" filterUnits="userSpaceOnUse" color-interpolation-filters="sRGB">
<feFlood flood-opacity="0" result="BackgroundImageFix"/>
<feGaussianBlur in="BackgroundImageFix" stdDeviation="24.508"/>
<feComposite in2="SourceAlpha" operator="in" result="effect1_backgroundBlur_141_35532"/>
<feBlend mode="normal" in="SourceGraphic" in2="effect1_backgroundBlur_141_35532" result="shape"/>
<feColorMatrix in="SourceAlpha" type="matrix" values="0 0 0 0 0 0 0 0 0 0 0 0 0 0 0 0 0 0 127 0" result="hardAlpha"/>
<feOffset dx="1.17782" dy="1.17782"/>
<feGaussianBlur stdDeviation="1"/>
<feComposite in2="hardAlpha" operator="arithmetic" k2="-1" k3="1"/>
<feColorMatrix type="matrix" values="0 0 0 0 0.928409 0 0 0 0 0.978523 0 0 0 0 1 0 0 0 0.26 0"/>
<feBlend mode="normal" in2="shape" result="effect2_innerShadow_141_35532"/>
<feColorMatrix in="SourceAlpha" type="matrix" values="0 0 0 0 0 0 0 0 0 0 0 0 0 0 0 0 0 0 127 0" result="hardAlpha"/>
<feOffset dx="-1.18" dy="-1.18"/>
<feGaussianBlur stdDeviation="1"/>
<feComposite in2="hardAlpha" operator="arithmetic" k2="-1" k3="1"/>
<feColorMatrix type="matrix" values="0 0 0 0 0 0 0 0 0 0 0 0 0 0 0 0 0 0 0.15 0"/>
<feBlend mode="normal" in2="effect2_innerShadow_141_35532" result="effect3_innerShadow_141_35532"/>
</filter>
<linearGradient id="paint0_linear_141_35532" x1="4.63697" y1="1.93631" x2="11.2612" y2="14.0637" gradientUnits="userSpaceOnUse">
<stop stop-color="#00FF94"/>
<stop offset="1" stop-color="#00330E"/>
</linearGradient>
<clipPath id="clip0_141_35532">
<rect width="11.5159" height="12.3312" fill="white" transform="translate(2.1911 1.8344)"/>
</clipPath>
</defs>
</svg>
