<svg viewBox="0 0 158 157" fill="none" xmlns="http://www.w3.org/2000/svg">
<g filter="url(#filter0_bii_2057_3424)">
<rect x="0.5" width="157" height="157" rx="8" fill="url(#paint0_linear_2057_3424)"/>
</g>
<path fill-rule="evenodd" clip-rule="evenodd" d="M102.038 45.66C106.919 45.66 110.875 41.4828 110.875 36.33C110.875 31.1772 106.919 27 102.038 27C97.1569 27 93.2002 31.1772 93.2002 36.33C93.2002 41.4828 97.1569 45.66 102.038 45.66ZM68.2523 33.8936C70.3173 31.6877 73.5492 31.3455 75.9852 33.0752L87.3092 41.4507C86.0174 42.0991 84.8362 42.9296 83.8348 43.9995L77.8477 50.3956L73.3668 46.9472L60.0648 61.1582C57.6707 63.7159 53.7922 63.7161 51.3981 61.1584C49.004 58.6007 49.004 54.4573 51.3981 51.8996L68.2523 33.8936ZM99.0193 65.3689H117.682C121.08 65.3689 123.835 68.3098 123.835 71.9368C123.835 75.5638 121.08 78.5047 117.682 78.5047H92.8666C89.4689 78.5047 86.714 75.5638 86.714 71.9368V68.0885L76.9562 78.5047L91.0641 93.5648C93.4676 96.1304 93.4676 100.287 91.0641 102.852L69.5297 125.84C67.1263 128.406 63.2327 128.405 60.8294 125.84C59.3468 124.257 54.9542 126.336 52.3701 127.558C50.7651 128.318 49.8577 128.747 50.7785 127.764L78.0137 98.2085L63.9058 83.1485C61.5023 80.5828 61.5023 76.4266 63.9058 73.861L88.5146 47.5913C92.4095 43.4281 99.0193 46.4651 99.0193 52.2331V65.3689ZM59.4491 87.6799C57.9108 86.0111 56.884 83.9573 56.3426 81.7363L24.2787 116.521C21.9071 119.094 21.9071 123.262 24.2787 125.835C26.6501 128.407 30.4922 128.408 32.8638 125.835L63.7416 92.3367L59.4491 87.6799Z" fill="url(#paint1_linear_2057_3424)"/>
<defs>
<filter id="filter0_bii_2057_3424" x="-48.5159" y="-49.0159" width="255.032" height="255.032" filterUnits="userSpaceOnUse" color-interpolation-filters="sRGB">
<feFlood flood-opacity="0" result="BackgroundImageFix"/>
<feGaussianBlur in="BackgroundImage" stdDeviation="24.508"/>
<feComposite in2="SourceAlpha" operator="in" result="effect1_backgroundBlur_2057_3424"/>
<feBlend mode="normal" in="SourceGraphic" in2="effect1_backgroundBlur_2057_3424" result="shape"/>
<feColorMatrix in="SourceAlpha" type="matrix" values="0 0 0 0 0 0 0 0 0 0 0 0 0 0 0 0 0 0 127 0" result="hardAlpha"/>
<feOffset dx="1.17782" dy="1.17782"/>
<feGaussianBlur stdDeviation="1"/>
<feComposite in2="hardAlpha" operator="arithmetic" k2="-1" k3="1"/>
<feColorMatrix type="matrix" values="0 0 0 0 0.928409 0 0 0 0 0.978523 0 0 0 0 1 0 0 0 0.26 0"/>
<feBlend mode="normal" in2="shape" result="effect2_innerShadow_2057_3424"/>
<feColorMatrix in="SourceAlpha" type="matrix" values="0 0 0 0 0 0 0 0 0 0 0 0 0 0 0 0 0 0 127 0" result="hardAlpha"/>
<feOffset dx="-1.18" dy="-1.18"/>
<feGaussianBlur stdDeviation="1"/>
<feComposite in2="hardAlpha" operator="arithmetic" k2="-1" k3="1"/>
<feColorMatrix type="matrix" values="0 0 0 0 0 0 0 0 0 0 0 0 0 0 0 0 0 0 0.15 0"/>
<feBlend mode="normal" in2="effect2_innerShadow_2057_3424" result="effect3_innerShadow_2057_3424"/>
</filter>
<linearGradient id="paint0_linear_2057_3424" x1="24.1746" y1="-12.4603" x2="157.5" y2="157" gradientUnits="userSpaceOnUse">
<stop stop-color="white"/>
<stop offset="1" stop-color="white" stop-opacity="0"/>
</linearGradient>
<linearGradient id="paint1_linear_2057_3424" x1="102.3" y1="-70.6185" x2="-27.8521" y2="53.8698" gradientUnits="userSpaceOnUse">
<stop stop-color="white" stop-opacity="0.01"/>
<stop offset="0.12833" stop-color="#00FAFA"/>
<stop offset="1" stop-color="#7F00FF"/>
</linearGradient>
</defs>
</svg>
