<svg viewBox="0 0 58 58" fill="none" xmlns="http://www.w3.org/2000/svg">
<g filter="url(#filter0_bii_2_630)">
<rect width="58" height="58" rx="8" fill="url(#paint0_linear_2_630)" fill-opacity="0.33"/>
</g>
<path fill-rule="evenodd" clip-rule="evenodd" d="M33.0302 13.8102C33.3167 13.8101 33.6056 13.8734 33.8754 14.004L40.3197 17.1211C40.9969 17.4486 41.4275 18.1375 41.4275 18.8933V40.0288C41.4275 40.7845 40.9969 41.4734 40.3197 41.801L33.8754 44.918C33.4877 45.1055 33.0608 45.1544 32.6579 45.0756C32.6484 45.0737 32.639 45.0718 32.6295 45.0698C32.267 44.9935 31.9253 44.8134 31.6508 44.5374L19.3138 33.2235L13.9402 37.3237C13.44 37.7053 12.7403 37.6741 12.2757 37.2492L10.5521 35.6733C9.98384 35.1537 9.98318 34.255 10.5507 33.7345L15.2109 29.4608L10.5507 25.1872C9.98318 24.6667 9.98384 23.768 10.5521 23.2484L12.2757 21.6724C12.7403 21.2476 13.44 21.2163 13.9402 21.598L19.3138 25.6982L31.6508 14.3843C32.0249 14.008 32.524 13.8099 33.0302 13.8102ZM33.607 22.3172L24.2449 29.4608L33.607 36.6044V22.3172Z" fill="url(#paint1_linear_2_630)"/>
<defs>
<filter id="filter0_bii_2_630" x="-49.0159" y="-49.0159" width="156.032" height="156.032" filterUnits="userSpaceOnUse" color-interpolation-filters="sRGB">
<feFlood flood-opacity="0" result="BackgroundImageFix"/>
<feGaussianBlur in="BackgroundImage" stdDeviation="24.508"/>
<feComposite in2="SourceAlpha" operator="in" result="effect1_backgroundBlur_2_630"/>
<feBlend mode="normal" in="SourceGraphic" in2="effect1_backgroundBlur_2_630" result="shape"/>
<feColorMatrix in="SourceAlpha" type="matrix" values="0 0 0 0 0 0 0 0 0 0 0 0 0 0 0 0 0 0 127 0" result="hardAlpha"/>
<feOffset dx="1.17782" dy="1.17782"/>
<feGaussianBlur stdDeviation="1"/>
<feComposite in2="hardAlpha" operator="arithmetic" k2="-1" k3="1"/>
<feColorMatrix type="matrix" values="0 0 0 0 0.928409 0 0 0 0 0.978523 0 0 0 0 1 0 0 0 0.26 0"/>
<feBlend mode="normal" in2="shape" result="effect2_innerShadow_2_630"/>
<feColorMatrix in="SourceAlpha" type="matrix" values="0 0 0 0 0 0 0 0 0 0 0 0 0 0 0 0 0 0 127 0" result="hardAlpha"/>
<feOffset dx="-1.18" dy="-1.18"/>
<feGaussianBlur stdDeviation="1"/>
<feComposite in2="hardAlpha" operator="arithmetic" k2="-1" k3="1"/>
<feColorMatrix type="matrix" values="0 0 0 0 0 0 0 0 0 0 0 0 0 0 0 0 0 0 0.15 0"/>
<feBlend mode="normal" in2="effect2_innerShadow_2_630" result="effect3_innerShadow_2_630"/>
</filter>
<linearGradient id="paint0_linear_2_630" x1="8.74603" y1="-4.60317" x2="58" y2="58" gradientUnits="userSpaceOnUse">
<stop stop-color="white"/>
<stop offset="1" stop-color="white" stop-opacity="0"/>
</linearGradient>
<linearGradient id="paint1_linear_2_630" x1="34.7755" y1="-16.3432" x2="-5.4273" y2="22.1109" gradientUnits="userSpaceOnUse">
<stop stop-color="white" stop-opacity="0.01"/>
<stop offset="0.12833" stop-color="#2677B8"/>
<stop offset="1" stop-color="#3BAEF3"/>
</linearGradient>
</defs>
</svg>
