<svg viewBox="0 0 16 16" fill="none" xmlns="http://www.w3.org/2000/svg">
<path fill-rule="evenodd" clip-rule="evenodd" d="M10.5113 1.23694C10.6309 1.23661 10.7515 1.26293 10.8642 1.31742L13.5408 2.61209C13.822 2.74813 14.0009 3.03426 14.0009 3.34816V12.1265C14.0009 12.4404 13.822 12.7265 13.5408 12.8626L10.8642 14.1572C10.6934 14.2398 10.5043 14.2577 10.3282 14.2161C10.1846 14.1823 10.0496 14.109 9.9403 13.9991L4.81624 9.30003L2.58439 11.003C2.37663 11.1615 2.08602 11.1485 1.89305 10.9721L1.1772 10.3175C0.941166 10.1017 0.940895 9.72845 1.17662 9.51227L3.11215 7.73725L1.17662 5.96224C0.940895 5.74607 0.941166 5.3728 1.1772 5.15697L1.89305 4.50242C2.08602 4.32597 2.37663 4.31298 2.58439 4.47152L4.81624 6.17449L9.9403 1.47539C10.0952 1.31959 10.3017 1.23735 10.5113 1.23694ZM10.7527 4.77029L6.86435 7.73726L10.7527 10.7042V4.77029Z" fill="url(#paint0_linear_2_598)"/>
<defs>
<linearGradient id="paint0_linear_2_598" x1="11.238" y1="-11.2869" x2="-5.45974" y2="4.68442" gradientUnits="userSpaceOnUse">
<stop stop-color="white" stop-opacity="0.01"/>
<stop offset="0.12833" stop-color="#2677B8"/>
<stop offset="1" stop-color="#3BAEF3"/>
</linearGradient>
</defs>
</svg>
