<svg viewBox="0 0 58 58" fill="none" xmlns="http://www.w3.org/2000/svg">
<g filter="url(#filter0_bii_2_684)">
<rect width="58" height="58" rx="4" fill="url(#paint0_linear_2_684)" fill-opacity="0.33"/>
</g>
<path d="M42.1175 25.1179H36.4082V21.3116C36.4082 19.6403 34.3862 18.7602 33.1947 19.9666L25.6666 27.5786C24.9313 28.322 24.9313 29.5263 25.6666 30.2697L29.9823 34.6336L21.6508 43.1977C20.9156 43.9411 23.9902 41.8967 24.7255 42.6401C25.4607 43.3835 26.6518 43.3836 27.387 42.6401L33.9746 35.9791C34.7098 35.2357 34.7098 34.0314 33.9746 33.288L29.6588 28.9241L32.6438 25.9059V27.021C32.6438 28.072 33.4866 28.9241 34.526 28.9241H42.1175C43.1569 28.9241 43.9996 28.072 43.9996 27.021C43.9996 25.97 43.1569 25.1179 42.1175 25.1179Z" fill="url(#paint1_linear_2_684)"/>
<path d="M29.3618 15.7602C28.6166 15.259 27.6279 15.3582 26.9962 15.9974L21.8403 21.2149C21.1079 21.956 21.1079 23.1566 21.8403 23.8977C22.5727 24.6388 23.7592 24.6388 24.4916 23.8976L28.5608 19.7798L29.9315 20.7791L31.763 18.9257C32.0694 18.6157 32.4307 18.375 32.8259 18.1871L29.3618 15.7602Z" fill="url(#paint2_linear_2_684)"/>
<path d="M24.3031 31.5827C23.8326 31.0992 23.5185 30.504 23.3528 29.8605L13.5441 39.9398C12.8186 40.6853 12.8186 41.893 13.5441 42.6386C14.2696 43.384 15.4449 43.3841 16.1704 42.6386L25.6163 32.9321L24.3031 31.5827Z" fill="url(#paint3_linear_2_684)"/>
<circle cx="37.3314" cy="16.7035" r="2.70349" fill="url(#paint4_linear_2_684)"/>
<defs>
<filter id="filter0_bii_2_684" x="-49.0159" y="-49.0159" width="156.032" height="156.032" filterUnits="userSpaceOnUse" color-interpolation-filters="sRGB">
<feFlood flood-opacity="0" result="BackgroundImageFix"/>
<feGaussianBlur in="BackgroundImage" stdDeviation="24.508"/>
<feComposite in2="SourceAlpha" operator="in" result="effect1_backgroundBlur_2_684"/>
<feBlend mode="normal" in="SourceGraphic" in2="effect1_backgroundBlur_2_684" result="shape"/>
<feColorMatrix in="SourceAlpha" type="matrix" values="0 0 0 0 0 0 0 0 0 0 0 0 0 0 0 0 0 0 127 0" result="hardAlpha"/>
<feOffset dx="1.17782" dy="1.17782"/>
<feGaussianBlur stdDeviation="1"/>
<feComposite in2="hardAlpha" operator="arithmetic" k2="-1" k3="1"/>
<feColorMatrix type="matrix" values="0 0 0 0 0.928409 0 0 0 0 0.978523 0 0 0 0 1 0 0 0 0.26 0"/>
<feBlend mode="normal" in2="shape" result="effect2_innerShadow_2_684"/>
<feColorMatrix in="SourceAlpha" type="matrix" values="0 0 0 0 0 0 0 0 0 0 0 0 0 0 0 0 0 0 127 0" result="hardAlpha"/>
<feOffset dx="-1.18" dy="-1.18"/>
<feGaussianBlur stdDeviation="1"/>
<feComposite in2="hardAlpha" operator="arithmetic" k2="-1" k3="1"/>
<feColorMatrix type="matrix" values="0 0 0 0 0 0 0 0 0 0 0 0 0 0 0 0 0 0 0.15 0"/>
<feBlend mode="normal" in2="effect2_innerShadow_2_684" result="effect3_innerShadow_2_684"/>
</filter>
<linearGradient id="paint0_linear_2_684" x1="8.74603" y1="-4.60317" x2="58" y2="58" gradientUnits="userSpaceOnUse">
<stop stop-color="white"/>
<stop offset="1" stop-color="white" stop-opacity="0"/>
</linearGradient>
<linearGradient id="paint1_linear_2_684" x1="39.2262" y1="-3.67057" x2="8.60887" y2="23.7873" gradientUnits="userSpaceOnUse">
<stop stop-color="white" stop-opacity="0.01"/>
<stop offset="0.12833" stop-color="#00FAFA"/>
<stop offset="1" stop-color="#7F00FF"/>
</linearGradient>
<linearGradient id="paint2_linear_2_684" x1="30.3746" y1="6.76082" x2="19.0221" y2="20.6597" gradientUnits="userSpaceOnUse">
<stop stop-color="white" stop-opacity="0.01"/>
<stop offset="0.12833" stop-color="#00FAFA"/>
<stop offset="1" stop-color="#7F00FF"/>
</linearGradient>
<linearGradient id="paint3_linear_2_684" x1="22.9351" y1="17.0125" x2="5.87378" y2="32.4494" gradientUnits="userSpaceOnUse">
<stop stop-color="white" stop-opacity="0.01"/>
<stop offset="0.12833" stop-color="#00FAFA"/>
<stop offset="1" stop-color="#7F00FF"/>
</linearGradient>
<linearGradient id="paint4_linear_2_684" x1="38.8858" y1="8.79136" x2="31.9413" y2="15.4337" gradientUnits="userSpaceOnUse">
<stop stop-color="white" stop-opacity="0.01"/>
<stop offset="0.12833" stop-color="#00FAFA"/>
<stop offset="1" stop-color="#7F00FF"/>
</linearGradient>
</defs>
</svg>
