<svg viewBox="0 0 58 58" fill="none" xmlns="http://www.w3.org/2000/svg">
<g filter="url(#filter0_bii_2_622)">
<rect width="58" height="58" rx="8" fill="url(#paint0_linear_2_622)"/>
</g>
<path d="M37.6544 43.5242C35.3792 44.323 31.8797 44.8181 29.3092 44.8181C26.7387 44.8181 23.2393 44.3232 20.9641 43.5242C19.3706 44.8969 17.5368 45.9627 15.5552 46.6678C15.5139 46.6815 15.4791 46.7101 15.4578 46.7482C15.4365 46.7862 15.4302 46.8308 15.4401 46.8732C15.45 46.9156 15.4754 46.9528 15.5113 46.9775C15.5472 47.0021 15.5911 47.0125 15.6342 47.0065C17.435 46.7923 19.2173 46.4439 20.9662 45.9643C22.9615 46.7447 26.7564 47.1713 29.3095 47.1713C31.8626 47.1713 35.7442 46.8413 37.6547 45.9643C39.4184 46.4576 41.2188 46.809 43.0385 47.0152C43.0817 47.0212 43.1255 47.0108 43.1614 46.9862C43.1973 46.9615 43.2227 46.9243 43.2326 46.8819C43.2425 46.8394 43.2362 46.7949 43.2149 46.7568C43.1936 46.7188 43.1589 46.6902 43.1175 46.6765C41.1294 45.9464 39.2814 44.8801 37.6544 43.5242Z" fill="white"/>
<path d="M45.7919 29.7171L29.6228 22.2924C29.5318 22.2495 29.4325 22.2273 29.3319 22.2273C29.2313 22.2273 29.132 22.2495 29.041 22.2924L12.8805 29.7171C12.6084 29.8426 12.378 30.0434 12.2164 30.2958C12.0548 30.5482 11.9689 30.8415 11.9688 31.1412C11.9702 31.3404 12.0085 31.5377 12.0817 31.723L16.8311 43.5243C19.2191 43.5243 21.7548 41.6139 21.7548 41.6139C23.3182 42.3942 26.3651 43.0987 28.6415 43.2291C28.8845 43.2465 29.1189 43.2465 29.3362 43.2465C29.5535 43.2465 29.7879 43.2378 30.031 43.2291C32.3063 43.0987 35.3543 42.4042 36.9174 41.6139C36.9174 41.6139 39.4531 43.5243 41.8411 43.5243L46.592 31.723C46.6653 31.5377 46.7036 31.3404 46.705 31.1412C46.7048 30.8414 46.6187 30.5479 46.4568 30.2955C46.295 30.0432 46.0643 29.8424 45.7919 29.7171ZM25.5152 31.8881C24.9421 31.8881 24.4731 31.0371 24.4731 29.9776C24.4731 28.9181 24.9429 28.0668 25.5152 28.0668C26.0875 28.0668 26.5574 28.9178 26.5574 29.9773C26.5574 31.0369 26.0883 31.8881 25.5152 31.8881ZM33.1569 31.8881C32.5839 31.8881 32.1148 31.0371 32.1148 29.9776C32.1148 28.9181 32.5836 28.0671 33.1569 28.0671C33.7303 28.0671 34.1991 28.9181 34.1991 29.9776C34.1991 31.0371 33.73 31.8881 33.1569 31.8881Z" fill="white"/>
<path d="M41.1369 17.9074V17.8987C40.6507 15.589 39.6173 13.8259 37.672 13.8259H34.6675L34.4939 13.1312C34.3398 12.5345 33.9916 12.0059 33.5043 11.6286C33.017 11.2514 32.418 11.0468 31.8017 11.0471H26.8519C26.2344 11.047 25.6345 11.2527 25.147 11.6317C24.6594 12.0107 24.3122 12.5414 24.16 13.1399L23.9864 13.8246H20.999C19.0103 13.8246 17.951 15.6221 17.5428 17.9069L15.9626 26.3129C15.9508 26.3756 15.9564 26.4403 15.9788 26.5C16.0012 26.5597 16.0395 26.6122 16.0897 26.6516C16.1398 26.691 16.1998 26.7159 16.2631 26.7237C16.3264 26.7314 16.3906 26.7216 16.4488 26.6953L18.6458 25.6879C18.6968 25.665 18.7415 25.6301 18.7763 25.5863C18.811 25.5425 18.8347 25.491 18.8454 25.4361L20.2521 18.0027C20.4691 17.0736 20.886 16.6135 21.6501 16.6135H37.0294C37.8021 16.6135 38.1669 17.0478 38.4273 18.0027L39.8343 25.4361C39.8434 25.4916 39.8665 25.5439 39.9014 25.5879C39.9364 25.632 39.982 25.6664 40.0339 25.6879L42.2396 26.704C42.2977 26.7311 42.3622 26.7416 42.4259 26.7343C42.4895 26.727 42.5499 26.7022 42.6003 26.6625C42.6507 26.6229 42.6891 26.5701 42.7113 26.51C42.7335 26.4498 42.7385 26.3847 42.7258 26.3218L41.1369 17.9074Z" fill="white"/>
<defs>
<filter id="filter0_bii_2_622" x="-49.0159" y="-49.0159" width="156.032" height="156.032" filterUnits="userSpaceOnUse" color-interpolation-filters="sRGB">
<feFlood flood-opacity="0" result="BackgroundImageFix"/>
<feGaussianBlur in="BackgroundImage" stdDeviation="24.508"/>
<feComposite in2="SourceAlpha" operator="in" result="effect1_backgroundBlur_2_622"/>
<feBlend mode="normal" in="SourceGraphic" in2="effect1_backgroundBlur_2_622" result="shape"/>
<feColorMatrix in="SourceAlpha" type="matrix" values="0 0 0 0 0 0 0 0 0 0 0 0 0 0 0 0 0 0 127 0" result="hardAlpha"/>
<feOffset dx="1.17782" dy="1.17782"/>
<feGaussianBlur stdDeviation="1"/>
<feComposite in2="hardAlpha" operator="arithmetic" k2="-1" k3="1"/>
<feColorMatrix type="matrix" values="0 0 0 0 0.928409 0 0 0 0 0.978523 0 0 0 0 1 0 0 0 0.26 0"/>
<feBlend mode="normal" in2="shape" result="effect2_innerShadow_2_622"/>
<feColorMatrix in="SourceAlpha" type="matrix" values="0 0 0 0 0 0 0 0 0 0 0 0 0 0 0 0 0 0 127 0" result="hardAlpha"/>
<feOffset dx="-1.18" dy="-1.18"/>
<feGaussianBlur stdDeviation="1"/>
<feComposite in2="hardAlpha" operator="arithmetic" k2="-1" k3="1"/>
<feColorMatrix type="matrix" values="0 0 0 0 0 0 0 0 0 0 0 0 0 0 0 0 0 0 0.15 0"/>
<feBlend mode="normal" in2="effect2_innerShadow_2_622" result="effect3_innerShadow_2_622"/>
</filter>
<linearGradient id="paint0_linear_2_622" x1="29" y1="0" x2="29" y2="58" gradientUnits="userSpaceOnUse">
<stop stop-color="#B4FFDF"/>
<stop offset="1" stop-color="#00227E"/>
</linearGradient>
</defs>
</svg>
