<svg width="46" height="46" viewBox="0 0 46 46" fill="none" xmlns="http://www.w3.org/2000/svg">
<g filter="url(#filter0_bii_2_513)">
<path fill-rule="evenodd" clip-rule="evenodd" d="M44 23C44 34.598 34.598 44 23 44C19.4957 44 16.1918 43.1416 13.2872 41.6237L2.13443 43.9716C2.06803 43.9856 2.00728 43.9308 2.01438 43.8633L3.41199 30.586C2.50013 28.2331 2 25.6749 2 23C2 11.402 11.402 2 23 2C34.598 2 44 11.402 44 23ZM33.5 23C33.5 28.799 28.799 33.5 23 33.5C21.2478 33.5 19.5959 33.0708 18.1436 32.3119L12.5 33.5L13.206 26.793C12.7501 25.6165 12.5 24.3375 12.5 23C12.5 17.201 17.201 12.5 23 12.5C28.799 12.5 33.5 17.201 33.5 23Z" fill="#00EF8B"/>
</g>
<defs>
<filter id="filter0_bii_2_513" x="-49.0159" y="-49.0159" width="144.032" height="144.032" filterUnits="userSpaceOnUse" color-interpolation-filters="sRGB">
<feFlood flood-opacity="0" result="BackgroundImageFix"/>
<feGaussianBlur in="BackgroundImage" stdDeviation="24.508"/>
<feComposite in2="SourceAlpha" operator="in" result="effect1_backgroundBlur_2_513"/>
<feBlend mode="normal" in="SourceGraphic" in2="effect1_backgroundBlur_2_513" result="shape"/>
<feColorMatrix in="SourceAlpha" type="matrix" values="0 0 0 0 0 0 0 0 0 0 0 0 0 0 0 0 0 0 127 0" result="hardAlpha"/>
<feOffset dx="1.17782" dy="1.17782"/>
<feGaussianBlur stdDeviation="1"/>
<feComposite in2="hardAlpha" operator="arithmetic" k2="-1" k3="1"/>
<feColorMatrix type="matrix" values="0 0 0 0 0.928409 0 0 0 0 0.978523 0 0 0 0 1 0 0 0 0.26 0"/>
<feBlend mode="normal" in2="shape" result="effect2_innerShadow_2_513"/>
<feColorMatrix in="SourceAlpha" type="matrix" values="0 0 0 0 0 0 0 0 0 0 0 0 0 0 0 0 0 0 127 0" result="hardAlpha"/>
<feOffset dx="-1.18" dy="-1.18"/>
<feGaussianBlur stdDeviation="1"/>
<feComposite in2="hardAlpha" operator="arithmetic" k2="-1" k3="1"/>
<feColorMatrix type="matrix" values="0 0 0 0 0 0 0 0 0 0 0 0 0 0 0 0 0 0 0.3 0"/>
<feBlend mode="normal" in2="effect2_innerShadow_2_513" result="effect3_innerShadow_2_513"/>
</filter>
</defs>
</svg>
