<svg width="17" height="17" viewBox="0 0 17 17" fill="none" xmlns="http://www.w3.org/2000/svg">
<path fill-rule="evenodd" clip-rule="evenodd" d="M17 8.5C17 13.1944 13.1944 17 8.5 17C7.08158 17 5.7443 16.6526 4.56863 16.0382L0.134433 16.9717C0.0680271 16.9857 0.00727753 16.9308 0.0143816 16.8634L0.571522 11.5705C0.202435 10.6182 0 9.58272 0 8.5C0 3.80558 3.80558 0 8.5 0C13.1944 0 17 3.80558 17 8.5ZM12.75 8.5C12.75 10.8472 10.8472 12.75 8.5 12.75C7.79079 12.75 7.12215 12.5763 6.53431 12.2691L4.25 12.75L4.53576 10.0353C4.35122 9.55908 4.25 9.04136 4.25 8.5C4.25 6.15279 6.15279 4.25 8.5 4.25C10.8472 4.25 12.75 6.15279 12.75 8.5Z" fill="currentColor"/>
</svg>
