<svg width="24" height="24" viewBox="0 0 24 24" fill="none" xmlns="http://www.w3.org/2000/svg">
<path d="M19.0948 6.17252C17.8487 5.61757 16.5305 5.22326 15.175 5C15.0061 5.29057 14.8089 5.68139 14.6728 5.9923C13.2113 5.78312 11.7632 5.78312 10.3286 5.9923C10.1926 5.68146 9.99088 5.29057 9.82047 5C8.4636 5.22336 7.14426 5.61868 5.89764 6.17542C3.41696 9.74372 2.74446 13.2233 3.08067 16.6536C4.72603 17.8232 6.32054 18.5337 7.88819 18.9986C8.27779 18.4886 8.62219 17.9487 8.91782 17.3844C8.35497 17.1804 7.81236 16.929 7.29644 16.6333C7.43221 16.5375 7.56478 16.4376 7.69396 16.3339C10.8202 17.7258 14.217 17.7258 17.306 16.3339C17.4358 16.437 17.5683 16.5368 17.7035 16.6333C17.1867 16.9298 16.6431 17.1817 16.0791 17.3859C16.3764 17.9524 16.7202 18.4929 17.1088 19C18.6779 18.5351 20.2739 17.8246 21.9192 16.6536C22.3138 12.677 21.2453 9.22934 19.0948 6.17245V6.17252ZM9.34377 14.544C8.40527 14.544 7.63562 13.71 7.63562 12.6945C7.63562 11.6789 8.38887 10.8435 9.34377 10.8435C10.2987 10.8435 11.0683 11.6775 11.0519 12.6945C11.0534 13.71 10.2987 14.544 9.34377 14.544ZM15.6561 14.544C14.7176 14.544 13.9481 13.71 13.9481 12.6945C13.9481 11.6789 14.7012 10.8435 15.6561 10.8435C16.6111 10.8435 17.3807 11.6775 17.3643 12.6945C17.3643 13.71 16.6111 14.544 15.6561 14.544Z" fill="white"/>
</svg>
