<svg width="24" height="24" viewBox="0 0 24 24" fill="none" xmlns="http://www.w3.org/2000/svg">
<path d="M5 8.999C5 10.901 5.765 12.626 7 13.889V21C6.99937 21.1707 7.04252 21.3387 7.12533 21.4879C7.20814 21.6372 7.32785 21.7627 7.47301 21.8525C7.61818 21.9423 7.78394 21.9933 7.95446 22.0008C8.12498 22.0082 8.29457 21.9718 8.447 21.895L12 20.118L15.553 21.894C15.7051 21.9709 15.8744 22.0074 16.0446 21.9998C16.2149 21.9923 16.3803 21.9411 16.525 21.851C16.82 21.668 17 21.347 17 21V13.89C18.2822 12.585 19.0005 10.8285 19 8.999C19 5.14 15.86 2 12 2C8.14 2 5 5.14 5 8.999ZM12.447 18.105C12.3081 18.0355 12.1549 17.9993 11.9995 17.9993C11.8441 17.9993 11.6909 18.0355 11.552 18.105L9 19.382V15.315C9.911 15.749 10.926 16 12 16C13.074 16 14.089 15.75 15 15.315V19.381L12.447 18.105ZM12 4C14.756 4 17 6.242 17 8.999C16.9987 10.3248 16.4715 11.5959 15.5341 12.5334C14.5968 13.471 13.3258 13.9984 12 14C9.243 14 7 11.757 7 8.999C7.00159 7.6735 7.52891 6.40275 8.46628 5.46557C9.40365 4.5284 10.6745 4.00132 12 4Z" fill="currentColor"/>
</svg>
