<svg width="24" height="24" viewBox="0 0 24 24" fill="none" xmlns="http://www.w3.org/2000/svg">
<path d="M12 4.00006C13.8129 4.00431 15.5705 4.62416 16.985 5.75806H15.242C14.9768 5.75806 14.7224 5.86341 14.5349 6.05095C14.3474 6.23849 14.242 6.49284 14.242 6.75806C14.242 7.02327 14.3474 7.27763 14.5349 7.46516C14.7224 7.6527 14.9768 7.75806 15.242 7.75806H19.242C19.5072 7.75806 19.7616 7.6527 19.9491 7.46516C20.1367 7.27763 20.242 7.02327 20.242 6.75806V2.75806C20.242 2.49284 20.1367 2.23849 19.9491 2.05095C19.7616 1.86341 19.5072 1.75806 19.242 1.75806C18.9768 1.75806 18.7224 1.86341 18.5349 2.05095C18.3474 2.23849 18.242 2.49284 18.242 2.75806V4.20606C16.774 3.02462 15.0016 2.2828 13.1297 2.06635C11.2578 1.8499 9.3629 2.16766 7.66402 2.9829C5.96514 3.79814 4.53168 5.07756 3.52937 6.67324C2.52706 8.26892 1.99685 10.1157 2.00001 12.0001C2.00001 12.2653 2.10537 12.5196 2.29291 12.7072C2.48044 12.8947 2.7348 13.0001 3.00001 13.0001C3.26523 13.0001 3.51958 12.8947 3.70712 12.7072C3.89466 12.5196 4.00001 12.2653 4.00001 12.0001C4.0024 9.87906 4.84602 7.84561 6.34579 6.34583C7.84557 4.84606 9.87901 4.00244 12 4.00006Z" fill="currentColor"/>
<path d="M21.0008 11C20.7356 11 20.4812 11.1054 20.2937 11.2929C20.1062 11.4804 20.0008 11.7348 20.0008 12C20.0035 13.5066 19.5799 14.9832 18.779 16.2593C17.9782 17.5355 16.8326 18.559 15.4748 19.2117C14.1169 19.8645 12.6021 20.1198 11.1053 19.9482C9.60847 19.7766 8.19073 19.1851 7.01581 18.242H8.75781C9.02303 18.242 9.27738 18.1366 9.46492 17.9491C9.65246 17.7616 9.75781 17.5072 9.75781 17.242C9.75781 16.9768 9.65246 16.7224 9.46492 16.5349C9.27738 16.3474 9.02303 16.242 8.75781 16.242H4.75781C4.4926 16.242 4.23824 16.3474 4.05071 16.5349C3.86317 16.7224 3.75781 16.9768 3.75781 17.242V21.242C3.75781 21.5072 3.86317 21.7616 4.05071 21.9491C4.23824 22.1366 4.4926 22.242 4.75781 22.242C5.02303 22.242 5.27738 22.1366 5.46492 21.9491C5.65246 21.7616 5.75781 21.5072 5.75781 21.242V19.794C7.22592 20.9753 8.99837 21.717 10.8703 21.9334C12.7422 22.1498 14.6371 21.8321 16.336 21.0169C18.0349 20.2017 19.4685 18.9223 20.4709 17.3267C21.4733 15.7311 22.0037 13.8844 22.0008 12C22.0008 11.7348 21.8955 11.4804 21.7079 11.2929C21.5204 11.1054 21.266 11 21.0008 11Z" fill="currentColor"/>
</svg>
