<svg width="24" height="24" viewBox="0 0 24 24" fill="none" xmlns="http://www.w3.org/2000/svg">
<path d="M6 19H18C20.2 19 22 17.2 22 15V9C22 6.8 20.2 5 18 5H6C3.8 5 2 6.8 2 9V15C2 17.2 3.8 19 6 19ZM6 7H18C19.1 7 20 7.9 20 9H4C4 7.9 4.9 7 6 7ZM4 11H20V15C20 16.1 19.1 17 18 17H6C4.9 17 4 16.1 4 15V11Z" fill="black"/>
<path d="M14 16C14.5523 16 15 15.5523 15 15C15 14.4477 14.5523 14 14 14C13.4477 14 13 14.4477 13 15C13 15.5523 13.4477 16 14 16Z" fill="black"/>
<path d="M17 16C17.5523 16 18 15.5523 18 15C18 14.4477 17.5523 14 17 14C16.4477 14 16 14.4477 16 15C16 15.5523 16.4477 16 17 16Z" fill="black"/>
</svg>
