<svg width="24" height="24" viewBox="0 0 24 24" fill="none" xmlns="http://www.w3.org/2000/svg">
<path d="M13.1116 9.09186L14.9585 9.09084C15.0015 9.08625 15.0367 9.11311 15.042 9.15459L15.0396 10.8305C15.0515 10.9226 15.0194 11.0219 14.9526 11.1001L11.3055 14.7695C11.2372 14.8408 11.1449 14.8833 11.0531 14.886L9.31756 14.8887C9.27319 14.8901 9.24055 14.8574 9.24225 14.8136L9.2465 12.9742C9.24973 12.891 9.28696 12.8072 9.34986 12.7418L12.8731 9.22191C12.9357 9.14881 13.0224 9.10121 13.1115 9.09169L13.1116 9.09186Z" fill="black"/>
<path d="M13.4961 17.4021C13.3682 17.527 13.2054 17.5972 13.0493 17.5947L6.85228 17.5865C6.66664 17.5838 6.5371 17.4522 6.53795 17.2671V11.2227C6.53846 11.067 6.6119 10.906 6.73974 10.7811L8.84383 8.70386H5.0513L3.6641 10.0807C3.52861 10.2131 3.44803 10.3869 3.44531 10.5528L3.44684 20.1501C3.44429 20.3075 3.49716 20.4412 3.59015 20.5359C3.68331 20.6304 3.81642 20.6858 3.97435 20.6861L13.6438 20.6875C13.8102 20.688 13.986 20.6112 14.1215 20.4786L15.4301 19.1349V15.6477L13.4961 17.4022V17.4021Z" fill="black"/>
<path d="M19.9367 3.67822H10.2504C10.0882 3.67788 9.91975 3.75387 9.788 3.88698L7.35156 6.38411H17.2955C17.5684 6.38853 17.7583 6.58794 17.7574 6.86895L17.7268 16.8342L20.2357 14.3816C20.3669 14.249 20.4448 14.0754 20.4475 13.9095V4.2144C20.4523 3.8999 20.2422 3.67941 19.9367 3.67822Z" fill="black"/>
</svg>
