<svg width="24" height="24" viewBox="0 0 24 24" fill="none" xmlns="http://www.w3.org/2000/svg">
<path d="M19.6942 8.25L17.1942 4.5H15.4046L16.5395 8.25H19.6942ZM19.5276 9.75H16.4807L14.017 16.9138L19.5276 9.75ZM9.82487 16.7161L7.42914 9.75H4.46633L9.82487 16.7161ZM4.29973 8.25H7.3703L8.50525 4.5H6.79973L4.29973 8.25ZM10.1769 4.5L9.04198 8.25H14.8679L13.7329 4.5H10.1769ZM21.5994 8.40367C21.8371 8.76017 21.8212 9.22847 21.56 9.56808L12.7896 20.9696C12.7368 21.0382 12.6753 21.0997 12.6067 21.1525C12.1689 21.4892 11.5411 21.4073 11.2043 20.9696L2.43394 9.56808C2.1727 9.22847 2.15685 8.76017 2.39451 8.40367L5.70009 3.4453C5.88556 3.1671 6.19779 3 6.53214 3H17.4618C17.7961 3 18.1084 3.1671 18.2938 3.4453L21.5994 8.40367ZM11.9549 17.9899L14.7887 9.75H9.12112L11.9549 17.9899Z" fill="currentColor"/>
</svg>
