<svg width="24" height="24" viewBox="0 0 24 24" fill="none" xmlns="http://www.w3.org/2000/svg">
<path d="M7.65847 7.76182C7.42918 7.57139 7.13379 7.4795 6.83693 7.50627C6.54007 7.53303 6.26588 7.67626 6.07434 7.90464L3.26201 11.2794C3.09276 11.4814 3 11.7366 3 12.0001C3 12.2636 3.09276 12.5187 3.26201 12.7207L6.07434 16.0955C6.16869 16.2098 6.2847 16.3044 6.4157 16.3737C6.54671 16.443 6.69012 16.4858 6.8377 16.4995C6.98528 16.5132 7.13411 16.4976 7.27565 16.4536C7.41718 16.4096 7.54862 16.338 7.66241 16.2431C7.7762 16.1481 7.87009 16.0316 7.93869 15.9002C8.0073 15.7688 8.04925 15.6252 8.06215 15.4775C8.07505 15.3299 8.05864 15.1811 8.01386 15.0398C7.96908 14.8985 7.89681 14.7675 7.80122 14.6542L5.58878 12.0001L7.80127 9.34599C7.99234 9.11695 8.08463 8.82141 8.05785 8.52434C8.03107 8.22727 7.88742 7.953 7.65847 7.76182Z" fill="black"/>
<path d="M13.3446 5.27275C13.0524 5.21743 12.7501 5.27896 12.5028 5.44413C12.2555 5.6093 12.0828 5.86491 12.022 6.15603L9.7721 17.4053C9.74292 17.5502 9.74263 17.6994 9.77127 17.8444C9.7999 17.9893 9.85689 18.1272 9.93896 18.2501C10.021 18.373 10.1266 18.4785 10.2495 18.5605C10.3724 18.6425 10.5104 18.6994 10.6554 18.7279C10.7284 18.7429 10.8027 18.7503 10.8773 18.7499C11.1371 18.7495 11.3887 18.6591 11.5894 18.4941C11.7901 18.3291 11.9274 18.0996 11.978 17.8448L14.2279 6.59544C14.2571 6.45057 14.2574 6.30136 14.2287 6.15637C14.2001 6.01139 14.1431 5.87349 14.0611 5.75059C13.979 5.62769 13.8734 5.52221 13.7505 5.44021C13.6276 5.35821 13.4896 5.3013 13.3446 5.27275Z" fill="black"/>
<path d="M20.7342 11.2797L17.9218 7.90486C17.8275 7.79055 17.7115 7.69602 17.5805 7.6267C17.4495 7.55737 17.306 7.51463 17.1585 7.50092C17.0109 7.48721 16.8621 7.5028 16.7205 7.5468C16.579 7.59081 16.4475 7.66235 16.3338 7.75732C16.22 7.8523 16.1261 7.96882 16.0575 8.10021C15.9889 8.23159 15.9469 8.37524 15.934 8.52289C15.9211 8.67054 15.9375 8.81929 15.9823 8.96058C16.0271 9.10186 16.0994 9.23291 16.1949 9.34617L18.4074 12.0003L16.1949 14.6545C16.0993 14.7678 16.027 14.8988 15.9822 15.0401C15.9375 15.1814 15.9211 15.3301 15.934 15.4778C15.9469 15.6254 15.9888 15.7691 16.0574 15.9005C16.126 16.0318 16.2199 16.1484 16.3337 16.2433C16.4475 16.3383 16.5789 16.4099 16.7205 16.4539C16.862 16.4979 17.0108 16.5135 17.1584 16.4997C17.306 16.486 17.4494 16.4433 17.5804 16.374C17.7114 16.3046 17.8274 16.2101 17.9218 16.0958L20.7342 12.721C20.9034 12.519 20.9962 12.2638 20.9962 12.0003C20.9962 11.7368 20.9034 11.4817 20.7342 11.2797Z" fill="black"/>
</svg>
