<svg width="24" height="24" viewBox="0 0 24 24" fill="none" xmlns="http://www.w3.org/2000/svg">
<g clip-path="url(#clip0_904_16711)">
<path fill-rule="evenodd" clip-rule="evenodd" d="M7 13.6765V7.32353C7 6.59294 6.25333 6 5.33333 6C4.59333 6 3.40667 6 2.66667 6C1.74667 6 1 6.59294 1 7.32353V13.6765C1 14.4071 1.74667 15 2.66667 15C3.40667 15 4.59333 15 5.33333 15C6.25333 15 7 14.4071 7 13.6765ZM3 7.58824V13.4118H5V7.58824H3Z" fill="currentColor"/>
<path fill-rule="evenodd" clip-rule="evenodd" d="M16.9545 7.18182V5.81818C16.9545 5.36655 16.5676 5 16.0909 5H10.9091C10.4324 5 10.0455 5.36655 10.0455 5.81818V7.18182H5.86364C5.38691 7.18182 5 7.54836 5 8V13.4545C5 13.9062 5.38691 14.2727 5.86364 14.2727H16.25C16.326 14.2727 16.3859 14.3011 16.44 14.3524C16.4941 14.4036 16.5 14.4735 16.5 14.5455V16.1818C16.5 16.6335 16.7733 17 17.25 17H22.1364C22.6131 17 23 16.6335 23 16.1818V11.2727C23 10.1873 22.8095 9.14764 22 8.37964C21.1893 7.61273 20.0919 7.18182 18.9462 7.18182H16.9545ZM15.2273 8.22727C15.2273 8.67891 15.6142 9.04545 16.0909 9.04545H18.5C19.1875 9.04545 19.9141 9.304 20.4 9.76436C20.8859 10.2247 21 10.8487 21 11.5V15.3636H18.5V14.4091C18.5 13.9029 18.2881 13.4175 17.9093 13.0596C17.5316 12.7007 17.0192 12.5 16.4848 12.5H7V9.04545H10.9091C11.3858 9.04545 11.7727 8.67891 11.7727 8.22727V6.63636H15.2273V8.22727Z" fill="currentColor"/>
<path fill-rule="evenodd" clip-rule="evenodd" d="M14.5 5.16667V1.83333C14.5 1.37333 14.052 1 13.5 1C12.948 1 12.5 1.37333 12.5 1.83333V5.16667C12.5 5.62667 12.948 6 13.5 6C14.052 6 14.5 5.62667 14.5 5.16667Z" fill="currentColor"/>
<path fill-rule="evenodd" clip-rule="evenodd" d="M16.3 2H10.7C10.3136 2 10 2.448 10 3C10 3.552 10.3136 4 10.7 4H16.3C16.6864 4 17 3.552 17 3C17 2.448 16.6864 2 16.3 2Z" fill="currentColor"/>
<path fill-rule="evenodd" clip-rule="evenodd" d="M20.4909 17.15C20.1996 16.95 19.8004 16.95 19.5091 17.15C19.5091 17.15 17 18.918 17 21.25C17 22.768 18.344 24 20 24C21.656 24 23 22.768 23 21.25C23 18.918 20.4909 17.15 20.4909 17.15ZM20 19C20.5498 19.491 21.2025 20.145 21.2025 21.25C21.2025 21.94 20.7527 22.5 20 22.5C19.2473 22.5 18.8111 21.94 18.8111 21.25C18.8111 20.145 19.4502 19.491 20 19Z" fill="currentColor"/>
<path fill-rule="evenodd" clip-rule="evenodd" d="M16.75 17H22.75C23.302 17 23.75 16.552 23.75 16C23.75 15.448 23.302 15 22.75 15H16.75C16.198 15 15.75 15.448 15.75 16C15.75 16.552 16.198 17 16.75 17Z" fill="currentColor"/>
</g>
<defs>
<clipPath id="clip0_904_16711">
<rect width="24" height="24" fill="white"/>
</clipPath>
</defs>
</svg>
