<svg width="24" height="24" viewBox="0 0 24 24" fill="none" xmlns="http://www.w3.org/2000/svg">
<path d="M5.49513 14H3.5045C3.22565 14 3 14.3054 3 14.6828V19.317C3 19.6946 3.22565 20 3.5045 20H5.49513C5.77398 20 6 19.6946 6 19.317V14.6828C6 14.3056 5.77398 14 5.49513 14Z" fill="black"/>
<path d="M11.495 11H9.50465C9.22582 11 9 11.2937 9 11.6564V19.3436C9 19.7065 9.22582 20 9.50465 20H11.495C11.7738 20 12 19.7065 12 19.3436V11.6562C11.9998 11.2937 11.7736 11 11.495 11Z" fill="black"/>
<path d="M19.9252 7.92176C19.9141 7.9035 19.9017 7.88674 19.8876 7.87123C18.8365 6.61864 17.7851 5.36604 16.734 4.11369C16.6047 3.95962 16.3893 3.96362 16.2609 4.1167C15.2053 5.37479 14.1498 6.63314 13.0943 7.89124C12.89 8.13486 13.0401 8.57031 13.3295 8.57031C13.7993 8.57031 14.2688 8.57031 14.7383 8.57031V19.3309C14.7383 19.7009 14.9896 20 15.2998 20H17.5142C17.8244 20 18.076 19.7009 18.076 19.3309V8.57006C18.6027 8.57006 19.1295 8.57006 19.6559 8.57006C19.6704 8.56981 19.6846 8.56856 19.6987 8.56581C19.836 8.55105 19.9254 8.45251 19.9655 8.32795C20.0173 8.20389 20.0161 8.05307 19.9252 7.92176Z" fill="black"/>
</svg>
