<svg width="24" height="24" viewBox="0 0 24 24" fill="none" xmlns="http://www.w3.org/2000/svg">
<path d="M13.3179 8.54648L15.4907 8.54528C15.5413 8.53988 15.5827 8.57148 15.5889 8.62028L15.5861 10.5919C15.6001 10.7003 15.5623 10.8171 15.4837 10.9091L11.1931 15.2261C11.1127 15.3099 11.0041 15.3599 10.8961 15.3631L8.8543 15.3663C8.8021 15.3679 8.7637 15.3295 8.7657 15.2779L8.7707 13.1139C8.7745 13.0161 8.8183 12.9175 8.8923 12.8405L13.0373 8.69948C13.1109 8.61348 13.2129 8.55748 13.3177 8.54628L13.3179 8.54648Z" fill="black"/>
<path d="M13.7697 18.323C13.6193 18.47 13.4277 18.5526 13.2441 18.5496L5.95351 18.54C5.73511 18.5368 5.58271 18.382 5.58371 18.1642V11.0532C5.58431 10.87 5.67071 10.6806 5.82111 10.5336L8.29651 8.08984H3.83471L2.20271 9.70964C2.04331 9.86544 1.94851 10.0698 1.94531 10.265L1.94711 21.556C1.94411 21.7412 2.00631 21.8984 2.11571 22.0098C2.22531 22.121 2.38191 22.1862 2.56771 22.1866L13.9435 22.1882C14.1393 22.1888 14.3461 22.0984 14.5055 21.9424L16.0451 20.3616V16.259L13.7697 18.3232V18.323Z" fill="black"/>
<path d="M21.3451 2.17749H9.94946C9.75866 2.17709 9.56046 2.26649 9.40546 2.42309L6.53906 5.36089H18.2379C18.5589 5.36609 18.7823 5.60069 18.7813 5.93129L18.7453 17.6551L21.6969 14.7697C21.8513 14.6137 21.9429 14.4095 21.9461 14.2143V2.80829C21.9517 2.43829 21.7045 2.17889 21.3451 2.17749Z" fill="black"/>
</svg>
