<svg width="24" height="24" viewBox="0 0 24 24" fill="none" xmlns="http://www.w3.org/2000/svg">
<path d="M18.8295 10.574L20.7686 9.06725C20.998 8.88898 21.0671 8.54813 20.9249 8.30433L19.6949 6.19548C19.5519 5.95034 19.2189 5.84087 18.9493 5.94799L16.6602 6.85754C15.9464 6.22306 15.0997 5.73211 14.1666 5.43056L13.818 3.01533C13.7768 2.72951 13.5131 2.4999 13.2287 2.4999H10.7688C10.4829 2.4999 10.2206 2.73067 10.1795 3.01533L9.83097 5.43056C8.89783 5.73211 8.05117 6.22306 7.33736 6.85754L5.04824 5.94799C4.77756 5.84044 4.44485 5.95168 4.30265 6.19548L3.0727 8.30433C2.92972 8.54947 3.00047 8.8897 3.22897 9.06725L5.16808 10.574C5.07055 11.0341 5.01926 11.5111 5.01926 11.9999C5.01926 12.4887 5.07055 12.9657 5.16808 13.4258L3.22897 14.9326C3.00047 15.1101 2.92972 15.4503 3.0727 15.6955L4.30265 17.8043C4.44485 18.0481 4.77756 18.1594 5.04824 18.0518L7.33736 17.1423C8.05117 17.7767 8.89783 18.2677 9.83097 18.5692L10.1795 20.9845C10.2206 21.2691 10.4829 21.4999 10.7688 21.4999H13.2287C13.5131 21.4999 13.7768 21.2703 13.818 20.9845L14.1666 18.5692C15.0997 18.2677 15.9464 17.7767 16.6602 17.1423L18.9493 18.0518C19.2189 18.1589 19.5519 18.0495 19.6949 17.8043L20.9249 15.6955C21.0671 15.4517 20.998 15.1108 20.7686 14.9326L18.8295 13.4258C18.927 12.9657 18.9783 12.4887 18.9783 11.9999C18.9783 11.5111 18.927 11.0341 18.8295 10.574ZM20.5783 11.9999C20.5783 12.2459 20.5677 12.4908 20.5467 12.7339L21.7503 13.6691C22.6072 14.3349 22.8569 15.5586 22.307 16.5016L21.077 18.6104C20.5312 19.5463 19.3562 19.9352 18.3585 19.5387L16.9233 18.9685C16.5113 19.2553 16.0744 19.5058 15.6176 19.7169L15.4016 21.213C15.2473 22.2828 14.3118 23.0999 13.2287 23.0999H10.7688C9.68406 23.0999 8.75013 22.2815 8.59592 21.213L8.38001 19.7169C7.92317 19.5058 7.4863 19.2553 7.07429 18.9685L5.63905 19.5387C4.64017 19.9356 3.46554 19.5449 2.92055 18.6104L1.6906 16.5016C1.13974 15.5571 1.39141 14.3342 2.24726 13.6691L3.45083 12.7339C3.42983 12.4908 3.41926 12.2459 3.41926 11.9999C3.41926 11.7539 3.42983 11.509 3.45083 11.2659L2.24726 10.3307C1.39141 9.66565 1.13974 8.44272 1.6906 7.49823L2.92055 5.38939C3.46554 4.45495 4.64017 4.06417 5.63905 4.46106L7.07429 5.03134C7.4863 4.74452 7.92317 4.49396 8.38001 4.28295L8.59592 2.7868C8.75013 1.71826 9.68406 0.899902 10.7688 0.899902H13.2287C14.3118 0.899902 15.2473 1.71699 15.4016 2.7868L15.6176 4.28295C16.0744 4.49396 16.5113 4.74452 16.9233 5.03134L18.3585 4.46106C19.3562 4.06464 20.5312 4.45347 21.077 5.38939L22.307 7.49823C22.8569 8.44121 22.6072 9.66486 21.7503 10.3307L20.5467 11.2659C20.5677 11.509 20.5783 11.7539 20.5783 11.9999ZM11.9987 14.9999C13.6556 14.9999 14.9987 13.6568 14.9987 11.9999C14.9987 10.343 13.6556 8.9999 11.9987 8.9999C10.3419 8.9999 8.99872 10.343 8.99872 11.9999C8.99872 13.6568 10.3419 14.9999 11.9987 14.9999ZM11.9987 16.5998C9.4582 16.5998 7.39871 14.5403 7.39871 11.9998C7.39871 9.4593 9.4582 7.3998 11.9987 7.3998C14.5392 7.3998 16.5987 9.4593 16.5987 11.9998C16.5987 14.5403 14.5392 16.5998 11.9987 16.5998Z" fill="black"/>
</svg>
