<svg width="24" height="24" viewBox="0 0 24 24" fill="none" xmlns="http://www.w3.org/2000/svg">
<path d="M16.2304 15.0164C16.6663 15.4523 17.1046 15.8906 17.5406 16.3265C18.2249 17.0109 18.9117 17.6976 19.596 18.382C19.7765 18.5625 19.9781 18.7382 20.1374 18.9375C20.0953 18.8812 20.0531 18.8273 20.0085 18.7711C20.0835 18.8672 20.1445 18.9703 20.1937 19.0828C20.1656 19.0172 20.1374 18.9515 20.1117 18.8859C20.1609 19.0054 20.1937 19.1297 20.2124 19.2586C20.2031 19.1859 20.1937 19.1132 20.182 19.0406C20.196 19.1578 20.196 19.275 20.182 19.3922C20.1913 19.3195 20.2007 19.2468 20.2124 19.1742C20.1937 19.3031 20.1609 19.425 20.1117 19.5468C20.1398 19.4812 20.1679 19.4156 20.1937 19.35C20.1445 19.4625 20.0835 19.5656 20.0085 19.6617C20.0507 19.6054 20.0929 19.5515 20.1374 19.4953C19.9593 19.7179 19.7367 19.9101 19.5374 20.1093C19.2492 20.3976 18.9609 20.6859 18.6726 20.9742C18.5788 21.0679 18.4898 21.1617 18.3867 21.2461C18.4429 21.2039 18.4968 21.1617 18.5531 21.1172C18.457 21.1922 18.3538 21.2531 18.2413 21.3023C18.307 21.2742 18.3726 21.2461 18.4382 21.2203C18.3187 21.2695 18.1945 21.3023 18.0656 21.3211C18.1382 21.3117 18.2109 21.3023 18.2835 21.2906C18.1663 21.3047 18.0492 21.3047 17.932 21.2906C18.0046 21.3 18.0773 21.3093 18.1499 21.3211C18.021 21.3023 17.8992 21.2695 17.7773 21.2203C17.8429 21.2484 17.9085 21.2765 17.9742 21.3023C17.8617 21.2531 17.7585 21.1922 17.6624 21.1172C17.7187 21.1593 17.7726 21.2015 17.8288 21.2461C17.6601 21.1101 17.5124 20.9461 17.3624 20.7937C17.0624 20.4937 16.7624 20.1937 16.4624 19.8937C15.7687 19.2 15.0749 18.5062 14.3812 17.8125C14.2148 17.6461 14.0437 17.4867 13.8843 17.3132C13.9265 17.3695 13.9687 17.4234 14.0132 17.4797C13.9851 17.4445 13.9663 17.4093 13.9476 17.3695C13.9757 17.4351 14.0038 17.5007 14.0296 17.5664C14.0203 17.5359 14.0132 17.5078 14.0062 17.475C14.0156 17.5476 14.0249 17.6203 14.0367 17.6929C14.0343 17.6601 14.0343 17.632 14.0367 17.5992C14.0273 17.6718 14.0179 17.7445 14.0062 17.8172C14.0109 17.7843 14.0179 17.7562 14.0296 17.7257C14.0015 17.7914 13.9734 17.857 13.9476 17.9226C13.964 17.8828 13.9851 17.8476 14.0132 17.8125C13.971 17.8687 13.9288 17.9226 13.8843 17.9789C14.2054 17.6297 14.5593 17.3039 14.8945 16.9664C15.4242 16.4367 15.9538 15.907 16.4859 15.375C16.6124 15.2484 16.7367 15.1148 16.8679 14.9953C16.8117 15.0375 16.7578 15.0797 16.7015 15.1242C16.7367 15.0961 16.7718 15.0773 16.8117 15.0586C16.746 15.0867 16.6804 15.1148 16.6148 15.1406C16.6453 15.1312 16.6734 15.1242 16.7062 15.1172C16.6335 15.1265 16.5609 15.1359 16.4882 15.1476C16.521 15.1453 16.5492 15.1453 16.582 15.1476C16.5093 15.1382 16.4367 15.1289 16.364 15.1172C16.3968 15.1218 16.4249 15.1289 16.4554 15.1406C16.3898 15.1125 16.3242 15.0843 16.2585 15.0586C16.2984 15.075 16.3335 15.0961 16.3687 15.1242C16.3124 15.082 16.2585 15.0398 16.2023 14.9953C16.214 15.0023 16.221 15.0093 16.2304 15.0164C16.5468 15.307 17.0812 15.3515 17.3906 15.0164C17.6812 14.7 17.7281 14.1656 17.3906 13.8562C17.0765 13.5679 16.664 13.439 16.2421 13.5398C16.0288 13.5914 15.8367 13.7109 15.6796 13.8609C15.6257 13.9125 15.5742 13.9664 15.5226 14.0179C15.2601 14.2804 14.9976 14.5429 14.7374 14.8031C14.1328 15.4078 13.5281 16.0125 12.9234 16.6172C12.8671 16.6734 12.8109 16.7273 12.757 16.7836C12.3703 17.1843 12.2648 17.8359 12.5976 18.3047C12.7312 18.4945 12.8999 18.6468 13.064 18.8109C13.671 19.4179 14.2781 20.025 14.8851 20.632C15.4078 21.1547 15.9281 21.675 16.4507 22.1976C16.4812 22.2281 16.5117 22.2586 16.5421 22.289C16.9288 22.6664 17.4023 22.8656 17.932 22.9265C18.3796 22.9781 18.8742 22.8539 19.2562 22.6148C19.446 22.4976 19.6101 22.35 19.7671 22.1929C20.0671 21.8929 20.3695 21.5906 20.6695 21.2906C20.9554 21.0047 21.2671 20.7304 21.4898 20.3906C22.0429 19.5468 21.8882 18.3914 21.2038 17.6718C21.0913 17.5523 20.9718 17.4375 20.8546 17.3226C20.2429 16.7109 19.6312 16.0992 19.0195 15.4875C18.5038 14.9718 17.9859 14.4539 17.4703 13.9382C17.4421 13.9101 17.414 13.882 17.3859 13.8539C17.0812 13.5492 16.5257 13.5281 16.2257 13.8539C15.9304 14.1843 15.907 14.6929 16.2304 15.0164Z" fill="black"/>
<path d="M5.31579 7.5867C5.75172 8.01795 6.18532 8.44686 6.62126 8.87811C7.31501 9.56482 8.00876 10.2515 8.70485 10.9383C8.86657 11.0976 9.02594 11.257 9.18766 11.4164C9.49235 11.7187 10.0478 11.7445 10.3478 11.4164C10.6478 11.0906 10.6736 10.5797 10.3478 10.2562C9.62829 9.54373 8.90876 8.83123 8.18922 8.11873C7.74626 7.68045 7.30563 7.24217 6.86266 6.80623C6.74782 6.69373 6.63297 6.57889 6.52047 6.46639C6.40563 6.35389 6.27907 6.26014 6.11735 6.21561C5.96735 6.17342 5.87126 6.18983 5.73063 6.20389C5.12829 6.26951 4.52594 6.33279 3.9236 6.39842C4.16032 6.53436 4.39469 6.67029 4.63141 6.80389C4.15797 6.06092 3.68454 5.31795 3.20876 4.57498C3.14079 4.46717 3.07282 4.3617 3.00485 4.25389C2.96266 4.58436 2.92047 4.91717 2.87594 5.24764C3.29782 4.82576 3.71735 4.40623 4.13922 3.98436C3.80876 4.02654 3.47594 4.06873 3.14547 4.11326C3.88844 4.5867 4.63141 5.06014 5.37438 5.53592C5.48219 5.60389 5.58766 5.67186 5.69547 5.73982C5.55954 5.50311 5.4236 5.26873 5.29001 5.03201C5.21969 5.69061 5.14938 6.3492 5.07672 7.00779C5.05329 7.20232 5.18219 7.45311 5.31579 7.5867C5.45876 7.72967 5.69079 7.83514 5.89469 7.82811C6.10798 7.81873 6.32594 7.74842 6.4736 7.5867C6.62829 7.41795 6.68922 7.23514 6.71501 7.00779C6.78532 6.3492 6.85563 5.69061 6.92829 5.03201C6.95876 4.74607 6.74782 4.46717 6.52282 4.3242C5.77985 3.85076 5.03688 3.37732 4.29391 2.90154C4.1861 2.83357 4.08063 2.76561 3.97282 2.69764C3.66813 2.50311 3.22985 2.57576 2.97907 2.82654C2.55719 3.24842 2.13766 3.66795 1.71579 4.08982C1.46735 4.33826 1.39235 4.77889 1.58688 5.08357C2.06032 5.82654 2.53376 6.56951 3.00954 7.31248C3.07751 7.42029 3.14547 7.52576 3.21344 7.63358C3.35641 7.85858 3.63532 8.06951 3.92126 8.03904C4.57985 7.96873 5.23844 7.89842 5.89704 7.82576C5.70251 7.74607 5.50798 7.66639 5.31579 7.5867C5.75172 8.01795 6.18532 8.44686 6.62126 8.87811C7.31501 9.56482 8.00876 10.2515 8.70485 10.9383C8.86657 11.0976 9.02594 11.257 9.18766 11.4164C9.49235 11.7187 10.0478 11.7445 10.3478 11.4164C10.6478 11.0906 10.6736 10.5797 10.3478 10.2562C9.91188 9.82498 9.47829 9.39607 9.04235 8.96482C8.3486 8.27811 7.65485 7.59139 6.95876 6.90467C6.79704 6.74529 6.63766 6.58592 6.47594 6.42654C6.17126 6.1242 5.61579 6.09842 5.31579 6.42654C5.01579 6.75233 4.99001 7.26561 5.31579 7.5867Z" fill="black"/>
<path d="M12.2963 14.5359C12.8565 15.1031 13.4143 15.6727 13.9745 16.2398C14.0542 16.3219 14.1338 16.4039 14.2159 16.4836C14.5182 16.7906 15.0784 16.8094 15.376 16.4836C15.6784 16.1531 15.6971 15.6492 15.376 15.3234C14.8159 14.7563 14.2581 14.1867 13.6979 13.6195C13.6182 13.5375 13.5385 13.4555 13.4565 13.3758C13.1542 13.0688 12.594 13.05 12.2963 13.3758C11.994 13.7063 11.9752 14.2102 12.2963 14.5359Z" fill="black"/>
<path d="M19.7383 10.2234C19.5813 10.3805 19.4149 10.5258 19.2391 10.6641C19.2953 10.6219 19.3493 10.5797 19.4055 10.5352C19.0446 10.8117 18.6508 11.0414 18.2336 11.2195C18.2993 11.1914 18.3649 11.1633 18.4305 11.1375C18.0086 11.3133 17.568 11.4328 17.118 11.4961C17.1907 11.4867 17.2633 11.4773 17.336 11.4656C16.8649 11.5289 16.3868 11.5289 15.9157 11.4656C15.9883 11.475 16.061 11.4844 16.1336 11.4961C15.7516 11.4422 15.3789 11.3484 15.018 11.2172C14.7508 11.1187 14.4133 11.2336 14.2188 11.4281C13.6586 11.9883 13.0985 12.5484 12.536 13.1109C12.1188 13.5281 11.7039 13.943 11.2868 14.3602C10.5649 15.082 9.84535 15.8016 9.12347 16.5234C8.28441 17.3625 7.443 18.2039 6.60394 19.043C6.16097 19.4859 5.72269 19.9289 5.27738 20.3695C5.20941 20.4375 5.1391 20.4984 5.0641 20.5594C5.12035 20.5172 5.17425 20.475 5.2305 20.4305C5.0805 20.5453 4.91878 20.6391 4.74535 20.7141C4.81097 20.6859 4.8766 20.6578 4.94222 20.632C4.76175 20.707 4.5766 20.7562 4.38207 20.7844C4.45472 20.775 4.52738 20.7656 4.60003 20.7539C4.40785 20.7773 4.21566 20.7773 4.02347 20.7539C4.09613 20.7633 4.16878 20.7727 4.24144 20.7844C4.04925 20.7562 3.86175 20.707 3.68129 20.632C3.74691 20.6602 3.81254 20.6883 3.87816 20.7141C3.70472 20.6391 3.543 20.5453 3.39535 20.4305C3.4516 20.4727 3.5055 20.5148 3.56175 20.5594C3.41644 20.4445 3.28753 20.3156 3.17503 20.1727C3.21722 20.2289 3.25941 20.2828 3.30394 20.3391C3.18675 20.1867 3.09066 20.0227 3.01566 19.8445C3.04378 19.9102 3.07191 19.9758 3.09769 20.0414C3.02738 19.868 2.97816 19.6875 2.95238 19.5023C2.96175 19.575 2.97113 19.6477 2.98285 19.7203C2.95707 19.5234 2.95707 19.3266 2.98285 19.1297C2.97347 19.2023 2.9641 19.275 2.95238 19.3477C2.9805 19.1625 3.02738 18.982 3.09769 18.8086C3.06957 18.8742 3.04144 18.9398 3.01566 19.0055C3.09066 18.8273 3.18675 18.6633 3.30394 18.5109C3.26175 18.5672 3.21957 18.6211 3.17503 18.6773C3.31332 18.5039 3.47738 18.3516 3.63207 18.1945C3.90394 17.9227 4.17582 17.6508 4.44535 17.3812C5.26566 16.5609 6.08597 15.7406 6.90628 14.9203C7.66566 14.1609 8.42738 13.3992 9.18675 12.6398C9.5641 12.2625 9.94144 11.8852 10.3188 11.5078C10.9493 10.8773 11.5821 10.2445 12.2125 9.61406C12.243 9.58359 12.2735 9.55312 12.3039 9.52265C12.4985 9.32812 12.6133 8.99296 12.5149 8.72343C12.3813 8.3625 12.2875 7.9875 12.236 7.60781C12.2453 7.68046 12.2547 7.75312 12.2664 7.82578C12.2032 7.35468 12.2032 6.87656 12.2664 6.40546C12.2571 6.47812 12.2477 6.55078 12.236 6.62343C12.2993 6.17109 12.4188 5.73046 12.5946 5.31093C12.5664 5.37656 12.5383 5.44218 12.5125 5.50781C12.6907 5.08828 12.9203 4.69687 13.1969 4.33593C13.1547 4.39218 13.1125 4.44609 13.068 4.50234C13.3446 4.14843 13.661 3.83203 14.0172 3.55546C13.961 3.59765 13.9071 3.63984 13.8508 3.68437C14.2094 3.41015 14.5985 3.18281 15.0133 3.00703C14.9477 3.03515 14.8821 3.06328 14.8164 3.08906C15.2453 2.91093 15.693 2.78906 16.1524 2.72812C16.0797 2.7375 16.0071 2.74687 15.9344 2.75859C16.3914 2.7 16.8532 2.7 17.3102 2.75859C17.2375 2.74921 17.1649 2.73984 17.0922 2.72812C17.2868 2.7539 17.4907 2.77968 17.6758 2.84062C17.6102 2.8125 17.5446 2.78437 17.4789 2.75859C17.4953 2.76562 17.5094 2.775 17.5235 2.78671C17.4672 2.74453 17.4133 2.70234 17.3571 2.65781C17.3641 2.66484 17.3688 2.66953 17.3758 2.67656C17.3336 2.62031 17.2914 2.5664 17.2469 2.51015C17.2586 2.52421 17.268 2.53828 17.2727 2.55234C17.2446 2.48671 17.2164 2.42109 17.1907 2.35546C17.1977 2.37187 17.2024 2.38593 17.2047 2.40468C17.1953 2.33203 17.186 2.25937 17.1743 2.18671C17.1766 2.20312 17.1766 2.21953 17.1743 2.23828C17.1836 2.16562 17.193 2.09296 17.2047 2.02031C17.2024 2.03671 17.1977 2.05312 17.1883 2.06953C17.2164 2.0039 17.2446 1.93828 17.2703 1.87265C17.2657 1.87968 17.261 1.88906 17.2563 1.89609C17.2985 1.83984 17.3407 1.78593 17.3852 1.72968C17.2282 1.91484 17.0407 2.07656 16.8696 2.24765C16.5344 2.58281 16.1993 2.91796 15.8641 3.25546C15.6227 3.49687 15.3813 3.73828 15.1399 3.97968C14.6102 4.50937 14.2703 5.16796 14.1696 5.91093C14.1086 6.36328 14.1368 6.82968 14.2703 7.26796C14.4086 7.72031 14.6336 8.10937 14.9313 8.47031C15.4821 9.14062 16.3094 9.50625 17.1578 9.59062C18.0907 9.68437 19.0516 9.29765 19.7125 8.64375C19.893 8.46562 20.0711 8.28515 20.2516 8.10468C20.8188 7.5375 21.3883 6.96796 21.9555 6.40078C21.9743 6.38203 21.9907 6.36562 22.0118 6.34921C21.9555 6.3914 21.9016 6.43359 21.8453 6.47812C21.8524 6.47343 21.8618 6.46875 21.8688 6.46406C21.8032 6.49218 21.7375 6.52031 21.6719 6.54609C21.6883 6.53906 21.7047 6.53203 21.7211 6.52968C21.6485 6.53906 21.5758 6.54843 21.5032 6.56015C21.5196 6.55781 21.536 6.55781 21.5547 6.56015C21.4821 6.55078 21.4094 6.5414 21.3368 6.52968C21.3532 6.53203 21.3696 6.53672 21.386 6.54375C21.3203 6.51562 21.2547 6.4875 21.1891 6.46171C21.2055 6.46875 21.2196 6.47812 21.2313 6.4875C21.175 6.44531 21.1211 6.40312 21.0649 6.35859C21.0719 6.36562 21.0766 6.37031 21.0836 6.37734C21.0414 6.32109 20.9993 6.26718 20.9547 6.21093C20.9664 6.225 20.9758 6.23906 20.9828 6.25546C20.9547 6.18984 20.9266 6.12421 20.9008 6.05859C20.9618 6.24375 20.9875 6.45 21.0133 6.64218C21.0039 6.56953 20.9946 6.49687 20.9828 6.42421C21.0414 6.88125 21.0414 7.34296 20.9828 7.8C20.9922 7.72734 21.0016 7.65468 21.0133 7.58203C20.95 8.0414 20.8305 8.4914 20.6524 8.91796C20.6805 8.85234 20.7086 8.78672 20.7344 8.72109C20.5586 9.13593 20.3313 9.525 20.0571 9.88359C20.0993 9.82734 20.1414 9.77343 20.186 9.71718C20.0477 9.89297 19.8977 10.0617 19.7383 10.2234C19.436 10.5281 19.4102 11.0836 19.7383 11.3836C20.0641 11.6836 20.575 11.7094 20.8985 11.3836C22.3586 9.91406 23.0149 7.70156 22.4993 5.6789C22.3586 5.13281 21.7844 4.77656 21.236 4.95703C21.0649 5.01328 20.9196 5.10937 20.7953 5.23359C20.6828 5.34609 20.5703 5.45859 20.4578 5.57109C20.0641 5.96484 19.6703 6.35859 19.2789 6.75C18.9696 7.05937 18.6696 7.4039 18.325 7.67578C18.3813 7.63359 18.4352 7.5914 18.4914 7.54687C18.3227 7.67578 18.1422 7.78359 17.9477 7.86796C18.0133 7.83984 18.0789 7.81172 18.1446 7.78593C17.9383 7.87265 17.725 7.93125 17.5024 7.96171C17.575 7.95234 17.6477 7.94296 17.7203 7.93125C17.5094 7.95703 17.2961 7.95703 17.0852 7.93125C17.1578 7.94062 17.2305 7.95 17.3032 7.96171C17.0828 7.93125 16.8696 7.87265 16.6657 7.78828C16.7313 7.8164 16.7969 7.84453 16.8625 7.87031C16.6657 7.78593 16.4828 7.67812 16.3141 7.54687C16.3703 7.58906 16.4243 7.63125 16.4805 7.67578C16.3235 7.55156 16.1805 7.40859 16.0563 7.25156C16.0985 7.30781 16.1407 7.36171 16.1852 7.41796C16.0539 7.24921 15.9461 7.0664 15.8618 6.86953C15.8899 6.93515 15.918 7.00078 15.9438 7.0664C15.8594 6.86015 15.8008 6.64687 15.7703 6.4289C15.7797 6.50156 15.7891 6.57421 15.8008 6.64687C15.775 6.43593 15.775 6.22265 15.8008 6.01171C15.7914 6.08437 15.7821 6.15703 15.7703 6.22968C15.8008 6.00937 15.8594 5.79375 15.9461 5.5875C15.918 5.65312 15.8899 5.71875 15.8641 5.78437C15.9485 5.58984 16.0563 5.40937 16.1852 5.24062C16.143 5.29687 16.1008 5.35078 16.0563 5.40703C16.2063 5.21718 16.3844 5.05312 16.5555 4.88203C16.8274 4.61015 17.0993 4.33828 17.3711 4.0664C17.6477 3.78984 17.9243 3.51328 18.2008 3.23672C18.4258 3.01172 18.6977 2.78906 18.7891 2.47265C18.911 2.04609 18.7235 1.58671 18.3508 1.35468C18.1703 1.24218 17.9524 1.20703 17.7461 1.16953C17.3664 1.1039 16.9797 1.05937 16.5953 1.06406C15.8875 1.06875 15.1633 1.19531 14.5047 1.45312C13.7618 1.74375 13.0938 2.14687 12.5055 2.69062C11.9758 3.18046 11.5235 3.78046 11.2118 4.43203C10.5649 5.7539 10.4008 7.27265 10.7875 8.7C10.8297 8.85234 10.8766 9.00234 10.9328 9.15C11.0032 8.88281 11.0735 8.61796 11.1438 8.35078C10.4828 9.01171 9.82191 9.67265 9.16097 10.3336C8.71566 10.7766 8.27269 11.2219 7.82738 11.6648C6.92738 12.5648 6.02738 13.4648 5.12738 14.3648C4.30707 15.1898 3.48675 16.0078 2.66878 16.8281C2.51175 16.9852 2.35472 17.1398 2.20003 17.2969C1.79222 17.7094 1.47816 18.2531 1.37972 18.8297C1.25316 19.5609 1.35394 20.3109 1.743 20.9531C2.43207 22.0945 3.84535 22.6664 5.13441 22.2961C5.70628 22.1297 6.17035 21.7945 6.58285 21.3797C7.2766 20.6859 7.968 19.9945 8.66175 19.3008C9.61097 18.3516 10.5578 17.4047 11.5071 16.4555C11.9782 15.9844 12.4469 15.5156 12.918 15.0445C13.6164 14.3461 14.3149 13.6477 15.0133 12.9492C15.1352 12.8273 15.2571 12.7055 15.3766 12.5859C15.1094 12.6562 14.8446 12.7266 14.5774 12.7969C16.2321 13.4062 18.1446 13.2187 19.6633 12.3352C20.111 12.075 20.5305 11.7492 20.8961 11.3836C21.2008 11.0812 21.2219 10.5234 20.8961 10.2234C20.5703 9.92109 20.0641 9.9 19.7383 10.2234Z" fill="black"/>
</svg>
