<svg width="24" height="24" viewBox="0 0 24 24" fill="none" xmlns="http://www.w3.org/2000/svg">
<g clip-path="url(#clip0_886_11040)">
<path fill-rule="evenodd" clip-rule="evenodd" d="M6.80463 10.5547C6.74238 14.052 8.15988 14.9107 9.36513 15.0607C10.9529 15.2587 12.6314 13.5098 11.1186 10.9388C8.52213 6.522 13.8959 2.25 13.8959 2.25C13.8959 2.25 12.9891 5.42925 14.1479 7.7355C15.3674 10.1633 17.1134 10.59 18.3066 12.561C19.5006 14.532 18.9929 17.145 18.3066 18.2745C17.0571 20.3317 14.8266 21.75 12.1836 21.75C8.09013 21.75 4.98438 18.5287 4.98438 14.4375C4.98438 11.238 6.80463 10.5547 6.80463 10.5547Z" stroke="black" stroke-width="2" stroke-miterlimit="1" stroke-linecap="round" stroke-linejoin="round"/>
</g>
<defs>
<clipPath id="clip0_886_11040">
<rect width="24" height="24" fill="white"/>
</clipPath>
</defs>
</svg>
