<svg width="24" height="24" viewBox="0 0 24 24" fill="none" xmlns="http://www.w3.org/2000/svg">
<path d="M21 4H18V3C18 2.73478 17.8946 2.48043 17.7071 2.29289C17.5196 2.10536 17.2652 2 17 2H7C6.73478 2 6.48043 2.10536 6.29289 2.29289C6.10536 2.48043 6 2.73478 6 3V4H3C2.73478 4 2.48043 4.10536 2.29289 4.29289C2.10536 4.48043 2 4.73478 2 5V8C2 12.31 3.799 14.91 6.819 15.012C7.26111 15.7718 7.86475 16.4252 8.58722 16.926C9.3097 17.4267 10.1334 17.7627 11 17.91V20H9V22H15V20H13V17.91C13.8664 17.7621 14.6899 17.4259 15.4122 16.9252C16.1346 16.4245 16.7384 15.7714 17.181 15.012C20.201 14.91 22 12.31 22 8V5C22 4.73478 21.8946 4.48043 21.7071 4.29289C21.5196 4.10536 21.2652 4 21 4ZM4 8V6H6V12.83C4.216 12.078 4 9.299 4 8ZM12 16C9.794 16 8 14.206 8 12V4H16V12C16 14.206 14.206 16 12 16ZM18 12.83V6H20V8C20 9.299 19.784 12.078 18 12.83Z" fill="black"/>
</svg>
