<svg width="24" height="24" viewBox="0 0 24 24" fill="none" xmlns="http://www.w3.org/2000/svg">
<path fill-rule="evenodd" clip-rule="evenodd" d="M13.5 8C13.5 6.61929 14.6193 5.5 16 5.5C17.3807 5.5 18.5 6.61929 18.5 8C18.5 9.38071 17.3807 10.5 16 10.5C14.6193 10.5 13.5 9.38071 13.5 8ZM16 7.5C15.7238 7.5 15.5 7.72386 15.5 8C15.5 8.27614 15.7238 8.5 16 8.5C16.2761 8.5 16.5 8.27614 16.5 8C16.5 7.72386 16.2761 7.5 16 7.5Z" fill="currentColor"/>
<path fill-rule="evenodd" clip-rule="evenodd" d="M10.7388 6C13.2249 2.92171 17.0228 1 21.1991 1H23.0011V2.80196C23.0011 6.97833 21.0794 10.7762 18.0011 13.2623V13.901C18.0011 17.3425 15.5719 20.3056 12.1972 20.9806L11.0011 21.2198V15.4142L8.58684 13H2.78125L3.02047 11.8039C3.69542 8.42917 6.65853 6 10.1001 6H10.7388ZM9.37345 8.05047C7.61965 8.29587 6.11817 9.41736 5.37513 11H8.20683C8.48213 9.95788 8.87654 8.97017 9.37345 8.05047ZM10.0968 11.6815L12.3195 13.9042C17.3331 12.6611 20.9097 8.19339 20.9994 3.00172C15.8077 3.09135 11.34 6.66796 10.0968 11.6815ZM13.0011 15.7942V18.6259C14.5837 17.8829 15.7052 16.3814 15.9506 14.6276C15.0309 15.1245 14.0432 15.5189 13.0011 15.7942Z" fill="currentColor"/>
<path fill-rule="evenodd" clip-rule="evenodd" d="M2.52451 17.2732C2.97702 15.9157 4.24747 15 5.67846 15C7.51456 15 9.00301 16.4885 9.00301 18.3246C9.00301 19.7555 8.08733 21.026 6.72977 21.4785L0.421875 23.5811L2.52451 17.2732ZM5.67846 17C5.10833 17 4.60216 17.3648 4.42187 17.9057L3.58415 20.4189L6.09732 19.5811C6.63819 19.4009 7.00301 18.8947 7.00301 18.3246C7.00301 17.593 6.40999 17 5.67846 17Z" fill="currentColor"/>
</svg>
