<svg width="24" height="24" viewBox="0 0 24 24" fill="none" xmlns="http://www.w3.org/2000/svg">
<g clip-path="url(#clip0_886_10988)">
<path d="M6.36719 9.2499C3.88219 13.554 2.70606 18.6832 5.2643 20.1602L8.7284 22.1602C11.2866 23.6372 15.1405 20.054 17.6255 15.7499C20.1105 11.4458 21.2866 6.31665 18.7284 4.83965L15.2643 2.83965C12.7061 1.36265 8.85219 4.94576 6.36719 9.2499ZM9.7284 20.4281L8.69177 19.8296C9.31907 19.4605 9.90413 19.0238 10.4366 18.5276L12.0655 19.4681C10.9644 20.3473 10.0904 20.6371 9.7284 20.4281ZM15.8566 10.1098L17.5635 11.0953C17.285 11.9356 16.8985 12.8672 16.3735 13.8724L14.6415 12.8724C15.11 11.9808 15.516 11.0577 15.8566 10.1098ZM15.3744 15.6049C14.837 16.4586 14.2317 17.2675 13.5644 18.024L11.8574 17.0385C12.4876 16.295 13.092 15.4742 13.6432 14.6054L15.3744 15.6049ZM18.0655 9.07575L16.4366 8.13525C16.6006 7.4261 16.6862 6.70106 16.6918 5.9732L17.7284 6.5717C18.0904 6.7807 18.2769 7.68166 18.0655 9.07575ZM12.4294 12.7499C9.84087 17.2333 6.99956 18.8526 6.2643 18.4281C5.52905 18.0036 5.51074 14.7333 8.09924 10.2499C10.6877 5.76649 13.529 4.1472 14.2643 4.5717C14.9996 4.9962 15.0179 8.26649 12.4294 12.7499Z" fill="currentColor"/>
</g>
<defs>
<clipPath id="clip0_886_10988">
<rect width="24" height="24" fill="white"/>
</clipPath>
</defs>
</svg>
