<svg width="24" height="24" viewBox="0 0 24 24" fill="none" xmlns="http://www.w3.org/2000/svg">
<g clip-path="url(#clip0_903_16669)">
<path fill-rule="evenodd" clip-rule="evenodd" d="M11.2578 9.73853C12.0528 9.73853 12.816 10.0558 13.3779 10.6184C13.9408 11.1803 14.2578 11.9443 14.2578 12.7395V19.7395C14.2577 20.5357 13.9416 21.2989 13.3789 21.8616C12.817 22.4233 12.053 22.7395 11.2578 22.7395H4.25781C3.46155 22.7395 2.69848 22.4231 2.13574 21.8616C1.57419 21.2989 1.25794 20.5357 1.25781 19.7395V12.7395C1.25781 11.9443 1.574 11.1803 2.13574 10.6184C2.69856 10.0556 3.46142 9.73853 4.25781 9.73853H11.2578ZM4.25781 11.7395C3.99215 11.7395 3.73792 11.8453 3.55078 12.0325C3.36298 12.2204 3.25781 12.4747 3.25781 12.7395V19.7395C3.25792 19.9721 3.33795 20.1961 3.4834 20.3733L3.5498 20.4465L3.55078 20.4475C3.7374 20.6347 3.99186 20.7395 4.25781 20.7395H11.2578C11.5226 20.7395 11.7769 20.6343 11.9648 20.4465C12.1519 20.2595 12.2577 20.005 12.2578 19.7395V12.7395C12.2578 12.4756 12.1528 12.2208 11.9658 12.0325L11.8916 11.9661C11.713 11.8202 11.4892 11.7395 11.2578 11.7395H4.25781Z" fill="currentColor"/>
<path fill-rule="evenodd" clip-rule="evenodd" d="M11.8717 1.54632C12.5906 1.20703 13.4174 1.16766 14.1657 1.43694C16.0343 2.10982 18.8836 3.13503 20.7516 3.80803L21.026 3.92229C21.6492 4.21878 22.1538 4.72321 22.4498 5.35296C22.789 6.07272 22.8285 6.8976 22.5592 7.64593C22.2227 8.58032 21.7981 9.76047 21.3737 10.9399C20.9493 12.119 20.5246 13.2985 20.1881 14.2328C19.9524 14.8876 19.4981 15.438 18.9059 15.7924L18.6432 15.9321C18.0135 16.2278 17.3034 16.2947 16.6344 16.1264L16.3502 16.0395C16.2134 15.9903 16.0675 15.9382 15.9196 15.8842C15.4013 15.6974 15.1302 15.125 15.317 14.6059L15.3561 14.5112C15.575 14.054 16.1096 13.8289 16.5963 14.0033L17.027 14.1586C17.2752 14.2479 17.551 14.2349 17.7907 14.1225C18.0314 14.0085 18.2169 13.8051 18.3063 13.5561L20.6764 6.96917L20.6774 6.96819C20.7672 6.72059 20.7533 6.44492 20.6403 6.20452C20.5275 5.9652 20.3238 5.77935 20.0748 5.68987L13.4879 3.31975C13.2391 3.22978 12.9636 3.24296 12.7233 3.35589C12.4839 3.46843 12.2993 3.67263 12.2096 3.92229L10.6979 8.11858C10.5109 8.63729 9.93801 8.90646 9.41956 8.72014C8.89972 8.53324 8.63034 7.95955 8.81702 7.44085C9.34308 5.97868 9.90475 4.41765 10.3268 3.24456C10.5962 2.49568 11.1523 1.88451 11.8717 1.54632Z" fill="currentColor"/>
<path d="M7.75781 17.239C8.3101 17.239 8.75781 16.7913 8.75781 16.239C8.75781 15.6867 8.3101 15.239 7.75781 15.239C7.20553 15.239 6.75781 15.6867 6.75781 16.239C6.75781 16.7913 7.20553 17.239 7.75781 17.239Z" fill="currentColor"/>
<path fill-rule="evenodd" clip-rule="evenodd" d="M15.5961 7.79807C15.0771 7.61107 14.5041 7.88107 14.3171 8.40107C14.1301 8.92007 14.4001 9.49307 14.9191 9.68007C15.4381 9.86707 16.0121 9.59707 16.1991 9.07807C16.3861 8.55907 16.1161 7.98507 15.5961 7.79807Z" fill="currentColor"/>
<path d="M10.2578 14.739C10.8101 14.739 11.2578 14.2913 11.2578 13.739C11.2578 13.1867 10.8101 12.739 10.2578 12.739C9.70553 12.739 9.25781 13.1867 9.25781 13.739C9.25781 14.2913 9.70553 14.739 10.2578 14.739Z" fill="currentColor"/>
<path fill-rule="evenodd" clip-rule="evenodd" d="M11.2578 18.739C11.2578 18.187 10.8098 17.739 10.2578 17.739C9.70581 17.739 9.25781 18.187 9.25781 18.739C9.25781 19.291 9.70581 19.739 10.2578 19.739C10.8098 19.739 11.2578 19.291 11.2578 18.739Z" fill="currentColor"/>
<path fill-rule="evenodd" clip-rule="evenodd" d="M17.7059 12.2771C17.8929 11.7571 17.6229 11.1841 17.1039 10.9971C16.5849 10.8101 16.0109 11.0801 15.8249 11.5991C15.6379 12.1191 15.9079 12.6921 16.4269 12.8791C16.9459 13.0661 17.5199 12.7961 17.7059 12.2771Z" fill="currentColor"/>
<path d="M5.25781 19.739C5.8101 19.739 6.25781 19.2913 6.25781 18.739C6.25781 18.1867 5.8101 17.739 5.25781 17.739C4.70553 17.739 4.25781 18.1867 4.25781 18.739C4.25781 19.2913 4.70553 19.739 5.25781 19.739Z" fill="currentColor"/>
<path fill-rule="evenodd" clip-rule="evenodd" d="M6.25781 13.739C6.25781 13.187 5.80981 12.739 5.25781 12.739C4.70581 12.739 4.25781 13.187 4.25781 13.739C4.25781 14.291 4.70581 14.739 5.25781 14.739C5.80981 14.739 6.25781 14.291 6.25781 13.739Z" fill="currentColor"/>
<path fill-rule="evenodd" clip-rule="evenodd" d="M14.6913 5.87918C14.8783 5.36018 14.6083 4.78618 14.0893 4.59918C13.5693 4.41318 12.9963 4.68218 12.8093 5.20218C12.6223 5.72118 12.8923 6.29418 13.4113 6.48118C13.9313 6.66818 14.5043 6.39818 14.6913 5.87918Z" fill="currentColor"/>
</g>
<defs>
<clipPath id="clip0_903_16669">
<rect width="24" height="24" fill="white"/>
</clipPath>
</defs>
</svg>
