<svg width="24" height="24" viewBox="0 0 24 24" fill="none" xmlns="http://www.w3.org/2000/svg">
<path d="M10.868 13.1322V10.5924H13.4077V13.134L10.868 13.1322Z" fill="#231F20"/>
<path d="M10.868 13.1322V14.0862C10.868 14.1918 10.8511 14.2961 10.8173 14.3949C10.7906 14.4727 10.7541 14.5471 10.7077 14.6162C10.6402 14.7165 10.5544 14.8026 10.4559 14.8706C10.4011 14.909 10.342 14.9415 10.2788 14.9676C10.1044 15.0398 9.91313 15.0587 9.7275 15.0219C9.54328 14.985 9.37313 14.8942 9.23953 14.7608C9.10594 14.6274 9.01453 14.4574 8.97797 14.2723C8.94141 14.0872 8.95969 13.8954 9.03281 13.7211C9.10453 13.5468 9.22688 13.3978 9.38438 13.293C9.54047 13.1881 9.72469 13.1322 9.91313 13.1322H10.868Z" fill="#231F20"/>
<path fill-rule="evenodd" clip-rule="evenodd" d="M12 21C16.9711 21 21 16.9706 21 12C21 7.02943 16.9711 3 12 3C7.02891 3 3 7.02943 3 12C3 16.9706 7.02891 21 12 21ZM14.3611 9.32162H17.22V6.78H14.3611C13.4358 6.78097 12.547 7.14936 11.8917 7.80437C11.2378 8.45937 10.8694 9.34746 10.868 10.2738V10.5924H9.91313C9.22266 10.5924 8.54766 10.7973 7.9725 11.1812C7.39875 11.5651 6.95016 12.1107 6.68578 12.7492C6.42141 13.3876 6.3525 14.0901 6.4875 14.7678C6.6225 15.4455 6.95438 16.0681 7.44375 16.5567C7.93172 17.0453 8.55469 17.378 9.2325 17.5129C9.91031 17.6477 10.612 17.5785 11.2505 17.314C11.8889 17.0496 12.4345 16.6018 12.8184 16.0272C13.2023 15.4527 13.4077 14.7772 13.4077 14.0862V13.134H15.9488V10.5924H13.4077V10.2738C13.4077 10.0211 13.5089 9.77892 13.6875 9.60037C13.8661 9.42186 14.1094 9.32162 14.3611 9.32162Z" fill="#231F20"/>
</svg>
