<svg width="5" height="8" viewBox="0 0 5 8" fill="none" xmlns="http://www.w3.org/2000/svg">
<path fill-rule="evenodd" clip-rule="evenodd" d="M0.0771485 7.5L0.0771492 0.5C0.0771492 0.364582 0.126628 0.247396 0.225587 0.148437C0.324546 0.0494783 0.441732 -3.31757e-07 0.577149 -3.20893e-07C0.712567 -3.1003e-07 0.829753 0.0494784 0.928712 0.148437L4.42871 3.64844C4.52767 3.7474 4.57715 3.86458 4.57715 4C4.57715 4.13542 4.52767 4.2526 4.42871 4.35156L0.928711 7.85156C0.829752 7.95052 0.712566 8 0.577148 8C0.441731 8 0.324545 7.95052 0.225586 7.85156C0.126627 7.7526 0.0771485 7.63542 0.0771485 7.5Z" fill="currentColor"/>
</svg>
