<svg width="24" height="24" viewBox="0 0 24 24" fill="none" xmlns="http://www.w3.org/2000/svg">
<path d="M12 18C10.4087 18 8.88258 17.3679 7.75736 16.2426C6.63214 15.1174 6 13.5913 6 12C6 10.4087 6.63214 8.88258 7.75736 7.75736C8.88258 6.63214 10.4087 6 12 6C13.5913 6 15.1174 6.63214 16.2426 7.75736C17.3679 8.88258 18 10.4087 18 12C18 13.5913 17.3679 15.1174 16.2426 16.2426C15.1174 17.3679 13.5913 18 12 18ZM12 16C13.0609 16 14.0783 15.5786 14.8284 14.8284C15.5786 14.0783 16 13.0609 16 12C16 10.9391 15.5786 9.92172 14.8284 9.17157C14.0783 8.42143 13.0609 8 12 8C10.9391 8 9.92172 8.42143 9.17157 9.17157C8.42143 9.92172 8 10.9391 8 12C8 13.0609 8.42143 14.0783 9.17157 14.8284C9.92172 15.5786 10.9391 16 12 16V16ZM11 2H13V5H11V2ZM2 11H5V13H2V11ZM19 11H22V13H19V11ZM11 19H13V22H11V19ZM18.621 4L20.036 5.414L17.914 7.536L16.5 6.12L18.621 4V4ZM16.5 17.414L17.914 16L20.036 18.121L18.621 19.536L16.5 17.414V17.414ZM6.121 16L7.536 17.414L5.414 19.536L4 18.12L6.121 16ZM4 5.414L5.414 4L7.536 6.121L6.12 7.536L4 5.414Z" fill="black"/>
</svg>
