<svg width="519" height="138" viewBox="0 0 519 138" fill="none" xmlns="http://www.w3.org/2000/svg">
<path fill-rule="evenodd" clip-rule="evenodd" d="M181.028 68.8344H189.911L189.966 58.1394H181.083V54.8412C180.983 53.5246 181.462 52.2299 182.395 51.2962C183.328 50.3626 184.623 49.8832 185.939 49.9836C187.384 49.9899 188.815 50.266 190.159 50.7978V38.3778C188.625 38.0258 187.057 37.8407 185.483 37.8258C175.304 37.8258 168.614 43.332 168.614 54.0546V58.1946H162.2V68.8344H168.614V101.954H181.028V68.8344ZM196.063 101.954H208.615V38.7504H196.063V101.954Z" fill="black"/>
<path fill-rule="evenodd" clip-rule="evenodd" d="M258.482 70.116C254.791 61.222 246.104 55.4317 236.478 55.4484C230.159 55.3698 224.075 57.8468 219.606 62.3179C215.137 66.789 212.661 72.8756 212.74 79.1982C212.723 88.8284 218.511 97.5188 227.4 101.212C236.29 104.905 246.529 102.872 253.335 96.0625C260.141 89.2529 262.173 79.0099 258.482 70.116ZM247.513 79.1982C247.513 85.5186 242.893 90.8316 236.478 90.8316C230.231 90.616 225.278 85.4867 225.278 79.2327C225.278 72.9787 230.231 67.8494 236.478 67.6338C242.934 67.6338 247.513 72.8778 247.513 79.1982Z" fill="black"/>
<path d="M273.321 56.3592L281.377 86.7192L289.446 62.6106L287.253 56.373H299.667L310.302 86.733L318.192 56.373H331.103L317.544 102.037H304.536L295.46 77.004L287.032 102.037H273.928L260.452 56.373L273.321 56.3592Z" fill="black"/>
<ellipse cx="68.9683" cy="69" rx="68.9683" ry="69" fill="black"/>
<rect x="79.7686" y="58.1946" width="19.4767" height="19.4856" fill="white"/>
<path d="M60.292 84.9804C60.2976 87.9411 58.5185 90.6132 55.7854 91.7488C53.0524 92.8844 49.9046 92.2595 47.812 90.166C45.7194 88.0724 45.0948 84.9232 46.2299 82.1889C47.365 79.4546 50.0358 77.6746 52.9952 77.6802H60.292V58.1946H52.9952C42.1583 58.189 32.3855 64.7165 28.2358 74.7321C24.0861 84.7476 26.3771 96.278 34.04 103.944C41.7028 111.611 53.2279 113.903 63.2388 109.751C73.2498 105.6 79.7743 95.8223 79.7687 84.9804V77.6802H60.292V84.9804Z" fill="white"/>
<path d="M87.0655 48.4518H108.97V28.98H87.0655C72.2852 28.9952 60.3072 40.9787 60.292 55.7658V58.1946H79.7686V55.7658C79.7762 51.7349 83.0365 48.467 87.0655 48.4518Z" fill="white"/>
<path d="M60.292 77.6802H79.7686V58.1946H60.292V77.6802Z" fill="black"/>
<path fill-rule="evenodd" clip-rule="evenodd" d="M366.801 102.81C374.709 102.989 381.985 98.5037 385.381 91.356L385.326 101.885H390.636V37.6464H385.326V67.689C381.944 60.5416 374.704 56.0269 366.801 56.1384C353.835 56.1384 344.014 66.2262 344.014 79.4466C344.014 92.667 353.78 102.81 366.801 102.81ZM350.608 72.4533C353.459 65.6882 360.111 61.3153 367.449 61.3824H367.518C372.3 61.3481 376.892 63.2467 380.255 66.6475C383.618 70.0484 385.466 74.6635 385.381 79.4466C385.397 86.7884 380.981 93.4133 374.199 96.2188C367.418 99.0243 359.614 97.4549 354.443 92.2456C349.272 87.0363 347.757 79.2184 350.608 72.4533Z" fill="black"/>
<path fill-rule="evenodd" clip-rule="evenodd" d="M437.167 62.8406C432.78 58.4516 426.799 56.0327 420.596 56.1384C407.744 56.1384 397.326 66.5615 397.326 79.419C397.326 92.2765 407.744 102.7 420.596 102.7C433.448 102.7 443.866 92.2765 443.866 79.419C443.972 73.2128 441.554 67.2297 437.167 62.8406ZM437.546 86.6035C434.638 93.3522 427.941 97.6728 420.596 97.5384C415.818 97.5432 411.239 95.6207 407.896 92.2055C404.552 88.7903 402.726 84.1708 402.83 79.3914C402.848 72.0423 407.304 65.4331 414.109 62.6643C420.913 59.8956 428.716 61.5165 433.856 66.7667C438.996 72.017 440.454 79.8548 437.546 86.6035Z" fill="black"/>
<path d="M485.592 99.1806C477.209 104.502 466.376 103.927 458.603 97.7487C450.829 91.5701 447.82 81.1436 451.105 71.7704C454.391 62.3972 463.249 56.1343 473.178 56.166C477.554 56.1533 481.849 57.347 485.592 59.616V65.7984C482.103 62.914 477.703 61.3636 473.178 61.4238C463.183 61.4238 455.08 69.5299 455.08 79.5294C455.08 89.5288 463.183 97.635 473.178 97.635C477.682 97.6658 482.062 96.1565 485.592 93.357V99.1806Z" fill="black"/>
<path d="M517.234 64.8324C514.274 62.3868 510.562 61.0368 506.724 61.0098C501.137 61.0098 497.978 63.894 497.978 67.9098C497.978 70.794 499.551 72.381 502.723 74.3406L511.372 79.5984C517.331 83.2278 519 86.9538 519 90.8592C519 98.4906 512.958 102.865 504.117 102.865C500.083 102.829 496.119 101.806 492.571 99.8844V93.5916C495.737 96.456 499.849 98.0485 504.117 98.0628C510.075 98.0628 513.51 95.082 513.51 90.9006C513.51 88.1406 512.131 86.1534 507.993 83.7246L499.068 78.2046C494.406 75.4446 492.461 72.0636 492.461 67.8684C492.461 61.3548 497.289 56.1384 506.793 56.1384C510.429 56.1093 514.013 57.0069 517.207 58.7466L517.234 64.8324Z" fill="black"/>
</svg>
