<svg width="217" height="42" viewBox="0 0 217 42" fill="none" xmlns="http://www.w3.org/2000/svg">
<path fill-rule="evenodd" clip-rule="evenodd" d="M53.367 20.951H55.9857L56.002 17.7735H53.3832V16.7936C53.3536 16.4024 53.4949 16.0178 53.77 15.7404C54.0451 15.463 54.4266 15.3205 54.8146 15.3504C55.2407 15.3522 55.6627 15.4343 56.0589 15.5923V11.9023C55.6066 11.7977 55.1444 11.7427 54.6804 11.7383C51.6794 11.7383 49.7073 13.3742 49.7073 16.5599V17.7899H47.8164V20.951H49.7073V30.791H53.367V20.951ZM57.7993 30.791H61.4997V12.013H57.7993V30.791Z" fill="currentColor"/>
<path fill-rule="evenodd" clip-rule="evenodd" d="M76.2001 21.3319C75.1119 18.6895 72.5512 16.9692 69.7135 16.9742C67.8505 16.9508 66.057 17.6867 64.7396 19.0151C63.4221 20.3435 62.6922 22.1518 62.7154 24.0303C62.7105 26.8914 64.4167 29.4734 67.0374 30.5706C69.658 31.6678 72.6763 31.0638 74.6828 29.0407C76.6893 27.0175 77.2883 23.9743 76.2001 21.3319ZM72.9666 24.0303C72.9666 25.9081 71.6044 27.4866 69.7136 27.4866C67.8719 27.4225 66.4117 25.8986 66.4117 24.0405C66.4117 22.1825 67.8719 20.6585 69.7136 20.5945C71.6166 20.5945 72.9666 22.1525 72.9666 24.0303Z" fill="currentColor"/>
<path d="M80.5751 17.2441L82.9499 26.2641L85.3287 19.1014L84.6821 17.2482H88.3418L91.477 26.2682L93.8028 17.2482H97.6089L93.6117 30.8151H89.7773L87.1015 23.3777L84.6171 30.8151H80.7541L76.7812 17.2482L80.5751 17.2441Z" fill="currentColor"/>
<path d="M20.3317 41.5C31.5606 41.5 40.6634 32.3218 40.6634 21C40.6634 9.67816 31.5606 0.5 20.3317 0.5C9.10281 0.5 0 9.67816 0 21C0 32.3218 9.10281 41.5 20.3317 41.5Z" fill="#00EF8B"/>
<path d="M29.2573 17.79H23.5156V23.5792H29.2573V17.79Z" fill="white"/>
<path d="M17.7749 25.7481C17.7765 26.6278 17.2521 27.4217 16.4464 27.759C15.6407 28.0964 14.7127 27.9108 14.0958 27.2888C13.4789 26.6668 13.2948 25.7311 13.6294 24.9188C13.964 24.1064 14.7514 23.5776 15.6238 23.5792H17.7749V17.79H15.6238C12.4291 17.7884 9.5481 19.7277 8.32478 22.7033C7.10146 25.679 7.77682 29.1047 10.0358 31.3824C12.2948 33.6601 15.6924 34.341 18.6436 33.1076C21.5948 31.8741 23.5182 28.9693 23.5166 25.7481V23.5792H17.7749V25.7481Z" fill="white"/>
<path d="M25.6662 14.8955H32.1235V9.11035H25.6662C21.309 9.11487 17.7779 12.6752 17.7734 17.0685V17.7901H23.5151V17.0685C23.5173 15.8709 24.4784 14.9 25.6662 14.8955Z" fill="white"/>
<path d="M17.7734 23.5792H23.5151V17.79H17.7734V23.5792Z" fill="#00EF8B"/>
<path d="M111.051 10.996V18.9195C110.653 18.0715 109.593 16.932 106.97 16.932C103.339 16.932 101.087 19.953 101.087 24.034C101.087 28.0355 103.154 30.818 106.599 30.818C108.904 30.818 110.388 29.917 111.051 28.3005C111.051 28.963 111.077 30.182 111.13 30.5H112.455C112.429 29.2015 112.429 27.9825 112.429 26.7105V10.996H111.051ZM106.917 18.2305C110.309 18.2305 111.104 20.165 111.104 23.5835C111.104 27.1345 110.176 29.546 106.678 29.546C104.426 29.546 102.544 27.585 102.544 23.981C102.544 20.2975 104.32 18.2305 106.917 18.2305ZM126.176 24.0605C126.203 23.716 126.203 23.345 126.203 22.974C126.203 20.4565 124.904 16.932 120.797 16.932C116.928 16.932 115.02 20.1915 115.02 23.981C115.02 27.373 116.61 30.818 120.638 30.818C123.924 30.818 125.328 28.8305 125.885 27.0815H124.48C124.003 28.168 123.155 29.546 120.691 29.546C118.173 29.546 116.451 27.426 116.424 24.0605H126.176ZM116.504 22.868C116.795 20.112 118.041 18.204 120.744 18.204C123.314 18.204 124.745 20.271 124.772 22.868H116.504ZM127.384 17.25L132.101 30.5H133.744L138.753 17.25H137.295C134.751 24.1665 133.267 28.115 132.976 29.122H132.949C132.446 27.426 130.988 23.292 128.842 17.25H127.384ZM150.756 24.0605C150.782 23.716 150.782 23.345 150.782 22.974C150.782 20.4565 149.484 16.932 145.376 16.932C141.507 16.932 139.599 20.1915 139.599 23.981C139.599 27.373 141.189 30.818 145.217 30.818C148.503 30.818 149.908 28.8305 150.464 27.0815H149.06C148.583 28.168 147.735 29.546 145.27 29.546C142.753 29.546 141.03 27.426 141.004 24.0605H150.756ZM141.083 22.868C141.375 20.112 142.62 18.204 145.323 18.204C147.894 18.204 149.325 20.271 149.351 22.868H141.083ZM154.806 30.5V10.996H153.428V30.5H154.806ZM163.362 16.932C159.519 16.932 157.399 20.0855 157.399 23.875C157.399 27.8765 159.652 30.818 163.229 30.818C167.178 30.818 169.245 27.5585 169.245 23.8485C169.245 19.688 166.913 16.932 163.362 16.932ZM163.282 18.2305C166.197 18.2305 167.787 20.7745 167.787 23.875C167.787 27.214 166.171 29.546 163.335 29.546C160.553 29.546 158.857 27.0285 158.857 23.875C158.857 20.7215 160.288 18.2305 163.282 18.2305ZM177.44 30.818C180.647 30.818 183.191 28.3005 183.191 23.5305C183.191 19.5555 181.018 16.932 177.891 16.932C175.506 16.932 174.048 18.045 173.227 19.635C173.227 18.5485 173.227 17.7535 173.174 17.25H171.822C171.849 18.257 171.849 19.423 171.849 20.5095V35.8H173.227V28.5655C173.889 29.811 175.108 30.818 177.44 30.818ZM177.467 29.546C174.181 29.546 173.147 27.373 173.147 23.822C173.147 20.2445 174.472 18.257 177.652 18.257C180.249 18.257 181.733 20.536 181.733 23.5835C181.733 27.2405 180.196 29.546 177.467 29.546ZM196.06 24.0605C196.086 23.716 196.086 23.345 196.086 22.974C196.086 20.4565 194.788 16.932 190.68 16.932C186.811 16.932 184.903 20.1915 184.903 23.981C184.903 27.373 186.493 30.818 190.521 30.818C193.807 30.818 195.212 28.8305 195.768 27.0815H194.364C193.887 28.168 193.039 29.546 190.574 29.546C188.057 29.546 186.334 27.426 186.308 24.0605H196.06ZM186.387 22.868C186.679 20.112 187.924 18.204 190.627 18.204C193.198 18.204 194.629 20.271 194.655 22.868H186.387ZM198.628 30.5H200.006V23.6365C200.006 20.483 201.861 18.6015 204.617 18.416V16.932C202.471 17.038 200.775 18.2305 200.006 20.218C200.006 18.522 199.98 17.674 199.953 17.25H198.602C198.602 17.7005 198.628 18.6545 198.628 20.854V30.5ZM205.361 26.843C205.732 29.228 207.428 30.818 210.476 30.818C213.311 30.818 215.246 29.334 215.246 26.9225C215.246 24.935 214.345 23.716 210.582 22.815C207.958 22.179 207.322 21.5695 207.322 20.3505C207.322 19.317 207.985 18.1775 210.264 18.1775C212.516 18.1775 213.364 19.5555 213.603 20.642H214.981C214.769 18.7605 213.338 16.932 210.317 16.932C207.296 16.932 205.918 18.628 205.918 20.483C205.918 22.232 206.766 23.2655 210.211 24.087C213.152 24.8025 213.788 25.5445 213.788 27.0285C213.788 28.5125 212.861 29.5725 210.502 29.5725C208.435 29.5725 207.216 28.5655 206.766 26.843H205.361Z" fill="currentColor"/>
</svg>
