<svg width="260" height="260" viewBox="0 0 260 260" fill="none" xmlns="http://www.w3.org/2000/svg">
<circle cx="130" cy="130" r="130" fill="#363FF9"/>
<path d="M173.505 136.875L131.849 66.1537C131.648 65.8052 131.353 65.511 131.005 65.3097C130.649 65.1084 130.246 65 129.836 65C129.426 65 129.023 65.1007 128.667 65.302C128.311 65.5033 128.016 65.7898 127.807 66.1382L115.334 87.3299C114.923 88.0267 114.707 88.8087 114.707 89.6139C114.707 90.4192 114.923 91.2012 115.334 91.898L142.495 138.029C142.905 138.726 143.494 139.299 144.199 139.701C144.911 140.104 145.708 140.313 146.529 140.313H171.476C171.886 140.313 172.281 140.205 172.637 140.003C172.994 139.802 173.288 139.515 173.489 139.167C173.69 138.819 173.799 138.424 173.799 138.029C173.799 137.626 173.69 137.231 173.489 136.891L173.505 136.875Z" fill="white"/>
<path d="M64.3174 173.831L105.973 103.118C106.174 102.769 106.469 102.483 106.825 102.281C107.181 102.08 107.576 101.979 107.986 101.979C108.396 101.979 108.799 102.088 109.148 102.281C109.504 102.483 109.798 102.769 109.999 103.118L122.48 124.286C122.891 124.983 123.108 125.765 123.108 126.57C123.108 127.375 122.891 128.157 122.48 128.854L95.3191 174.985C94.9087 175.682 94.328 176.255 93.6157 176.658C92.9034 177.06 92.1059 177.269 91.2852 177.269H66.3383C65.9279 177.269 65.5253 177.169 65.1691 176.967C64.813 176.766 64.5188 176.479 64.3097 176.123C64.1084 175.775 64 175.38 64 174.977C64 174.575 64.1161 174.18 64.3174 173.831Z" fill="white"/>
<path d="M109.999 177.253H193.303C193.713 177.253 194.116 177.145 194.464 176.943C194.812 176.742 195.114 176.456 195.316 176.107C195.517 175.759 195.625 175.364 195.625 174.969C195.625 174.566 195.517 174.172 195.316 173.831L182.85 152.647C182.44 151.95 181.851 151.377 181.147 150.974C180.442 150.572 179.637 150.363 178.816 150.363H124.494C123.673 150.363 122.875 150.572 122.163 150.974C121.451 151.377 120.862 151.95 120.46 152.647L107.986 173.831C107.785 174.179 107.676 174.566 107.669 174.969C107.669 175.372 107.777 175.766 107.978 176.107C108.18 176.456 108.474 176.742 108.83 176.943C109.186 177.145 109.589 177.253 109.991 177.253H109.999Z" fill="white"/>
</svg>
