<svg id="svg" version="1.1" xmlns="http://www.w3.org/2000/svg" xmlns:xlink="http://www.w3.org/1999/xlink" width="400" height="400" viewBox="0, 0, 400,400"><g id="svgg"><path id="path0" d="M248.700 84.135 C 216.753 85.710,188.963 106.788,178.831 137.128 C 176.122 145.237,175.063 151.989,174.862 162.431 L 174.740 168.762 161.420 168.854 C 145.032 168.966,141.467 169.315,133.111 171.620 C 75.857 187.413,56.840 259.369,98.855 301.239 C 141.266 343.505,213.714 323.675,228.697 265.700 C 230.734 257.816,231.034 254.492,231.146 238.550 L 231.240 225.200 259.420 225.200 L 287.600 225.200 287.600 197.000 L 287.600 168.800 259.400 168.800 L 231.200 168.800 231.200 164.122 C 231.200 159.038,231.407 157.327,232.333 154.730 C 234.920 147.482,241.134 142.128,248.602 140.711 C 250.047 140.437,254.195 140.400,283.122 140.400 L 316.000 140.400 316.000 112.200 L 316.000 84.000 282.950 84.038 C 264.772 84.059,249.360 84.102,248.700 84.135 M231.200 197.000 L 231.200 225.200 203.000 225.200 L 174.800 225.200 174.800 236.878 C 174.800 249.545,174.752 250.239,173.664 253.270 C 168.390 267.956,150.276 272.390,139.064 261.740 C 127.483 250.739,131.590 231.773,146.730 226.336 C 149.761 225.248,150.455 225.200,163.122 225.200 L 174.800 225.200 174.800 197.000 L 174.800 168.800 203.000 168.800 L 231.200 168.800 231.200 197.000 " stroke="none" fill="#fbfcfb" fill-rule="evenodd"></path><path id="path1" d="M190.100 0.136 C 148.174 2.251,107.801 17.536,75.137 43.662 C 71.016 46.957,70.043 47.782,65.800 51.577 C -0.724 111.067,-19.152 209.834,21.314 290.000 C 71.030 388.490,191.018 428.265,289.559 378.922 C 399.684 323.778,434.199 183.465,362.345 83.029 C 323.224 28.346,257.538 -3.265,190.100 0.136 M316.000 112.200 L 316.000 140.400 284.221 140.400 C 246.768 140.400,247.960 140.335,243.224 142.649 C 234.923 146.704,231.200 153.693,231.200 165.221 L 231.200 168.800 259.400 168.800 L 287.600 168.800 287.600 197.000 L 287.600 225.200 259.413 225.200 L 231.226 225.200 231.146 239.350 C 231.059 254.591,230.990 255.726,229.802 261.500 C 221.192 303.331,181.227 330.452,139.500 322.780 C 95.529 314.696,67.434 270.906,78.300 227.392 C 85.148 199.970,107.211 177.907,134.592 171.103 C 142.888 169.042,143.905 168.954,160.527 168.856 L 174.753 168.772 174.858 161.536 C 174.964 154.133,175.111 152.352,176.013 147.500 C 182.373 113.310,210.921 87.307,245.490 84.217 C 246.486 84.128,262.757 84.043,281.650 84.028 L 316.000 84.000 316.000 112.200 M151.302 225.421 C 138.582 226.760,129.745 239.828,133.293 252.055 C 138.216 269.021,160.039 272.957,170.596 258.782 C 174.341 253.754,174.800 251.231,174.800 235.650 L 174.800 225.200 163.850 225.227 C 157.828 225.241,152.181 225.329,151.302 225.421 " stroke="none" fill="#04ec8c" fill-rule="evenodd"></path><path id="path2" d="M197.487 106.650 L 196.900 107.300 197.550 106.713 C 197.908 106.390,198.200 106.097,198.200 106.063 C 198.200 105.908,198.035 106.044,197.487 106.650 M237.389 146.750 L 236.700 147.500 237.450 146.811 C 238.148 146.169,238.292 146.000,238.139 146.000 C 238.106 146.000,237.768 146.338,237.389 146.750 M174.800 197.000 L 174.800 225.200 203.000 225.200 L 231.200 225.200 231.200 197.000 L 231.200 168.800 203.000 168.800 L 174.800 168.800 174.800 197.000 M98.687 191.450 L 98.100 192.100 98.750 191.513 C 99.356 190.965,99.492 190.800,99.337 190.800 C 99.303 190.800,99.010 191.093,98.687 191.450 M138.589 231.550 L 137.900 232.300 138.650 231.611 C 139.348 230.969,139.492 230.800,139.339 230.800 C 139.306 230.800,138.968 231.138,138.589 231.550 M138.600 261.300 C 138.973 261.685,139.323 262.000,139.378 262.000 C 139.433 262.000,139.173 261.685,138.800 261.300 C 138.427 260.915,138.077 260.600,138.022 260.600 C 137.967 260.600,138.227 260.915,138.600 261.300 M168.389 261.350 L 167.700 262.100 168.450 261.411 C 169.148 260.769,169.292 260.600,169.139 260.600 C 169.106 260.600,168.768 260.938,168.389 261.350 M208.491 301.250 L 207.700 302.100 208.550 301.309 C 209.340 300.574,209.492 300.400,209.341 300.400 C 209.308 300.400,208.925 300.782,208.491 301.250 " stroke="none" fill="#14fb9b" fill-rule="evenodd"></path><path id="path3" d="M248.752 84.141 C 249.001 84.189,249.361 84.187,249.552 84.137 C 249.744 84.087,249.540 84.048,249.100 84.050 C 248.660 84.053,248.504 84.094,248.752 84.141 M195.687 108.650 L 195.100 109.300 195.750 108.713 C 196.108 108.390,196.400 108.097,196.400 108.063 C 196.400 107.908,196.235 108.044,195.687 108.650 M174.854 158.400 C 174.854 158.895,174.893 159.097,174.941 158.850 C 174.989 158.603,174.989 158.197,174.941 157.950 C 174.893 157.703,174.854 157.905,174.854 158.400 M149.952 168.941 C 150.201 168.989,150.561 168.987,150.752 168.937 C 150.944 168.887,150.740 168.848,150.300 168.850 C 149.860 168.853,149.704 168.894,149.952 168.941 M96.887 193.450 L 96.300 194.100 96.950 193.513 C 97.556 192.965,97.692 192.800,97.537 192.800 C 97.503 192.800,97.210 193.093,96.887 193.450 M76.054 243.200 C 76.054 243.695,76.093 243.898,76.141 243.650 C 76.189 243.403,76.189 242.998,76.141 242.750 C 76.093 242.503,76.054 242.705,76.054 243.200 M76.054 249.600 C 76.054 250.095,76.093 250.298,76.141 250.050 C 76.189 249.803,76.189 249.398,76.141 249.150 C 76.093 248.903,76.054 249.105,76.054 249.600 M231.054 249.600 C 231.054 250.095,231.093 250.298,231.141 250.050 C 231.189 249.803,231.189 249.398,231.141 249.150 C 231.093 248.903,231.054 249.105,231.054 249.600 M96.400 298.863 C 96.400 298.897,96.692 299.190,97.050 299.513 L 97.700 300.100 97.113 299.450 C 96.565 298.844,96.400 298.708,96.400 298.863 M99.800 302.263 C 99.800 302.297,100.093 302.590,100.450 302.913 L 101.100 303.500 100.513 302.850 C 99.965 302.244,99.800 302.108,99.800 302.263 M206.487 303.050 L 205.900 303.700 206.550 303.113 C 207.156 302.565,207.292 302.400,207.137 302.400 C 207.103 302.400,206.810 302.693,206.487 303.050 M149.950 323.941 C 150.197 323.989,150.603 323.989,150.850 323.941 C 151.097 323.893,150.895 323.854,150.400 323.854 C 149.905 323.854,149.703 323.893,149.950 323.941 M156.350 323.941 C 156.597 323.989,157.003 323.989,157.250 323.941 C 157.498 323.893,157.295 323.854,156.800 323.854 C 156.305 323.854,156.103 323.893,156.350 323.941 " stroke="none" fill="#9bfad1" fill-rule="evenodd"></path><path id="path4" d="" stroke="none" fill="#5df4b6" fill-rule="evenodd"></path></g></svg>