<svg width="226" height="225" viewBox="0 0 226 225" fill="none" xmlns="http://www.w3.org/2000/svg">
<circle cx="112.932" cy="112.351" r="112.351" fill="#131418"/>
<path d="M116.097 75.4663C116.84 75.6209 117.543 75.9335 118.156 76.383C118.842 76.9265 119.368 77.6469 119.677 78.467C121.626 83.3442 123.575 88.2186 125.525 93.09C127.682 98.5076 129.85 103.926 132.029 109.346C133.164 112.187 134.294 115.032 135.447 117.867C135.692 118.447 135.819 119.071 135.819 119.701C135.819 120.331 135.692 120.954 135.447 121.534L125.539 146.25C124.883 147.886 123.695 148.903 121.948 149.168C119.774 149.495 117.829 148.422 117.044 146.515C115.185 141.943 113.367 137.357 111.534 132.773L102.215 109.458C99.4554 102.539 96.6922 95.6219 93.925 88.7069C93.0072 86.4107 92.1188 84.1027 91.1599 81.8243C90.8958 81.2047 90.7709 80.5346 90.794 79.8613C90.8171 79.188 90.9876 78.5281 91.2936 77.9282C91.5995 77.3283 92.0333 76.8032 92.5643 76.39C93.0953 75.9767 93.7105 75.6856 94.3663 75.5371C94.4457 75.5194 94.5222 75.4899 94.5987 75.4663H116.097Z" fill="url(#paint0_linear_4620_26153)"/>
<path d="M77.4857 75.4663C77.7298 75.5341 77.974 75.5931 78.2123 75.6756C78.8326 75.8694 79.4017 76.2002 79.8777 76.6435C80.3537 77.0867 80.7244 77.6313 80.9627 78.237C83.0906 83.5191 85.2086 88.8051 87.3168 94.0951C89.4505 99.4283 91.5842 104.762 93.7179 110.098C94.7612 112.713 95.8095 115.328 96.8626 117.941C97.0983 118.501 97.2198 119.102 97.2198 119.71C97.2198 120.317 97.0983 120.919 96.8626 121.478C95.6859 124.414 94.5092 127.349 93.3325 130.283C91.1753 135.653 89.0181 141.024 86.8608 146.394C86.5221 147.23 85.9432 147.947 85.1973 148.453C84.4515 148.959 83.5725 149.231 82.6719 149.236C81.7177 149.253 80.7817 148.974 79.9918 148.437C79.202 147.9 78.5969 147.132 78.2593 146.238C76.2649 141.177 74.2292 136.131 72.2112 131.079C69.5068 124.238 66.7887 117.403 64.0568 110.572C61.276 103.62 58.4961 96.6664 55.7171 89.712C54.664 87.0798 53.6197 84.4417 52.5519 81.8125C52.0853 80.717 52.0627 79.4825 52.4888 78.3705C52.9149 77.2586 53.7562 76.3565 54.8346 75.8554C55.2259 75.697 55.6279 75.5669 56.0378 75.4663H77.4857Z" fill="url(#paint1_linear_4620_26153)"/>
<path d="M173.68 120.419C173.091 122.409 172.209 124.286 171.459 126.205C169.288 131.664 167.105 137.12 164.91 142.573C164.407 143.823 163.895 145.07 163.407 146.325C163.063 147.183 162.471 147.918 161.705 148.435C160.94 148.952 160.038 149.226 159.115 149.224C158.192 149.221 157.292 148.94 156.53 148.419C155.768 147.898 155.179 147.159 154.841 146.299L145.316 122.476L137.079 101.899C134.39 95.1807 131.704 88.4631 129.019 81.7466C128.764 81.1324 128.646 80.4696 128.674 79.805C128.702 79.1403 128.876 78.4899 129.182 77.8997C129.488 77.3094 129.92 76.7937 130.447 76.3889C130.974 75.984 131.583 75.6999 132.231 75.5566C132.319 75.536 132.405 75.5065 132.493 75.48H153.991C154.058 75.5006 154.123 75.5271 154.191 75.5419C154.945 75.6995 155.647 76.0453 156.232 76.5472C156.817 77.049 157.267 77.6907 157.539 78.4128C158.79 81.5569 160.043 84.6922 161.298 87.8186C164.583 96.0286 167.865 104.239 171.144 112.449C172.006 114.612 172.965 116.737 173.671 118.96L173.68 120.419Z" fill="url(#paint2_linear_4620_26153)"/>
<defs>
<linearGradient id="paint0_linear_4620_26153" x1="87.4592" y1="81.4558" x2="139.245" y2="133.138" gradientUnits="userSpaceOnUse">
<stop stop-color="#FF00A8"/>
<stop offset="1" stop-color="#6200C6"/>
</linearGradient>
<linearGradient id="paint1_linear_4620_26153" x1="48.8689" y1="81.4381" x2="100.643" y2="133.109" gradientUnits="userSpaceOnUse">
<stop stop-color="#FF00A8"/>
<stop offset="1" stop-color="#6200C6"/>
</linearGradient>
<linearGradient id="paint2_linear_4620_26153" x1="125.345" y1="81.4371" x2="177.122" y2="133.111" gradientUnits="userSpaceOnUse">
<stop stop-color="#FF00A8"/>
<stop offset="1" stop-color="#6200C6"/>
</linearGradient>
</defs>
</svg>
