<svg width="71" height="60" viewBox="0 0 71 60" fill="none" xmlns="http://www.w3.org/2000/svg">
<path d="M35.4 59.15C34.8 59.15 34.1 59.05 33.6 58.75L2.2 42.45C0.8 41.75 0 40.35 0 38.95V4.95001C0 2.75001 1.8 0.950012 4 0.950012C6.2 0.950012 8 2.75001 8 4.95001V36.55L35.4 50.75L62.8 36.55V4.95001C62.8 2.75001 64.6 0.950012 66.8 0.950012C69 0.950012 70.8 2.75001 70.8 4.95001V38.95C70.8 40.45 70 41.85 68.6 42.55L37.2 58.75C36.7 59.05 36 59.15 35.4 59.15Z" fill="#045AFF"/>
<path d="M20.5 8.45L34.8 0.15C35.1 -0.05 35.5 -0.05 35.9 0.15L50.2 8.35C50.9 8.75 50.9 9.75 50.2 10.15L35.9 18.45C35.6 18.65 35.2 18.65 34.8 18.45L20.5 10.25C19.8 9.85 19.8 8.85 20.5 8.45Z" fill="#045AFF"/>
<path d="M18.3 28.75V12.25C18.3 11.45 19.2 10.95 19.9 11.35L34.2 19.55C34.5 19.75 34.7 20.05 34.7 20.45V36.95C34.7 37.75 33.8 38.25 33.1 37.85L18.8 29.65C18.5 29.45 18.3 29.05 18.3 28.75Z" fill="#045AFF"/>
<path d="M36.4 19.55L50.7 11.35C51.4 10.95 52.3 11.45 52.3 12.25V28.75C52.3 29.15 52.1 29.45 51.8 29.65L37.5 37.85C36.8 38.25 35.9 37.75 35.9 36.95V20.45C35.9 20.05 36.1 19.75 36.4 19.55Z" fill="#045AFF"/>
</svg>
