<svg viewBox="0 0 16 16" fill="none" xmlns="http://www.w3.org/2000/svg">
<path d="M12.3924 6.58637H10.5507V5.35853C10.5507 4.81939 9.89846 4.53551 9.51411 4.92466L7.08568 7.38014C6.8485 7.61996 6.8485 8.00845 7.08568 8.24826L8.47786 9.65595L5.79026 12.4186C5.55309 12.6584 6.54493 11.9989 6.7821 12.2387C7.01925 12.4785 7.40348 12.4785 7.64066 12.2387L9.7657 10.09C10.0029 9.8502 10.0029 9.46171 9.7657 9.22189L8.37351 7.8142L9.33642 6.84057V7.20028C9.33642 7.53931 9.60828 7.8142 9.94357 7.8142H12.3924C12.7277 7.8142 12.9996 7.53931 12.9996 7.20028C12.9996 6.86126 12.7277 6.58637 12.3924 6.58637Z" fill="url(#paint0_linear_2_742)"/>
<path d="M8.2773 3.56778C8.03692 3.4061 7.71799 3.43809 7.51421 3.64428L5.85102 5.32734C5.61476 5.56641 5.61476 5.9537 5.85102 6.19278C6.08727 6.43185 6.47001 6.43183 6.70626 6.19276L8.01891 4.86443L8.4611 5.18676L9.05191 4.58889C9.15073 4.48889 9.2673 4.41126 9.39477 4.35065L8.2773 3.56778Z" fill="url(#paint1_linear_2_742)"/>
<path d="M6.6457 8.67189C6.4939 8.51591 6.39257 8.32393 6.33915 8.11633L3.17504 11.3677C2.941 11.6082 2.941 11.9978 3.17504 12.2383C3.40905 12.4788 3.78819 12.4788 4.02223 12.2383L7.06929 9.10717L6.6457 8.67189Z" fill="url(#paint2_linear_2_742)"/>
<circle cx="10.8482" cy="3.8721" r="0.872095" fill="url(#paint3_linear_2_742)"/>
<defs>
<linearGradient id="paint0_linear_2_742" x1="11.4598" y1="-2.70025" x2="1.58318" y2="6.15716" gradientUnits="userSpaceOnUse">
<stop stop-color="white" stop-opacity="0.01"/>
<stop offset="0.12833" stop-color="#00FAFA"/>
<stop offset="1" stop-color="#7F00FF"/>
</linearGradient>
<linearGradient id="paint1_linear_2_742" x1="8.60402" y1="0.664735" x2="4.94193" y2="5.14824" gradientUnits="userSpaceOnUse">
<stop stop-color="white" stop-opacity="0.01"/>
<stop offset="0.12833" stop-color="#00FAFA"/>
<stop offset="1" stop-color="#7F00FF"/>
</linearGradient>
<linearGradient id="paint2_linear_2_742" x1="6.20441" y1="3.97181" x2="0.700726" y2="8.95146" gradientUnits="userSpaceOnUse">
<stop stop-color="white" stop-opacity="0.01"/>
<stop offset="0.12833" stop-color="#00FAFA"/>
<stop offset="1" stop-color="#7F00FF"/>
</linearGradient>
<linearGradient id="paint3_linear_2_742" x1="11.3496" y1="1.31979" x2="9.10942" y2="3.46249" gradientUnits="userSpaceOnUse">
<stop stop-color="white" stop-opacity="0.01"/>
<stop offset="0.12833" stop-color="#00FAFA"/>
<stop offset="1" stop-color="#7F00FF"/>
</linearGradient>
</defs>
</svg>
