<svg viewBox="0 0 58 58" fill="none" xmlns="http://www.w3.org/2000/svg">
<g filter="url(#filter0_bii_141_35518)">
<rect width="58" height="58" rx="8" fill="url(#paint0_linear_141_35518)"/>
</g>
<g clip-path="url(#clip0_141_35518)">
<path fill-rule="evenodd" clip-rule="evenodd" d="M38.3192 9.61349C38.0737 9.3653 37.7408 9.22597 37.3936 9.22597H34.1042V9.74854C34.1042 10.2749 33.8973 10.7796 33.5291 11.1517C33.161 11.524 32.6615 11.733 32.1408 11.733H25.6304C25.1097 11.733 24.6102 11.524 24.2421 11.1517C23.8738 10.7797 23.667 10.2749 23.667 9.74854V9.22597H20.3775C20.0304 9.22597 19.6974 9.36529 19.452 9.61349C19.2065 9.86158 19.0686 10.1981 19.0686 10.549V47.5931C19.0686 47.944 19.2064 48.2805 19.452 48.5285C19.6975 48.7767 20.0304 48.9161 20.3775 48.9161H37.3936C37.7408 48.9161 38.0737 48.7768 38.3192 48.5285C38.5647 48.2805 38.7026 47.9439 38.7026 47.5931V10.549C38.7026 10.1981 38.5647 9.86155 38.3192 9.61349ZM20.3775 7.06744H37.3936C38.3071 7.06744 39.1834 7.43429 39.8293 8.08732C40.4753 8.74015 40.8381 9.62572 40.8381 10.549V47.5931C40.8381 48.5163 40.4752 49.4019 39.8293 50.0547C39.1834 50.7078 38.3071 51.0746 37.3936 51.0746H20.3775C19.4641 51.0746 18.588 50.7078 17.9421 50.0549C17.296 49.4021 16.933 48.5164 16.933 47.5931V10.549C16.933 9.62575 17.2959 8.74015 17.9419 8.08733C18.5878 7.43438 19.4641 7.06744 20.3775 7.06744ZM18.5265 8.67804C19.0173 8.18176 19.6833 7.90297 20.3775 7.90297H37.3936C38.0879 7.90297 38.7538 8.18179 39.2447 8.67804C39.7357 9.17415 40.0115 9.84722 40.0115 10.549V47.5931C40.0115 48.2948 39.7356 48.9679 39.2447 49.464C38.7538 49.9603 38.0879 50.2391 37.3936 50.2391H20.3775C19.6833 50.2391 19.0173 49.9603 18.5265 49.464C18.0355 48.9679 17.7597 48.2948 17.7597 47.5931V10.549C17.7597 9.84726 18.0355 9.17415 18.5265 8.67804ZM24.9761 9.22597H32.7954V9.74854C32.7954 9.85875 32.7682 9.96613 32.7175 10.0615C32.6876 10.1179 32.6494 10.1702 32.6037 10.2163C32.481 10.3403 32.3145 10.4101 32.141 10.4101H25.6305C25.457 10.4101 25.2905 10.3403 25.1678 10.2163C25.1222 10.1702 25.084 10.1179 25.054 10.0615C25.004 9.96739 24.9768 9.86158 24.9761 9.7529L24.9761 9.74854L24.9761 9.22597ZM28.8725 33.1629C31.0385 33.1629 32.8491 31.3793 32.8491 29.1113C32.8491 28.208 32.5619 27.3815 32.0794 26.7139V25.8694H31.2568C30.5886 25.3594 29.7604 25.0597 28.8725 25.0597C26.7064 25.0597 24.8959 26.8433 24.8959 29.1113C24.8959 29.9732 25.1574 30.7652 25.6006 31.4159C25.7052 31.6311 25.8446 31.8286 26.0141 31.9999C26.1685 32.156 26.3445 32.2868 26.5356 32.3889C27.1954 32.8771 28.0055 33.1629 28.8725 33.1629ZM28.1438 29.8473V28.2508H27.5505C27.1207 28.2508 26.7006 28.3796 26.3433 28.6209C25.986 28.8622 25.7075 29.2052 25.5431 29.6065C25.3786 30.0078 25.3356 30.4494 25.4194 30.8754C25.4565 31.0638 25.5176 31.2454 25.6006 31.4159C25.8567 31.792 26.1735 32.1209 26.5356 32.3889C26.7204 32.4875 26.9194 32.5593 27.1266 32.6009C27.5481 32.6857 27.9849 32.6422 28.382 32.476C28.779 32.3097 29.1184 32.0283 29.3571 31.6671C29.5959 31.3059 29.7233 30.8813 29.7233 30.447V29.8648H31.294V28.2508H29.7233V29.8473H28.1438ZM28.1438 29.8473V30.447C28.1438 30.5656 28.109 30.6815 28.0438 30.7801C27.9786 30.8787 27.8859 30.9556 27.7775 31.001C27.6691 31.0464 27.5498 31.0583 27.4347 31.0351C27.3196 31.012 27.2139 30.9549 27.131 30.871C27.048 30.7871 26.9915 30.6803 26.9686 30.564C26.9457 30.4476 26.9574 30.327 27.0023 30.2175C27.0472 30.1079 27.1233 30.0142 27.2209 29.9483C27.3184 29.8825 27.4331 29.8473 27.5505 29.8473H28.1438ZM31.2568 25.8694H30.3124C29.7397 25.87 29.1907 26.1001 28.7858 26.5092C28.3809 26.9184 28.1532 27.4731 28.1526 28.0518V28.2508H29.7226V28.0518C29.7229 27.8939 29.7852 27.7426 29.8958 27.6311C30.0063 27.5196 30.1562 27.457 30.3124 27.457H32.0794V26.7139C31.8471 26.3925 31.5695 26.1079 31.2568 25.8694ZM35.8491 29.1113C35.8491 33.0058 32.7256 36.1629 28.8725 36.1629C25.0194 36.1629 21.8959 33.0058 21.8959 29.1113C21.8959 25.2168 25.0194 22.0597 28.8725 22.0597C32.7256 22.0597 35.8491 25.2168 35.8491 29.1113Z" fill="white"/>
</g>
<defs>
<filter id="filter0_bii_141_35518" x="-49.0159" y="-49.0159" width="156.032" height="156.032" filterUnits="userSpaceOnUse" color-interpolation-filters="sRGB">
<feFlood flood-opacity="0" result="BackgroundImageFix"/>
<feGaussianBlur in="BackgroundImageFix" stdDeviation="24.508"/>
<feComposite in2="SourceAlpha" operator="in" result="effect1_backgroundBlur_141_35518"/>
<feBlend mode="normal" in="SourceGraphic" in2="effect1_backgroundBlur_141_35518" result="shape"/>
<feColorMatrix in="SourceAlpha" type="matrix" values="0 0 0 0 0 0 0 0 0 0 0 0 0 0 0 0 0 0 127 0" result="hardAlpha"/>
<feOffset dx="1.17782" dy="1.17782"/>
<feGaussianBlur stdDeviation="1"/>
<feComposite in2="hardAlpha" operator="arithmetic" k2="-1" k3="1"/>
<feColorMatrix type="matrix" values="0 0 0 0 0.928409 0 0 0 0 0.978523 0 0 0 0 1 0 0 0 0.26 0"/>
<feBlend mode="normal" in2="shape" result="effect2_innerShadow_141_35518"/>
<feColorMatrix in="SourceAlpha" type="matrix" values="0 0 0 0 0 0 0 0 0 0 0 0 0 0 0 0 0 0 127 0" result="hardAlpha"/>
<feOffset dx="-1.18" dy="-1.18"/>
<feGaussianBlur stdDeviation="1"/>
<feComposite in2="hardAlpha" operator="arithmetic" k2="-1" k3="1"/>
<feColorMatrix type="matrix" values="0 0 0 0 0 0 0 0 0 0 0 0 0 0 0 0 0 0 0.15 0"/>
<feBlend mode="normal" in2="effect2_innerShadow_141_35518" result="effect3_innerShadow_141_35518"/>
</filter>
<linearGradient id="paint0_linear_141_35518" x1="-0.30111" y1="-0.0637144" x2="20.2135" y2="69.0763" gradientUnits="userSpaceOnUse">
<stop stop-color="#00FF94"/>
<stop offset="1" stop-color="#00330E"/>
</linearGradient>
<clipPath id="clip0_141_35518">
<rect width="41.7452" height="44.7006" fill="white" transform="translate(7.94269 6.64968)"/>
</clipPath>
</defs>
</svg>
