<svg viewBox="0 0 250 250" fill="none" xmlns="http://www.w3.org/2000/svg">
<rect width="250" height="250" rx="32" fill="url(#paint0_linear_326_6546)"/>
<path fill-rule="evenodd" clip-rule="evenodd" d="M195.789 148.743C199.122 150.661 201.506 153.76 202.503 157.466C203.499 161.173 202.988 165.045 201.063 168.369C198.397 172.973 193.544 175.549 188.561 175.549C186.118 175.549 183.644 174.93 181.381 173.627C180.183 172.938 179.109 172.093 178.177 171.125L138.832 193.778C139.204 195.052 139.408 196.398 139.408 197.791C139.408 205.713 132.945 212.158 125 212.158C117.055 212.158 110.591 205.713 110.591 197.791C110.591 196.398 110.795 195.052 111.168 193.778L71.8219 171.126C70.8894 172.094 69.8169 172.938 68.6192 173.627C66.3562 174.93 63.8815 175.549 61.4391 175.549C56.4554 175.549 51.6028 172.973 48.937 168.369C47.0123 165.045 46.5011 161.174 47.4974 157.467C48.4931 153.76 50.8775 150.662 54.2106 148.743C55.4083 148.053 56.6774 147.549 57.9842 147.227V137.924C57.9842 136.036 59.5202 134.504 61.4147 134.504C63.3093 134.504 64.8453 136.035 64.8453 137.924V147.236C64.8638 147.24 64.8824 147.245 64.9009 147.249L64.9621 147.263C65.0227 147.278 65.0834 147.292 65.1438 147.308C67.7296 147.999 70.019 149.361 71.8216 151.244L87.1669 142.41C84.5937 137.001 83.151 130.957 83.151 124.584C83.151 118.207 84.5947 112.161 87.1699 106.751L71.8123 97.9093C69.8904 99.9089 67.4599 101.274 64.8449 101.914V112.269C64.8449 114.158 63.3089 115.69 61.4144 115.69C59.5199 115.69 57.9839 114.158 57.9839 112.269V101.923C56.6908 101.607 55.4203 101.112 54.2103 100.416C50.8772 98.4971 48.4931 95.3986 47.4971 91.6919C46.5011 87.9849 47.0123 84.1129 48.9367 80.7897C52.9089 73.9288 61.7383 71.5693 68.6189 75.5309C69.8163 76.2202 70.8891 77.0642 71.8216 78.032L111.168 55.3803C110.795 54.1056 110.591 52.7601 110.591 51.367C110.591 43.4449 117.055 37 125 37C132.944 37 139.408 43.4449 139.408 51.367C139.408 52.7601 139.204 54.1056 138.832 55.3803L178.183 78.0348C179.104 77.0758 180.171 76.2271 181.38 75.5306C188.261 71.5693 197.09 73.9288 201.063 80.7894C202.987 84.1129 203.498 87.9849 202.502 91.6916C201.506 95.3983 199.122 98.4964 195.789 100.415C194.579 101.111 193.309 101.607 192.015 101.922V112.952C192.015 114.841 190.48 116.373 188.585 116.373C186.69 116.373 185.154 114.842 185.154 112.952V101.914C182.539 101.274 180.108 99.9093 178.186 97.9093L162.836 106.746C165.413 112.158 166.857 118.205 166.857 124.583C166.857 130.959 165.414 137.003 162.84 142.413L178.178 151.244C179.98 149.36 182.27 147.998 184.856 147.307C184.92 147.29 184.983 147.275 185.047 147.26L185.047 147.26L185.082 147.252C185.106 147.247 185.13 147.241 185.155 147.235V137.24C185.155 135.351 186.691 133.819 188.585 133.819C190.48 133.819 192.016 135.351 192.016 137.24V147.227C193.322 147.549 194.592 148.053 195.789 148.743ZM184.811 81.4555C183.066 82.4609 181.817 84.0835 181.295 86.025C180.773 87.9664 181.041 89.9947 182.049 91.7357C184.13 95.3299 188.755 96.5652 192.359 94.4903C194.104 93.4852 195.353 91.8623 195.875 89.9208C196.397 87.9791 196.129 85.9511 195.121 84.2101C193.04 80.6163 188.415 79.3806 184.811 81.4555ZM67.9509 91.7357C66.9426 93.4767 65.315 94.722 63.3679 95.2423C61.4206 95.7626 59.3868 95.4955 57.6408 94.4903C55.8948 93.4852 54.6463 91.8623 54.1245 89.9209C53.6027 87.9794 53.8706 85.9511 54.8786 84.2101C56.275 81.7986 58.8169 80.4487 61.4274 80.4487C62.7068 80.4487 64.0027 80.773 65.1884 81.4555C66.9343 82.4606 68.1828 84.0835 68.7047 86.025C69.2268 87.9668 68.9592 89.9951 67.9509 91.7357ZM65.1884 167.702C66.934 166.697 68.1828 165.074 68.704 163.132C69.2258 161.191 68.9579 159.163 67.9502 157.422C66.9422 155.681 65.315 154.436 63.3676 153.915C62.7174 153.742 62.0577 153.656 61.4021 153.656C60.0942 153.656 58.8039 153.998 57.6408 154.667C55.8952 155.672 54.6463 157.295 54.1245 159.237C53.6027 161.178 53.8706 163.207 54.8786 164.947C56.9594 168.541 61.5849 169.776 65.1884 167.702ZM135.394 61.301L174.76 83.9641C174.008 86.5432 173.976 89.3266 174.752 91.9868L159.395 100.828C152.443 90.852 141.245 84.0308 128.43 82.9905V65.3194C131.129 64.6595 133.53 63.2394 135.394 61.301ZM135.932 138.868C133.078 141.558 129.232 143.213 125.004 143.213C120.776 143.213 116.931 141.558 114.076 138.868L109.554 139.709C106.014 140.367 103.444 143.452 103.444 147.043V152.047C109.39 156.698 116.878 159.475 125.004 159.475C133.13 159.475 140.617 156.698 146.563 152.047V147.043C146.563 143.452 143.994 140.367 140.453 139.709L135.932 138.868ZM115.94 127.333V122.349C115.94 117.365 120.006 113.31 125.004 113.31C130.003 113.31 134.069 117.365 134.069 122.349V127.333C134.069 132.316 130.003 136.371 125.004 136.371C120.006 136.371 115.94 132.316 115.94 127.333ZM140.003 132.666L141.712 132.984C147.849 134.125 152.464 139.069 153.291 145.096C154.005 144.12 154.671 143.106 155.281 142.057C155.284 142.051 155.287 142.045 155.29 142.04L155.293 142.033C155.295 142.03 155.297 142.026 155.299 142.022C155.309 142.005 155.321 141.99 155.331 141.972C158.297 136.85 159.995 130.91 159.995 124.583C159.995 105.344 144.298 89.6913 125.004 89.6913C105.709 89.6913 90.0117 105.344 90.0117 124.583C90.0117 132.244 92.5026 139.334 96.7163 145.096C97.5439 139.069 102.159 134.125 108.296 132.984L110.005 132.666C109.406 130.998 109.078 129.203 109.078 127.332V122.349C109.078 113.592 116.222 106.468 125.004 106.468C133.786 106.468 140.93 113.592 140.93 122.349V127.332C140.93 129.203 140.601 130.998 140.003 132.666ZM125 43.8414C129.161 43.8414 132.547 47.2173 132.547 51.367C132.547 55.5167 129.161 58.893 125 58.893C120.838 58.893 117.453 55.5171 117.453 51.3674C117.453 47.2176 120.838 43.8414 125 43.8414ZM75.3321 84.2546C76.0248 86.8333 75.9863 89.4915 75.2521 91.9895L90.6111 100.832C97.5607 90.8561 108.757 84.0346 121.569 82.9915V65.3194C118.87 64.6595 116.47 63.2394 114.605 61.301L75.2453 83.9607C75.2555 83.9957 75.2661 84.0305 75.2767 84.0653C75.2958 84.1281 75.3149 84.1909 75.3321 84.2546ZM114.605 187.856L75.2453 165.197C75.2565 165.159 75.2681 165.12 75.2797 165.082C75.2978 165.023 75.3158 164.963 75.3321 164.903C76.0251 162.325 75.9867 159.666 75.2521 157.168L90.6067 148.329C97.5562 158.307 108.754 165.132 121.569 166.175V183.838C118.87 184.498 116.47 185.918 114.605 187.856ZM117.453 197.791C117.453 201.94 120.838 205.316 125 205.316C129.161 205.316 132.547 201.94 132.547 197.791C132.547 193.641 129.161 190.265 125 190.265C120.838 190.265 117.453 193.641 117.453 197.791ZM135.394 187.857C133.53 185.918 131.129 184.498 128.43 183.838V166.176C141.247 165.135 152.448 158.312 159.399 148.332L174.747 157.168C174.013 159.666 173.974 162.324 174.667 164.903C174.676 164.936 174.686 164.97 174.696 165.003C174.704 165.031 174.713 165.059 174.721 165.087C174.732 165.123 174.743 165.159 174.754 165.195L135.394 187.857ZM184.811 167.702C188.416 169.777 193.04 168.541 195.121 164.948C196.129 163.207 196.397 161.178 195.875 159.237C195.354 157.295 194.105 155.673 192.359 154.668C191.21 154.007 189.938 153.666 188.647 153.658L188.636 153.658L188.62 153.659L188.618 153.659C188.607 153.66 188.596 153.661 188.585 153.661C188.578 153.661 188.571 153.66 188.563 153.66L188.558 153.659L188.558 153.659L188.544 153.658L188.534 153.658C187.899 153.663 187.261 153.748 186.632 153.916C184.685 154.436 183.057 155.681 182.049 157.422C181.041 159.163 180.773 161.191 181.295 163.133C181.817 165.074 183.065 166.697 184.811 167.702ZM63.8404 122.421C63.2022 121.785 62.3171 121.419 61.4151 121.419C60.5093 121.419 59.6276 121.785 58.9898 122.421C58.3517 123.058 57.9846 123.94 57.9846 124.84C57.9846 125.743 58.3517 126.622 58.9898 127.258C59.6279 127.897 60.5131 128.26 61.4151 128.26C62.3174 128.26 63.2026 127.897 63.8404 127.258C64.4785 126.622 64.8456 125.742 64.8456 124.84C64.8456 123.94 64.4785 123.057 63.8404 122.421ZM188.587 121.162C189.488 121.162 190.37 121.528 191.012 122.165C191.65 122.8 192.014 123.683 192.014 124.583C192.014 125.482 191.65 126.365 191.012 127.001C190.371 127.638 189.489 128.004 188.587 128.004C187.681 128.004 186.799 127.637 186.158 127.001C185.52 126.365 185.156 125.483 185.156 124.583C185.156 123.683 185.52 122.801 186.158 122.165C186.796 121.528 187.681 121.162 188.587 121.162Z" fill="#2F353F"/>
<defs>
<linearGradient id="paint0_linear_326_6546" x1="15.5" y1="-20" x2="290" y2="303.5" gradientUnits="userSpaceOnUse">
<stop stop-color="#00EF8B"/>
<stop offset="1" stop-color="white" stop-opacity="0"/>
</linearGradient>
</defs>
</svg>
