<svg viewBox="0 0 16 16" fill="none" xmlns="http://www.w3.org/2000/svg">
<path fill-rule="evenodd" clip-rule="evenodd" d="M10.7759 10.5741C9.98306 10.5741 9.5348 10.1608 9.19026 9.59852L7.88405 10.357C8.35593 11.2889 9.32031 11.9999 10.8131 11.9999C12.3397 11.9999 13.4765 11.2075 13.4765 9.76107C13.4765 8.41938 12.7054 7.82262 11.3398 7.23726L10.9379 7.06521C10.2483 6.76669 9.94966 6.57157 9.94966 6.08961C9.94966 5.69964 10.248 5.40112 10.7188 5.40112C11.1804 5.40112 11.4777 5.5957 11.7533 6.08961L13.0049 5.28633C12.4755 4.3555 11.7408 4 10.7188 4C9.28339 4 8.36489 4.91726 8.36489 6.12217C8.36489 7.43021 9.13542 8.04895 10.2953 8.54286L10.6971 8.71519C11.4302 9.03568 11.8673 9.2308 11.8673 9.7817C11.8673 10.2414 11.4419 10.5741 10.7759 10.5741ZM4.54692 10.5638C3.99468 10.5638 3.76499 10.1853 3.51249 9.73749L2.2041 10.5292C2.58312 11.331 3.32841 11.9967 4.61534 11.9967C6.03966 11.9967 7.01545 11.2396 7.01545 9.57602V4.09148H5.40814V9.55431C5.40814 10.3573 5.075 10.5638 4.54692 10.5638Z" fill="url(#paint0_linear_2_749)"/>
<defs>
<linearGradient id="paint0_linear_2_749" x1="11.081" y1="-3.70649" x2="1.23755" y2="9.55999" gradientUnits="userSpaceOnUse">
<stop stop-color="white" stop-opacity="0.01"/>
<stop offset="0.12833" stop-color="#F0B24F"/>
<stop offset="1" stop-color="#F0DB4F"/>
</linearGradient>
</defs>
</svg>
