<svg width="16" height="16" viewBox="0 0 16 16" fill="none" xmlns="http://www.w3.org/2000/svg">
<path d="M8.89982 4.2955C9.93932 6.5875 12.7198 7.5455 12.4703 10.5325C12.1793 14.041 9.69482 14.9245 8.31232 14.987C7.20084 15.0732 6.09797 14.7351 5.22585 14.0406C4.35374 13.3462 3.77719 12.3471 3.61232 11.2445C2.80882 7.523 6.32732 1.816 8.35432 1C8.28753 2.12547 8.47394 3.25159 8.89982 4.2955ZM8.81682 13.724C8.82334 13.6962 8.82418 13.6674 8.81928 13.6393C8.81438 13.6112 8.80385 13.5844 8.78832 13.5605C8.49182 13.0105 5.88332 12.738 5.33482 12.6845C5.57876 12.9348 5.85345 13.1532 6.15232 13.3345C6.58303 13.5978 7.06095 13.7746 7.55932 13.855C7.96082 13.9155 8.73332 13.9665 8.81732 13.7235L8.81682 13.724Z" fill="#7C648F"/>
<path opacity="0.25" d="M9.12394 5.30899C11.3589 7.72049 12.3464 7.79849 12.2424 10.548C12.1179 13.786 9.97094 14.6435 8.71344 14.758C6.61344 15.0335 4.96594 13.994 4.53444 11.915C3.65594 8.53149 6.48894 3.01149 8.31844 2.17999C8.36429 3.2657 8.64057 4.32924 9.12894 5.29999L9.12394 5.30899Z" fill="#26003D"/>
<path opacity="0.75" d="M8.69256 4.96047C10.1846 6.99997 12.1596 6.84998 12.5001 9.82048C12.5471 13.282 10.7001 14.462 9.38156 14.7945C7.13156 15.434 5.12456 14.472 4.33456 12.2945C2.81706 8.79448 5.66006 3.03747 7.48956 1.83698C7.64681 2.9519 8.05171 4.01747 8.67456 4.95548L8.69256 4.96047Z" fill="url(#paint0_linear_2_150)"/>
<defs>
<linearGradient id="paint0_linear_2_150" x1="8.62456" y1="14.7985" x2="7.48656" y2="1.99698" gradientUnits="userSpaceOnUse">
<stop stop-color="white" stop-opacity="0"/>
<stop offset="0.01" stop-color="#F7F6F8" stop-opacity="0.04"/>
<stop offset="0.09" stop-color="#AA9CB3" stop-opacity="0.39"/>
<stop offset="0.2" stop-color="#6F567E" stop-opacity="0.66"/>
<stop offset="0.32" stop-color="#452459" stop-opacity="0.86"/>
<stop offset="0.5" stop-color="#2D0843" stop-opacity="0.97"/>
<stop offset="1" stop-color="#26003D"/>
</linearGradient>
</defs>
</svg>
