<svg width="16" height="16" viewBox="0 0 16 16" fill="none" xmlns="http://www.w3.org/2000/svg">
<g clip-path="url(#clip0_2_154)">
<path d="M9.14163 5.41701L9.17676 5.44054C9.58963 5.71421 9.88566 6.08954 10.0804 6.54307C10.1272 6.61343 10.096 6.65254 10.0025 6.67597L9.84429 6.71662C9.48657 6.80912 9.20273 6.88691 8.8497 6.97941L8.64835 7.03204C8.57585 7.05005 8.55585 7.04249 8.47873 6.95435L8.46785 6.94183C8.35788 6.81674 8.27551 6.73318 8.12982 6.65859L8.10173 6.6447C7.61095 6.40233 7.13576 6.47268 6.69173 6.76201C6.16198 7.10604 5.88933 7.6143 5.89711 8.24765C5.90492 8.87316 6.33336 9.38924 6.94879 9.47524C7.47851 9.54563 7.92254 9.35796 8.2731 8.9592C8.34323 8.87316 8.40554 8.77935 8.48342 8.66988H6.97998C6.81639 8.66988 6.77745 8.56825 6.83198 8.43532L6.85898 8.37149C6.95911 8.13768 7.11439 7.80162 7.21523 7.60947L7.23723 7.5681C7.26417 7.52124 7.31886 7.45791 7.42401 7.45791H9.93101C10.0436 7.09986 10.2263 6.76154 10.4699 6.44141C11.0386 5.69078 11.7242 5.2998 12.6512 5.13562C13.4458 4.99485 14.1937 5.07305 14.8714 5.53439C15.4868 5.95661 15.8685 6.52745 15.9698 7.27805C16.1022 8.33366 15.7984 9.19376 15.0739 9.92877C14.5598 10.4527 13.9288 10.7811 13.2043 10.9296C12.994 10.9687 12.7836 10.9765 12.5811 11C11.8722 10.9843 11.2256 10.7811 10.6803 10.3119C10.2968 9.97911 10.0326 9.57016 9.90129 9.09401C9.80917 9.2806 9.69961 9.45799 9.5741 9.6238C9.0132 10.3666 8.28095 10.828 7.35392 10.9531C6.59048 11.0547 5.88158 10.9062 5.25836 10.437C4.68189 9.99913 4.35471 9.42051 4.26899 8.70118C4.16774 7.84886 4.41702 7.08258 4.93117 6.41014C5.4843 5.68294 6.21655 5.22163 7.11242 5.05743C7.83114 4.92694 8.51982 5.0074 9.14166 5.41701H9.14163ZM12.8475 6.53749L12.8225 6.54307C12.0981 6.70727 11.6307 7.16858 11.4593 7.90359C11.319 8.51348 11.6151 9.13122 12.176 9.38143C12.6044 9.56909 13.0329 9.54563 13.4457 9.3345C14.0612 9.01394 14.3962 8.51348 14.4351 7.84105C14.4273 7.73942 14.4273 7.66119 14.4117 7.583C14.2731 6.81762 13.5785 6.38091 12.8475 6.53749ZM3.63799 7.96614C3.66915 7.96614 3.68474 7.9896 3.68474 8.02087L3.66915 8.20854C3.66915 8.23981 3.63799 8.26327 3.61461 8.26327L1.91637 8.25546C1.88521 8.25546 1.87743 8.232 1.89299 8.20854L2.00206 8.01306C2.01765 7.9896 2.04881 7.96614 2.07996 7.96614H3.63799ZM3.80936 7.24678C3.84052 7.24678 3.85611 7.27024 3.84833 7.2937L3.78599 7.48137C3.77821 7.51264 3.74705 7.52826 3.7159 7.52826L0.031155 7.5361C-1.1567e-06 7.5361 -0.00778239 7.52045 0.00778007 7.49699L0.171373 7.28589C0.186967 7.26243 0.225905 7.24678 0.257061 7.24678H3.80936ZM4.21446 6.52742C4.24561 6.52742 4.25339 6.55088 4.23783 6.57434L4.10539 6.77763C4.0898 6.80109 4.05086 6.82455 4.02749 6.82455L1.2075 6.81671C1.17631 6.81671 1.16853 6.80109 1.18409 6.77763L1.34768 6.56653C1.36328 6.54307 1.40221 6.52742 1.43337 6.52742H4.21446Z" fill="#00ACD7"/>
</g>
<defs>
<clipPath id="clip0_2_154">
<rect width="16" height="16" fill="white"/>
</clipPath>
</defs>
</svg>
