<svg width="58" height="58" viewBox="0 0 58 58" fill="none" xmlns="http://www.w3.org/2000/svg">
<g filter="url(#filter0_bii_2_192)">
<rect width="58" height="58" rx="8" fill="url(#paint0_linear_2_192)" fill-opacity="0.33"/>
</g>
<g clip-path="url(#clip0_2_192)">
<path d="M31.5687 23.1883L31.6477 23.2412C32.5767 23.857 33.2427 24.7015 33.6809 25.7219C33.7861 25.8802 33.716 25.9682 33.5056 26.0209L33.1496 26.1124C32.3448 26.3205 31.7061 26.4955 30.9118 26.7037L30.4588 26.8221C30.2957 26.8626 30.2507 26.8456 30.0771 26.6473L30.0527 26.6191C29.8052 26.3377 29.6199 26.1497 29.2921 25.9818L29.2289 25.9506C28.1246 25.4052 27.0555 25.5635 26.0564 26.2145C24.8645 26.9886 24.251 28.1322 24.2685 29.5572C24.2861 30.9646 25.2501 32.1258 26.6348 32.3193C27.8266 32.4777 28.8257 32.0554 29.6145 31.1582C29.7723 30.9646 29.9125 30.7535 30.0877 30.5072H26.705C26.3369 30.5072 26.2493 30.2786 26.372 29.9795L26.4327 29.8358C26.658 29.3098 27.0074 28.5536 27.2343 28.1213L27.2838 28.0282C27.3444 27.9228 27.4674 27.7803 27.704 27.7803H33.3448C33.5981 26.9747 34.0091 26.2135 34.5574 25.4932C35.8369 23.8043 37.3793 22.9245 39.4652 22.5552C41.253 22.2384 42.9357 22.4144 44.4606 23.4524C45.8453 24.4024 46.7042 25.6868 46.9321 27.3756C47.23 29.7507 46.5464 31.686 44.9163 33.3397C43.7595 34.5185 42.3397 35.2574 40.7096 35.5916C40.2364 35.6796 39.7631 35.6972 39.3075 35.75C37.7124 35.7148 36.2576 35.2574 35.0306 34.2018C34.1677 33.453 33.5733 32.5329 33.2779 31.4615C33.0706 31.8813 32.8241 32.2805 32.5417 32.6535C31.2797 34.325 29.6321 35.3629 27.5463 35.6445C25.8286 35.8732 24.2335 35.5388 22.8313 34.4833C21.5343 33.498 20.7981 32.1961 20.6052 30.5777C20.3774 28.6599 20.9383 26.9358 22.0951 25.4228C23.3397 23.7866 24.9872 22.7487 27.0029 22.3792C28.6201 22.0856 30.1696 22.2666 31.5687 23.1883H31.5687ZM39.9068 25.7093L39.8507 25.7219C38.2206 26.0914 37.169 27.1293 36.7834 28.7831C36.4678 30.1553 37.1339 31.5452 38.3959 32.1082C39.3599 32.5305 40.324 32.4777 41.2529 32.0026C42.6377 31.2814 43.3913 30.1553 43.479 28.6424C43.4614 28.4137 43.4614 28.2377 43.4263 28.0617C43.1144 26.3396 41.5515 25.357 39.9068 25.7093V25.7093ZM19.1855 28.9238C19.2556 28.9238 19.2907 28.9766 19.2907 29.047L19.2556 29.4692C19.2556 29.5396 19.1855 29.5924 19.1329 29.5924L15.3118 29.5748C15.2417 29.5748 15.2242 29.522 15.2592 29.4692L15.5046 29.0294C15.5397 28.9766 15.6098 28.9238 15.6799 28.9238H19.1855V28.9238ZM19.5711 27.3053C19.6412 27.3053 19.6763 27.358 19.6587 27.4108L19.5185 27.8331C19.501 27.9034 19.4309 27.9386 19.3608 27.9386L11.0701 27.9562C11 27.9562 10.9825 27.921 11.0175 27.8682L11.3856 27.3933C11.4207 27.3405 11.5083 27.3053 11.5784 27.3053H19.5711ZM20.4825 25.6867C20.5526 25.6867 20.5701 25.7395 20.5351 25.7923L20.2371 26.2497C20.2021 26.3025 20.1144 26.3552 20.0618 26.3552L13.7169 26.3376C13.6467 26.3376 13.6292 26.3025 13.6642 26.2497L14.0323 25.7747C14.0674 25.7219 14.155 25.6867 14.2251 25.6867H20.4825Z" fill="#00ACD7"/>
</g>
<defs>
<filter id="filter0_bii_2_192" x="-49.0159" y="-49.0159" width="156.032" height="156.032" filterUnits="userSpaceOnUse" color-interpolation-filters="sRGB">
<feFlood flood-opacity="0" result="BackgroundImageFix"/>
<feGaussianBlur in="BackgroundImage" stdDeviation="24.508"/>
<feComposite in2="SourceAlpha" operator="in" result="effect1_backgroundBlur_2_192"/>
<feBlend mode="normal" in="SourceGraphic" in2="effect1_backgroundBlur_2_192" result="shape"/>
<feColorMatrix in="SourceAlpha" type="matrix" values="0 0 0 0 0 0 0 0 0 0 0 0 0 0 0 0 0 0 127 0" result="hardAlpha"/>
<feOffset dx="1.17782" dy="1.17782"/>
<feGaussianBlur stdDeviation="1"/>
<feComposite in2="hardAlpha" operator="arithmetic" k2="-1" k3="1"/>
<feColorMatrix type="matrix" values="0 0 0 0 0.928409 0 0 0 0 0.978523 0 0 0 0 1 0 0 0 0.26 0"/>
<feBlend mode="normal" in2="shape" result="effect2_innerShadow_2_192"/>
<feColorMatrix in="SourceAlpha" type="matrix" values="0 0 0 0 0 0 0 0 0 0 0 0 0 0 0 0 0 0 127 0" result="hardAlpha"/>
<feOffset dx="-1.18" dy="-1.18"/>
<feGaussianBlur stdDeviation="1"/>
<feComposite in2="hardAlpha" operator="arithmetic" k2="-1" k3="1"/>
<feColorMatrix type="matrix" values="0 0 0 0 0 0 0 0 0 0 0 0 0 0 0 0 0 0 0.15 0"/>
<feBlend mode="normal" in2="effect2_innerShadow_2_192" result="effect3_innerShadow_2_192"/>
</filter>
<linearGradient id="paint0_linear_2_192" x1="8.74603" y1="-4.60317" x2="58" y2="58" gradientUnits="userSpaceOnUse">
<stop stop-color="white"/>
<stop offset="1" stop-color="white" stop-opacity="0"/>
</linearGradient>
<clipPath id="clip0_2_192">
<rect width="36" height="36" fill="white" transform="translate(11 11)"/>
</clipPath>
</defs>
</svg>
