<svg width="16" height="16" viewBox="0 0 16 16" fill="none" xmlns="http://www.w3.org/2000/svg">
<g clip-path="url(#clip0_2_156)">
<path d="M16 5.84668H14.3547V10.89H13.4047V5.84668H11.7633V5.02002H16V5.84668ZM11.432 10.89H8.218V5.02002H11.3047V5.84668H9.168V7.50935H11.1367V8.33202H9.168V10.068H11.432V10.89ZM6.96 10.89H5.92133L3.18667 6.57535C3.11826 6.46796 3.06065 6.35408 3.01467 6.23535H2.99067C3.012 6.36135 3.02267 6.63001 3.02267 7.04201V10.89H2.10467V5.02002H3.21067L5.854 9.23335C5.96533 9.40735 6.03733 9.52802 6.06933 9.59335H6.08533C6.05867 9.43802 6.04533 9.17402 6.04533 8.80335V5.01935H6.96V10.89ZM1.158 10.428C1.158 10.5006 1.14301 10.5726 1.11389 10.6397C1.08477 10.7068 1.04208 10.7677 0.988277 10.819C0.934472 10.8704 0.870602 10.9111 0.800318 10.9388C0.730034 10.9665 0.654715 10.9808 0.578667 10.9807C0.502617 10.9807 0.427312 10.9664 0.35706 10.9385C0.286807 10.9107 0.222984 10.87 0.169241 10.8186C0.115498 10.7672 0.0728879 10.7062 0.0438483 10.639C0.0148086 10.5719 -9.13164e-05 10.5 4.21045e-07 10.4273C0.000185404 10.2809 0.0612335 10.1405 0.169735 10.037C0.278236 9.93348 0.425316 9.87535 0.578667 9.87535C0.654715 9.87526 0.730034 9.8895 0.800318 9.91723C0.870602 9.94497 0.934472 9.98567 0.988277 10.037C1.04208 10.0883 1.08477 10.1493 1.11389 10.2164C1.14301 10.2835 1.158 10.3554 1.158 10.428Z" fill="black"/>
</g>
<defs>
<clipPath id="clip0_2_156">
<rect width="16" height="16" fill="white"/>
</clipPath>
</defs>
</svg>
