<svg width="58" height="58" viewBox="0 0 58 58" fill="none" xmlns="http://www.w3.org/2000/svg">
<g filter="url(#filter0_bii_2_181)">
<rect width="58" height="58" rx="8" fill="url(#paint0_linear_2_181)" fill-opacity="0.33"/>
</g>
<g clip-path="url(#clip0_2_181)">
<path d="M47 24.155H43.298V35.5025H41.1605V24.155H37.4675V22.295H47V24.155ZM36.722 35.5025H29.4905V22.295H36.4355V24.155H31.628V27.896H36.0575V29.747H31.628V33.653H36.722V35.5025ZM26.66 35.5025H24.323L18.17 25.7945C18.0161 25.5528 17.8865 25.2966 17.783 25.0295H17.729C17.777 25.313 17.801 25.9175 17.801 26.8445V35.5025H15.7355V22.295H18.224L24.1715 31.775C24.422 32.1665 24.584 32.438 24.656 32.585H24.692C24.632 32.2355 24.602 31.6415 24.602 30.8075V22.2935H26.66V35.5025ZM13.6055 34.463C13.6055 34.6264 13.5718 34.7882 13.5062 34.9392C13.4407 35.0901 13.3447 35.2273 13.2236 35.3428C13.1026 35.4582 12.9589 35.5498 12.8007 35.6122C12.6426 35.6746 12.4731 35.7066 12.302 35.7065C12.1309 35.7065 11.9615 35.6742 11.8034 35.6117C11.6453 35.5491 11.5017 35.4573 11.3808 35.3417C11.2599 35.2261 11.164 35.0888 11.0987 34.9378C11.0333 34.7867 10.9998 34.6249 11 34.4615C11.0004 34.1319 11.1378 33.816 11.3819 33.5831C11.626 33.3503 11.957 33.2195 12.302 33.2195C12.4731 33.2193 12.6426 33.2513 12.8007 33.3137C12.9589 33.3761 13.1026 33.4677 13.2236 33.5832C13.3447 33.6987 13.4407 33.8358 13.5062 33.9868C13.5718 34.1377 13.6055 34.2995 13.6055 34.463V34.463Z" fill="black"/>
</g>
<defs>
<filter id="filter0_bii_2_181" x="-49.0159" y="-49.0159" width="156.032" height="156.032" filterUnits="userSpaceOnUse" color-interpolation-filters="sRGB">
<feFlood flood-opacity="0" result="BackgroundImageFix"/>
<feGaussianBlur in="BackgroundImage" stdDeviation="24.508"/>
<feComposite in2="SourceAlpha" operator="in" result="effect1_backgroundBlur_2_181"/>
<feBlend mode="normal" in="SourceGraphic" in2="effect1_backgroundBlur_2_181" result="shape"/>
<feColorMatrix in="SourceAlpha" type="matrix" values="0 0 0 0 0 0 0 0 0 0 0 0 0 0 0 0 0 0 127 0" result="hardAlpha"/>
<feOffset dx="1.17782" dy="1.17782"/>
<feGaussianBlur stdDeviation="1"/>
<feComposite in2="hardAlpha" operator="arithmetic" k2="-1" k3="1"/>
<feColorMatrix type="matrix" values="0 0 0 0 0.928409 0 0 0 0 0.978523 0 0 0 0 1 0 0 0 0.26 0"/>
<feBlend mode="normal" in2="shape" result="effect2_innerShadow_2_181"/>
<feColorMatrix in="SourceAlpha" type="matrix" values="0 0 0 0 0 0 0 0 0 0 0 0 0 0 0 0 0 0 127 0" result="hardAlpha"/>
<feOffset dx="-1.18" dy="-1.18"/>
<feGaussianBlur stdDeviation="1"/>
<feComposite in2="hardAlpha" operator="arithmetic" k2="-1" k3="1"/>
<feColorMatrix type="matrix" values="0 0 0 0 0 0 0 0 0 0 0 0 0 0 0 0 0 0 0.15 0"/>
<feBlend mode="normal" in2="effect2_innerShadow_2_181" result="effect3_innerShadow_2_181"/>
</filter>
<linearGradient id="paint0_linear_2_181" x1="8.74603" y1="-4.60317" x2="58" y2="58" gradientUnits="userSpaceOnUse">
<stop stop-color="white"/>
<stop offset="1" stop-color="white" stop-opacity="0"/>
</linearGradient>
<clipPath id="clip0_2_181">
<rect width="36" height="36" fill="white" transform="translate(11 11)"/>
</clipPath>
</defs>
</svg>
