<svg width="16" height="16" viewBox="0 0 16 16" fill="none" xmlns="http://www.w3.org/2000/svg">
<path d="M14.2447 7.34057L13.6989 7.00273C13.6943 6.9497 13.6891 6.89671 13.6834 6.84379L14.1524 6.40632C14.1759 6.38453 14.1933 6.35709 14.2032 6.32662C14.213 6.29616 14.2148 6.26368 14.2085 6.23229C14.2024 6.20089 14.1883 6.17159 14.1675 6.14719C14.1468 6.1228 14.1202 6.10412 14.0902 6.09295L13.4906 5.86876C13.4756 5.81698 13.4599 5.76539 13.4437 5.71398L13.8177 5.19455C13.8364 5.16858 13.8482 5.13826 13.8519 5.10645C13.8556 5.07465 13.8511 5.04243 13.8389 5.01284C13.8266 4.98326 13.807 4.9573 13.7819 4.93743C13.7568 4.91756 13.727 4.90444 13.6954 4.89931L13.0632 4.79648C13.0386 4.74854 13.013 4.70132 12.9872 4.6545L13.2529 4.07139C13.2662 4.04229 13.2719 4.01025 13.2694 3.97833C13.2668 3.94641 13.2561 3.91568 13.2382 3.88909C13.2205 3.86241 13.1963 3.84073 13.1678 3.82613C13.1393 3.81153 13.1075 3.8045 13.0755 3.80571L12.4339 3.82805C12.4007 3.78654 12.3669 3.74556 12.3325 3.70511L12.48 3.08011C12.4874 3.04894 12.4866 3.0164 12.4779 2.98559C12.4691 2.95478 12.4526 2.92672 12.4299 2.9041C12.4073 2.88146 12.3793 2.86497 12.3485 2.85621C12.3177 2.84744 12.2852 2.8467 12.254 2.85403L11.6291 3.00135C11.5886 2.96696 11.5475 2.93317 11.5059 2.89999L11.5284 2.25838C11.5296 2.22639 11.5226 2.19463 11.508 2.16614C11.4934 2.13764 11.4718 2.11337 11.4451 2.09563C11.4185 2.07782 11.3878 2.06711 11.3559 2.06454C11.324 2.06196 11.2919 2.06759 11.2628 2.0809L10.6798 2.34669C10.6328 2.32073 10.5855 2.29534 10.5379 2.27052L10.4348 1.6382C10.4296 1.60663 10.4165 1.57689 10.3966 1.55182C10.3767 1.52674 10.3508 1.50716 10.3212 1.49491C10.2917 1.48267 10.2595 1.47818 10.2277 1.48187C10.1959 1.48555 10.1656 1.49729 10.1396 1.51597L9.61983 1.88997C9.56869 1.87372 9.51725 1.85803 9.46535 1.84315L9.24115 1.24349C9.23 1.21344 9.21133 1.18677 9.18692 1.166C9.16252 1.14523 9.1332 1.13107 9.10176 1.12486C9.07039 1.11869 9.03797 1.12061 9.00755 1.13043C8.97713 1.14026 8.94971 1.15767 8.92788 1.18103L8.4904 1.65039C8.4375 1.64446 8.38451 1.63928 8.33146 1.63485L7.99361 1.08896C7.97677 1.06176 7.95327 1.03931 7.92532 1.02374C7.89738 1.00817 7.86592 1 7.83393 1C7.80194 1 7.77048 1.00817 7.74253 1.02374C7.71459 1.03931 7.69108 1.06176 7.67425 1.08896L7.3364 1.63485C7.28329 1.63927 7.23026 1.64445 7.1773 1.65039L6.73972 1.18103C6.71791 1.15758 6.69047 1.14011 6.66 1.13028C6.62953 1.12044 6.59705 1.11856 6.56565 1.12482C6.53425 1.13108 6.50498 1.14527 6.48061 1.16604C6.45624 1.18681 6.4376 1.21347 6.42645 1.24349L6.2023 1.84315C6.15035 1.85803 6.09896 1.87382 6.04767 1.88997L5.52798 1.51597C5.50202 1.49721 5.47167 1.48541 5.43985 1.48172C5.40803 1.47803 5.3758 1.48257 5.34623 1.4949C5.31669 1.50717 5.29077 1.52677 5.27091 1.55184C5.25105 1.57691 5.23791 1.60664 5.23273 1.6382L5.12965 2.27052C5.08191 2.29525 5.03474 2.32069 4.98766 2.34669L4.40464 2.08085C4.37554 2.06753 4.34351 2.0619 4.31162 2.06449C4.27972 2.06707 4.24902 2.0778 4.22244 2.09563C4.19578 2.11336 4.17411 2.13763 4.15951 2.16612C4.14491 2.19462 4.13787 2.22638 4.13906 2.25838L4.1614 2.89999C4.11989 2.93323 4.07882 2.96702 4.03821 3.00135L3.41334 2.85408C3.38217 2.84678 3.34966 2.84754 3.31886 2.85629C3.28806 2.86504 3.26001 2.8815 3.23734 2.9041C3.21466 2.92672 3.19815 2.95478 3.18938 2.98559C3.18062 3.0164 3.17989 3.04894 3.18727 3.08011L3.33448 3.70511C3.3003 3.74558 3.26654 3.78656 3.23337 3.82805L2.5917 3.80571C2.55975 3.8047 2.52806 3.81181 2.4996 3.82639C2.47115 3.84096 2.44686 3.86252 2.429 3.88904C2.41119 3.91564 2.40049 3.94636 2.3979 3.97827C2.39532 4.01017 2.40093 4.04221 2.41422 4.07134L2.68001 4.6545C2.65416 4.70132 2.62862 4.74854 2.60384 4.79648L1.97166 4.89931C1.94007 4.90446 1.91032 4.9176 1.88523 4.93747C1.86014 4.95735 1.84054 4.9833 1.8283 5.01288C1.81606 5.04245 1.81157 5.07466 1.81527 5.10646C1.81897 5.13825 1.83073 5.16857 1.84943 5.19455L2.22344 5.71403C2.20719 5.76532 2.19139 5.81681 2.17646 5.86876L1.57684 6.09295C1.54689 6.1042 1.52031 6.12291 1.49962 6.1473C1.47892 6.17169 1.46479 6.20095 1.45856 6.23233C1.45233 6.26371 1.45421 6.29615 1.46402 6.3266C1.47384 6.35704 1.49125 6.38448 1.51463 6.40632L1.9837 6.84374C1.97786 6.89655 1.97268 6.94972 1.96821 7.00273L1.42236 7.34057C1.39517 7.35741 1.37272 7.38092 1.35717 7.40887C1.34162 7.43683 1.33347 7.46829 1.3335 7.50028C1.3335 7.56548 1.36716 7.62586 1.42241 7.65988L1.96821 7.99772C1.97268 8.05089 1.97786 8.10395 1.9837 8.15671L1.51458 8.59429C1.49116 8.61609 1.47371 8.64353 1.46387 8.67398C1.45403 8.70443 1.45215 8.73689 1.45838 8.76827C1.46462 8.79966 1.47878 8.82893 1.49951 8.85331C1.52024 8.87768 1.54686 8.89636 1.57684 8.90755L2.17646 9.13175C2.19139 9.18364 2.20719 9.23519 2.22344 9.28647L1.84943 9.80601C1.83069 9.83197 1.81891 9.8623 1.8152 9.89411C1.81149 9.92592 1.81599 9.95815 1.82825 9.98773C1.84052 10.0173 1.86015 10.0433 1.88528 10.0631C1.91041 10.083 1.9402 10.0961 1.97182 10.1011L2.60389 10.204C2.62862 10.2519 2.65396 10.2991 2.68006 10.3462L2.41422 10.9291C2.40091 10.9582 2.39528 10.9903 2.39787 11.0222C2.40045 11.0541 2.41117 11.0848 2.429 11.1114C2.44673 11.1381 2.47099 11.1597 2.49948 11.1743C2.52797 11.1889 2.55972 11.1959 2.5917 11.1947L3.23307 11.1723C3.26654 11.214 3.3002 11.2549 3.33448 11.2955L3.18727 11.9206C3.17989 11.9517 3.18063 11.9842 3.18939 12.015C3.19816 12.0457 3.21467 12.0737 3.23734 12.0962C3.25994 12.1189 3.288 12.1355 3.31882 12.1442C3.34964 12.1529 3.38219 12.1536 3.41334 12.1462L4.03821 11.999C4.07883 12.0335 4.11996 12.067 4.16145 12.1001L4.13911 12.7419C4.13796 12.7738 4.145 12.8056 4.15958 12.8341C4.17416 12.8626 4.19578 12.8869 4.2224 12.9046C4.24901 12.9224 4.27973 12.9331 4.31163 12.9356C4.34352 12.9382 4.37555 12.9325 4.40464 12.9192L4.98766 12.6536C5.03461 12.6796 5.08194 12.705 5.12965 12.7297L5.23273 13.3616C5.23783 13.3933 5.25093 13.423 5.2708 13.4481C5.29067 13.4733 5.31664 13.4929 5.34623 13.5051C5.37581 13.5173 5.40802 13.5219 5.43982 13.5182C5.47163 13.5145 5.50197 13.5028 5.52798 13.4841L6.04742 13.1099C6.09871 13.1261 6.15025 13.142 6.20215 13.1569L6.42635 13.7564C6.43751 13.7864 6.45618 13.813 6.48058 13.8337C6.50497 13.8544 6.53428 13.8686 6.56569 13.8747C6.59706 13.8811 6.62954 13.8792 6.66 13.8694C6.69045 13.8595 6.71787 13.842 6.73962 13.8186L7.1772 13.3495C7.23001 13.3555 7.28313 13.3606 7.3363 13.3653L7.67414 13.9111C7.691 13.9383 7.7145 13.9607 7.74243 13.9763C7.77035 13.9918 7.80179 14 7.83375 14C7.86573 14 7.89718 13.9918 7.92513 13.9763C7.95307 13.9607 7.97659 13.9383 7.99346 13.9111L8.3313 13.3653C8.38447 13.3606 8.43754 13.3555 8.4903 13.3495L8.92778 13.8186C8.94953 13.842 8.97694 13.8595 9.00739 13.8693C9.03783 13.8792 9.07029 13.881 9.10166 13.8747C9.13306 13.8685 9.16235 13.8544 9.18674 13.8337C9.21114 13.813 9.22982 13.7863 9.241 13.7564L9.4652 13.1569C9.5171 13.142 9.56869 13.1261 9.61998 13.1099L10.1395 13.4841C10.1655 13.5028 10.1958 13.5145 10.2276 13.5182C10.2594 13.5219 10.2917 13.5174 10.3212 13.5051C10.3508 13.4928 10.3767 13.4732 10.3966 13.4481C10.4164 13.423 10.4295 13.3932 10.4347 13.3616L10.5378 12.7297C10.5854 12.705 10.6326 12.6793 10.6797 12.6535L11.2627 12.9192C11.2918 12.9326 11.3238 12.9382 11.3558 12.9357C11.3877 12.9332 11.4184 12.9225 11.445 12.9047C11.4717 12.887 11.4933 12.8627 11.5079 12.8341C11.5224 12.8056 11.5295 12.7739 11.5283 12.7419L11.5059 12.1001C11.5475 12.0671 11.5885 12.0334 11.629 11.999L12.2539 12.1462C12.3174 12.1611 12.3839 12.1426 12.4298 12.0962C12.4524 12.0737 12.4689 12.0457 12.4777 12.015C12.4865 11.9842 12.4872 11.9517 12.4798 11.9206L12.3327 11.2955C12.3669 11.2549 12.4007 11.214 12.4337 11.1723L13.0754 11.1947C13.1074 11.196 13.1391 11.1889 13.1676 11.1743C13.1961 11.1598 13.2204 11.1381 13.2381 11.1115C13.256 11.0849 13.2667 11.0541 13.2692 11.0222C13.2718 10.9902 13.2661 10.9582 13.2528 10.9291L12.9871 10.3462C13.013 10.2991 13.0385 10.2519 13.0631 10.204L13.6953 10.1011C13.7269 10.0961 13.7567 10.083 13.7818 10.0631C13.8069 10.0432 13.8265 10.0172 13.8386 9.9876C13.8509 9.95804 13.8554 9.92585 13.8517 9.89406C13.848 9.86228 13.8363 9.83197 13.8176 9.80601L13.4436 9.28652C13.4597 9.23519 13.4755 9.18364 13.4905 9.13175L14.0901 8.90755C14.1201 8.89639 14.1467 8.87771 14.1674 8.8533C14.1882 8.8289 14.2023 8.79958 14.2084 8.76816C14.2147 8.73679 14.2129 8.70433 14.2031 8.67388C14.1932 8.64344 14.1757 8.61603 14.1523 8.59429L13.6833 8.15671C13.689 8.1039 13.6942 8.05079 13.6988 7.99777L14.2446 7.65988C14.2718 7.64307 14.2942 7.61959 14.3098 7.59165C14.3254 7.56371 14.3335 7.53226 14.3335 7.50028C14.3335 7.43523 14.3 7.37475 14.2447 7.34057ZM10.5919 11.8679C10.3835 11.823 10.2509 11.6176 10.2957 11.4085C10.3403 11.1997 10.5455 11.0668 10.7539 11.1118C10.9623 11.1564 11.095 11.3622 11.0503 11.5708C11.0056 11.7795 10.8002 11.9126 10.5919 11.8679ZM10.4064 10.6137C10.3612 10.604 10.3145 10.6033 10.269 10.6117C10.2235 10.6201 10.1801 10.6373 10.1413 10.6625C10.1025 10.6876 10.069 10.7202 10.0428 10.7583C10.0166 10.7963 9.99813 10.8392 9.9885 10.8845L9.79472 11.7887C9.19677 12.0601 8.5328 12.2109 7.8335 12.2109C7.11819 12.2109 6.43975 12.0526 5.83119 11.7697L5.63751 10.8655C5.59679 10.6752 5.40971 10.554 5.21968 10.5948L4.4214 10.7663C4.27304 10.6136 4.13515 10.451 4.00865 10.2798H7.89291C7.93684 10.2798 7.96614 10.2718 7.96614 10.2318V8.85784C7.96614 8.81787 7.93684 8.8099 7.89286 8.8099H6.75693V7.93902H7.98559C8.09771 7.93902 8.58526 7.97101 8.74111 8.59419C8.78996 8.78583 8.89711 9.40921 8.97044 9.60878C9.04346 9.83262 9.34079 10.2797 9.65766 10.2797H11.5932C11.6152 10.2797 11.6386 10.2772 11.6634 10.2728C11.5291 10.4552 11.382 10.6277 11.2231 10.7892L10.4065 10.6137H10.4064ZM5.03428 11.849C4.82582 11.894 4.62062 11.7611 4.57578 11.5523C4.53119 11.3432 4.66373 11.1379 4.87214 11.0929C4.97233 11.0715 5.07691 11.0908 5.16289 11.1465C5.24886 11.2022 5.30919 11.2898 5.33059 11.39C5.37518 11.5987 5.24254 11.8044 5.03423 11.849H5.03428ZM3.56076 5.87424C3.64724 6.06934 3.55924 6.298 3.36439 6.38433C3.16954 6.47091 2.94148 6.38281 2.85505 6.18756C2.81351 6.09387 2.81085 5.98752 2.84767 5.89187C2.88449 5.79623 2.95778 5.71911 3.05143 5.67747C3.09778 5.65691 3.14774 5.64569 3.19843 5.64445C3.24913 5.64321 3.29957 5.65198 3.34687 5.67025C3.39418 5.68852 3.43742 5.71593 3.47412 5.75093C3.51082 5.78592 3.54026 5.82781 3.56076 5.87419V5.87424ZM3.10789 6.94774L3.93949 6.57821C4.02486 6.54023 4.09166 6.46992 4.12521 6.38272C4.15877 6.29552 4.15633 6.19857 4.11844 6.11316L3.94721 5.72591H4.62077V8.76196H3.26181C3.14135 8.33791 3.08041 7.89917 3.08073 7.45833C3.08073 7.28578 3.09002 7.11526 3.10789 6.94769V6.94774ZM6.75714 6.65286V5.75795H8.36111C8.44399 5.75795 8.94611 5.85373 8.94611 6.2292C8.94611 6.54094 8.56099 6.6527 8.24427 6.6527H6.75714V6.65286ZM12.5864 7.45833C12.5864 7.57706 12.5821 7.69456 12.5734 7.81115H12.0857C12.0369 7.81115 12.0173 7.84325 12.0173 7.89103V8.11497C12.0173 8.64207 11.72 8.75673 11.4596 8.78593C11.2116 8.81386 10.9365 8.68209 10.9027 8.5303C10.7563 7.70736 10.5125 7.53161 10.1275 7.22789C10.6053 6.92448 11.1025 6.47685 11.1025 5.87764C11.1025 5.2307 10.659 4.82319 10.3566 4.62337C9.93249 4.34377 9.46286 4.28771 9.33616 4.28771H4.29298C4.97685 3.52449 5.90371 2.98383 6.95198 2.78711L7.54643 3.41069C7.57832 3.44416 7.6165 3.47101 7.65879 3.48971C7.70107 3.50841 7.74663 3.51858 7.79285 3.51964C7.83907 3.52071 7.88505 3.51265 7.92815 3.49592C7.97125 3.47919 8.01063 3.45413 8.04403 3.42216L8.70917 2.78599C10.1029 3.04548 11.2829 3.91301 11.9629 5.10324L11.5075 6.1317C11.4289 6.30968 11.5091 6.51783 11.6866 6.59669L12.5633 6.98608C12.5784 7.14172 12.5864 7.29893 12.5864 7.45833ZM7.54668 2.2566C7.7007 2.10909 7.94501 2.11493 8.09248 2.26915C8.23965 2.42382 8.23406 2.66838 8.07968 2.8158C7.92566 2.96336 7.68136 2.95763 7.53389 2.8031C7.46323 2.72888 7.42489 2.62966 7.42729 2.52721C7.42969 2.42476 7.47263 2.32744 7.54668 2.2566ZM12.0654 5.89298C12.0858 5.8466 12.1153 5.80472 12.152 5.76973C12.1887 5.73474 12.2319 5.70733 12.2792 5.68907C12.3265 5.6708 12.3769 5.66205 12.4276 5.6633C12.4783 5.66455 12.5282 5.67578 12.5746 5.69636C12.7695 5.78279 12.8574 6.01135 12.771 6.20645C12.7505 6.25285 12.721 6.29475 12.6844 6.32976C12.6477 6.36477 12.6044 6.3922 12.5571 6.41048C12.5098 6.42876 12.4593 6.43752 12.4086 6.43628C12.3579 6.43503 12.308 6.4238 12.2616 6.40322C12.067 6.31674 11.979 6.08838 12.0654 5.89298Z" fill="black"/>
</svg>
