<svg width="58" height="58" viewBox="0 0 58 58" fill="none" xmlns="http://www.w3.org/2000/svg">
<g filter="url(#filter0_bii_2_216)">
<rect width="58" height="58" rx="8" fill="url(#paint0_linear_2_216)" fill-opacity="0.33"/>
</g>
<path d="M43.0502 27.5163L41.8222 26.7561C41.8119 26.6368 41.8002 26.5176 41.7873 26.3985L42.8426 25.4142C42.8953 25.3652 42.9346 25.3035 42.9568 25.2349C42.9789 25.1664 42.983 25.0933 42.9688 25.0227C42.955 24.952 42.9232 24.8861 42.8766 24.8312C42.83 24.7763 42.7701 24.7343 42.7026 24.7091L41.3535 24.2047C41.3197 24.0882 41.2844 23.9721 41.2479 23.8565L42.0894 22.6877C42.1315 22.6293 42.158 22.5611 42.1664 22.4895C42.1747 22.418 42.1647 22.3455 42.1371 22.2789C42.1095 22.2123 42.0654 22.1539 42.0089 22.1092C41.9524 22.0645 41.8855 22.035 41.8144 22.0234L40.3918 21.7921C40.3365 21.6842 40.279 21.578 40.2209 21.4726L40.8186 20.1606C40.8487 20.0952 40.8615 20.0231 40.8557 19.9512C40.8499 19.8794 40.8258 19.8103 40.7857 19.7504C40.7459 19.6904 40.6913 19.6416 40.6272 19.6088C40.5631 19.5759 40.4916 19.5601 40.4196 19.5628L38.9758 19.6131C38.9013 19.5197 38.8252 19.4275 38.7478 19.3365L39.0796 17.9302C39.0962 17.8601 39.0945 17.7869 39.0748 17.7176C39.0551 17.6482 39.018 17.5851 38.9669 17.5342C38.916 17.4833 38.8529 17.4462 38.7837 17.4265C38.7144 17.4067 38.6412 17.4051 38.5711 17.4216L37.1652 17.753C37.0739 17.6757 36.9815 17.5996 36.888 17.525L36.9385 16.0814C36.9412 16.0094 36.9254 15.9379 36.8926 15.8738C36.8598 15.8097 36.8111 15.7551 36.7511 15.7152C36.6913 15.6751 36.6222 15.651 36.5504 15.6452C36.4785 15.6394 36.4065 15.6521 36.3409 15.682L35.0293 16.28C34.9235 16.2217 34.817 16.1645 34.7098 16.1087L34.4779 14.686C34.4662 14.6149 34.4367 14.548 34.392 14.4916C34.3473 14.4352 34.2889 14.3911 34.2224 14.3636C34.1559 14.336 34.0834 14.3259 34.0119 14.3342C33.9404 14.3425 33.8722 14.3689 33.8138 14.4109L32.6442 15.2524C32.5292 15.2159 32.4134 15.1806 32.2967 15.1471L31.7922 13.7978C31.7671 13.7303 31.7251 13.6702 31.6702 13.6235C31.6153 13.5768 31.5493 13.5449 31.4786 13.5309C31.408 13.5171 31.3351 13.5214 31.2666 13.5435C31.1982 13.5656 31.1365 13.6048 31.0874 13.6573L30.103 14.7134C29.984 14.7 29.8648 14.6884 29.7454 14.6784L28.9853 13.4502C28.9474 13.389 28.8945 13.3384 28.8316 13.3034C28.7687 13.2684 28.6979 13.25 28.626 13.25C28.554 13.25 28.4832 13.2684 28.4203 13.3034C28.3575 13.3384 28.3046 13.389 28.2667 13.4502L27.5065 14.6784C27.387 14.6884 27.2677 14.7 27.1486 14.7134L26.164 13.6573C26.1149 13.6046 26.0532 13.5653 25.9846 13.5431C25.9161 13.521 25.843 13.5168 25.7723 13.5308C25.7017 13.5449 25.6358 13.5769 25.581 13.6236C25.5262 13.6703 25.4842 13.7303 25.4591 13.7978L24.9548 15.1471C24.8379 15.1806 24.7223 15.2161 24.6069 15.2524L23.4376 14.4109C23.3792 14.3687 23.3109 14.3422 23.2393 14.3339C23.1677 14.3256 23.0952 14.3358 23.0287 14.3635C22.9622 14.3911 22.9039 14.4352 22.8592 14.4916C22.8145 14.5481 22.7849 14.6149 22.7733 14.686L22.5413 16.1087C22.4339 16.1643 22.3278 16.2215 22.2219 16.28L20.9101 15.6819C20.8446 15.652 20.7725 15.6393 20.7008 15.6451C20.629 15.6509 20.5599 15.675 20.5001 15.7152C20.4401 15.755 20.3914 15.8097 20.3585 15.8738C20.3257 15.9379 20.3098 16.0094 20.3125 16.0814L20.3628 17.525C20.2694 17.5998 20.177 17.6758 20.0856 17.753L18.6797 17.4217C18.6095 17.4053 18.5364 17.407 18.4671 17.4267C18.3978 17.4463 18.3346 17.4834 18.2836 17.5342C18.2326 17.5851 18.1955 17.6482 18.1757 17.7176C18.156 17.7869 18.1544 17.8601 18.171 17.9302L18.5022 19.3365C18.4253 19.4276 18.3493 19.5198 18.2747 19.6131L16.831 19.5628C16.7591 19.5606 16.6878 19.5766 16.6237 19.6094C16.5597 19.6422 16.5051 19.6907 16.4649 19.7503C16.4248 19.8102 16.4007 19.8793 16.3949 19.9511C16.3891 20.0229 16.4017 20.095 16.4316 20.1605L17.0297 21.4726C16.9715 21.578 16.914 21.6842 16.8583 21.7921L15.4359 22.0234C15.3648 22.035 15.2979 22.0646 15.2414 22.1093C15.185 22.154 15.1409 22.2124 15.1133 22.279C15.0858 22.3455 15.0757 22.418 15.084 22.4895C15.0923 22.5611 15.1188 22.6293 15.1609 22.6877L16.0024 23.8566C15.9658 23.972 15.9303 24.0878 15.8967 24.2047L14.5475 24.7091C14.4801 24.7345 14.4203 24.7765 14.3738 24.8314C14.3272 24.8863 14.2954 24.9521 14.2814 25.0227C14.2674 25.0933 14.2716 25.1663 14.2937 25.2348C14.3158 25.3033 14.355 25.3651 14.4076 25.4142L15.463 26.3984C15.4498 26.5172 15.4382 26.6369 15.4281 26.7561L14.2 27.5163C14.1388 27.5542 14.0883 27.6071 14.0533 27.67C14.0183 27.7329 13.9999 27.8037 14 27.8756C14 28.0223 14.0758 28.1582 14.2001 28.2347L15.4281 28.9949C15.4382 29.1145 15.4498 29.2339 15.463 29.3526L14.4074 30.3371C14.3547 30.3862 14.3155 30.4479 14.2933 30.5164C14.2712 30.585 14.267 30.658 14.281 30.7286C14.295 30.7992 14.3269 30.8651 14.3735 30.9199C14.4202 30.9748 14.4801 31.0168 14.5475 31.042L15.8967 31.5464C15.9303 31.6632 15.9658 31.7792 16.0024 31.8946L15.1609 33.0635C15.1187 33.1219 15.0922 33.1902 15.0838 33.2618C15.0755 33.3333 15.0856 33.4058 15.1132 33.4724C15.1408 33.5389 15.185 33.5973 15.2415 33.642C15.2981 33.6867 15.3651 33.7161 15.4362 33.7276L16.8584 33.9589C16.914 34.0668 16.971 34.1731 17.0298 34.2789L16.4316 35.5905C16.4017 35.656 16.389 35.7281 16.3948 35.7999C16.4007 35.8717 16.4248 35.9408 16.4649 36.0007C16.5048 36.0606 16.5594 36.1094 16.6235 36.1422C16.6876 36.175 16.759 36.1909 16.831 36.1882L18.274 36.1377C18.3493 36.2315 18.4251 36.3235 18.5022 36.4149L18.171 37.8213C18.1544 37.8914 18.156 37.9645 18.1758 38.0336C18.1955 38.1028 18.2326 38.1658 18.2836 38.2166C18.3345 38.2676 18.3976 38.3048 18.467 38.3244C18.5363 38.3441 18.6096 38.3456 18.6797 38.3289L20.0856 37.9978C20.177 38.0755 20.2696 38.1509 20.3629 38.2251L20.3126 39.6692C20.31 39.7412 20.3259 39.8126 20.3587 39.8767C20.3915 39.9408 20.4401 39.9954 20.5 40.0354C20.5599 40.0754 20.629 40.0994 20.7008 40.1051C20.7726 40.1109 20.8446 40.0982 20.9101 40.0682L22.2219 39.4705C22.3275 39.5292 22.434 39.5863 22.5413 39.6418L22.7733 41.0637C22.7847 41.1348 22.8142 41.2018 22.8589 41.2583C22.9036 41.3148 22.9621 41.359 23.0287 41.3865C23.0952 41.414 23.1677 41.4242 23.2392 41.4159C23.3108 41.4077 23.3791 41.3813 23.4376 41.3393L24.6063 40.4972C24.7217 40.5338 24.8377 40.5695 24.9545 40.6031L25.4589 41.9518C25.484 42.0193 25.526 42.0792 25.5809 42.1259C25.6358 42.1725 25.7018 42.2043 25.7724 42.2181C25.843 42.2324 25.9161 42.2282 25.9846 42.2061C26.0532 42.184 26.1148 42.1446 26.1638 42.0918L27.1483 41.0363C27.2672 41.05 27.3867 41.0614 27.5063 41.072L28.2665 42.3001C28.3044 42.3612 28.3573 42.4116 28.4201 42.4466C28.4829 42.4816 28.5537 42.5 28.6256 42.5C28.6975 42.5 28.7683 42.4816 28.8312 42.4466C28.894 42.4116 28.947 42.3612 28.9849 42.3001L29.7451 41.072C29.8647 41.0614 29.9841 41.05 30.1028 41.0363L31.0871 42.0918C31.1361 42.1446 31.1978 42.1839 31.2663 42.206C31.3348 42.2282 31.4078 42.2323 31.4784 42.2181C31.549 42.2042 31.6149 42.1724 31.6698 42.1258C31.7247 42.0792 31.7667 42.0193 31.7919 41.9518L32.2963 40.6031C32.4131 40.5695 32.5292 40.5338 32.6446 40.4972L33.8136 41.3393C33.872 41.3813 33.9403 41.4077 34.0118 41.416C34.0834 41.4242 34.1558 41.4141 34.2224 41.3865C34.2889 41.3589 34.3473 41.3147 34.3919 41.2582C34.4366 41.2018 34.4661 41.1348 34.4776 41.0637L34.7096 39.6418C34.8169 39.5861 34.923 39.5283 35.0289 39.4704L36.3407 40.0682C36.4062 40.0982 36.4783 40.111 36.5501 40.1053C36.6219 40.0996 36.6911 40.0757 36.751 40.0357C36.8109 39.9956 36.8596 39.941 36.8924 39.8768C36.9251 39.8127 36.941 39.7412 36.9383 39.6692L36.888 38.2252C36.9815 38.1509 37.0738 38.075 37.1649 37.9978L38.5709 38.3289C38.7137 38.3625 38.8634 38.3209 38.9666 38.2166C39.0176 38.1658 39.0547 38.1028 39.0745 38.0336C39.0942 37.9645 39.0958 37.8914 39.0792 37.8213L38.7481 36.4149C38.8253 36.3235 38.9012 36.2315 38.9755 36.1377L40.4193 36.1882C40.4912 36.1909 40.5627 36.1751 40.6268 36.1423C40.6909 36.1095 40.7455 36.0608 40.7853 36.0008C40.8255 35.9409 40.8497 35.8718 40.8554 35.7999C40.8612 35.728 40.8485 35.6559 40.8184 35.5904L40.2206 34.279C40.279 34.1731 40.3363 34.0668 40.3916 33.9591L41.8141 33.7276C41.8852 33.7162 41.9522 33.6867 42.0087 33.6419C42.0652 33.5972 42.1092 33.5387 42.1366 33.4721C42.1641 33.4056 42.1743 33.3332 42.166 33.2616C42.1577 33.1901 42.1312 33.1219 42.0891 33.0635L41.2476 31.8947C41.284 31.7792 41.3195 31.6632 41.3533 31.5464L42.7022 31.042C42.7698 31.0169 42.8297 30.9748 42.8764 30.9199C42.923 30.865 42.9547 30.7991 42.9686 30.7284C42.9828 30.6578 42.9787 30.5847 42.9565 30.5162C42.9344 30.4477 42.895 30.3861 42.8422 30.3371L41.787 29.3526C41.7998 29.2338 41.8116 29.1143 41.8219 28.995L43.0499 28.2347C43.1112 28.1969 43.1617 28.1441 43.1967 28.0812C43.2317 28.0184 43.2501 27.9476 43.25 27.8756C43.25 27.7293 43.1746 27.5932 43.0502 27.5163V27.5163ZM34.8314 37.7029C34.3625 37.6018 34.0642 37.1396 34.1649 36.6692C34.2652 36.1994 34.7271 35.9004 35.1959 36.0015C35.6648 36.1019 35.9634 36.5649 35.8629 37.0344C35.7623 37.5039 35.3001 37.8033 34.8314 37.7029ZM34.4141 34.8809C34.3124 34.859 34.2073 34.8575 34.1049 34.8763C34.0026 34.8951 33.905 34.9339 33.8176 34.9905C33.7303 35.0471 33.655 35.1203 33.596 35.2061C33.537 35.2918 33.4954 35.3883 33.4738 35.4901L33.0378 37.5246C31.6924 38.1352 30.1984 38.4744 28.625 38.4744C27.0156 38.4744 25.4891 38.1184 24.1198 37.4818L23.684 35.4473C23.5924 35.0192 23.1715 34.7465 22.7439 34.8384L20.9478 35.2241C20.614 34.8805 20.3037 34.5148 20.0191 34.1295H28.7587C28.8575 34.1295 28.9234 34.1116 28.9234 34.0215V30.9301C28.9234 30.8402 28.8575 30.8223 28.7586 30.8223H26.2027V28.8628H28.9672C29.2195 28.8628 30.3165 28.9348 30.6671 30.3369C30.777 30.7681 31.0181 32.1707 31.1831 32.6197C31.3474 33.1234 32.0164 34.1294 32.7294 34.1294H37.0843C37.1338 34.1294 37.1866 34.1238 37.2422 34.1138C36.9401 34.5241 36.609 34.9124 36.2517 35.2757L34.4142 34.8809H34.4141ZM22.3268 37.6604C21.8577 37.7616 21.396 37.4626 21.2951 36.9928C21.1948 36.5221 21.493 36.0602 21.9619 35.9591C22.1874 35.911 22.4227 35.9543 22.6161 36.0797C22.8096 36.205 22.9453 36.4021 22.9935 36.6275C23.0938 37.0971 22.7953 37.5598 22.3267 37.6604H22.3268ZM19.0113 24.217C19.2059 24.656 19.0079 25.1705 18.5695 25.3647C18.1311 25.5595 17.618 25.3613 17.4235 24.922C17.33 24.7112 17.3241 24.4719 17.4069 24.2567C17.4897 24.0415 17.6546 23.868 17.8653 23.7743C17.9696 23.728 18.082 23.7028 18.1961 23.7C18.3102 23.6972 18.4237 23.7169 18.5301 23.7581C18.6365 23.7992 18.7338 23.8609 18.8164 23.9396C18.899 24.0183 18.9652 24.1126 19.0113 24.2169V24.217ZM17.9924 26.6324L19.8635 25.801C20.0556 25.7155 20.2059 25.5573 20.2814 25.3611C20.3569 25.1649 20.3514 24.9468 20.2661 24.7546L19.8808 23.8833H21.3964V30.7144H18.3387C18.0677 29.7603 17.9305 28.7731 17.9313 27.7812C17.9313 27.393 17.9522 27.0093 17.9924 26.6323V26.6324ZM26.2032 25.9689V23.9554H29.8121C29.9986 23.9554 31.1284 24.1709 31.1284 25.0157C31.1284 25.7171 30.2619 25.9686 29.5492 25.9686H26.2032V25.9689ZM39.3191 27.7812C39.3191 28.0484 39.3092 28.3128 39.2897 28.5751H38.1925C38.0827 28.5751 38.0385 28.6473 38.0385 28.7548V29.2587C38.0385 30.4447 37.3697 30.7027 36.7837 30.7683C36.2257 30.8312 35.6068 30.5347 35.5306 30.1932C35.2013 28.3416 34.6528 27.9461 33.7865 27.2628C34.8616 26.5801 35.9802 25.5729 35.9802 24.2247C35.9802 22.7691 34.9823 21.8522 34.302 21.4026C33.3477 20.7735 32.2911 20.6474 32.006 20.6474H20.6588C22.1975 18.9301 24.283 17.7136 26.6416 17.271L27.9791 18.674C28.0509 18.7494 28.1368 18.8098 28.2319 18.8518C28.327 18.8939 28.4296 18.9168 28.5336 18.9192C28.6375 18.9216 28.741 18.9035 28.838 18.8658C28.935 18.8282 29.0236 18.7718 29.0987 18.6999L30.5953 17.2685C33.7311 17.8523 36.3861 19.8043 37.9161 22.4823L36.8916 24.7963C36.7147 25.1968 36.8952 25.6651 37.2945 25.8426L39.2671 26.7187C39.3011 27.0689 39.3191 27.4226 39.3191 27.7812ZM27.9797 16.0774C28.3262 15.7454 28.8759 15.7586 29.2077 16.1056C29.5388 16.4536 29.5263 17.0039 29.1789 17.3355C28.8324 17.6676 28.2827 17.6547 27.9509 17.307C27.7919 17.14 27.7056 16.9167 27.711 16.6862C27.7164 16.4557 27.813 16.2367 27.9797 16.0774V16.0774ZM38.1467 24.2592C38.1928 24.1549 38.259 24.0606 38.3416 23.9819C38.4241 23.9032 38.5214 23.8415 38.6278 23.8004C38.7342 23.7593 38.8477 23.7396 38.9618 23.7424C39.0758 23.7452 39.1882 23.7705 39.2925 23.8168C39.731 24.0113 39.9289 24.5255 39.7343 24.9645C39.6882 25.0689 39.622 25.1632 39.5394 25.242C39.4569 25.3207 39.3596 25.3825 39.2531 25.4236C39.1467 25.4647 39.0332 25.4844 38.9191 25.4816C38.805 25.4788 38.6926 25.4535 38.5883 25.4072C38.1503 25.2127 37.9524 24.6989 38.1467 24.2592V24.2592Z" fill="black"/>
<defs>
<filter id="filter0_bii_2_216" x="-49.0159" y="-49.0159" width="156.032" height="156.032" filterUnits="userSpaceOnUse" color-interpolation-filters="sRGB">
<feFlood flood-opacity="0" result="BackgroundImageFix"/>
<feGaussianBlur in="BackgroundImage" stdDeviation="24.508"/>
<feComposite in2="SourceAlpha" operator="in" result="effect1_backgroundBlur_2_216"/>
<feBlend mode="normal" in="SourceGraphic" in2="effect1_backgroundBlur_2_216" result="shape"/>
<feColorMatrix in="SourceAlpha" type="matrix" values="0 0 0 0 0 0 0 0 0 0 0 0 0 0 0 0 0 0 127 0" result="hardAlpha"/>
<feOffset dx="1.17782" dy="1.17782"/>
<feGaussianBlur stdDeviation="1"/>
<feComposite in2="hardAlpha" operator="arithmetic" k2="-1" k3="1"/>
<feColorMatrix type="matrix" values="0 0 0 0 0.928409 0 0 0 0 0.978523 0 0 0 0 1 0 0 0 0.26 0"/>
<feBlend mode="normal" in2="shape" result="effect2_innerShadow_2_216"/>
<feColorMatrix in="SourceAlpha" type="matrix" values="0 0 0 0 0 0 0 0 0 0 0 0 0 0 0 0 0 0 127 0" result="hardAlpha"/>
<feOffset dx="-1.18" dy="-1.18"/>
<feGaussianBlur stdDeviation="1"/>
<feComposite in2="hardAlpha" operator="arithmetic" k2="-1" k3="1"/>
<feColorMatrix type="matrix" values="0 0 0 0 0 0 0 0 0 0 0 0 0 0 0 0 0 0 0.15 0"/>
<feBlend mode="normal" in2="effect2_innerShadow_2_216" result="effect3_innerShadow_2_216"/>
</filter>
<linearGradient id="paint0_linear_2_216" x1="8.74603" y1="-4.60317" x2="58" y2="58" gradientUnits="userSpaceOnUse">
<stop stop-color="white"/>
<stop offset="1" stop-color="white" stop-opacity="0"/>
</linearGradient>
</defs>
</svg>
