<svg width="58" height="58" viewBox="0 0 58 58" fill="none" xmlns="http://www.w3.org/2000/svg">
<g filter="url(#filter0_bii_2_171)">
<rect width="58" height="58" rx="8" fill="url(#paint0_linear_2_171)" fill-opacity="0.33"/>
</g>
<path d="M32.8498 15.5078C32.8498 15.5078 39.8439 19.5061 41.6743 25.8578C43.3235 31.5953 42.0028 34.3336 42.0028 34.3336C42.8462 35.2526 43.5108 36.3209 43.9625 37.4836C44.4162 38.2307 44.6828 39.0762 44.7396 39.9484C44.7964 40.8206 44.6417 41.6936 44.2888 42.4932C44.2888 42.4932 44.1762 40.1532 40.6887 39.6683C37.4926 39.2183 36.3305 42.3301 30.2263 42.1793C26.844 42.1149 23.5289 41.2241 20.57 39.5846C17.611 37.9451 15.098 35.6067 13.25 32.7732C16.2324 34.4 20.1395 36.9256 25.0051 36.5375C29.8708 36.1493 30.8866 34.6542 30.8866 34.6542C25.4174 30.3263 20.5764 25.2592 16.5024 19.5983C20.3274 22.799 29.8021 29.1687 29.5816 29.0067C26.1159 25.6203 22.9451 21.9448 20.1035 18.02C20.1035 18.02 34.319 29.7076 35.4631 29.6333C35.9334 28.6647 38.3645 23.6506 32.8486 15.5067L32.8498 15.5078Z" fill="url(#paint1_linear_2_171)"/>
<defs>
<filter id="filter0_bii_2_171" x="-49.0159" y="-49.0159" width="156.032" height="156.032" filterUnits="userSpaceOnUse" color-interpolation-filters="sRGB">
<feFlood flood-opacity="0" result="BackgroundImageFix"/>
<feGaussianBlur in="BackgroundImage" stdDeviation="24.508"/>
<feComposite in2="SourceAlpha" operator="in" result="effect1_backgroundBlur_2_171"/>
<feBlend mode="normal" in="SourceGraphic" in2="effect1_backgroundBlur_2_171" result="shape"/>
<feColorMatrix in="SourceAlpha" type="matrix" values="0 0 0 0 0 0 0 0 0 0 0 0 0 0 0 0 0 0 127 0" result="hardAlpha"/>
<feOffset dx="1.17782" dy="1.17782"/>
<feGaussianBlur stdDeviation="1"/>
<feComposite in2="hardAlpha" operator="arithmetic" k2="-1" k3="1"/>
<feColorMatrix type="matrix" values="0 0 0 0 0.928409 0 0 0 0 0.978523 0 0 0 0 1 0 0 0 0.26 0"/>
<feBlend mode="normal" in2="shape" result="effect2_innerShadow_2_171"/>
<feColorMatrix in="SourceAlpha" type="matrix" values="0 0 0 0 0 0 0 0 0 0 0 0 0 0 0 0 0 0 127 0" result="hardAlpha"/>
<feOffset dx="-1.18" dy="-1.18"/>
<feGaussianBlur stdDeviation="1"/>
<feComposite in2="hardAlpha" operator="arithmetic" k2="-1" k3="1"/>
<feColorMatrix type="matrix" values="0 0 0 0 0 0 0 0 0 0 0 0 0 0 0 0 0 0 0.15 0"/>
<feBlend mode="normal" in2="effect2_innerShadow_2_171" result="effect3_innerShadow_2_171"/>
</filter>
<linearGradient id="paint0_linear_2_171" x1="8.74603" y1="-4.60317" x2="58" y2="58" gradientUnits="userSpaceOnUse">
<stop stop-color="white"/>
<stop offset="1" stop-color="white" stop-opacity="0"/>
</linearGradient>
<linearGradient id="paint1_linear_2_171" x1="29.495" y1="26.3078" x2="28.9003" y2="42.5067" gradientUnits="userSpaceOnUse">
<stop stop-color="#F88535"/>
<stop offset="1" stop-color="#FD2221"/>
</linearGradient>
</defs>
</svg>
