<svg width="16" height="16" viewBox="0 0 16 16" fill="none" xmlns="http://www.w3.org/2000/svg">
<path d="M9.711 2.00349C9.711 2.00349 12.8195 3.78049 13.633 6.60349C14.366 9.15349 13.779 10.3705 13.779 10.3705C14.1539 10.7789 14.4493 11.2537 14.65 11.7705C14.8516 12.1025 14.9701 12.4783 14.9954 12.866C15.0206 13.2536 14.9519 13.6416 14.795 13.997C14.795 13.997 14.745 12.957 13.195 12.7415C11.7745 12.5415 11.258 13.9245 8.545 13.8575C7.0418 13.8288 5.56842 13.4329 4.25332 12.7043C2.93821 11.9756 1.82132 10.9363 1 9.67699C2.3255 10.4 4.062 11.5225 6.2245 11.35C8.387 11.1775 8.8385 10.513 8.8385 10.513C6.40775 8.58948 4.25616 6.33743 2.4455 3.82149C4.1455 5.24399 8.3565 8.07499 8.2585 8.00299C6.7182 6.49792 5.30894 4.86434 4.046 3.11999C4.046 3.11999 10.364 8.31449 10.8725 8.28149C11.0815 7.85099 12.162 5.62249 9.7105 2.00299L9.711 2.00349Z" fill="url(#paint0_linear_2_158)"/>
<defs>
<linearGradient id="paint0_linear_2_158" x1="8.22" y1="6.80349" x2="7.95567" y2="14.003" gradientUnits="userSpaceOnUse">
<stop stop-color="#F88535"/>
<stop offset="1" stop-color="#FD2221"/>
</linearGradient>
</defs>
</svg>
