<svg viewBox="0 0 24 24" fill="none" xmlns="http://www.w3.org/2000/svg">
<path d="M10.9321 13.0679C11.2426 13.3632 11.2426 13.8479 10.9321 14.1433C10.6368 14.4387 10.1521 14.4387 9.85669 14.1433C9.14733 13.4329 8.74891 12.47 8.74891 11.4661C8.74891 10.4621 9.14733 9.49923 9.85669 8.78881L12.5377 6.10778C13.2481 5.39842 14.211 5 15.215 5C16.2189 5 17.1818 5.39842 17.8922 6.10778C18.6016 6.8182 19 7.78109 19 8.78503C19 9.78896 18.6016 10.7519 17.8922 11.4623L16.7638 12.5907C16.7713 11.9697 16.6729 11.3487 16.4608 10.7579L16.8168 10.3944C17.0291 10.1844 17.1976 9.93434 17.3127 9.65874C17.4277 9.38314 17.4869 9.08746 17.4869 8.78881C17.4869 8.49017 17.4277 8.19449 17.3127 7.91889C17.1976 7.64329 17.0291 7.39325 16.8168 7.18322C16.6068 6.97091 16.3567 6.80235 16.0811 6.68732C15.8055 6.57229 15.5098 6.51305 15.2112 6.51305C14.9125 6.51305 14.6169 6.57229 14.3413 6.68732C14.0657 6.80235 13.8156 6.97091 13.6056 7.18322L10.9321 9.85669C10.7198 10.0667 10.5513 10.3168 10.4362 10.5924C10.3212 10.868 10.262 11.1636 10.262 11.4623C10.262 11.7609 10.3212 12.0566 10.4362 12.3322C10.5513 12.6078 10.7198 12.8578 10.9321 13.0679V13.0679ZM13.0679 9.85669C13.3632 9.56132 13.8479 9.56132 14.1433 9.85669C14.8527 10.5671 15.2511 11.53 15.2511 12.5339C15.2511 13.5379 14.8527 14.5008 14.1433 15.2112L11.4623 17.8922C10.7519 18.6016 9.78896 19 8.78503 19C7.78109 19 6.8182 18.6016 6.10778 17.8922C5.39842 17.1818 5 16.2189 5 15.215C5 14.211 5.39842 13.2481 6.10778 12.5377L7.23624 11.4093C7.22866 12.0303 7.32712 12.6513 7.53918 13.2496L7.18322 13.6056C6.97091 13.8156 6.80235 14.0657 6.68732 14.3413C6.57229 14.6169 6.51305 14.9125 6.51305 15.2112C6.51305 15.5098 6.57229 15.8055 6.68732 16.0811C6.80235 16.3567 6.97091 16.6068 7.18322 16.8168C7.39325 17.0291 7.64329 17.1976 7.91889 17.3127C8.19449 17.4277 8.49017 17.4869 8.78881 17.4869C9.08746 17.4869 9.38314 17.4277 9.65874 17.3127C9.93434 17.1976 10.1844 17.0291 10.3944 16.8168L13.0679 14.1433C13.2802 13.9333 13.4487 13.6832 13.5638 13.4076C13.6788 13.132 13.738 12.8364 13.738 12.5377C13.738 12.2391 13.6788 11.9434 13.5638 11.6678C13.4487 11.3922 13.2802 11.1422 13.0679 10.9321C12.9943 10.8632 12.9357 10.7799 12.8956 10.6874C12.8555 10.5949 12.8348 10.4952 12.8348 10.3944C12.8348 10.2936 12.8555 10.1939 12.8956 10.1014C12.9357 10.0089 12.9943 9.92561 13.0679 9.85669V9.85669Z" fill="currentColor"/>
</svg>
