<svg viewBox="0 0 24 24" fill="none" xmlns="http://www.w3.org/2000/svg">
<path d="M21 12.9999C21.55 12.9999 22 12.5499 22 11.9999C22 11.4499 21.55 10.9999 21 10.9999H16.9C16.6705 9.8696 16.0573 8.85341 15.1643 8.12351C14.2712 7.3936 13.1534 6.99487 12 6.99487C10.8466 6.99487 9.72875 7.3936 8.83574 8.12351C7.94273 8.85341 7.32951 9.8696 7.1 10.9999H3C2.45 10.9999 2 11.4499 2 11.9999C2 12.5499 2.45 12.9999 3 12.9999H7.1C7.32951 14.1302 7.94273 15.1464 8.83574 15.8763C9.72875 16.6062 10.8466 17.0049 12 17.0049C13.1534 17.0049 14.2712 16.6062 15.1643 15.8763C16.0573 15.1464 16.6705 14.1302 16.9 12.9999H21ZM12 14.9999C10.34 14.9999 9 13.6599 9 11.9999C9 10.3399 10.34 8.99989 12 8.99989C13.66 8.99989 15 10.3399 15 11.9999C15 13.6599 13.66 14.9999 12 14.9999Z" fill="current" stroke="current"/>
</svg>
