<svg width="15" height="15" viewBox="0 0 15 15" fill="none" xmlns="http://www.w3.org/2000/svg">
<path d="M13.7259 10.7195L10.5584 7.55202L13.7254 4.38502C13.8183 4.29219 13.8921 4.18196 13.9424 4.06062C13.9927 3.93929 14.0186 3.80923 14.0187 3.67787C14.0187 3.54651 13.9929 3.41644 13.9427 3.29507C13.8924 3.1737 13.8188 3.06341 13.7259 2.97052L13.7254 2.96952L11.9354 1.17952C11.8426 1.08658 11.7323 1.01285 11.611 0.962525C11.4897 0.912202 11.3596 0.886277 11.2282 0.886231C11.0969 0.886184 10.9668 0.912017 10.8454 0.962255C10.7241 1.01249 10.6138 1.08615 10.5209 1.17902L10.5204 1.17952L7.3534 4.34652L4.1859 1.17902C3.99811 0.992034 3.7439 0.887056 3.4789 0.887056C3.21389 0.887056 2.95968 0.992034 2.7719 1.17902L0.310896 3.63952C0.123394 3.82713 0.0180664 4.08152 0.0180664 4.34677C0.0180664 4.61201 0.123394 4.8664 0.310896 5.05402L3.4779 8.22102L0.0183958 11.6815V14.8865H3.2234L6.6834 11.4265L9.85089 14.595C10.039 14.7818 10.2933 14.8867 10.5584 14.8867C10.8235 14.8867 11.0778 14.7818 11.2659 14.595L13.7259 12.134C13.9134 11.9464 14.0187 11.692 14.0187 11.4268C14.0187 11.1615 13.9134 10.9071 13.7259 10.7195ZM11.2249 1.88452L13.0199 3.67952L9.85339 6.84652L8.05839 5.05152L11.2249 1.88452ZM3.0184 13.8865H1.0184V12.091L4.1834 8.92652L6.0214 10.7655L3.0184 13.8865ZM10.5584 13.8885L1.0184 4.34652L3.4794 1.88652L5.3734 3.78002L4.2474 4.90652L4.9549 5.61352L6.0804 4.48752L8.14539 6.55252L7.0184 7.67752L7.7264 8.38452L8.85239 7.25852L10.9174 9.32352L9.79139 10.449L10.4984 11.1565L11.6244 10.031L13.0194 11.4265L10.5584 13.8885Z" fill="currentColor"/>
</svg>
