<svg
  viewBox="0 0 33 37"
  fill="none"
  xmlns="http://www.w3.org/2000/svg"
>
  <path
    fill-rule="evenodd"
    clip-rule="evenodd"
    d="M1.02727 27.9036L16.7178 36.7266L31.6204 28.1226L32.8176 9.55968L16.8366 0.237935L0.944936 9.41299L1.02727 27.9036ZM9.52072 5.11211L1.78834 9.57641L7.95206 13.1717L15.7803 8.65211L9.52072 5.11211ZM10.0869 4.78524L16.8351 0.889131L22.9989 4.48445L16.3464 8.32524L10.0869 4.78524ZM16.9155 8.64706L23.5592 4.81129L31.9643 9.71399L25.4512 13.4743L16.9155 8.64706ZM25.7302 13.9636L32.2104 10.2222L31.5787 20.0171L25.4914 23.5316L25.7302 13.9636ZM24.9198 23.8617L25.1586 14.2936L17.1965 18.8905L17.0893 28.3331L17.133 28.3574L24.9198 23.8617ZM25.475 24.1915L31.5352 20.6926L31.0777 27.7855L25.3021 31.1201L25.475 24.1915ZM24.7304 31.4501L24.9033 24.5215L17.1384 29.0046L17.082 28.9733L17.0032 35.9114L24.7304 31.4501ZM24.885 13.8012L16.3493 8.97393L8.5124 13.4986L16.9175 18.4013L24.885 13.8012ZM8.30518 14.0297L16.6333 18.8875L16.5295 28.0224L8.34726 23.4801L8.30518 14.0297ZM8.35014 24.1259L16.5223 28.6625L16.4398 35.924L8.3825 31.3934L8.35014 24.1259ZM7.81785 31.0759L7.78551 23.8125L1.55689 20.3547L1.58903 27.5734L7.81785 31.0759ZM1.55401 19.7089L7.78263 23.1667L7.74048 13.7004L1.51108 10.0667L1.55401 19.7089Z"
    fill="currentColor"
  />
</svg>
