<svg viewBox="0 0 24 24" fill="none" xmlns="http://www.w3.org/2000/svg">
<path d="M19.74 8.32994L14.3 2.32994C14.2065 2.22634 14.0924 2.14347 13.9649 2.08663C13.8375 2.0298 13.6995 2.00027 13.56 1.99994H6.56C6.22775 1.99597 5.89797 2.0575 5.5895 2.18099C5.28103 2.30449 4.9999 2.48754 4.76218 2.71969C4.52446 2.95184 4.33479 3.22855 4.20402 3.534C4.07324 3.83946 4.00392 4.16768 4 4.49994V19.4999C4.00392 19.8322 4.07324 20.1604 4.20402 20.4659C4.33479 20.7713 4.52446 21.048 4.76218 21.2802C4.9999 21.5123 5.28103 21.6954 5.5895 21.8189C5.89797 21.9424 6.22775 22.0039 6.56 21.9999H17.44C17.7723 22.0039 18.102 21.9424 18.4105 21.8189C18.719 21.6954 19.0001 21.5123 19.2378 21.2802C19.4755 21.048 19.6652 20.7713 19.796 20.4659C19.9268 20.1604 19.9961 19.8322 20 19.4999V8.99994C19.9994 8.7521 19.9067 8.51333 19.74 8.32994V8.32994ZM17.65 8.99994H13.71C13.5038 8.97963 13.3139 8.87917 13.1811 8.72018C13.0483 8.5612 12.9833 8.35641 13 8.14994V3.99994H13.11L17.65 8.99994ZM17.44 19.9999H6.56C6.49037 20.004 6.42063 19.9943 6.35477 19.9713C6.28892 19.9484 6.22824 19.9126 6.17621 19.8662C6.12419 19.8197 6.08184 19.7635 6.0516 19.7006C6.02137 19.6378 6.00383 19.5696 6 19.4999V4.49994C6.00383 4.4303 6.02137 4.3621 6.0516 4.29925C6.08184 4.2364 6.12419 4.18014 6.17621 4.13369C6.22824 4.08724 6.28892 4.05152 6.35477 4.02856C6.42063 4.00561 6.49037 3.99588 6.56 3.99994H11V8.14994C10.9839 8.88656 11.2598 9.59966 11.7675 10.1336C12.2752 10.6676 12.9735 10.979 13.71 10.9999H18V19.4999C17.9962 19.5696 17.9786 19.6378 17.9484 19.7006C17.9182 19.7635 17.8758 19.8197 17.8238 19.8662C17.7718 19.9126 17.7111 19.9484 17.6452 19.9713C17.5794 19.9943 17.5096 20.004 17.44 19.9999V19.9999Z" fill="currentColor"/>
</svg>
