<svg width="12" height="14" viewBox="0 0 12 14" fill="none" xmlns="http://www.w3.org/2000/svg">
<path fill-rule="evenodd" clip-rule="evenodd" d="M3.75 0C3.33579 0 3 0.33579 3 0.75V3.75C3 4.16421 3.33579 4.5 3.75 4.5H8.25C8.6642 4.5 9 4.16421 9 3.75V0.75C9 0.33579 8.6642 0 8.25 0H3.75ZM4.5 3V1.5H7.5V3H4.5ZM1.62554 2.533C1.98409 2.32559 2.10661 1.86679 1.8992 1.50825C1.6918 1.1497 1.233 1.02718 0.87446 1.23459C0.35334 1.53604 0 2.10132 0 2.75001V12.25C0 13.2165 0.7835 14 1.75 14H10.25C11.2165 14 12 13.2165 12 12.25V2.75001C12 2.10132 11.6467 1.53604 11.1255 1.23459C10.767 1.02718 10.3082 1.1497 10.1008 1.50825C9.8934 1.86679 10.0159 2.32559 10.3745 2.533C10.4511 2.57735 10.5 2.65842 10.5 2.75001V12.25C10.5 12.3881 10.3881 12.5 10.25 12.5H1.75C1.61193 12.5 1.5 12.3881 1.5 12.25V2.75001C1.5 2.65842 1.54886 2.57735 1.62554 2.533Z" fill="currentColor"/>
</svg>
