<svg width="14" height="14" viewBox="0 0 14 14" fill="none" xmlns="http://www.w3.org/2000/svg">
<path fill-rule="evenodd" clip-rule="evenodd" d="M5.3685 0.00953064C5.77751 0.0749725 6.05603 0.459593 5.99058 0.868604L5.56954 3.50012H9.55046L10.0094 0.631618C10.0749 0.222607 10.4595 -0.0559111 10.8685 0.00953064C11.2775 0.0749725 11.556 0.459593 11.4906 0.868604L11.0695 3.50012H13.25C13.6642 3.50012 14 3.83591 14 4.25012C14 4.66434 13.6642 5.00012 13.25 5.00012H10.8295L10.1895 9.00012H12.75C13.1642 9.00012 13.5 9.33591 13.5 9.75012C13.5 10.1643 13.1642 10.5001 12.75 10.5001H9.94954L9.49059 13.3686C9.42514 13.7776 9.04052 14.0561 8.63151 13.9907C8.2225 13.9253 7.94398 13.5406 8.00942 13.1316L8.43046 10.5001H4.44954L3.99058 13.3686C3.92514 13.7776 3.54052 14.0561 3.13151 13.9907C2.7225 13.9253 2.44398 13.5406 2.50942 13.1316L2.93046 10.5001H0.75C0.335786 10.5001 0 10.1643 0 9.75012C0 9.33591 0.335786 9.00012 0.75 9.00012H3.17046L3.81046 5.00012H1.25C0.835786 5.00012 0.5 4.66434 0.5 4.25012C0.5 3.83591 0.835786 3.50012 1.25 3.50012H4.05046L4.50942 0.631618C4.57487 0.222607 4.95949 -0.0559111 5.3685 0.00953064ZM8.67046 9.00012L9.31046 5.00012H5.32954L4.68954 9.00012H8.67046Z" fill="currentColor"/>
</svg>
