<svg width="24" height="24" viewBox="0 0 24 24" fill="none" xmlns="http://www.w3.org/2000/svg">
<path fill-rule="evenodd" clip-rule="evenodd" d="M5 5V7.54627C11.3252 7.54627 16.4537 12.6748 16.4537 19H19C19 11.2712 12.7288 5 5 5ZM6.96144 15.0771C5.87817 15.0771 5 15.9553 5 17.0386C5 18.1219 5.87817 19 6.96144 19C8.04471 19 8.92288 18.1219 8.92288 17.0386C8.92288 15.9553 8.04471 15.0771 6.96144 15.0771ZM5 12.6388V10.0925C9.92159 10.0925 13.9075 14.0784 13.9075 19H11.3612C11.3612 15.491 8.509 12.6388 5 12.6388Z" fill="currentColor"/>
</svg>
