<svg
  viewBox="0 0 38 42"
  fill="none"
  xmlns="http://www.w3.org/2000/svg"
>
  <path
    d="M15.543 22.4783V18.8572L18.9988 16.9147L22.4545 18.8572V22.4783L18.9988 24.4208L15.543 22.4783Z"
    stroke="currentColor"
    stroke-width="0.5"
  />
  <path d="M16 22V19.5L18.5 21V23.5L16 22Z" fill="currentColor" stroke="currentColor" />
  <path
    d="M11.6768 16.6911L18.9498 12.4414L26.3221 16.6921V24.957L18.9497 29.1318L11.6768 24.958V16.6911Z"
    stroke="currentColor"
    stroke-width="0.5"
  />
  <path
    d="M8.22657 14.6674L18.9998 8.60136L29.7731 14.6674V26.634L18.9998 32.6499L8.22656 26.634L8.22657 14.6674Z"
    stroke="currentColor"
    stroke-width="0.5"
  />
  <path
    d="M11.5889 16.6191L8.20522 14.6755"
    stroke="currentColor"
    stroke-width="0.5"
  />
  <path
    d="M26.3965 16.6279L29.8747 14.6297"
    stroke="currentColor"
    stroke-width="0.5"
  />
  <path d="M19 29.1855L19 32.6758" stroke="currentColor" stroke-width="0.5" />
  <path
    d="M33.1797 12.7314L36.8855 10.6025"
    stroke="currentColor"
    stroke-width="0.5"
  />
  <path
    d="M4.82031 12.7314L1.11453 10.6025"
    stroke="currentColor"
    stroke-width="0.5"
  />
  <path
    d="M4.87767 12.7761L18.9998 4.764L33.1218 12.7761V28.7929L18.9998 36.805L4.87767 28.7929V12.7761Z"
    stroke="currentColor"
    stroke-width="0.5"
  />
  <path
    d="M1.25 10.6294L19 0.289326L36.75 10.6294V31.0326L19 41.2805L1.25 31.0326L1.25 10.6294Z"
    stroke="currentColor"
    stroke-width="0.5"
  />
</svg>
