<svg width="24" height="24" viewBox="0 0 24 24" fill="none" xmlns="http://www.w3.org/2000/svg">
<path d="M11.3667 7.26667C11.3667 6.66551 11.1279 6.08897 10.7028 5.66389C10.2777 5.23881 9.70116 5 9.1 5C8.49884 5 7.92231 5.23881 7.49722 5.66389C7.07214 6.08897 6.83333 6.66551 6.83333 7.26667H11.3667ZM11.3667 7.26667C11.3667 7.86782 11.1279 8.44436 10.7028 8.86944C10.2777 9.29452 9.70116 9.53333 9.1 9.53333C8.49884 9.53333 7.92231 9.29452 7.49722 8.86944C7.07214 8.44436 6.83333 7.86782 6.83333 7.26667H11.3667ZM18.1667 16.3333C18.1667 15.7322 17.9279 15.1556 17.5028 14.7306C17.0777 14.3055 16.5012 14.0667 15.9 14.0667C15.2988 14.0667 14.7223 14.3055 14.2972 14.7306C13.8721 15.1556 13.6333 15.7322 13.6333 16.3333H18.1667ZM18.1667 16.3333C18.1667 16.9345 17.9279 17.511 17.5028 17.9361C17.0777 18.3612 16.5012 18.6 15.9 18.6C15.2988 18.6 14.7223 18.3612 14.2972 17.9361C13.8721 17.511 13.6333 16.9345 13.6333 16.3333H18.1667ZM13.6333 16.3333H4H13.6333Z" fill="currentColor"/>
<path d="M21 7.26667H11.3667M11.3667 7.26667C11.3667 6.66551 11.1279 6.08897 10.7028 5.66389C10.2777 5.23881 9.70116 5 9.1 5C8.49884 5 7.92231 5.23881 7.49722 5.66389C7.07214 6.08897 6.83333 6.66551 6.83333 7.26667M11.3667 7.26667H6.83333M11.3667 7.26667C11.3667 7.86782 11.1279 8.44436 10.7028 8.86944C10.2777 9.29452 9.70116 9.53333 9.1 9.53333C8.49884 9.53333 7.92231 9.29452 7.49722 8.86944C7.07214 8.44436 6.83333 7.86782 6.83333 7.26667M6.83333 7.26667H4M21 16.3333H18.1667M18.1667 16.3333C18.1667 15.7322 17.9279 15.1556 17.5028 14.7306C17.0777 14.3055 16.5012 14.0667 15.9 14.0667C15.2988 14.0667 14.7223 14.3055 14.2972 14.7306C13.8721 15.1556 13.6333 15.7322 13.6333 16.3333M18.1667 16.3333H13.6333M18.1667 16.3333C18.1667 16.9345 17.9279 17.511 17.5028 17.9361C17.0777 18.3612 16.5012 18.6 15.9 18.6C15.2988 18.6 14.7223 18.3612 14.2972 17.9361C13.8721 17.511 13.6333 16.9345 13.6333 16.3333M13.6333 16.3333H4" stroke="currentColor"/>
</svg>
