<svg width="32" height="32" viewBox="0 0 32 32" fill="none" xmlns="http://www.w3.org/2000/svg">
<path d="M16 0.25C7.30234 0.25 0.25 7.30234 0.25 16C0.25 24.6977 7.30234 31.75 16 31.75C24.6977 31.75 31.75 24.6977 31.75 16C31.75 7.30234 24.6977 0.25 16 0.25ZM21.066 16.2426L13.3879 21.8289C13.3458 21.8592 13.2962 21.8772 13.2445 21.8811C13.1928 21.885 13.141 21.8745 13.0949 21.8509C13.0488 21.8273 13.01 21.7914 12.9829 21.7472C12.9559 21.703 12.9415 21.6522 12.9414 21.6004V10.4348C12.9412 10.3828 12.9555 10.3319 12.9825 10.2875C13.0095 10.2431 13.0483 10.2071 13.0945 10.1835C13.1408 10.1598 13.1926 10.1494 13.2444 10.1534C13.2962 10.1575 13.3459 10.1757 13.3879 10.2063L21.066 15.7891C21.1023 15.8147 21.1319 15.8487 21.1523 15.8882C21.1727 15.9276 21.1834 15.9714 21.1834 16.0158C21.1834 16.0602 21.1727 16.104 21.1523 16.1435C21.1319 16.1829 21.1023 16.2169 21.066 16.2426V16.2426Z" fill="#00EF8B"/>
</svg>
