<svg width="28" height="24" viewBox="0 0 28 24" fill="none" xmlns="http://www.w3.org/2000/svg">
  <g clip-path="url(#clip0_112_11)">
    <path
      d="M11.2006 1.94081L12.3125 0.781015C13.1097 -0.146798 14.6439 -0.340653 15.6211 0.708573L27.3974 13.3527C28.3679 14.3946 28.1148 16.0689 26.8797 16.7775L15.1034 23.5333C14.2919 23.9989 13.3703 23.8857 12.7058 23.4062L1.11103 16.7545C-0.124066 16.0459 -0.377138 14.3716 0.59333 13.3297C0.810324 13.0967 1.09991 12.9441 1.41478 12.897C1.72966 12.8498 2.05122 12.9108 2.32695 13.07L12.7058 19.0417V14.5559L5.93382 10.6846C4.97753 10.1313 4.78296 8.8331 5.53491 8.02396L5.53634 8.02241L5.53741 8.02122C5.80278 7.73683 6.15668 7.55075 6.54139 7.49332C6.9261 7.43589 7.31891 7.51051 7.65576 7.705L12.7058 10.5661V6.23625L11.0992 5.22527C10.115 4.65693 9.22662 4.06011 10.0012 3.22857L11.2006 1.94081V1.94081Z"
      fill="white"></path>
  </g>
  <defs>
    <clipPath id="clip0_112_11">
      <rect width="28" height="23.8298" fill="white"></rect>
    </clipPath>
  </defs>
</svg>