<svg width="24" height="24" viewBox="0 0 24 24" fill="none" xmlns="http://www.w3.org/2000/svg">
<path d="M8.38082 9.69534C8.23811 9.55264 8.04456 9.47246 7.84274 9.47246C7.64092 9.47246 7.44736 9.55264 7.30466 9.69534L3.53808 13.4619C3.39537 13.6046 3.3152 13.7982 3.3152 14C3.3152 14.2018 3.39537 14.3954 3.53808 14.5381L7.30466 18.3047C7.44736 18.4474 7.64092 18.5275 7.84274 18.5275C8.04456 18.5275 8.23811 18.4474 8.38082 18.3047C8.52353 18.1619 8.6037 17.9684 8.6037 17.7666C8.6037 17.5648 8.52353 17.3712 8.38082 17.2285L5.91318 14.7608L14.5688 14.7608C14.7705 14.7608 14.9641 14.6806 15.1067 14.538C15.2494 14.3953 15.3296 14.2018 15.3296 14V5.12165C15.3261 4.92215 15.2445 4.73199 15.1022 4.59213C14.9598 4.45228 14.7683 4.37391 14.5688 4.37391C14.3692 4.37391 14.1777 4.45228 14.0354 4.59213C13.8931 4.73199 13.8114 4.92215 13.8079 5.12165L13.8079 13.2392L5.91318 13.2392L8.38082 10.7715C8.52353 10.6288 8.6037 10.4352 8.6037 10.2334C8.6037 10.0316 8.52353 9.83805 8.38082 9.69534Z" fill="currentColor"/>
</svg>
