<svg width="108" height="108" viewBox="0 0 108 108" fill="none" xmlns="http://www.w3.org/2000/svg">
<path d="M108 54C108 83.8234 83.8234 108 54 108C24.1766 108 0 83.8234 0 54C0 24.1766 24.1766 0 54 0C83.8234 0 108 24.1766 108 54Z" fill="url(#paint0_angular_2057_3594)"/>
<path d="M72.8783 54.4382C72.8783 65.1067 64.2297 73.7552 53.5612 73.7552C42.8927 73.7552 34.2441 65.1067 34.2441 54.4382C34.2441 43.7696 42.8927 35.1211 53.5612 35.1211C64.2297 35.1211 72.8783 43.7696 72.8783 54.4382Z" fill="url(#paint1_angular_2057_3594)"/>
<defs>
<radialGradient id="paint0_angular_2057_3594" cx="0" cy="0" r="1" gradientUnits="userSpaceOnUse" gradientTransform="translate(54 54) rotate(90) scale(49.1786)">
<stop stop-color="white" stop-opacity="0.9"/>
<stop offset="1" stop-color="white" stop-opacity="0"/>
</radialGradient>
<radialGradient id="paint1_angular_2057_3594" cx="0" cy="0" r="1" gradientUnits="userSpaceOnUse" gradientTransform="translate(53.5612 54.4382) rotate(-135) scale(17.074)">
<stop stop-color="white" stop-opacity="0.9"/>
<stop offset="1" stop-color="white" stop-opacity="0"/>
</radialGradient>
</defs>
</svg>
