<svg viewBox="0 0 58 58" fill="none" xmlns="http://www.w3.org/2000/svg">
<g filter="url(#filter0_bii_2_677)">
<rect width="58" height="58" rx="4" fill="url(#paint0_linear_2_677)"/>
</g>
<path fill-rule="evenodd" clip-rule="evenodd" d="M37.7156 35.8377C35.5032 35.8377 34.2523 34.6844 33.2909 33.1152L29.6458 35.2319C30.9626 37.8324 33.6538 39.8166 37.8194 39.8166C42.0796 39.8166 45.2519 37.6053 45.2519 33.5689C45.2519 29.8248 43.1002 28.1595 39.2892 26.526L38.1679 26.0459C36.2434 25.2128 35.41 24.6683 35.41 23.3234C35.41 22.2351 36.2427 21.4021 37.5564 21.4021C38.8445 21.4021 39.6741 21.9451 40.4431 23.3234L43.9359 21.0818C42.4585 18.4842 40.4083 17.4922 37.5564 17.4922C33.5507 17.4922 30.9876 20.0519 30.9876 23.4143C30.9876 27.0644 33.1378 28.7911 36.3745 30.1693L37.4958 30.6502C39.5415 31.5446 40.7613 32.0891 40.7613 33.6264C40.7613 34.9093 39.5741 35.8377 37.7156 35.8377ZM20.3332 35.809C18.7921 35.809 18.1512 34.7526 17.4465 33.5031L13.7954 35.7125C14.8531 37.9499 16.9329 39.8076 20.5241 39.8076C24.4988 39.8076 27.2218 37.6947 27.2218 33.0525V17.7475H22.7365V32.9919C22.7365 35.2327 21.8069 35.809 20.3332 35.809Z" fill="white"/>
<defs>
<filter id="filter0_bii_2_677" x="-49.0159" y="-49.0159" width="156.032" height="156.032" filterUnits="userSpaceOnUse" color-interpolation-filters="sRGB">
<feFlood flood-opacity="0" result="BackgroundImageFix"/>
<feGaussianBlur in="BackgroundImage" stdDeviation="24.508"/>
<feComposite in2="SourceAlpha" operator="in" result="effect1_backgroundBlur_2_677"/>
<feBlend mode="normal" in="SourceGraphic" in2="effect1_backgroundBlur_2_677" result="shape"/>
<feColorMatrix in="SourceAlpha" type="matrix" values="0 0 0 0 0 0 0 0 0 0 0 0 0 0 0 0 0 0 127 0" result="hardAlpha"/>
<feOffset dx="1.17782" dy="1.17782"/>
<feGaussianBlur stdDeviation="1"/>
<feComposite in2="hardAlpha" operator="arithmetic" k2="-1" k3="1"/>
<feColorMatrix type="matrix" values="0 0 0 0 0.928409 0 0 0 0 0.978523 0 0 0 0 1 0 0 0 0.26 0"/>
<feBlend mode="normal" in2="shape" result="effect2_innerShadow_2_677"/>
<feColorMatrix in="SourceAlpha" type="matrix" values="0 0 0 0 0 0 0 0 0 0 0 0 0 0 0 0 0 0 127 0" result="hardAlpha"/>
<feOffset dx="-1.18" dy="-1.18"/>
<feGaussianBlur stdDeviation="1"/>
<feComposite in2="hardAlpha" operator="arithmetic" k2="-1" k3="1"/>
<feColorMatrix type="matrix" values="0 0 0 0 0 0 0 0 0 0 0 0 0 0 0 0 0 0 0.15 0"/>
<feBlend mode="normal" in2="effect2_innerShadow_2_677" result="effect3_innerShadow_2_677"/>
</filter>
<linearGradient id="paint0_linear_2_677" x1="45.6742" y1="-55.8725" x2="-28.8191" y2="15.3794" gradientUnits="userSpaceOnUse">
<stop stop-color="white" stop-opacity="0.01"/>
<stop offset="0.12833" stop-color="#F0B24F"/>
<stop offset="1" stop-color="#F0DB4F"/>
</linearGradient>
</defs>
</svg>
