<svg viewBox="0 0 16 16" fill="none" xmlns="http://www.w3.org/2000/svg">
<path d="M11.1167 12.7885C10.3306 13.0538 9.12174 13.2183 8.23373 13.2183C7.34572 13.2183 6.13682 13.0539 5.3508 12.7885C4.80033 13.2445 4.1668 13.5985 3.48226 13.8327C3.46798 13.8373 3.45598 13.8468 3.44862 13.8594C3.44126 13.872 3.43908 13.8869 3.4425 13.9009C3.44591 13.915 3.45469 13.9274 3.4671 13.9356C3.47951 13.9438 3.49465 13.9472 3.50956 13.9452C4.13166 13.8741 4.74736 13.7584 5.35153 13.599C6.04083 13.8583 7.35182 14 8.23382 14C9.11582 14 10.4567 13.8904 11.1167 13.599C11.726 13.7629 12.348 13.8796 12.9766 13.9481C12.9916 13.9501 13.0067 13.9467 13.0191 13.9385C13.0315 13.9303 13.0403 13.9179 13.0437 13.9038C13.0471 13.8897 13.0449 13.8749 13.0376 13.8623C13.0302 13.8497 13.0182 13.8402 13.0039 13.8356C12.3171 13.5931 11.6787 13.2389 11.1167 12.7885V12.7885Z" fill="url(#paint0_linear_2_592)"/>
<path d="M11.1167 12.7885C10.3306 13.0538 9.12174 13.2183 8.23373 13.2183C7.34572 13.2183 6.13682 13.0539 5.3508 12.7885C4.80033 13.2445 4.1668 13.5985 3.48226 13.8327C3.46798 13.8373 3.45598 13.8468 3.44862 13.8594C3.44126 13.872 3.43908 13.8869 3.4425 13.9009C3.44591 13.915 3.45469 13.9274 3.4671 13.9356C3.47951 13.9438 3.49465 13.9472 3.50956 13.9452C4.13166 13.8741 4.74736 13.7584 5.35153 13.599C6.04083 13.8583 7.35182 14 8.23382 14C9.11582 14 10.4567 13.8904 11.1167 13.599C11.726 13.7629 12.348 13.8796 12.9766 13.9481C12.9916 13.9501 13.0067 13.9467 13.0191 13.9385C13.0315 13.9303 13.0403 13.9179 13.0437 13.9038C13.0471 13.8897 13.0449 13.8749 13.0376 13.8623C13.0302 13.8497 13.0182 13.8402 13.0039 13.8356C12.3171 13.5931 11.6787 13.2389 11.1167 12.7885V12.7885Z" fill="black" fill-opacity="0.2"/>
<path d="M13.9277 8.20189L8.34193 5.7355C8.3105 5.72126 8.27618 5.71387 8.24143 5.71387C8.20669 5.71387 8.17237 5.72126 8.14094 5.7355L2.55815 8.20189C2.46415 8.24358 2.38453 8.31028 2.32871 8.39412C2.27289 8.47795 2.2432 8.5754 2.24316 8.67494C2.24366 8.74112 2.25689 8.80665 2.2822 8.8682L3.92291 12.7885C4.74787 12.7885 5.62386 12.1538 5.62386 12.1538C6.16395 12.4131 7.21654 12.6471 8.00292 12.6904C8.0869 12.6962 8.16787 12.6962 8.24294 12.6962C8.318 12.6962 8.39897 12.6933 8.48295 12.6904C9.26896 12.6471 10.3219 12.4164 10.8619 12.1538C10.8619 12.1538 11.7379 12.7885 12.5629 12.7885L14.2041 8.8682C14.2294 8.80665 14.2427 8.74112 14.2432 8.67494C14.2431 8.57535 14.2133 8.47787 14.1574 8.39403C14.1015 8.31019 14.0218 8.24352 13.9277 8.20189V8.20189ZM6.92294 8.92305C6.72496 8.92305 6.56291 8.64038 6.56291 8.28841C6.56291 7.93645 6.72523 7.65369 6.92294 7.65369C7.12065 7.65369 7.28296 7.93636 7.28296 8.28833C7.28296 8.64029 7.12092 8.92305 6.92294 8.92305ZM9.56284 8.92305C9.36486 8.92305 9.20282 8.64038 9.20282 8.28841C9.20282 7.93645 9.36477 7.65377 9.56284 7.65377C9.76092 7.65377 9.92287 7.93645 9.92287 8.28841C9.92287 8.64038 9.76083 8.92305 9.56284 8.92305Z" fill="url(#paint1_linear_2_592)"/>
<path d="M13.9277 8.20189L8.34193 5.7355C8.3105 5.72126 8.27618 5.71387 8.24143 5.71387C8.20669 5.71387 8.17237 5.72126 8.14094 5.7355L2.55815 8.20189C2.46415 8.24358 2.38453 8.31028 2.32871 8.39412C2.27289 8.47795 2.2432 8.5754 2.24316 8.67494C2.24366 8.74112 2.25689 8.80665 2.2822 8.8682L3.92291 12.7885C4.74787 12.7885 5.62386 12.1538 5.62386 12.1538C6.16395 12.4131 7.21654 12.6471 8.00292 12.6904C8.0869 12.6962 8.16787 12.6962 8.24294 12.6962C8.318 12.6962 8.39897 12.6933 8.48295 12.6904C9.26896 12.6471 10.3219 12.4164 10.8619 12.1538C10.8619 12.1538 11.7379 12.7885 12.5629 12.7885L14.2041 8.8682C14.2294 8.80665 14.2427 8.74112 14.2432 8.67494C14.2431 8.57535 14.2133 8.47787 14.1574 8.39403C14.1015 8.31019 14.0218 8.24352 13.9277 8.20189V8.20189ZM6.92294 8.92305C6.72496 8.92305 6.56291 8.64038 6.56291 8.28841C6.56291 7.93645 6.72523 7.65369 6.92294 7.65369C7.12065 7.65369 7.28296 7.93636 7.28296 8.28833C7.28296 8.64029 7.12092 8.92305 6.92294 8.92305ZM9.56284 8.92305C9.36486 8.92305 9.20282 8.64038 9.20282 8.28841C9.20282 7.93645 9.36477 7.65377 9.56284 7.65377C9.76092 7.65377 9.92287 7.93645 9.92287 8.28841C9.92287 8.64038 9.76083 8.92305 9.56284 8.92305Z" fill="black" fill-opacity="0.2"/>
<path d="M12.3199 4.2789V4.27601C12.1519 3.50874 11.7949 2.92309 11.1229 2.92309H10.085L10.025 2.6923C9.97176 2.49407 9.8515 2.31849 9.68314 2.19317C9.51479 2.06785 9.30788 1.9999 9.09497 2H7.38501C7.17169 1.99996 6.96443 2.06829 6.79602 2.19419C6.6276 2.32009 6.50763 2.49638 6.45506 2.69518L6.39511 2.92265H5.36307C4.67605 2.92265 4.31011 3.51976 4.16909 4.27872L3.62318 7.07109C3.6191 7.09191 3.62103 7.11341 3.62877 7.13324C3.63651 7.15308 3.64976 7.1705 3.66708 7.1836C3.6844 7.19669 3.70512 7.20498 3.727 7.20754C3.74887 7.2101 3.77106 7.20684 3.79114 7.19812L4.55013 6.86348C4.56774 6.85586 4.5832 6.84428 4.5952 6.82973C4.6072 6.81518 4.61539 6.79807 4.61909 6.77984L5.10504 4.31057C5.18001 4.00191 5.32404 3.84907 5.58798 3.84907H10.9009C11.1679 3.84907 11.2939 3.99333 11.3839 4.31057L11.8699 6.77984C11.873 6.79827 11.881 6.81562 11.8931 6.83026C11.9052 6.84489 11.9209 6.85633 11.9389 6.86348L12.7009 7.20101C12.7209 7.21002 12.7432 7.21351 12.7652 7.21108C12.7872 7.20865 12.8081 7.20039 12.8255 7.18724C12.8429 7.17408 12.8561 7.15653 12.8638 7.13655C12.8715 7.11657 12.8732 7.09494 12.8688 7.07406L12.3199 4.2789Z" fill="url(#paint2_linear_2_592)"/>
<path d="M12.3199 4.2789V4.27601C12.1519 3.50874 11.7949 2.92309 11.1229 2.92309H10.085L10.025 2.6923C9.97176 2.49407 9.8515 2.31849 9.68314 2.19317C9.51479 2.06785 9.30788 1.9999 9.09497 2H7.38501C7.17169 1.99996 6.96443 2.06829 6.79602 2.19419C6.6276 2.32009 6.50763 2.49638 6.45506 2.69518L6.39511 2.92265H5.36307C4.67605 2.92265 4.31011 3.51976 4.16909 4.27872L3.62318 7.07109C3.6191 7.09191 3.62103 7.11341 3.62877 7.13324C3.63651 7.15308 3.64976 7.1705 3.66708 7.1836C3.6844 7.19669 3.70512 7.20498 3.727 7.20754C3.74887 7.2101 3.77106 7.20684 3.79114 7.19812L4.55013 6.86348C4.56774 6.85586 4.5832 6.84428 4.5952 6.82973C4.6072 6.81518 4.61539 6.79807 4.61909 6.77984L5.10504 4.31057C5.18001 4.00191 5.32404 3.84907 5.58798 3.84907H10.9009C11.1679 3.84907 11.2939 3.99333 11.3839 4.31057L11.8699 6.77984C11.873 6.79827 11.881 6.81562 11.8931 6.83026C11.9052 6.84489 11.9209 6.85633 11.9389 6.86348L12.7009 7.20101C12.7209 7.21002 12.7432 7.21351 12.7652 7.21108C12.7872 7.20865 12.8081 7.20039 12.8255 7.18724C12.8429 7.17408 12.8561 7.15653 12.8638 7.13655C12.8715 7.11657 12.8732 7.09494 12.8688 7.07406L12.3199 4.2789Z" fill="black" fill-opacity="0.2"/>
<defs>
<linearGradient id="paint0_linear_2_592" x1="8.2431" y1="12.7885" x2="8.2431" y2="14" gradientUnits="userSpaceOnUse">
<stop stop-color="#B4FFDF"/>
<stop offset="1" stop-color="#00227E"/>
</linearGradient>
<linearGradient id="paint1_linear_2_592" x1="8.24316" y1="5.71387" x2="8.24316" y2="12.7885" gradientUnits="userSpaceOnUse">
<stop stop-color="#B4FFDF"/>
<stop offset="1" stop-color="#00227E"/>
</linearGradient>
<linearGradient id="paint2_linear_2_592" x1="8.24613" y1="2" x2="8.24613" y2="7.21183" gradientUnits="userSpaceOnUse">
<stop stop-color="#B4FFDF"/>
<stop offset="1" stop-color="#00227E"/>
</linearGradient>
</defs>
</svg>
