<svg viewBox="0 0 58 58" fill="none" xmlns="http://www.w3.org/2000/svg">
<g filter="url(#filter0_bii_2_571)">
<rect width="58" height="58" rx="8" fill="url(#paint0_linear_2_571)" fill-opacity="0.33"/>
</g>
<path d="M28.1021 22.3466C24.9435 22.3466 22.3833 19.8174 22.3833 16.6972C22.3833 13.577 24.9435 11.0479 28.1021 11.0479C31.2606 11.0479 33.8208 13.577 33.8208 16.6972C33.8208 19.8174 31.2602 22.3466 28.1021 22.3466Z" fill="url(#paint1_linear_2_571)"/>
<path d="M28.1021 47.8759C24.9435 47.8759 22.3833 45.3467 22.3833 42.2265C22.3833 39.1063 24.9435 36.5771 28.1021 36.5771C31.2606 36.5771 33.8208 39.1063 33.8208 42.2265C33.8208 45.3467 31.2602 47.8759 28.1021 47.8759Z" fill="url(#paint2_linear_2_571)"/>
<path d="M15.8452 35.1552C12.6867 35.1552 10.1265 32.626 10.1265 29.5058C10.1265 26.3856 12.6867 23.8564 15.8452 23.8564C19.0038 23.8564 21.564 26.3856 21.564 29.5058C21.564 32.626 19.0034 35.1552 15.8452 35.1552Z" fill="url(#paint3_linear_2_571)"/>
<path d="M41.2339 34.9022C38.0754 34.9022 35.5151 32.3731 35.5151 29.2529C35.5151 26.1327 38.0754 23.6035 41.2339 23.6035C44.3924 23.6035 46.9526 26.1327 46.9526 29.2529C46.9526 32.3731 44.3921 34.9022 41.2339 34.9022Z" fill="url(#paint4_linear_2_571)"/>
<defs>
<filter id="filter0_bii_2_571" x="-49.0159" y="-49.0159" width="156.032" height="156.032" filterUnits="userSpaceOnUse" color-interpolation-filters="sRGB">
<feFlood flood-opacity="0" result="BackgroundImageFix"/>
<feGaussianBlur in="BackgroundImage" stdDeviation="24.508"/>
<feComposite in2="SourceAlpha" operator="in" result="effect1_backgroundBlur_2_571"/>
<feBlend mode="normal" in="SourceGraphic" in2="effect1_backgroundBlur_2_571" result="shape"/>
<feColorMatrix in="SourceAlpha" type="matrix" values="0 0 0 0 0 0 0 0 0 0 0 0 0 0 0 0 0 0 127 0" result="hardAlpha"/>
<feOffset dx="1.17782" dy="1.17782"/>
<feGaussianBlur stdDeviation="1"/>
<feComposite in2="hardAlpha" operator="arithmetic" k2="-1" k3="1"/>
<feColorMatrix type="matrix" values="0 0 0 0 0.928409 0 0 0 0 0.978523 0 0 0 0 1 0 0 0 0.26 0"/>
<feBlend mode="normal" in2="shape" result="effect2_innerShadow_2_571"/>
<feColorMatrix in="SourceAlpha" type="matrix" values="0 0 0 0 0 0 0 0 0 0 0 0 0 0 0 0 0 0 127 0" result="hardAlpha"/>
<feOffset dx="-1.18" dy="-1.18"/>
<feGaussianBlur stdDeviation="1"/>
<feComposite in2="hardAlpha" operator="arithmetic" k2="-1" k3="1"/>
<feColorMatrix type="matrix" values="0 0 0 0 0 0 0 0 0 0 0 0 0 0 0 0 0 0 0.15 0"/>
<feBlend mode="normal" in2="effect2_innerShadow_2_571" result="effect3_innerShadow_2_571"/>
</filter>
<linearGradient id="paint0_linear_2_571" x1="8.74603" y1="-4.60317" x2="58" y2="58" gradientUnits="userSpaceOnUse">
<stop stop-color="white"/>
<stop offset="1" stop-color="white" stop-opacity="0"/>
</linearGradient>
<linearGradient id="paint1_linear_2_571" x1="31.3902" y1="0.163577" x2="16.8717" y2="14.2209" gradientUnits="userSpaceOnUse">
<stop stop-color="white" stop-opacity="0.01"/>
<stop offset="0.341401" stop-color="#FF92FE"/>
<stop offset="1" stop-color="#FF0072"/>
</linearGradient>
<linearGradient id="paint2_linear_2_571" x1="31.3902" y1="25.6929" x2="16.8717" y2="39.7502" gradientUnits="userSpaceOnUse">
<stop stop-color="white" stop-opacity="0.01"/>
<stop offset="0.341401" stop-color="#FF92FE"/>
<stop offset="1" stop-color="#FF0072"/>
</linearGradient>
<linearGradient id="paint3_linear_2_571" x1="19.1333" y1="12.9722" x2="4.61483" y2="27.0295" gradientUnits="userSpaceOnUse">
<stop stop-color="white" stop-opacity="0.01"/>
<stop offset="0.341401" stop-color="#FF92FE"/>
<stop offset="1" stop-color="#FF0072"/>
</linearGradient>
<linearGradient id="paint4_linear_2_571" x1="44.522" y1="12.7192" x2="30.0035" y2="26.7766" gradientUnits="userSpaceOnUse">
<stop stop-color="white" stop-opacity="0.01"/>
<stop offset="0.341401" stop-color="#FF92FE"/>
<stop offset="1" stop-color="#FF0072"/>
</linearGradient>
</defs>
</svg>
