<svg width="46" height="46" viewBox="0 0 46 46" fill="none" xmlns="http://www.w3.org/2000/svg">
<path d="M13.6562 12.5781H16.1719C16.3695 12.5781 16.5312 12.4164 16.5312 12.2188C16.5312 10.9475 16.7963 9.82891 17.2994 8.91699C17.7756 8.04551 18.4674 7.35371 19.3389 6.87754C20.2553 6.37891 21.3693 6.10938 22.6406 6.10938H23.3594C24.6307 6.10938 25.7492 6.37441 26.6611 6.87754C27.5326 7.35371 28.2244 8.04551 28.7006 8.91699C29.1992 9.8334 29.4688 10.9475 29.4688 12.2188C29.4688 12.4164 29.6305 12.5781 29.8281 12.5781H32.3438C32.5414 12.5781 32.7031 12.4164 32.7031 12.2188C32.7031 10.4219 32.3078 8.77324 31.5396 7.3627C30.767 5.94766 29.6305 4.81113 28.2154 4.03848C26.8049 3.27031 25.1562 2.875 23.3594 2.875H22.6406C20.8438 2.875 19.1951 3.27031 17.7846 4.03848C16.3695 4.81113 15.233 5.94766 14.4604 7.3627C13.6922 8.77324 13.2969 10.4219 13.2969 12.2188C13.2969 12.4164 13.4586 12.5781 13.6562 12.5781Z" fill="currentColor"/>
<path d="M42.2266 23H35.5781V18.5078C39.0281 18.5078 41.8223 15.7137 41.8223 12.2637C41.8223 12.066 41.6605 11.9043 41.4629 11.9043H38.7676C38.5699 11.9043 38.4082 12.066 38.4082 12.2637C38.4082 13.827 37.1414 15.0938 35.5781 15.0938H10.4219C8.85859 15.0938 7.5918 13.827 7.5918 12.2637C7.5918 12.066 7.43008 11.9043 7.23242 11.9043H4.53711C4.33945 11.9043 4.17773 12.066 4.17773 12.2637C4.17773 15.7137 6.97187 18.5078 10.4219 18.5078V23H3.77344C3.57578 23 3.41406 23.1617 3.41406 23.3594V25.875C3.41406 26.0727 3.57578 26.2344 3.77344 26.2344H10.4219V30.5469C10.4219 30.8389 10.4309 31.1309 10.4533 31.4139C7.37168 32.7301 5.21094 35.7893 5.21094 39.3516C5.21094 39.5492 5.37266 39.7109 5.57031 39.7109H8.08594C8.28359 39.7109 8.44531 39.5492 8.44531 39.3516C8.44531 37.366 9.51895 35.6275 11.1227 34.6932C11.3922 35.4658 11.7336 36.2025 12.1424 36.8943C13.234 38.7586 14.7928 40.3174 16.657 41.409C18.5213 42.5006 20.6865 43.125 23 43.125C25.3135 43.125 27.4832 42.5006 29.3475 41.409C31.2117 40.3174 32.7705 38.7586 33.8621 36.8943C34.2709 36.198 34.6123 35.4613 34.8818 34.6932C36.4811 35.6275 37.5547 37.366 37.5547 39.3516C37.5547 39.5492 37.7164 39.7109 37.9141 39.7109H40.4297C40.6273 39.7109 40.7891 39.5492 40.7891 39.3516C40.7891 35.7893 38.6283 32.7301 35.5467 31.4139C35.5646 31.1264 35.5781 30.8389 35.5781 30.5469V26.2344H42.2266C42.4242 26.2344 42.5859 26.0727 42.5859 25.875V23.3594C42.5859 23.1617 42.4242 23 42.2266 23ZM32.1641 30.5469C32.1641 32.2 31.7283 33.7812 30.9152 35.1693C30.1201 36.5305 28.9836 37.667 27.6225 38.4621C26.2344 39.2752 24.6531 39.7109 23 39.7109C21.3469 39.7109 19.7656 39.2752 18.3775 38.4621C17.0164 37.667 15.8799 36.5305 15.0848 35.1693C14.2717 33.7812 13.8359 32.2 13.8359 30.5469V18.5078H32.1641V30.5469Z" fill="currentColor"/>
</svg>
