<svg width="46" height="46" viewBox="0 0 46 46" fill="none" xmlns="http://www.w3.org/2000/svg">
<path d="M8.625 8.62499C8.625 7.1 9.2308 5.63746 10.3091 4.55913C11.3875 3.48079 12.85 2.87499 14.375 2.87499C15.9 2.87499 17.3625 3.48079 18.4409 4.55913C19.5192 5.63746 20.125 7.1 20.125 8.62499C20.125 10.15 19.5192 11.6125 18.4409 12.6909C17.3625 13.7692 15.9 14.375 14.375 14.375C12.85 14.375 11.3875 13.7692 10.3091 12.6909C9.2308 11.6125 8.625 10.15 8.625 8.62499ZM14.375 5.74999C13.6125 5.74999 12.8812 6.05289 12.3421 6.59206C11.8029 7.13123 11.5 7.86249 11.5 8.62499C11.5 9.38749 11.8029 10.1188 12.3421 10.6579C12.8812 11.1971 13.6125 11.5 14.375 11.5C15.1375 11.5 15.8688 11.1971 16.4079 10.6579C16.9471 10.1188 17.25 9.38749 17.25 8.62499C17.25 7.86249 16.9471 7.13123 16.4079 6.59206C15.8688 6.05289 15.1375 5.74999 14.375 5.74999ZM28.1146 13.179C27.5123 12.7195 27.0067 12.1456 26.6269 11.4902C26.247 10.8347 26.0005 10.1106 25.9013 9.35961C25.8022 8.60857 25.8525 7.84534 26.0492 7.11378C26.246 6.38222 26.5853 5.69675 27.0478 5.09676C27.5103 4.49677 28.0868 3.99408 28.7442 3.61758C29.4016 3.24108 30.1269 2.9982 30.8784 2.90288C31.6299 2.80756 32.3929 2.86168 33.1234 3.06215C33.854 3.26261 34.5377 3.60546 35.1354 4.07099C36.3121 5.01228 37.0723 6.37788 37.2524 7.87395C37.4325 9.37003 37.0181 10.877 36.0983 12.0707C35.1786 13.2643 33.8271 14.0492 32.3345 14.2565C30.842 14.4638 29.3277 14.0768 28.1175 13.179H28.1146ZM31.625 5.74999C30.8625 5.74999 30.1312 6.05289 29.5921 6.59206C29.0529 7.13123 28.75 7.86249 28.75 8.62499C28.75 9.38749 29.0529 10.1188 29.5921 10.6579C30.1312 11.1971 30.8625 11.5 31.625 11.5C32.3875 11.5 33.1188 11.1971 33.6579 10.6579C34.1971 10.1188 34.5 9.38749 34.5 8.62499C34.5 7.86249 34.1971 7.13123 33.6579 6.59206C33.1188 6.05289 32.3875 5.74999 31.625 5.74999ZM7.1875 17.25H14.8638C14.5475 18.1499 14.375 19.1187 14.375 20.125H7.1875C6.80625 20.125 6.44062 20.2764 6.17103 20.546C5.90145 20.8156 5.75 21.1812 5.75 21.5625C5.75 23.9114 6.68438 25.6536 8.15925 26.8381C8.83775 27.3844 9.65138 27.8242 10.5714 28.1462C9.89577 28.8644 9.37515 29.7138 9.04187 30.6417C8.07683 30.2541 7.17326 29.7282 6.3595 29.0806C4.1975 27.3412 2.875 24.771 2.875 21.5625C2.875 20.4187 3.32935 19.3218 4.1381 18.5131C4.94685 17.7043 6.04375 17.25 7.1875 17.25ZM18.0205 17.25C17.258 18.5714 17.0517 20.1416 17.4469 21.6151C17.8421 23.0887 18.8065 24.3449 20.1279 25.1074C21.4493 25.8699 23.0195 26.0762 24.493 25.681C25.9666 25.2858 27.2228 24.3214 27.9853 23C28.7477 21.6786 28.9541 20.1084 28.5589 18.6349C28.1637 17.1613 27.1993 15.9051 25.8779 15.1426C24.5565 14.3801 22.9863 14.1738 21.5127 14.569C20.0392 14.9642 18.783 15.9286 18.0205 17.25ZM22.356 17.3219C22.7772 17.2267 23.2145 17.2274 23.6354 17.3238C24.0564 17.4203 24.4503 17.61 24.7881 17.8791C25.1258 18.1482 25.3989 18.4897 25.587 18.8784C25.7751 19.2671 25.8736 19.6931 25.875 20.125C25.8748 20.6659 25.7219 21.1958 25.4341 21.6538C25.1462 22.1118 24.735 22.4793 24.2476 22.714C23.7602 22.9487 23.2166 23.0412 22.679 22.9808C22.1414 22.9204 21.6318 22.7096 21.2087 22.3726C20.7856 22.0355 20.4662 21.586 20.2871 21.0755C20.108 20.5651 20.0766 20.0145 20.1964 19.487C20.3162 18.9595 20.5825 18.4765 20.9645 18.0935C21.3465 17.7105 21.8288 17.443 22.356 17.3219ZM37.8407 26.8381C37.1623 27.3844 36.3486 27.8242 35.4286 28.1462C36.1032 28.8646 36.6228 29.714 36.9552 30.6417C37.9328 30.2421 38.8384 29.7217 39.6405 29.0806C41.8025 27.3412 43.125 24.771 43.125 21.5625C43.125 20.4187 42.6707 19.3218 41.8619 18.5131C41.0531 17.7043 39.9562 17.25 38.8125 17.25H31.1362C31.4525 18.1499 31.625 19.1187 31.625 20.125H38.8125C39.1937 20.125 39.5594 20.2764 39.829 20.546C40.0985 20.8156 40.25 21.1812 40.25 21.5625C40.25 23.9114 39.3156 25.6536 37.8407 26.8381ZM30.1875 28.75C31.3312 28.75 32.4281 29.2043 33.2369 30.0131C34.0456 30.8218 34.5 31.9187 34.5 33.0625C34.5 36.271 33.1804 38.8412 31.0155 40.5806C28.8851 42.2912 26.0274 43.125 23 43.125C19.9726 43.125 17.1149 42.2912 14.9845 40.5806C12.8225 38.8412 11.5 36.271 11.5 33.0625C11.4985 32.4957 11.609 31.9343 11.8252 31.4104C12.0414 30.8865 12.359 30.4105 12.7597 30.0097C13.1605 29.609 13.6365 29.2914 14.1604 29.0752C14.6843 28.859 15.2457 28.7485 15.8125 28.75H30.1875ZM30.1875 31.625H15.8125C15.4313 31.625 15.0656 31.7764 14.796 32.046C14.5265 32.3156 14.375 32.6812 14.375 33.0625C14.375 35.4114 15.3094 37.1536 16.7842 38.3381C18.2965 39.5514 20.47 40.25 23 40.25C25.53 40.25 27.7035 39.5514 29.2157 38.3381C30.6906 37.1536 31.625 35.4114 31.625 33.0625C31.625 32.6812 31.4736 32.3156 31.204 32.046C30.9344 31.7764 30.5687 31.625 30.1875 31.625Z" fill="currentColor"/>
</svg>
