<svg width="46" height="46" viewBox="0 0 46 46" fill="none" xmlns="http://www.w3.org/2000/svg">
<path fill-rule="evenodd" clip-rule="evenodd" d="M28.75 28.75V36.4167C28.75 37.4333 28.3461 38.4084 27.6272 39.1272C26.9084 39.8461 25.9333 40.25 24.9167 40.25H9.58333C8.56667 40.25 7.59165 39.8461 6.87276 39.1272C6.15387 38.4084 5.75 37.4333 5.75 36.4167V21.0833C5.75 20.0667 6.15387 19.0916 6.87276 18.3728C7.59165 17.6539 8.56667 17.25 9.58333 17.25H17.25V9.58333C17.25 8.56667 17.6539 7.59165 18.3728 6.87276C19.0916 6.15387 20.0667 5.75 21.0833 5.75H36.4167C37.4333 5.75 38.4084 6.15387 39.1272 6.87276C39.8461 7.59165 40.25 8.56667 40.25 9.58333V24.9167C40.25 25.9333 39.8461 26.9084 39.1272 27.6272C38.4084 28.3461 37.4333 28.75 36.4167 28.75H28.75ZM21.0833 17.25H28.75V24.9167H36.4167V9.58333H21.0833V17.25ZM9.58333 21.0833V36.4167H24.9167V28.75H17.25V21.0833H9.58333Z" fill="currentColor"/>
</svg>
