<svg xmlns="http://www.w3.org/2000/svg" width="30" height="30" viewBox="0 0 30 30" fill="none">
  <path d="M11.25 2.5V5M18.75 2.5V5M11.25 25V27.5M18.75 25V27.5M25 11.25H27.5M25 17.5H27.5M2.5 11.25H5M2.5 17.5H5M11 25H19C21.1002 25 22.1502 25 22.9525 24.5913C23.6581 24.2318 24.2318 23.6581 24.5913 22.9525C25 22.1502 25 21.1002 25 19V11C25 8.8998 25 7.8497 24.5913 7.04754C24.2318 6.34193 23.6581 5.76825 22.9525 5.40873C22.1502 5 21.1002 5 19 5H11C8.8998 5 7.8497 5 7.04754 5.40873C6.34193 5.76825 5.76825 6.34193 5.40873 7.04754C5 7.8497 5 8.8998 5 11V19C5 21.1002 5 22.1502 5.40873 22.9525C5.76825 23.6581 6.34193 24.2318 7.04754 24.5913C7.8497 25 8.8998 25 11 25ZM13.25 18.75H16.75C17.4501 18.75 17.8001 18.75 18.0675 18.6137C18.3028 18.4939 18.4939 18.3028 18.6137 18.0675C18.75 17.8001 18.75 17.4501 18.75 16.75V13.25C18.75 12.5499 18.75 12.1999 18.6137 11.9325C18.4939 11.6973 18.3028 11.5061 18.0675 11.3862C17.8001 11.25 17.4501 11.25 16.75 11.25H13.25C12.5499 11.25 12.1999 11.25 11.9325 11.3862C11.6973 11.5061 11.5061 11.6973 11.3862 11.9325C11.25 12.1999 11.25 12.5499 11.25 13.25V16.75C11.25 17.4501 11.25 17.8001 11.3862 18.0675C11.5061 18.3028 11.6973 18.4939 11.9325 18.6137C12.1999 18.75 12.5499 18.75 13.25 18.75Z" stroke="url(#paint0_linear_267_48264)" stroke-width="2" stroke-linecap="round" stroke-linejoin="round"/>
  <defs>
    <linearGradient id="paint0_linear_267_48264" x1="15" y1="2.5" x2="15" y2="27.5" gradientUnits="userSpaceOnUse">
      <stop stop-color="#B5BDCA"/>
      <stop offset="1" stop-color="#98A2B3"/>
    </linearGradient>
  </defs>
</svg>