<svg xmlns="http://www.w3.org/2000/svg" width="30" height="31" viewBox="0 0 30 31" fill="none">
  <mask id="path-2-inside-1_267_48942" fill="white">
    <path d="M17.8132 5.93487C17.8132 6.18351 17.912 6.42197 18.0878 6.59778C18.2636 6.7736 18.5021 6.87237 18.7507 6.87237C18.9994 6.87237 19.2378 6.7736 19.4137 6.59778C19.5895 6.42197 19.6882 6.18351 19.6882 5.93487V2.50549C19.6882 2.25685 19.5895 2.0184 19.4137 1.84258C19.2378 1.66677 18.9994 1.56799 18.7507 1.56799C18.5021 1.56799 18.2636 1.66677 18.0878 1.84258C17.912 2.0184 17.8132 2.25685 17.8132 2.50549V5.93487ZM26.2507 6.00049C26.4215 5.82368 26.516 5.58686 26.5139 5.34105C26.5117 5.09525 26.4131 4.86011 26.2393 4.68629C26.0655 4.51247 25.8304 4.41387 25.5846 4.41174C25.3387 4.4096 25.1019 4.5041 24.9251 4.67487L22.5007 7.09924C22.4112 7.18572 22.3398 7.28917 22.2906 7.40355C22.2415 7.51793 22.2156 7.64095 22.2146 7.76543C22.2135 7.88991 22.2372 8.01336 22.2843 8.12858C22.3315 8.24379 22.4011 8.34846 22.4891 8.43649C22.5771 8.52451 22.6818 8.59413 22.797 8.64126C22.9122 8.6884 23.0357 8.71212 23.1602 8.71104C23.2847 8.70996 23.4077 8.6841 23.5221 8.63496C23.6364 8.58583 23.7399 8.51441 23.8264 8.42487L26.2507 6.00049ZM13.6751 8.42487C13.7616 8.51441 13.865 8.58583 13.9794 8.63496C14.0938 8.6841 14.2168 8.70996 14.3413 8.71104C14.4658 8.71212 14.5892 8.6884 14.7044 8.64126C14.8197 8.59413 14.9243 8.52451 15.0124 8.43649C15.1004 8.34846 15.17 8.24379 15.2171 8.12858C15.2643 8.01336 15.288 7.88991 15.2869 7.76543C15.2858 7.64095 15.26 7.51793 15.2108 7.40355C15.1617 7.28917 15.0903 7.18572 15.0007 7.09924L12.5764 4.67487C12.3995 4.5041 12.1627 4.4096 11.9169 4.41174C11.6711 4.41387 11.436 4.51247 11.2622 4.68629C11.0883 4.86011 10.9897 5.09525 10.9876 5.34105C10.9855 5.58686 11.08 5.82368 11.2507 6.00049L13.6751 8.42487ZM12.5107 13.1124C12.7594 13.1124 12.9978 13.0136 13.1736 12.8378C13.3495 12.662 13.4482 12.4235 13.4482 12.1749C13.4482 11.9262 13.3495 11.6878 13.1736 11.512C12.9978 11.3361 12.7594 11.2374 12.5107 11.2374H9.08136C8.83272 11.2374 8.59426 11.3361 8.41845 11.512C8.24263 11.6878 8.14386 11.9262 8.14386 12.1749C8.14386 12.4235 8.24263 12.662 8.41845 12.8378C8.59426 13.0136 8.83272 13.1124 9.08136 13.1124H12.5107ZM28.4201 13.1124C28.6688 13.1124 28.9072 13.0136 29.083 12.8378C29.2588 12.662 29.3576 12.4235 29.3576 12.1749C29.3576 11.9262 29.2588 11.6878 29.083 11.512C28.9072 11.3361 28.6688 11.2374 28.4201 11.2374H24.9907C24.7421 11.2374 24.5036 11.3361 24.3278 11.512C24.152 11.6878 24.0532 11.9262 24.0532 12.1749C24.0532 12.4235 24.152 12.662 24.3278 12.8378C24.5036 13.0136 24.7421 13.1124 24.9907 13.1124H28.4201ZM24.9251 19.6749C25.0116 19.7644 25.115 19.8358 25.2294 19.885C25.3438 19.9341 25.4668 19.96 25.5913 19.961C25.7158 19.9621 25.8392 19.9384 25.9544 19.8913C26.0697 19.8441 26.1743 19.7745 26.2624 19.6865C26.3504 19.5985 26.42 19.4938 26.4671 19.3786C26.5143 19.2634 26.538 19.1399 26.5369 19.0154C26.5358 18.8909 26.51 18.7679 26.4608 18.6535C26.4117 18.5392 26.3403 18.4357 26.2507 18.3492L23.8264 15.9249C23.7399 15.8353 23.6364 15.7639 23.5221 15.7148C23.4077 15.6656 23.2847 15.6398 23.1602 15.6387C23.0357 15.6376 22.9122 15.6613 22.797 15.7085C22.6818 15.7556 22.5771 15.8252 22.4891 15.9132C22.4011 16.0013 22.3315 16.1059 22.2843 16.2212C22.2372 16.3364 22.2135 16.4598 22.2146 16.5843C22.2156 16.7088 22.2415 16.8318 22.2906 16.9462C22.3398 17.0606 22.4112 17.164 22.5007 17.2505L24.9251 19.6749ZM17.8132 21.8442C17.8132 22.0929 17.912 22.3313 18.0878 22.5072C18.2636 22.683 18.5021 22.7817 18.7507 22.7817C18.9994 22.7817 19.2378 22.683 19.4137 22.5072C19.5895 22.3313 19.6882 22.0929 19.6882 21.8442V18.4149C19.6882 18.1662 19.5895 17.9278 19.4137 17.752C19.2378 17.5761 18.9994 17.4774 18.7507 17.4774C18.5021 17.4774 18.2636 17.5761 18.0878 17.752C17.912 17.9278 17.8132 18.1662 17.8132 18.4149V21.8442ZM21.2895 12.2892C21.2895 12.288 21.29 12.2869 21.2908 12.286C21.4652 12.1104 21.563 11.873 21.563 11.6255C21.563 11.3774 21.4647 11.1393 21.2895 10.9636L19.962 9.63612C19.7862 9.46036 19.5478 9.36163 19.2992 9.36163C19.0506 9.36163 18.8122 9.46036 18.6364 9.63612L16.212 12.0624C16.0362 12.2382 15.9375 12.4766 15.9375 12.7252C15.9375 12.9738 16.0362 13.2122 16.212 13.388L17.5395 14.7155C17.7153 14.8912 17.9537 14.99 18.2023 14.99C18.4509 14.99 18.6893 14.8912 18.8651 14.7155L21.2882 12.2924C21.289 12.2916 21.2895 12.2904 21.2895 12.2892ZM15.6645 17.9124C15.8397 17.7366 15.938 17.4986 15.938 17.2505C15.938 17.0024 15.8397 16.7643 15.6645 16.5886L14.337 15.2611C14.1612 15.0854 13.9228 14.9866 13.6742 14.9866C13.4256 14.9866 13.1872 15.0854 13.0114 15.2611L1.21199 27.0624C1.03623 27.2382 0.9375 27.4766 0.9375 27.7252C0.9375 27.9738 1.03623 28.2122 1.21199 28.388L2.53949 29.7155C2.71529 29.8912 2.95371 29.99 3.2023 29.99C3.45089 29.99 3.68931 29.8912 3.86511 29.7155L15.6645 17.9124Z"/>
  </mask>
  <path d="M17.8132 5.93487C17.8132 6.18351 17.912 6.42197 18.0878 6.59778C18.2636 6.7736 18.5021 6.87237 18.7507 6.87237C18.9994 6.87237 19.2378 6.7736 19.4137 6.59778C19.5895 6.42197 19.6882 6.18351 19.6882 5.93487V2.50549C19.6882 2.25685 19.5895 2.0184 19.4137 1.84258C19.2378 1.66677 18.9994 1.56799 18.7507 1.56799C18.5021 1.56799 18.2636 1.66677 18.0878 1.84258C17.912 2.0184 17.8132 2.25685 17.8132 2.50549V5.93487ZM26.2507 6.00049C26.4215 5.82368 26.516 5.58686 26.5139 5.34105C26.5117 5.09525 26.4131 4.86011 26.2393 4.68629C26.0655 4.51247 25.8304 4.41387 25.5846 4.41174C25.3387 4.4096 25.1019 4.5041 24.9251 4.67487L22.5007 7.09924C22.4112 7.18572 22.3398 7.28917 22.2906 7.40355C22.2415 7.51793 22.2156 7.64095 22.2146 7.76543C22.2135 7.88991 22.2372 8.01336 22.2843 8.12858C22.3315 8.24379 22.4011 8.34846 22.4891 8.43649C22.5771 8.52451 22.6818 8.59413 22.797 8.64126C22.9122 8.6884 23.0357 8.71212 23.1602 8.71104C23.2847 8.70996 23.4077 8.6841 23.5221 8.63496C23.6364 8.58583 23.7399 8.51441 23.8264 8.42487L26.2507 6.00049ZM13.6751 8.42487C13.7616 8.51441 13.865 8.58583 13.9794 8.63496C14.0938 8.6841 14.2168 8.70996 14.3413 8.71104C14.4658 8.71212 14.5892 8.6884 14.7044 8.64126C14.8197 8.59413 14.9243 8.52451 15.0124 8.43649C15.1004 8.34846 15.17 8.24379 15.2171 8.12858C15.2643 8.01336 15.288 7.88991 15.2869 7.76543C15.2858 7.64095 15.26 7.51793 15.2108 7.40355C15.1617 7.28917 15.0903 7.18572 15.0007 7.09924L12.5764 4.67487C12.3995 4.5041 12.1627 4.4096 11.9169 4.41174C11.6711 4.41387 11.436 4.51247 11.2622 4.68629C11.0883 4.86011 10.9897 5.09525 10.9876 5.34105C10.9855 5.58686 11.08 5.82368 11.2507 6.00049L13.6751 8.42487ZM12.5107 13.1124C12.7594 13.1124 12.9978 13.0136 13.1736 12.8378C13.3495 12.662 13.4482 12.4235 13.4482 12.1749C13.4482 11.9262 13.3495 11.6878 13.1736 11.512C12.9978 11.3361 12.7594 11.2374 12.5107 11.2374H9.08136C8.83272 11.2374 8.59426 11.3361 8.41845 11.512C8.24263 11.6878 8.14386 11.9262 8.14386 12.1749C8.14386 12.4235 8.24263 12.662 8.41845 12.8378C8.59426 13.0136 8.83272 13.1124 9.08136 13.1124H12.5107ZM28.4201 13.1124C28.6688 13.1124 28.9072 13.0136 29.083 12.8378C29.2588 12.662 29.3576 12.4235 29.3576 12.1749C29.3576 11.9262 29.2588 11.6878 29.083 11.512C28.9072 11.3361 28.6688 11.2374 28.4201 11.2374H24.9907C24.7421 11.2374 24.5036 11.3361 24.3278 11.512C24.152 11.6878 24.0532 11.9262 24.0532 12.1749C24.0532 12.4235 24.152 12.662 24.3278 12.8378C24.5036 13.0136 24.7421 13.1124 24.9907 13.1124H28.4201ZM24.9251 19.6749C25.0116 19.7644 25.115 19.8358 25.2294 19.885C25.3438 19.9341 25.4668 19.96 25.5913 19.961C25.7158 19.9621 25.8392 19.9384 25.9544 19.8913C26.0697 19.8441 26.1743 19.7745 26.2624 19.6865C26.3504 19.5985 26.42 19.4938 26.4671 19.3786C26.5143 19.2634 26.538 19.1399 26.5369 19.0154C26.5358 18.8909 26.51 18.7679 26.4608 18.6535C26.4117 18.5392 26.3403 18.4357 26.2507 18.3492L23.8264 15.9249C23.7399 15.8353 23.6364 15.7639 23.5221 15.7148C23.4077 15.6656 23.2847 15.6398 23.1602 15.6387C23.0357 15.6376 22.9122 15.6613 22.797 15.7085C22.6818 15.7556 22.5771 15.8252 22.4891 15.9132C22.4011 16.0013 22.3315 16.1059 22.2843 16.2212C22.2372 16.3364 22.2135 16.4598 22.2146 16.5843C22.2156 16.7088 22.2415 16.8318 22.2906 16.9462C22.3398 17.0606 22.4112 17.164 22.5007 17.2505L24.9251 19.6749ZM17.8132 21.8442C17.8132 22.0929 17.912 22.3313 18.0878 22.5072C18.2636 22.683 18.5021 22.7817 18.7507 22.7817C18.9994 22.7817 19.2378 22.683 19.4137 22.5072C19.5895 22.3313 19.6882 22.0929 19.6882 21.8442V18.4149C19.6882 18.1662 19.5895 17.9278 19.4137 17.752C19.2378 17.5761 18.9994 17.4774 18.7507 17.4774C18.5021 17.4774 18.2636 17.5761 18.0878 17.752C17.912 17.9278 17.8132 18.1662 17.8132 18.4149V21.8442ZM21.2895 12.2892C21.2895 12.288 21.29 12.2869 21.2908 12.286C21.4652 12.1104 21.563 11.873 21.563 11.6255C21.563 11.3774 21.4647 11.1393 21.2895 10.9636L19.962 9.63612C19.7862 9.46036 19.5478 9.36163 19.2992 9.36163C19.0506 9.36163 18.8122 9.46036 18.6364 9.63612L16.212 12.0624C16.0362 12.2382 15.9375 12.4766 15.9375 12.7252C15.9375 12.9738 16.0362 13.2122 16.212 13.388L17.5395 14.7155C17.7153 14.8912 17.9537 14.99 18.2023 14.99C18.4509 14.99 18.6893 14.8912 18.8651 14.7155L21.2882 12.2924C21.289 12.2916 21.2895 12.2904 21.2895 12.2892ZM15.6645 17.9124C15.8397 17.7366 15.938 17.4986 15.938 17.2505C15.938 17.0024 15.8397 16.7643 15.6645 16.5886L14.337 15.2611C14.1612 15.0854 13.9228 14.9866 13.6742 14.9866C13.4256 14.9866 13.1872 15.0854 13.0114 15.2611L1.21199 27.0624C1.03623 27.2382 0.9375 27.4766 0.9375 27.7252C0.9375 27.9738 1.03623 28.2122 1.21199 28.388L2.53949 29.7155C2.71529 29.8912 2.95371 29.99 3.2023 29.99C3.45089 29.99 3.68931 29.8912 3.86511 29.7155L15.6645 17.9124Z" fill="url(#paint0_linear_267_48942)" stroke="url(#paint1_linear_267_48942)" stroke-width="4" mask="url(#path-2-inside-1_267_48942)"/>
  <defs>
    <linearGradient id="paint0_linear_267_48942" x1="15.1476" y1="1.56799" x2="15.1476" y2="29.99" gradientUnits="userSpaceOnUse">
      <stop stop-color="#997FFF"/>
      <stop offset="1" stop-color="#6A3EED"/>
    </linearGradient>
    <linearGradient id="paint1_linear_267_48942" x1="15.1476" y1="1.56799" x2="15.1476" y2="29.99" gradientUnits="userSpaceOnUse">
      <stop stop-color="#6D42EE" stop-opacity="0"/>
      <stop offset="1" stop-color="#957AFE"/>
    </linearGradient>
  </defs>
</svg>