<svg width="30" height="30" viewBox="0 0 30 30" fill="none" xmlns="http://www.w3.org/2000/svg">
<path d="M4.5175 7.81999L14.5175 11.9862C14.6698 12.0506 14.8334 12.0838 14.9988 12.0838C15.1641 12.0838 15.3277 12.0506 15.48 11.9862L25.48 7.81999C25.7074 7.72486 25.9015 7.56463 26.0381 7.35946C26.1746 7.15429 26.2475 6.91333 26.2475 6.66686C26.2475 6.4204 26.1746 6.17944 26.0381 5.97427C25.9015 5.7691 25.7074 5.60887 25.48 5.51374L15.48 1.34624C15.1718 1.21873 14.8257 1.21873 14.5175 1.34624L4.5175 5.51374C4.29014 5.60887 4.09598 5.7691 3.95942 5.97427C3.82286 6.17944 3.75 6.4204 3.75 6.66686C3.75 6.91333 3.82286 7.15429 3.95942 7.35946C4.09598 7.56463 4.29014 7.72486 4.5175 7.81999ZM14.9988 3.85374L21.7488 6.66624L14.9988 9.47874L8.24875 6.66624L14.9988 3.85374Z" fill="white"/>
<path d="M4.5175 7.81999L14.5175 11.9862C14.6698 12.0506 14.8334 12.0838 14.9988 12.0838C15.1641 12.0838 15.3277 12.0506 15.48 11.9862L25.48 7.81999C25.7074 7.72486 25.9015 7.56463 26.0381 7.35946C26.1746 7.15429 26.2475 6.91333 26.2475 6.66686C26.2475 6.4204 26.1746 6.17944 26.0381 5.97427C25.9015 5.7691 25.7074 5.60887 25.48 5.51374L15.48 1.34624C15.1718 1.21873 14.8257 1.21873 14.5175 1.34624L4.5175 5.51374C4.29014 5.60887 4.09598 5.7691 3.95942 5.97427C3.82286 6.17944 3.75 6.4204 3.75 6.66686C3.75 6.91333 3.82286 7.15429 3.95942 7.35946C4.09598 7.56463 4.29014 7.72486 4.5175 7.81999ZM14.9988 3.85374L21.7488 6.66624L14.9988 9.47874L8.24875 6.66624L14.9988 3.85374Z" fill="url(#paint0_linear_267_48237)"/>
<path d="M26.1538 11.7413C26.0907 11.5898 25.9982 11.4522 25.8819 11.3364C25.7655 11.2206 25.6275 11.1288 25.4756 11.0664C25.3238 11.0039 25.1612 10.972 24.997 10.9724C24.8328 10.9728 24.6704 11.0056 24.5188 11.0688L15.0001 15.035L5.48135 11.0688C5.17535 10.9412 4.83119 10.9403 4.52457 11.0664C4.21794 11.1925 3.97398 11.4353 3.84635 11.7413C3.71871 12.0473 3.71786 12.3914 3.84398 12.6981C3.97009 13.0047 4.21285 13.2487 4.51885 13.3763L14.5188 17.5425C14.6713 17.6061 14.8349 17.6389 15.0001 17.6389C15.1653 17.6389 15.3289 17.6061 15.4813 17.5425L25.4813 13.3763C25.6329 13.3131 25.7705 13.2207 25.8863 13.1043C26.0021 12.9879 26.0938 12.8499 26.1563 12.6981C26.2187 12.5463 26.2506 12.3836 26.2502 12.2194C26.2498 12.0553 26.2171 11.8928 26.1538 11.7413Z" fill="white"/>
<path d="M26.1538 11.7413C26.0907 11.5898 25.9982 11.4522 25.8819 11.3364C25.7655 11.2206 25.6275 11.1288 25.4756 11.0664C25.3238 11.0039 25.1612 10.972 24.997 10.9724C24.8328 10.9728 24.6704 11.0056 24.5188 11.0688L15.0001 15.035L5.48135 11.0688C5.17535 10.9412 4.83119 10.9403 4.52457 11.0664C4.21794 11.1925 3.97398 11.4353 3.84635 11.7413C3.71871 12.0473 3.71786 12.3914 3.84398 12.6981C3.97009 13.0047 4.21285 13.2487 4.51885 13.3763L14.5188 17.5425C14.6713 17.6061 14.8349 17.6389 15.0001 17.6389C15.1653 17.6389 15.3289 17.6061 15.4813 17.5425L25.4813 13.3763C25.6329 13.3131 25.7705 13.2207 25.8863 13.1043C26.0021 12.9879 26.0938 12.8499 26.1563 12.6981C26.2187 12.5463 26.2506 12.3836 26.2502 12.2194C26.2498 12.0553 26.2171 11.8928 26.1538 11.7413Z" fill="url(#paint1_linear_267_48237)"/>
<path d="M24.5188 16.625L15.0001 20.59L5.48135 16.625C5.17535 16.4974 4.83119 16.4965 4.52457 16.6227C4.21794 16.7488 3.97398 16.9915 3.84635 17.2975C3.71871 17.6035 3.71786 17.9477 3.84398 18.2543C3.97009 18.5609 4.21285 18.8049 4.51885 18.9325L14.5188 23.1C14.6713 23.1636 14.8349 23.1964 15.0001 23.1964C15.1653 23.1964 15.3289 23.1636 15.4813 23.1L25.4813 18.9325C25.7873 18.8049 26.0301 18.5609 26.1562 18.2543C26.2823 17.9477 26.2815 17.6035 26.1538 17.2975C26.0262 16.9915 25.7822 16.7488 25.4756 16.6227C25.169 16.4965 24.8248 16.4974 24.5188 16.625Z" fill="white"/>
<path d="M24.5188 16.625L15.0001 20.59L5.48135 16.625C5.17535 16.4974 4.83119 16.4965 4.52457 16.6227C4.21794 16.7488 3.97398 16.9915 3.84635 17.2975C3.71871 17.6035 3.71786 17.9477 3.84398 18.2543C3.97009 18.5609 4.21285 18.8049 4.51885 18.9325L14.5188 23.1C14.6713 23.1636 14.8349 23.1964 15.0001 23.1964C15.1653 23.1964 15.3289 23.1636 15.4813 23.1L25.4813 18.9325C25.7873 18.8049 26.0301 18.5609 26.1562 18.2543C26.2823 17.9477 26.2815 17.6035 26.1538 17.2975C26.0262 16.9915 25.7822 16.7488 25.4756 16.6227C25.169 16.4965 24.8248 16.4974 24.5188 16.625Z" fill="url(#paint2_linear_267_48237)"/>
<path d="M4.51948 24.4863L14.5195 28.6538C14.672 28.7174 14.8355 28.7502 15.0007 28.7502C15.1659 28.7502 15.3295 28.7174 15.482 28.6538L25.482 24.4863C25.6379 24.4263 25.7802 24.3356 25.9004 24.2196C26.0207 24.1036 26.1165 23.9647 26.1821 23.8111C26.2478 23.6575 26.282 23.4922 26.2827 23.3252C26.2834 23.1581 26.2506 22.9926 26.1863 22.8384C26.1219 22.6842 26.0273 22.5445 25.9081 22.4275C25.7888 22.3105 25.6473 22.2186 25.4919 22.1572C25.3365 22.0958 25.1704 22.0662 25.0034 22.0702C24.8364 22.0741 24.6718 22.1114 24.5195 22.18L15.0007 26.1463L5.48198 22.18C5.32965 22.1114 5.1651 22.0741 4.99808 22.0702C4.83106 22.0662 4.66494 22.0958 4.50955 22.1572C4.35417 22.2186 4.21266 22.3105 4.09339 22.4275C3.97413 22.5445 3.87953 22.6842 3.81518 22.8384C3.75083 22.9926 3.71805 23.1581 3.71876 23.3252C3.71947 23.4922 3.75367 23.6575 3.81933 23.8111C3.88499 23.9647 3.98078 24.1036 4.10103 24.2196C4.22129 24.3356 4.36358 24.4263 4.51948 24.4863Z" fill="white"/>
<path d="M4.51948 24.4863L14.5195 28.6538C14.672 28.7174 14.8355 28.7502 15.0007 28.7502C15.1659 28.7502 15.3295 28.7174 15.482 28.6538L25.482 24.4863C25.6379 24.4263 25.7802 24.3356 25.9004 24.2196C26.0207 24.1036 26.1165 23.9647 26.1821 23.8111C26.2478 23.6575 26.282 23.4922 26.2827 23.3252C26.2834 23.1581 26.2506 22.9926 26.1863 22.8384C26.1219 22.6842 26.0273 22.5445 25.9081 22.4275C25.7888 22.3105 25.6473 22.2186 25.4919 22.1572C25.3365 22.0958 25.1704 22.0662 25.0034 22.0702C24.8364 22.0741 24.6718 22.1114 24.5195 22.18L15.0007 26.1463L5.48198 22.18C5.32965 22.1114 5.1651 22.0741 4.99808 22.0702C4.83106 22.0662 4.66494 22.0958 4.50955 22.1572C4.35417 22.2186 4.21266 22.3105 4.09339 22.4275C3.97413 22.5445 3.87953 22.6842 3.81518 22.8384C3.75083 22.9926 3.71805 23.1581 3.71876 23.3252C3.71947 23.4922 3.75367 23.6575 3.81933 23.8111C3.88499 23.9647 3.98078 24.1036 4.10103 24.2196C4.22129 24.3356 4.36358 24.4263 4.51948 24.4863Z" fill="url(#paint3_linear_267_48237)"/>
<defs>
<linearGradient id="paint0_linear_267_48237" x1="14.9988" y1="1.25061" x2="14.9988" y2="12.0838" gradientUnits="userSpaceOnUse">
<stop stop-color="#63A5E3"/>
<stop offset="1" stop-color="#3778B5"/>
</linearGradient>
<linearGradient id="paint1_linear_267_48237" x1="15.0001" y1="10.9724" x2="15.0001" y2="17.6389" gradientUnits="userSpaceOnUse">
<stop stop-color="#63A5E3"/>
<stop offset="1" stop-color="#3778B5"/>
</linearGradient>
<linearGradient id="paint2_linear_267_48237" x1="15.0001" y1="16.5287" x2="15.0001" y2="23.1964" gradientUnits="userSpaceOnUse">
<stop stop-color="#63A5E3"/>
<stop offset="1" stop-color="#3778B5"/>
</linearGradient>
<linearGradient id="paint3_linear_267_48237" x1="15.0007" y1="22.0698" x2="15.0007" y2="28.7502" gradientUnits="userSpaceOnUse">
<stop stop-color="#63A5E3"/>
<stop offset="1" stop-color="#3778B5"/>
</linearGradient>
</defs>
</svg>
