<svg xmlns="http://www.w3.org/2000/svg" width="60" height="60" viewBox="0 0 60 60" fill="none">
  <path d="M41.0712 24.2078H33.0547V32.3114H41.0712V24.2078Z" fill="url(#paint0_linear_267_48210)"/>
  <path d="M25.0406 35.3474C25.0406 35.949 24.8642 36.5371 24.5335 37.0373C24.2029 37.5375 23.7329 37.9274 23.1831 38.1576C22.6333 38.3878 22.0283 38.4481 21.4446 38.3307C20.8609 38.2133 20.3247 37.9236 19.9039 37.4983C19.4831 37.0729 19.1965 36.5309 19.0804 35.9408C18.9643 35.3508 19.0239 34.7392 19.2516 34.1834C19.4794 33.6276 19.865 33.1525 20.3599 32.8183C20.8547 32.4841 21.4365 32.3057 22.0316 32.3057H25.0406V24.2078H22.0316C19.8521 24.2078 17.7215 24.8611 15.9093 26.0851C14.0971 27.3092 12.6846 29.049 11.8506 31.0845C11.0165 33.12 10.7983 35.3598 11.2235 37.5207C11.6487 39.6815 12.6982 41.6664 14.2394 43.2243C15.7805 44.7823 17.7441 45.8432 19.8817 46.273C22.0194 46.7029 24.2351 46.4822 26.2487 45.6391C28.2623 44.796 29.9834 43.3682 31.1943 41.5363C32.4052 39.7044 33.0515 37.5506 33.0515 35.3474V32.3057H25.0406V35.3474Z" fill="url(#paint1_linear_267_48210)"/>
  <path d="M36.0628 20.1558H45.0786V12.0521H36.0628C33.1411 12.0552 30.3399 13.2298 28.2739 15.3182C26.208 17.4066 25.046 20.2383 25.043 23.1918V24.2076H33.0538V23.1918C33.0553 22.3861 33.373 21.6138 33.9371 21.0447C34.5013 20.4755 35.2658 20.1558 36.0628 20.1558Z" fill="url(#paint2_linear_267_48210)"/>
  <defs>
    <linearGradient id="paint0_linear_267_48210" x1="37.0629" y1="24.2078" x2="37.0629" y2="32.3114" gradientUnits="userSpaceOnUse">
      <stop stop-color="#70D88F"/>
      <stop offset="1" stop-color="#64C194"/>
    </linearGradient>
    <linearGradient id="paint1_linear_267_48210" x1="22.0316" y1="24.2078" x2="22.0316" y2="46.4871" gradientUnits="userSpaceOnUse">
      <stop stop-color="#70D88F"/>
      <stop offset="1" stop-color="#64C194"/>
    </linearGradient>
    <linearGradient id="paint2_linear_267_48210" x1="35.0608" y1="12.0521" x2="35.0608" y2="24.2076" gradientUnits="userSpaceOnUse">
      <stop stop-color="#70D88F"/>
      <stop offset="1" stop-color="#64C194"/>
    </linearGradient>
  </defs>
</svg>