<svg width="48" height="48" viewBox="0 0 48 48" fill="none" xmlns="http://www.w3.org/2000/svg">
<ellipse cx="23.803" cy="24" rx="23.803" ry="24" fill="url(#paint0_linear_220_38202)"/>
<rect x="27.5303" y="20.2416" width="6.72195" height="6.7776" fill="#484848"/>
<rect x="27.5303" y="20.2416" width="6.72195" height="6.7776" fill="url(#paint1_angular_220_38202)"/>
<path d="M20.8085 29.5584C20.8104 30.5882 20.1964 31.5176 19.2531 31.9126C18.3099 32.3076 17.2235 32.0903 16.5013 31.3621C15.7791 30.6339 15.5635 29.5385 15.9552 28.5874C16.347 27.6364 17.2688 27.0172 18.2901 27.0192H20.8085V20.2416H18.2901C14.55 20.2396 11.1771 22.5101 9.74496 25.9937C8.31278 29.4774 9.10344 33.488 11.7481 36.1545C14.3928 38.8211 18.3704 39.6183 21.8255 38.1743C25.2806 36.7303 27.5324 33.3295 27.5304 29.5584V27.0192H20.8085V29.5584Z" fill="#484848"/>
<path d="M20.8085 29.5584C20.8104 30.5882 20.1964 31.5176 19.2531 31.9126C18.3099 32.3076 17.2235 32.0903 16.5013 31.3621C15.7791 30.6339 15.5635 29.5385 15.9552 28.5874C16.347 27.6364 17.2688 27.0172 18.2901 27.0192H20.8085V20.2416H18.2901C14.55 20.2396 11.1771 22.5101 9.74496 25.9937C8.31278 29.4774 9.10344 33.488 11.7481 36.1545C14.3928 38.8211 18.3704 39.6183 21.8255 38.1743C25.2806 36.7303 27.5324 33.3295 27.5304 29.5584V27.0192H20.8085V29.5584Z" fill="url(#paint2_angular_220_38202)"/>
<path d="M30.0489 16.8528H37.6087V10.08H30.0489C24.9478 10.0853 20.8138 14.2535 20.8086 19.3968V20.2416H27.5305V19.3968C27.5332 17.9948 28.6584 16.8581 30.0489 16.8528Z" fill="#484848"/>
<path d="M30.0489 16.8528H37.6087V10.08H30.0489C24.9478 10.0853 20.8138 14.2535 20.8086 19.3968V20.2416H27.5305V19.3968C27.5332 17.9948 28.6584 16.8581 30.0489 16.8528Z" fill="url(#paint3_angular_220_38202)"/>
<defs>
<linearGradient id="paint0_linear_220_38202" x1="-4" y1="-3" x2="14.8807" y2="55.66" gradientUnits="userSpaceOnUse">
<stop stop-color="#484848" stop-opacity="0.4"/>
<stop offset="1" stop-color="#484848" stop-opacity="0.05"/>
</linearGradient>
<radialGradient id="paint1_angular_220_38202" cx="0" cy="0" r="1" gradientUnits="userSpaceOnUse" gradientTransform="translate(30.8912 23.6304) rotate(-134.764) scale(2.98303 2.98293)">
<stop stop-color="#484848" stop-opacity="0.9"/>
<stop offset="1" stop-color="#484848" stop-opacity="0"/>
</radialGradient>
<radialGradient id="paint2_angular_220_38202" cx="0" cy="0" r="1" gradientUnits="userSpaceOnUse" gradientTransform="translate(18.2852 29.5633) rotate(-134.764) scale(8.20557 8.2053)">
<stop stop-color="#484848" stop-opacity="0.9"/>
<stop offset="1" stop-color="#484848" stop-opacity="0"/>
</radialGradient>
<radialGradient id="paint3_angular_220_38202" cx="0" cy="0" r="1" gradientUnits="userSpaceOnUse" gradientTransform="translate(29.2087 15.1608) rotate(-148.832) scale(6.13569 5.43427)">
<stop stop-color="#484848" stop-opacity="0.9"/>
<stop offset="1" stop-color="#484848" stop-opacity="0"/>
</radialGradient>
</defs>
</svg>
