<svg width="127" height="30" viewBox="0 0 127 30" fill="none" xmlns="http://www.w3.org/2000/svg">
<rect width="127" height="30" rx="15" fill="#101828"/>
<path d="M16 22.12H32V6.12L16 6.12V22.12ZM43.9091 14.2273L42.7045 14.5682C42.6288 14.3674 42.517 14.1723 42.3693 13.983C42.2254 13.7898 42.0284 13.6307 41.7784 13.5057C41.5284 13.3807 41.2083 13.3182 40.8182 13.3182C40.2841 13.3182 39.839 13.4413 39.483 13.6875C39.1307 13.9299 38.9545 14.2386 38.9545 14.6136C38.9545 14.947 39.0758 15.2102 39.3182 15.4034C39.5606 15.5966 39.9394 15.7576 40.4545 15.8864L41.75 16.2045C42.5303 16.3939 43.1117 16.6837 43.4943 17.0739C43.8769 17.4602 44.0682 17.9583 44.0682 18.5682C44.0682 19.0682 43.9242 19.5152 43.6364 19.9091C43.3523 20.303 42.9545 20.6136 42.4432 20.8409C41.9318 21.0682 41.3371 21.1818 40.6591 21.1818C39.7689 21.1818 39.0322 20.9886 38.4489 20.6023C37.8655 20.2159 37.4962 19.6515 37.3409 18.9091L38.6136 18.5909C38.7348 19.0606 38.964 19.4129 39.3011 19.6477C39.642 19.8826 40.0871 20 40.6364 20C41.2614 20 41.7576 19.8674 42.125 19.6023C42.4962 19.3333 42.6818 19.0114 42.6818 18.6364C42.6818 18.3333 42.5758 18.0795 42.3636 17.875C42.1515 17.6667 41.8258 17.5114 41.3864 17.4091L39.9318 17.0682C39.1326 16.8788 38.5455 16.5852 38.1705 16.1875C37.7992 15.786 37.6136 15.2841 37.6136 14.6818C37.6136 14.1894 37.7519 13.7538 38.0284 13.375C38.3087 12.9962 38.6894 12.6989 39.1705 12.483C39.6553 12.267 40.2045 12.1591 40.8182 12.1591C41.6818 12.1591 42.3598 12.3485 42.8523 12.7273C43.3485 13.1061 43.7008 13.6061 43.9091 14.2273ZM49.8821 12.2727V13.4091H45.3594V12.2727H49.8821ZM46.6776 10.1818H48.0185V18.5C48.0185 18.8788 48.0734 19.1629 48.1832 19.3523C48.2969 19.5379 48.4408 19.6629 48.6151 19.7273C48.7931 19.7879 48.9806 19.8182 49.1776 19.8182C49.3253 19.8182 49.4465 19.8106 49.5412 19.7955C49.6359 19.7765 49.7116 19.7614 49.7685 19.75L50.0412 20.9545C49.9503 20.9886 49.8234 21.0227 49.6605 21.0568C49.4976 21.0947 49.2912 21.1136 49.0412 21.1136C48.6624 21.1136 48.2912 21.0322 47.9276 20.8693C47.5677 20.7064 47.2685 20.4583 47.0298 20.125C46.795 19.7917 46.6776 19.3712 46.6776 18.8636V10.1818ZM54.4673 21.2045C53.9143 21.2045 53.4124 21.1004 52.9616 20.892C52.5109 20.6799 52.1529 20.375 51.8878 19.9773C51.6226 19.5758 51.4901 19.0909 51.4901 18.5227C51.4901 18.0227 51.5885 17.6174 51.7855 17.3068C51.9825 16.9924 52.2457 16.7462 52.5753 16.5682C52.9048 16.3902 53.2685 16.2576 53.6662 16.1705C54.0677 16.0795 54.4711 16.0076 54.8764 15.9545C55.4067 15.8864 55.8366 15.8352 56.1662 15.8011C56.4995 15.7633 56.742 15.7008 56.8935 15.6136C57.0488 15.5265 57.1264 15.375 57.1264 15.1591V15.1136C57.1264 14.553 56.973 14.1174 56.6662 13.8068C56.3632 13.4962 55.9029 13.3409 55.2855 13.3409C54.6454 13.3409 54.1435 13.4811 53.7798 13.7614C53.4162 14.0417 53.1605 14.3409 53.0128 14.6591L51.7401 14.2045C51.9673 13.6742 52.2704 13.2614 52.6491 12.9659C53.0317 12.6667 53.4484 12.4583 53.8991 12.3409C54.3537 12.2197 54.8007 12.1591 55.2401 12.1591C55.5204 12.1591 55.8423 12.1932 56.206 12.2614C56.5734 12.3258 56.9276 12.4602 57.2685 12.6648C57.6132 12.8693 57.8991 13.178 58.1264 13.5909C58.3537 14.0038 58.4673 14.5568 58.4673 15.25V21H57.1264V19.8182H57.0582C56.9673 20.0076 56.8158 20.2102 56.6037 20.4261C56.3916 20.642 56.1094 20.8258 55.7571 20.9773C55.4048 21.1288 54.9749 21.2045 54.4673 21.2045ZM54.6719 20C55.2022 20 55.6491 19.8958 56.0128 19.6875C56.3802 19.4792 56.6567 19.2102 56.8423 18.8807C57.0317 18.5511 57.1264 18.2045 57.1264 17.8409V16.6136C57.0696 16.6818 56.9446 16.7443 56.7514 16.8011C56.562 16.8542 56.3423 16.9015 56.0923 16.9432C55.8461 16.9811 55.6056 17.0152 55.3707 17.0455C55.1397 17.072 54.9522 17.0947 54.8082 17.1136C54.4598 17.1591 54.134 17.233 53.831 17.3352C53.5317 17.4337 53.2893 17.5833 53.1037 17.7841C52.9219 17.9811 52.831 18.25 52.831 18.5909C52.831 19.0568 53.0033 19.4091 53.348 19.6477C53.6965 19.8826 54.1378 20 54.6719 20ZM60.9148 21V12.2727H62.2102V13.5909H62.3011C62.4602 13.1591 62.7481 12.8087 63.1648 12.5398C63.5814 12.2708 64.0511 12.1364 64.5739 12.1364C64.6723 12.1364 64.7955 12.1383 64.9432 12.142C65.0909 12.1458 65.2027 12.1515 65.2784 12.1591V13.5227C65.233 13.5114 65.1288 13.4943 64.9659 13.4716C64.8068 13.4451 64.6383 13.4318 64.4602 13.4318C64.036 13.4318 63.6572 13.5208 63.3239 13.6989C62.9943 13.8731 62.733 14.1155 62.5398 14.4261C62.3504 14.733 62.2557 15.0833 62.2557 15.4773V21H60.9148ZM71.2102 12.2727V13.4091H66.6875V12.2727H71.2102ZM68.0057 10.1818H69.3466V18.5C69.3466 18.8788 69.4015 19.1629 69.5114 19.3523C69.625 19.5379 69.7689 19.6629 69.9432 19.7273C70.1212 19.7879 70.3087 19.8182 70.5057 19.8182C70.6534 19.8182 70.7746 19.8106 70.8693 19.7955C70.964 19.7765 71.0398 19.7614 71.0966 19.75L71.3693 20.9545C71.2784 20.9886 71.1515 21.0227 70.9886 21.0568C70.8258 21.0947 70.6193 21.1136 70.3693 21.1136C69.9905 21.1136 69.6193 21.0322 69.2557 20.8693C68.8958 20.7064 68.5966 20.4583 68.358 20.125C68.1231 19.7917 68.0057 19.3712 68.0057 18.8636V10.1818ZM79.0682 15.75V21H77.7273V9.36364H79.0682V13.6364H79.1818C79.3864 13.1856 79.6932 12.8277 80.1023 12.5625C80.5152 12.2936 81.0644 12.1591 81.75 12.1591C82.3447 12.1591 82.8655 12.2784 83.3125 12.517C83.7595 12.7519 84.1061 13.1136 84.3523 13.6023C84.6023 14.0871 84.7273 14.7045 84.7273 15.4545V21H83.3864V15.5455C83.3864 14.8523 83.2064 14.3163 82.8466 13.9375C82.4905 13.5549 81.9962 13.3636 81.3636 13.3636C80.9242 13.3636 80.5303 13.4564 80.1818 13.642C79.8371 13.8277 79.5644 14.0985 79.3636 14.4545C79.1667 14.8106 79.0682 15.2424 79.0682 15.75ZM90.8395 21.1818C89.9986 21.1818 89.2732 20.9962 88.6634 20.625C88.0573 20.25 87.5895 19.7273 87.2599 19.0568C86.9342 18.3826 86.7713 17.5985 86.7713 16.7045C86.7713 15.8106 86.9342 15.0227 87.2599 14.3409C87.5895 13.6553 88.0478 13.1212 88.6349 12.7386C89.2259 12.3523 89.9152 12.1591 90.7031 12.1591C91.1577 12.1591 91.6065 12.2348 92.0497 12.3864C92.4929 12.5379 92.8963 12.7841 93.2599 13.125C93.6236 13.4621 93.9134 13.9091 94.1293 14.4659C94.3452 15.0227 94.4531 15.7083 94.4531 16.5227V17.0909H87.7259V15.9318H93.0895C93.0895 15.4394 92.991 15 92.794 14.6136C92.6009 14.2273 92.3243 13.9223 91.9645 13.6989C91.6084 13.4754 91.188 13.3636 90.7031 13.3636C90.169 13.3636 89.7069 13.4962 89.3168 13.7614C88.9304 14.0227 88.633 14.3636 88.4247 14.7841C88.2164 15.2045 88.1122 15.6553 88.1122 16.1364V16.9091C88.1122 17.5682 88.2259 18.1269 88.4531 18.5852C88.6842 19.0398 89.0043 19.3864 89.4134 19.625C89.8224 19.8598 90.2978 19.9773 90.8395 19.9773C91.1918 19.9773 91.5099 19.928 91.794 19.8295C92.0819 19.7273 92.33 19.5758 92.5384 19.375C92.7467 19.1705 92.9077 18.9167 93.0213 18.6136L94.3168 18.9773C94.1804 19.4167 93.9512 19.803 93.6293 20.1364C93.3073 20.4659 92.9096 20.7235 92.4361 20.9091C91.9626 21.0909 91.4304 21.1818 90.8395 21.1818ZM96.4929 21V12.2727H97.7884V13.5909H97.8793C98.0384 13.1591 98.3262 12.8087 98.7429 12.5398C99.1596 12.2708 99.6293 12.1364 100.152 12.1364C100.25 12.1364 100.374 12.1383 100.521 12.142C100.669 12.1458 100.781 12.1515 100.857 12.1591V13.5227C100.811 13.5114 100.707 13.4943 100.544 13.4716C100.385 13.4451 100.216 13.4318 100.038 13.4318C99.6141 13.4318 99.2353 13.5208 98.902 13.6989C98.5724 13.8731 98.3111 14.1155 98.1179 14.4261C97.9285 14.733 97.8338 15.0833 97.8338 15.4773V21H96.4929ZM105.839 21.1818C104.999 21.1818 104.273 20.9962 103.663 20.625C103.057 20.25 102.589 19.7273 102.26 19.0568C101.934 18.3826 101.771 17.5985 101.771 16.7045C101.771 15.8106 101.934 15.0227 102.26 14.3409C102.589 13.6553 103.048 13.1212 103.635 12.7386C104.226 12.3523 104.915 12.1591 105.703 12.1591C106.158 12.1591 106.607 12.2348 107.05 12.3864C107.493 12.5379 107.896 12.7841 108.26 13.125C108.624 13.4621 108.913 13.9091 109.129 14.4659C109.345 15.0227 109.453 15.7083 109.453 16.5227V17.0909H102.726V15.9318H108.089C108.089 15.4394 107.991 15 107.794 14.6136C107.601 14.2273 107.324 13.9223 106.964 13.6989C106.608 13.4754 106.188 13.3636 105.703 13.3636C105.169 13.3636 104.707 13.4962 104.317 13.7614C103.93 14.0227 103.633 14.3636 103.425 14.7841C103.216 15.2045 103.112 15.6553 103.112 16.1364V16.9091C103.112 17.5682 103.226 18.1269 103.453 18.5852C103.684 19.0398 104.004 19.3864 104.413 19.625C104.822 19.8598 105.298 19.9773 105.839 19.9773C106.192 19.9773 106.51 19.928 106.794 19.8295C107.082 19.7273 107.33 19.5758 107.538 19.375C107.747 19.1705 107.908 18.9167 108.021 18.6136L109.317 18.9773C109.18 19.4167 108.951 19.803 108.629 20.1364C108.307 20.4659 107.91 20.7235 107.436 20.9091C106.963 21.0909 106.43 21.1818 105.839 21.1818Z" fill="#EAECF0"/>
</svg>
