<svg width="48" height="48" viewBox="0 0 48 48" fill="none" xmlns="http://www.w3.org/2000/svg">
<path d="M4 6H16C18.1217 6 20.1566 6.84285 21.6569 8.34315C23.1571 9.84344 24 11.8783 24 14V42C24 40.4087 23.3679 38.8826 22.2426 37.7574C21.1174 36.6321 19.5913 36 18 36H4V6Z" fill="url(#paint0_linear_272_88437)" stroke="white" stroke-opacity="0.4" stroke-width="3" stroke-linecap="round" stroke-linejoin="round"/>
<path d="M44 6H32C29.8783 6 27.8434 6.84285 26.3431 8.34315C24.8429 9.84344 24 11.8783 24 14V42C24 40.4087 24.6321 38.8826 25.7574 37.7574C26.8826 36.6321 28.4087 36 30 36H44V6Z" fill="url(#paint1_linear_272_88437)" stroke="white" stroke-opacity="0.4" stroke-width="3" stroke-linecap="round" stroke-linejoin="round"/>
<defs>
<linearGradient id="paint0_linear_272_88437" x1="14" y1="6" x2="14" y2="42" gradientUnits="userSpaceOnUse">
<stop stop-color="#D9D9D9"/>
<stop offset="0.770833" stop-color="#D9D9D9" stop-opacity="0"/>
</linearGradient>
<linearGradient id="paint1_linear_272_88437" x1="34" y1="6" x2="34" y2="42" gradientUnits="userSpaceOnUse">
<stop stop-color="#D9D9D9"/>
<stop offset="0.770833" stop-color="#D9D9D9" stop-opacity="0"/>
</linearGradient>
</defs>
</svg>
