<svg width="45" height="46" viewBox="0 0 45 46" fill="none" xmlns="http://www.w3.org/2000/svg">
<rect y="0.5" width="45" height="45" rx="22.5" fill="#A2BDCE"/>
<path d="M31.1514 16.0267C29.5688 14.7467 27.6697 14.1067 25.6651 14L25.3486 14.32C27.1422 14.7467 28.7248 15.6 30.2018 16.7733C28.4083 15.8133 26.4037 15.1733 24.2936 14.96C23.6606 14.8533 23.133 14.8533 22.5 14.8533C21.867 14.8533 21.3394 14.8533 20.7064 14.96C18.5963 15.1733 16.5917 15.8133 14.7982 16.7733C16.2752 15.6 17.8578 14.7467 19.6514 14.32L19.3349 14C17.3303 14.1067 15.4312 14.7467 13.8486 16.0267C12.055 19.44 11.1055 23.28 11 27.2267C12.5826 28.9333 14.7982 30 17.1193 30C17.1193 30 17.8578 29.1467 18.3853 28.4C17.0138 28.08 15.7477 27.3333 14.9037 26.16C15.6422 26.5867 16.3807 27.0133 17.1193 27.3333C18.0688 27.76 19.0183 27.9733 19.9679 28.1867C20.8119 28.2933 21.656 28.4 22.5 28.4C23.344 28.4 24.1881 28.2933 25.0321 28.1867C25.9817 27.9733 26.9312 27.76 27.8807 27.3333C28.6193 27.0133 29.3578 26.5867 30.0963 26.16C29.2523 27.3333 27.9862 28.08 26.6147 28.4C27.1422 29.1467 27.8807 30 27.8807 30C30.2018 30 32.4174 28.9333 34 27.2267C33.8945 23.28 32.945 19.44 31.1514 16.0267ZM19.0183 25.3067C17.9633 25.3067 17.0138 24.3467 17.0138 23.1733C17.0138 22 17.9633 21.04 19.0183 21.04C20.0734 21.04 21.0229 22 21.0229 23.1733C21.0229 24.3467 20.0734 25.3067 19.0183 25.3067ZM25.9817 25.3067C24.9266 25.3067 23.9771 24.3467 23.9771 23.1733C23.9771 22 24.9266 21.04 25.9817 21.04C27.0367 21.04 27.9862 22 27.9862 23.1733C27.9862 24.3467 27.0367 25.3067 25.9817 25.3067Z" fill="white"/>
</svg>
