<svg width="45" height="46" viewBox="0 0 45 46" fill="none" xmlns="http://www.w3.org/2000/svg">
<rect y="0.5" width="45" height="45" rx="22.5" fill="#B6DDCD"/>
<path d="M17.5 24L18.2845 25.5689C18.5499 26.0999 18.6827 26.3654 18.86 26.5954C19.0174 26.7996 19.2004 26.9826 19.4046 27.14C19.6346 27.3173 19.9001 27.4501 20.4311 27.7155L22 28.5L20.4311 29.2845C19.9001 29.5499 19.6346 29.6827 19.4046 29.86C19.2004 30.0174 19.0174 30.2004 18.86 30.4046C18.6827 30.6346 18.5499 30.9001 18.2845 31.4311L17.5 33L16.7155 31.4311C16.4501 30.9001 16.3173 30.6346 16.14 30.4046C15.9826 30.2004 15.7996 30.0174 15.5954 29.86C15.3654 29.6827 15.0999 29.5499 14.5689 29.2845L13 28.5L14.5689 27.7155C15.0999 27.4501 15.3654 27.3173 15.5954 27.14C15.7996 26.9826 15.9826 26.7996 16.14 26.5954C16.3173 26.3654 16.4501 26.0999 16.7155 25.5689L17.5 24Z" fill="white"/>
<path d="M26 13L27.1786 16.0644C27.4606 16.7976 27.6016 17.1643 27.8209 17.4726C28.0153 17.746 28.254 17.9847 28.5274 18.1791C28.8357 18.3984 29.2024 18.5394 29.9356 18.8214L33 20L29.9356 21.1786C29.2024 21.4606 28.8357 21.6016 28.5274 21.8209C28.254 22.0153 28.0153 22.254 27.8209 22.5274C27.6016 22.8357 27.4606 23.2024 27.1786 23.9356L26 27L24.8214 23.9356C24.5394 23.2024 24.3984 22.8357 24.1791 22.5274C23.9847 22.254 23.746 22.0153 23.4726 21.8209C23.1643 21.6016 22.7976 21.4606 22.0644 21.1786L19 20L22.0644 18.8214C22.7976 18.5394 23.1643 18.3984 23.4726 18.1791C23.746 17.9847 23.9847 17.746 24.1791 17.4726C24.3984 17.1643 24.5394 16.7976 24.8214 16.0644L26 13Z" fill="white"/>
<path d="M17.5 24L18.2845 25.5689C18.5499 26.0999 18.6827 26.3654 18.86 26.5954C19.0174 26.7996 19.2004 26.9826 19.4046 27.14C19.6346 27.3173 19.9001 27.4501 20.4311 27.7155L22 28.5L20.4311 29.2845C19.9001 29.5499 19.6346 29.6827 19.4046 29.86C19.2004 30.0174 19.0174 30.2004 18.86 30.4046C18.6827 30.6346 18.5499 30.9001 18.2845 31.4311L17.5 33L16.7155 31.4311C16.4501 30.9001 16.3173 30.6346 16.14 30.4046C15.9826 30.2004 15.7996 30.0174 15.5954 29.86C15.3654 29.6827 15.0999 29.5499 14.5689 29.2845L13 28.5L14.5689 27.7155C15.0999 27.4501 15.3654 27.3173 15.5954 27.14C15.7996 26.9826 15.9826 26.7996 16.14 26.5954C16.3173 26.3654 16.4501 26.0999 16.7155 25.5689L17.5 24Z" stroke="white" stroke-linecap="round" stroke-linejoin="round"/>
<path d="M26 13L27.1786 16.0644C27.4606 16.7976 27.6016 17.1643 27.8209 17.4726C28.0153 17.746 28.254 17.9847 28.5274 18.1791C28.8357 18.3984 29.2024 18.5394 29.9356 18.8214L33 20L29.9356 21.1786C29.2024 21.4606 28.8357 21.6016 28.5274 21.8209C28.254 22.0153 28.0153 22.254 27.8209 22.5274C27.6016 22.8357 27.4606 23.2024 27.1786 23.9356L26 27L24.8214 23.9356C24.5394 23.2024 24.3984 22.8357 24.1791 22.5274C23.9847 22.254 23.746 22.0153 23.4726 21.8209C23.1643 21.6016 22.7976 21.4606 22.0644 21.1786L19 20L22.0644 18.8214C22.7976 18.5394 23.1643 18.3984 23.4726 18.1791C23.746 17.9847 23.9847 17.746 24.1791 17.4726C24.3984 17.1643 24.5394 16.7976 24.8214 16.0644L26 13Z" stroke="white" stroke-linecap="round" stroke-linejoin="round"/>
</svg>
