<svg width="50" height="50" viewBox="0 0 50 50" fill="none" xmlns="http://www.w3.org/2000/svg">
<path fill-rule="evenodd" clip-rule="evenodd" d="M25 48C37.7025 48 48 37.7026 48 25C48 12.2975 37.7025 2.00001 25 2C12.2975 2 2 12.2975 2 25C1.99999 37.7025 12.2974 48 25 48ZM25 8.00001C15.6112 8 8 15.6112 7.99999 25C7.99999 34.3888 15.6111 42 25 42C34.3888 42 42 34.3888 42 25C42 15.6112 34.3888 8.00001 25 8.00001Z" fill="url(#paint0_linear_298_38440)"/>
<path fill-rule="evenodd" clip-rule="evenodd" d="M25 39C32.732 39 39 32.732 39 25C39 17.268 32.732 11 25 11C17.268 11 11 17.268 11 25C11 32.732 17.268 39 25 39ZM25 16C20.0294 16 16 20.0294 16 25C16 29.9706 20.0294 34 25 34C29.9706 34 34 29.9706 34 25C34 20.0294 29.9706 16 25 16Z" fill="url(#paint1_linear_298_38440)"/>
<path fill-rule="evenodd" clip-rule="evenodd" d="M25 47C37.1503 47 47 37.1503 47 25C47 12.8497 37.1503 3 25 3C12.8497 3 3 12.8497 3 25C3 37.1503 12.8497 47 25 47ZM25 50C38.8071 50 50 38.8071 50 25C50 11.1929 38.8071 0 25 0C11.1929 0 0 11.1929 0 25C0 38.8071 11.1929 50 25 50Z" fill="white" fill-opacity="0.4"/>
<path d="M16.3064 27.3294C15.0199 22.5282 17.8692 17.5931 22.6704 16.3067C27.4716 15.0202 32.4066 17.8694 33.6931 22.6706C34.9796 27.4718 32.1303 32.4068 27.3291 33.6933C22.5279 34.9798 17.5929 32.1306 16.3064 27.3294Z" fill="url(#paint2_linear_298_38440)"/>
<path fill-rule="evenodd" clip-rule="evenodd" d="M26.5532 30.7956C29.754 29.9379 31.6534 26.6479 30.7958 23.4471C29.9381 20.2463 26.6481 18.3468 23.4473 19.2045C20.2465 20.0621 18.347 23.3521 19.2047 26.5529C20.0623 29.7537 23.3524 31.6532 26.5532 30.7956ZM27.3296 33.6933C32.1308 32.4069 34.9801 27.4718 33.6936 22.6706C32.4071 17.8694 27.4721 15.0202 22.6709 16.3067C17.8697 17.5932 15.0204 22.5282 16.3069 27.3294C17.5934 32.1306 22.5284 34.9798 27.3296 33.6933Z" fill="white" fill-opacity="0.4"/>
<path fill-rule="evenodd" clip-rule="evenodd" d="M25 11C17.268 11 11 17.268 11 25C11 32.732 17.268 39 25 39C32.732 39 39 32.732 39 25C39 17.268 32.732 11 25 11ZM25 8C15.6112 8 8 15.6112 8 25C8 34.3888 15.6112 42 25 42C34.3888 42 42 34.3888 42 25C42 15.6112 34.3888 8 25 8Z" fill="white" fill-opacity="0.4"/>
<path d="M25 25L40 10" stroke="#D9D9D9" stroke-width="3" stroke-linecap="round" stroke-linejoin="round"/>
<defs>
<linearGradient id="paint0_linear_298_38440" x1="25" y1="2" x2="25" y2="48" gradientUnits="userSpaceOnUse">
<stop stop-color="#D9D9D9"/>
<stop offset="0.770833" stop-color="#D9D9D9" stop-opacity="0"/>
</linearGradient>
<linearGradient id="paint1_linear_298_38440" x1="25" y1="11" x2="25" y2="39" gradientUnits="userSpaceOnUse">
<stop stop-color="#D9D9D9"/>
<stop offset="0.770833" stop-color="#D9D9D9" stop-opacity="0"/>
</linearGradient>
<linearGradient id="paint2_linear_298_38440" x1="27.3291" y1="33.6933" x2="22.6704" y2="16.3067" gradientUnits="userSpaceOnUse">
<stop stop-color="#D9D9D9"/>
<stop offset="0.770833" stop-color="#D9D9D9" stop-opacity="0"/>
</linearGradient>
</defs>
</svg>
