<svg width="48" height="48" viewBox="0 0 48 48" fill="none" xmlns="http://www.w3.org/2000/svg">
<ellipse cx="23.803" cy="24" rx="23.803" ry="24" fill="url(#paint0_linear_272_88420)"/>
<rect x="27.5303" y="20.2417" width="6.72195" height="6.7776" fill="white"/>
<rect x="27.5303" y="20.2417" width="6.72195" height="6.7776" fill="url(#paint1_angular_272_88420)"/>
<path d="M20.8085 29.5585C20.8104 30.5883 20.1964 31.5177 19.2531 31.9127C18.3099 32.3077 17.2235 32.0904 16.5013 31.3622C15.7791 30.634 15.5635 29.5386 15.9552 28.5875C16.347 27.6365 17.2688 27.0174 18.2901 27.0193H20.8085V20.2417H18.2901C14.55 20.2398 11.1771 22.5102 9.74496 25.9939C8.31278 29.4775 9.10344 33.4881 11.7481 36.1547C14.3928 38.8212 18.3704 39.6185 21.8255 38.1744C25.2806 36.7304 27.5324 33.3296 27.5304 29.5585V27.0193H20.8085V29.5585Z" fill="white"/>
<path d="M20.8085 29.5585C20.8104 30.5883 20.1964 31.5177 19.2531 31.9127C18.3099 32.3077 17.2235 32.0904 16.5013 31.3622C15.7791 30.634 15.5635 29.5386 15.9552 28.5875C16.347 27.6365 17.2688 27.0174 18.2901 27.0193H20.8085V20.2417H18.2901C14.55 20.2398 11.1771 22.5102 9.74496 25.9939C8.31278 29.4775 9.10344 33.4881 11.7481 36.1547C14.3928 38.8212 18.3704 39.6185 21.8255 38.1744C25.2806 36.7304 27.5324 33.3296 27.5304 29.5585V27.0193H20.8085V29.5585Z" fill="url(#paint2_angular_272_88420)"/>
<path d="M30.0489 16.8529H37.6087V10.0801H30.0489C24.9478 10.0854 20.8138 14.2535 20.8086 19.3969V20.2417H27.5305V19.3969C27.5332 17.9948 28.6584 16.8582 30.0489 16.8529Z" fill="white"/>
<path d="M30.0489 16.8529H37.6087V10.0801H30.0489C24.9478 10.0854 20.8138 14.2535 20.8086 19.3969V20.2417H27.5305V19.3969C27.5332 17.9948 28.6584 16.8582 30.0489 16.8529Z" fill="url(#paint3_angular_272_88420)"/>
<defs>
<linearGradient id="paint0_linear_272_88420" x1="-4" y1="-3" x2="14.8807" y2="55.66" gradientUnits="userSpaceOnUse">
<stop stop-color="white" stop-opacity="0.4"/>
<stop offset="1" stop-color="white" stop-opacity="0"/>
</linearGradient>
<radialGradient id="paint1_angular_272_88420" cx="0" cy="0" r="1" gradientUnits="userSpaceOnUse" gradientTransform="translate(30.8912 23.6305) rotate(-134.764) scale(2.98303 2.98293)">
<stop stop-color="white" stop-opacity="0.9"/>
<stop offset="1" stop-color="white" stop-opacity="0"/>
</radialGradient>
<radialGradient id="paint2_angular_272_88420" cx="0" cy="0" r="1" gradientUnits="userSpaceOnUse" gradientTransform="translate(18.2852 29.5634) rotate(-134.764) scale(8.20557 8.2053)">
<stop stop-color="white" stop-opacity="0.9"/>
<stop offset="1" stop-color="white" stop-opacity="0"/>
</radialGradient>
<radialGradient id="paint3_angular_272_88420" cx="0" cy="0" r="1" gradientUnits="userSpaceOnUse" gradientTransform="translate(29.2087 15.1609) rotate(-148.832) scale(6.13569 5.43427)">
<stop stop-color="white" stop-opacity="0.9"/>
<stop offset="1" stop-color="white" stop-opacity="0"/>
</radialGradient>
</defs>
</svg>
