<svg width="203" height="111" viewBox="0 0 203 111" fill="none" xmlns="http://www.w3.org/2000/svg">
<path d="M0.5 107.22C41.5 92 75.0714 115.439 97.2005 107.22C119.33 99.0003 34.6067 76.239 64.323 68.6518C100.053 59.529 163.588 70.5487 181.291 61.6971C206.44 49.1227 129.446 46.5228 142.723 38.9357C156.001 31.3485 177.498 37.0389 190.143 28.1873" stroke="black" stroke-width="2" stroke-dasharray="3.79 5.06"/>
<circle cx="195.2" cy="26.2904" r="4.42582" fill="#685DE7" stroke="#00EF8B" stroke-width="1.26452"/>
<circle cx="57.3728" cy="73.0779" r="3.1613" fill="#685DE7" stroke="#00EF8B" stroke-width="1.26452"/>
<path d="M188.875 1L191.787 11.7484L201.52 3.52904L188.875 1Z" fill="#0A0A0A"/>
<path d="M194.623 22.4969L191.787 11.7484M191.787 11.7484L188.875 1L201.52 3.52904L191.787 11.7484Z" stroke="black" stroke-width="1.26452" stroke-linecap="round" stroke-linejoin="round"/>
<circle cx="100.365" cy="100.897" r="3.1613" fill="#685DE7" stroke="#00EF8B" stroke-width="1.26452"/>
<circle cx="142.092" cy="38.9355" r="3.1613" fill="#685DE7" stroke="#00EF8B" stroke-width="1.26452"/>
<circle cx="182.56" cy="61.697" r="3.1613" fill="#685DE7" stroke="#00EF8B" stroke-width="1.26452"/>
</svg>
