<svg width="46" height="46" viewBox="0 0 46 46" fill="none" xmlns="http://www.w3.org/2000/svg">
<path d="M13.4168 14.375C18.7096 14.375 23.0002 12.2297 23.0002 9.58329C23.0002 6.93693 18.7096 4.79163 13.4168 4.79163C8.1241 4.79163 3.8335 6.93693 3.8335 9.58329C3.8335 12.2297 8.1241 14.375 13.4168 14.375Z" stroke="currentColor" stroke-width="2" stroke-linecap="round" stroke-linejoin="round"/>
<path d="M3.8335 9.58325C3.8335 9.58325 3.8335 13.6452 3.8335 16.2916C3.8335 18.9379 8.1241 21.0833 13.4168 21.0833C18.7095 21.0833 23.0002 18.9379 23.0002 16.2916C23.0002 14.7241 23.0002 9.58325 23.0002 9.58325" stroke="currentColor" stroke-width="2" stroke-linecap="round" stroke-linejoin="round"/>
<path d="M3.8335 16.2916C3.8335 16.2916 3.8335 20.3536 3.8335 23C3.8335 25.6463 8.1241 27.7916 13.4168 27.7916C18.7095 27.7916 23.0002 25.6463 23.0002 23C23.0002 21.4325 23.0002 16.2916 23.0002 16.2916" stroke="currentColor" stroke-width="2" stroke-linecap="round" stroke-linejoin="round"/>
<path d="M3.8335 23C3.8335 23 3.8335 27.062 3.8335 29.7083C3.8335 32.3547 8.1241 34.5 13.4168 34.5C18.7095 34.5 23.0002 32.3547 23.0002 29.7083C23.0002 28.1409 23.0002 23 23.0002 23" stroke="currentColor" stroke-width="2" stroke-linecap="round" stroke-linejoin="round"/>
<path d="M3.8335 29.7083C3.8335 29.7083 3.8335 33.7702 3.8335 36.4166C3.8335 39.0629 8.1241 41.2082 13.4168 41.2082C18.7095 41.2082 23.0002 39.0629 23.0002 36.4166C23.0002 34.8491 23.0002 29.7083 23.0002 29.7083" stroke="currentColor" stroke-width="2" stroke-linecap="round" stroke-linejoin="round"/>
<path d="M32.5833 27.7916C37.8761 27.7916 42.1667 25.6463 42.1667 22.9999C42.1667 20.3536 37.8761 18.2083 32.5833 18.2083C27.2906 18.2083 23 20.3536 23 22.9999C23 25.6463 27.2906 27.7916 32.5833 27.7916Z" stroke="currentColor" stroke-width="2" stroke-linecap="round" stroke-linejoin="round"/>
<path d="M23 23C23 23 23 27.062 23 29.7083C23 32.3547 27.2907 34.5 32.5833 34.5C37.876 34.5 42.1667 32.3547 42.1667 29.7083C42.1667 28.1409 42.1667 23 42.1667 23" stroke="currentColor" stroke-width="2" stroke-linecap="round" stroke-linejoin="round"/>
<path d="M23 29.7083C23 29.7083 23 33.7702 23 36.4166C23 39.0629 27.2907 41.2082 32.5833 41.2082C37.876 41.2082 42.1667 39.0629 42.1667 36.4166C42.1667 34.8491 42.1667 29.7083 42.1667 29.7083" stroke="currentColor" stroke-width="2" stroke-linecap="round" stroke-linejoin="round"/>
</svg>
