<svg width="46" height="46" viewBox="0 0 46 46" fill="none" xmlns="http://www.w3.org/2000/svg">
<path d="M25.1659 42.5309L22.0417 35.19C25.0509 34.0784 27.8684 32.5834 30.4751 30.8392L25.1659 42.5309ZM10.8101 23.9584L3.46924 20.8342L15.1609 15.525C13.4167 18.1317 11.9217 20.9492 10.8101 23.9584ZM36.8384 7.66671C37.3751 7.66671 37.8542 7.66671 38.2567 7.76254C38.5826 10.4267 38.2184 15.9084 31.9317 22.195C28.6734 25.4725 24.7826 27.9834 20.4126 29.6509L16.2917 25.6259C18.0551 21.1984 20.5659 17.3075 23.8051 14.0684C29.0951 8.77837 33.8101 7.66671 36.8384 7.66671ZM36.8384 3.83337C33.0434 3.83337 27.2934 5.15587 21.0834 11.3659C16.8859 15.5634 14.3751 20.1825 12.7459 24.2267C12.2092 25.6642 12.5734 27.2359 13.6276 28.3092L17.7101 32.3725C18.4384 33.1009 19.4159 33.5417 20.4317 33.5417C20.8726 33.5417 21.3326 33.4267 21.7734 33.2542C26.6006 31.4136 30.9836 28.5722 34.6342 24.9167C45.4826 14.0684 41.4192 4.58087 41.4192 4.58087C41.4192 4.58087 39.6751 3.83337 36.8384 3.83337ZM27.8684 18.1317C26.3734 16.6367 26.3734 14.2025 27.8684 12.7075C29.3634 11.2125 31.7976 11.2125 33.2926 12.7075C34.7684 14.2025 34.7876 16.6367 33.2926 18.1317C31.7976 19.6267 29.3634 19.6267 27.8684 18.1317ZM17.0201 31.6825L14.3176 28.98L17.0201 31.6825ZM11.9601 42.1667L18.9367 35.19C18.2851 35.0175 17.6526 34.73 17.0776 34.3275L9.25757 42.1667H11.9601ZM3.83341 42.1667H6.53591L15.6784 33.0434L12.9567 30.3409L3.83341 39.4642V42.1667ZM3.83341 36.7425L11.6726 28.9225C11.2701 28.3475 10.9826 27.7342 10.8101 27.0634L3.83341 34.04V36.7425Z" fill="currentColor"/>
</svg>
