<svg width="46" height="46" viewBox="0 0 46 46" fill="none" xmlns="http://www.w3.org/2000/svg">
<path d="M15.3335 38.3334C15.3335 39.35 14.9296 40.3251 14.2107 41.044C13.4919 41.7628 12.5168 42.1667 11.5002 42.1667H7.66683C6.65017 42.1667 5.67514 41.7628 4.95625 41.044C4.23736 40.3251 3.8335 39.35 3.8335 38.3334V34.5C3.8335 33.4834 4.23736 32.5084 4.95625 31.7895C5.67514 31.0706 6.65017 30.6667 7.66683 30.6667V15.3334C6.65017 15.3334 5.67514 14.9295 4.95625 14.2106C4.23736 13.4917 3.8335 12.5167 3.8335 11.5V7.66671C3.8335 6.65004 4.23736 5.67502 4.95625 4.95613C5.67514 4.23724 6.65017 3.83337 7.66683 3.83337H11.5002C12.5168 3.83337 13.4919 4.23724 14.2107 4.95613C14.9296 5.67502 15.3335 6.65004 15.3335 7.66671H30.6668C30.6668 6.65004 31.0707 5.67502 31.7896 4.95613C32.5085 4.23724 33.4835 3.83337 34.5002 3.83337H38.3335C39.3502 3.83337 40.3252 4.23724 41.0441 4.95613C41.763 5.67502 42.1668 6.65004 42.1668 7.66671V11.5C42.1668 12.5167 41.763 13.4917 41.0441 14.2106C40.3252 14.9295 39.3502 15.3334 38.3335 15.3334V30.6667C39.3502 30.6667 40.3252 31.0706 41.0441 31.7895C41.763 32.5084 42.1668 33.4834 42.1668 34.5V38.3334C42.1668 39.35 41.763 40.3251 41.0441 41.044C40.3252 41.7628 39.3502 42.1667 38.3335 42.1667H34.5002C33.4835 42.1667 32.5085 41.7628 31.7896 41.044C31.0707 40.3251 30.6668 39.35 30.6668 38.3334H15.3335ZM15.3335 11.5C15.3335 12.5167 14.9296 13.4917 14.2107 14.2106C13.4919 14.9295 12.5168 15.3334 11.5002 15.3334V30.6667C12.5168 30.6667 13.4919 31.0706 14.2107 31.7895C14.9296 32.5084 15.3335 33.4834 15.3335 34.5H30.6668C30.6668 33.4834 31.0707 32.5084 31.7896 31.7895C32.5085 31.0706 33.4835 30.6667 34.5002 30.6667V15.3334C33.4835 15.3334 32.5085 14.9295 31.7896 14.2106C31.0707 13.4917 30.6668 12.5167 30.6668 11.5H15.3335ZM7.66683 7.66671V11.5H11.5002V7.66671H7.66683ZM34.5002 7.66671V11.5H38.3335V7.66671H34.5002ZM34.5002 34.5V38.3334H38.3335V34.5H34.5002ZM7.66683 34.5V38.3334H11.5002V34.5H7.66683Z" fill="currentColor"/>
</svg>
